<?xml version="1.0" encoding="UTF-8"?>
<!DOCTYPE svg PUBLIC "-//W3C//DTD SVG 1.1//EN" "http://www.w3.org/Graphics/SVG/1.1/DTD/svg11.dtd">
<svg xmlns="http://www.w3.org/2000/svg" version="1.1" width="200px" height="200px" style="shape-rendering:geometricPrecision; text-rendering:geometricPrecision; image-rendering:optimizeQuality; fill-rule:evenodd; clip-rule:evenodd" xmlns:xlink="http://www.w3.org/1999/xlink">
<g><path style="opacity:1" fill="#e5eded" d="M -0.5,-0.5 C 36.8333,-0.5 74.1667,-0.5 111.5,-0.5C 111.5,2.16667 111.5,4.83333 111.5,7.5C 108.833,7.5 106.167,7.5 103.5,7.5C 103.5,6.5 103.5,5.5 103.5,4.5C 100.289,4.98798 97.456,4.32131 95,2.5C 91.078,4.31238 86.9113,4.97905 82.5,4.5C 82.5,8.83333 82.5,13.1667 82.5,17.5C 78.8396,19.1604 76.1729,21.8271 74.5,25.5C 73.596,26.209 73.2627,27.209 73.5,28.5C 72.537,29.3635 72.537,30.0302 73.5,30.5C 76.4509,29.6426 79.4509,29.6426 82.5,30.5C 82.4125,33.5983 82.9125,33.9316 84,31.5C 84.6667,35.5 85.3333,35.5 86,31.5C 86.3176,33.0609 87.1509,34.2276 88.5,35C 85.8333,36 85.8333,37 88.5,38C 85.978,39.6859 86.3113,41.0192 89.5,42C 88.8875,44.1474 88.2208,46.314 87.5,48.5C 86.5832,47.8728 85.5832,47.5394 84.5,47.5C 84.0269,46.0937 83.0269,45.427 81.5,45.5C 77.8857,42.6872 74.5524,43.0205 71.5,46.5C 70.2652,46.2786 69.2652,45.6119 68.5,44.5C 65.8333,45.5 65.8333,46.5 68.5,47.5C 66.9617,49.2433 65.9617,51.2433 65.5,53.5C 64.8826,53.6107 64.3826,53.944 64,54.5C 62.6866,58.4204 61.6866,62.4204 61,66.5C 59.4878,67.2567 58.1545,68.2567 57,69.5C 56.8184,72.2263 56.3184,74.8929 55.5,77.5C 50.8129,78.7366 49.8129,81.07 52.5,84.5C 54.7155,87.6914 56.3821,91.1914 57.5,95C 55.9092,97.4134 55.0759,99.9134 55,102.5C 53.3057,103.699 51.8057,105.032 50.5,106.5C 49.8333,105.833 49.1667,105.167 48.5,104.5C 48.6107,103.883 48.944,103.383 49.5,103C 46.1766,101.583 44.5099,99.4158 44.5,96.5C 42.7988,96.1896 41.1322,96.6896 39.5,98C 40.6537,98.9138 40.487,99.7471 39,100.5C 37.9326,99.8095 36.7659,99.3095 35.5,99C 36.5,98.6667 37.5,98.3333 38.5,98C 38.1667,97.6667 37.8333,97.3333 37.5,97C 38.9675,95.9025 39.8008,94.4025 40,92.5C 40.4828,93.448 40.6495,94.448 40.5,95.5C 41.8333,95.5 43.1667,95.5 44.5,95.5C 44.6399,93.8762 43.9733,92.7096 42.5,92C 44.1066,90.951 44.7733,89.451 44.5,87.5C 46.3904,87.7035 47.8904,87.0368 49,85.5C 49.7891,83.2884 49.6225,81.2884 48.5,79.5C 48.5852,78.0047 47.9185,77.0047 46.5,76.5C 43.3336,80.0765 39.3336,81.4098 34.5,80.5C 33.8106,77.8106 32.144,76.1439 29.5,75.5C 29.6107,74.8826 29.944,74.3826 30.5,74C 33.146,73.5026 35.8127,73.3359 38.5,73.5C 39.675,73.719 40.675,73.3857 41.5,72.5C 40.1886,71.7425 39.6886,70.7425 40,69.5C 41.6667,69.8333 43.3333,70.1667 45,70.5C 45.4828,69.552 45.6495,68.552 45.5,67.5C 46.6005,66.3951 47.2671,65.0618 47.5,63.5C 48.2341,62.2921 48.5674,60.9587 48.5,59.5C 50.1992,59.6602 51.8659,59.4935 53.5,59C 51.7756,56.7156 50.1089,54.3823 48.5,52C 50.1193,51.7645 51.1193,50.9311 51.5,49.5C 53.1086,48.2291 54.9419,47.2291 57,46.5C 57.2163,44.6161 57.883,42.9494 59,41.5C 58.5157,38.9214 57.8491,36.2548 57,33.5C 54.2935,32.5633 51.7935,31.2299 49.5,29.5C 47.5128,31.3274 45.1795,32.3274 42.5,32.5C 42.4935,35.5176 41.4935,38.1843 39.5,40.5C 41.1627,44.4905 43.8294,47.4905 47.5,49.5C 47.6567,50.8734 47.49,52.2068 47,53.5C 42.8729,51.855 39.0395,49.855 35.5,47.5C 35.1667,42.1667 34.8333,42.1667 34.5,47.5C 33.5,47.5 32.5,47.5 31.5,47.5C 31.3068,43.551 30.8068,43.551 30,47.5C 29.1072,46.2888 28.2739,46.2888 27.5,47.5C 26.8841,51.8534 24.8841,55.3534 21.5,58C 22.2123,59.425 22.379,60.925 22,62.5C 23.8345,59.0806 25.8345,55.7472 28,52.5C 29.6665,53.3402 29.8331,52.8402 28.5,51C 29.4491,50.3828 30.2825,50.5494 31,51.5C 32.1133,49.6707 33.6133,48.8374 35.5,49C 34.7877,50.425 34.621,51.925 35,53.5C 33.2663,54.2489 31.433,54.7489 29.5,55C 30.5,55.8333 31.5,56.6667 32.5,57.5C 31.3595,58.4255 31.3595,59.2588 32.5,60C 31.5,60.6667 30.5,60.6667 29.5,60C 30.4506,59.2825 30.6172,58.4491 30,57.5C 28.4173,59.055 26.584,60.2217 24.5,61C 25.3331,63.0811 25.3331,65.2478 24.5,67.5C 19.2563,64.5363 14.2563,64.8696 9.5,68.5C 9.66667,68.8333 9.83333,69.1667 10,69.5C 12.2276,67.8866 14.7276,67.22 17.5,67.5C 17.1667,68.1667 16.8333,68.8333 16.5,69.5C 11.6955,69.8894 8.36216,72.2228 6.5,76.5C 5.88258,76.6107 5.38258,76.944 5,77.5C 4.50258,80.146 4.33591,82.8127 4.5,85.5C 3.69808,84.0484 3.19808,82.3817 3,80.5C 2.50454,82.4727 2.33788,84.4727 2.5,86.5C 1.22426,83.9697 1.22426,81.3031 2.5,78.5C 2.15431,77.3044 1.65431,77.3044 1,78.5C 0.393311,82.5369 0.559978,86.5369 1.5,90.5C 1.57735,91.7498 2.24402,92.5831 3.5,93C 2.70694,96.4106 2.20694,99.9106 2,103.5C 1.32924,104.252 0.495904,104.586 -0.5,104.5C -0.5,69.5 -0.5,34.5 -0.5,-0.5 Z"/></g>
<g><path style="opacity:1" fill="#e2ebec" d="M 111.5,-0.5 C 127.5,-0.5 143.5,-0.5 159.5,-0.5C 158.908,5.63091 159.575,11.4642 161.5,17C 159.299,17.7768 159.299,18.9435 161.5,20.5C 164.308,19.2907 166.975,17.9574 169.5,16.5C 171.396,15.5344 173.396,15.2011 175.5,15.5C 175.953,18.6521 174.953,21.1521 172.5,23C 174.68,25.4177 175.013,28.0844 173.5,31C 175.192,32.4007 175.859,34.2341 175.5,36.5C 174.5,36.5 173.5,36.5 172.5,36.5C 172.785,34.712 172.452,33.0453 171.5,31.5C 170.378,32.6302 169.044,33.2969 167.5,33.5C 168.66,31.7973 167.993,31.1307 165.5,31.5C 165.227,29.549 165.893,28.049 167.5,27C 165.753,26.6481 164.086,26.1481 162.5,25.5C 165.495,20.4519 164.995,19.7853 161,23.5C 159.989,22.6634 158.822,22.33 157.5,22.5C 157.649,21.448 157.483,20.448 157,19.5C 154.865,22.4557 152.532,22.789 150,20.5C 150.811,22.7912 149.977,24.6246 147.5,26C 146.262,25.9227 145.262,26.0894 144.5,26.5C 146.982,29.7028 145.982,31.5361 141.5,32C 142.448,32.4828 143.448,32.6495 144.5,32.5C 144.615,36.4785 145.115,40.1452 146,43.5C 146.893,42.9186 147.893,42.5852 149,42.5C 154.757,45.3942 160.257,44.8942 165.5,41C 166.085,39.6976 166.751,38.531 167.5,37.5C 168.383,40.6078 170.216,42.9411 173,44.5C 173.483,45.448 173.649,46.448 173.5,47.5C 174.5,47.5 175.5,47.5 176.5,47.5C 176.238,46.0222 176.571,44.6888 177.5,43.5C 178.668,47.2209 179.835,50.8875 181,54.5C 183.333,51.8333 185.667,51.8333 188,54.5C 188.333,54.1667 188.667,53.8333 189,53.5C 188.651,56.0619 187.817,58.5619 186.5,61C 187.617,62.8921 189.284,63.7254 191.5,63.5C 191.5,65.1667 191.5,66.8333 191.5,68.5C 190.178,68.33 189.011,68.6634 188,69.5C 187.502,72.8168 187.335,76.1501 187.5,79.5C 188.833,79.5 190.167,79.5 191.5,79.5C 191.398,84.8779 191.398,90.0446 191.5,95C 190.833,95.3333 190.167,95.6667 189.5,96C 190.768,98.1632 190.768,100.33 189.5,102.5C 186.916,101.952 185.916,100.285 186.5,97.5C 183.313,97.9532 181.979,96.2865 182.5,92.5C 181.167,92.5 179.833,92.5 178.5,92.5C 177.833,87.1667 177.167,87.1667 176.5,92.5C 174.173,92.2471 172.173,92.9137 170.5,94.5C 169.289,95.2739 169.289,96.1072 170.5,97C 168.699,97.3173 168.366,97.984 169.5,99C 168.667,100.5 167.5,101.667 166,102.5C 166.079,104.773 166.246,106.773 166.5,108.5C 168.645,107.318 168.645,105.818 166.5,104C 168.598,103.322 170.598,103.489 172.5,104.5C 172.5,105.167 172.5,105.833 172.5,106.5C 171.637,105.537 170.97,105.537 170.5,106.5C 171.313,107.814 172.313,108.981 173.5,110C 172.833,110.333 172.167,110.667 171.5,111C 173.061,111.318 174.228,112.151 175,113.5C 176.036,111.701 176.203,110.034 175.5,108.5C 182.526,108.472 184.86,105.138 182.5,98.5C 183.458,98.9528 184.292,99.6195 185,100.5C 184.559,103.866 184.726,107.2 185.5,110.5C 184.286,112.069 182.619,112.902 180.5,113C 179.299,113.903 178.465,115.069 178,116.5C 177.282,115.549 176.449,115.383 175.5,116C 176.905,117.269 178.571,117.769 180.5,117.5C 180.354,115.058 181.187,114.391 183,115.5C 183.417,114.244 184.25,113.577 185.5,113.5C 186.449,114.923 187.449,116.423 188.5,118C 188.333,118.5 188.167,119 188,119.5C 184.863,120.161 182.03,121.495 179.5,123.5C 182.443,126.18 182.11,126.847 178.5,125.5C 177.417,126.365 177.251,127.365 178,128.5C 180.139,127.231 182.305,127.231 184.5,128.5C 182.013,128.751 179.68,129.251 177.5,130C 179.167,130.333 180.833,130.667 182.5,131C 178.341,131.39 177.841,132.556 181,134.5C 181.49,135.793 181.657,137.127 181.5,138.5C 180.842,137.602 180.176,136.602 179.5,135.5C 177.167,136.833 174.833,136.833 172.5,135.5C 170.774,138.227 168.441,140.227 165.5,141.5C 166.167,142.5 166.833,143.5 167.5,144.5C 166.807,145.518 166.141,146.518 165.5,147.5C 162.194,145.891 159.361,146.558 157,149.5C 156.667,148.833 156.333,148.167 156,147.5C 155.333,148.833 154.667,148.833 154,147.5C 153.722,148.416 153.222,149.082 152.5,149.5C 152.384,145.437 151.051,144.77 148.5,147.5C 146.493,148.679 146.16,148.179 147.5,146C 145.687,146.046 144.021,145.88 142.5,145.5C 141.605,147.246 140.938,149.08 140.5,151C 140.875,153.92 141.208,156.753 141.5,159.5C 140.5,158.833 139.5,158.167 138.5,157.5C 138.738,159.404 139.738,160.738 141.5,161.5C 141.833,162.167 142.167,162.833 142.5,163.5C 136.02,162.509 133.02,158.676 133.5,152C 131.855,150.968 131.522,149.801 132.5,148.5C 131.833,147.833 131.167,147.167 130.5,146.5C 130.846,145.304 131.346,145.304 132,146.5C 132.464,145.906 132.631,145.239 132.5,144.5C 138.206,144.829 143.872,144.495 149.5,143.5C 145.217,142.508 140.884,142.174 136.5,142.5C 135.208,136.099 136.875,130.766 141.5,126.5C 148.557,125.206 155.557,125.206 162.5,126.5C 162.735,127.097 163.235,127.43 164,127.5C 170.959,125.991 171.126,124.324 164.5,122.5C 163.584,122.543 162.917,122.876 162.5,123.5C 156.222,124.79 149.888,124.79 143.5,123.5C 147.892,115.371 149.558,106.705 148.5,97.5C 151.29,97.2224 153.79,97.8891 156,99.5C 159.333,97.8333 159.333,96.1667 156,94.5C 153.744,96.0855 151.244,96.7521 148.5,96.5C 148.605,92.4517 148.272,88.4517 147.5,84.5C 150.807,84.0632 153.807,84.7298 156.5,86.5C 159.167,84.8333 159.167,83.1667 156.5,81.5C 153.465,83.301 150.131,83.9677 146.5,83.5C 146.598,81.4471 145.931,79.7804 144.5,78.5C 144.286,80.1439 144.62,81.6439 145.5,83C 144.552,83.4828 143.552,83.6495 142.5,83.5C 141.404,78.6421 139.238,74.3088 136,70.5C 137.482,74.4761 139.315,78.4761 141.5,82.5C 140.575,83.5624 139.575,83.5624 138.5,82.5C 137.126,80.1417 135.793,77.8083 134.5,75.5C 132.572,73.0912 130.905,70.5912 129.5,68C 129.585,66.8926 129.919,65.8926 130.5,65C 129.681,56.2447 129.181,47.4113 129,38.5C 126.943,37.0216 125.61,35.0216 125,32.5C 124.329,31.7476 123.496,31.4142 122.5,31.5C 120.299,27.7602 118.299,27.7602 116.5,31.5C 114.5,31.5 113.5,32.5 113.5,34.5C 111.87,36.0261 111.037,38.0261 111,40.5C 110.5,47.1583 110.334,53.825 110.5,60.5C 108.143,60.6633 105.81,60.4966 103.5,60C 102.167,59.3333 102.167,58.6667 103.5,58C 111.473,57.1737 111.473,56.6737 103.5,56.5C 103.5,52.8333 103.5,49.1667 103.5,45.5C 104.94,43.5801 104.607,41.9134 102.5,40.5C 100.393,41.9134 100.06,43.5801 101.5,45.5C 101.5,49.1667 101.5,52.8333 101.5,56.5C 98.4465,57.3211 95.4465,57.3211 92.5,56.5C 91.2822,55.1973 91.6155,54.1973 93.5,53.5C 92.7261,52.2888 91.8928,52.2888 91,53.5C 90,52.5 89,51.5 88,50.5C 88.7682,52.8436 89.9349,55.1769 91.5,57.5C 86.8309,60.9696 83.9976,59.9696 83,54.5C 81.8525,55.4581 80.8525,55.1247 80,53.5C 80.7682,55.8436 81.9349,58.1769 83.5,60.5C 82.7573,61.1818 82.0906,61.8485 81.5,62.5C 79.326,62.7497 77.6594,63.7497 76.5,65.5C 72.8333,67.1667 70.1667,69.8333 68.5,73.5C 66.7497,74.6594 65.7497,76.326 65.5,78.5C 64.6091,79.2613 63.9424,80.2613 63.5,81.5C 60.8929,82.3184 58.2263,82.8184 55.5,83C 57.9005,83.1858 60.2338,83.6858 62.5,84.5C 61.5759,87.6983 60.5759,90.865 59.5,94C 59.528,95.0698 59.8614,95.9032 60.5,96.5C 60.7512,98.1703 61.4178,99.6703 62.5,101C 61.0142,103.475 59.6808,105.975 58.5,108.5C 55.2839,110.926 52.6172,110.259 50.5,106.5C 51.8057,105.032 53.3057,103.699 55,102.5C 55.0759,99.9134 55.9092,97.4134 57.5,95C 56.3821,91.1914 54.7155,87.6914 52.5,84.5C 53.1888,83.2928 53.3554,81.9594 53,80.5C 54.6667,79.5 56.3333,78.5 58,77.5C 57.8446,75.1893 57.8446,72.856 58,70.5C 61.3581,68.6437 64.1914,66.1437 66.5,63C 68.2072,62.8047 69.8739,62.8047 71.5,63C 68.8626,60.9263 66.3626,61.093 64,63.5C 63.5658,60.0317 64.0658,56.6984 65.5,53.5C 65.9617,51.2433 66.9617,49.2433 68.5,47.5C 65.8333,46.5 65.8333,45.5 68.5,44.5C 69.2652,45.6119 70.2652,46.2786 71.5,46.5C 74.7644,45.6758 78.0977,45.3424 81.5,45.5C 81.9731,46.9063 82.9731,47.573 84.5,47.5C 85.5832,47.5394 86.5832,47.8728 87.5,48.5C 88.2208,46.314 88.8875,44.1474 89.5,42C 86.3113,41.0192 85.978,39.6859 88.5,38C 85.8333,37 85.8333,36 88.5,35C 87.1509,34.2276 86.3176,33.0609 86,31.5C 85.3333,35.5 84.6667,35.5 84,31.5C 82.9125,33.9316 82.4125,33.5983 82.5,30.5C 79.4509,29.6426 76.4509,29.6426 73.5,30.5C 72.537,30.0302 72.537,29.3635 73.5,28.5C 79.5092,28.6662 85.5092,28.4995 91.5,28C 90.6266,26.955 89.6266,26.1217 88.5,25.5C 86.544,24.1988 84.8774,24.6988 83.5,27C 82,27.1667 80.5,27.3333 79,27.5C 77.0145,27.4313 75.5145,26.7647 74.5,25.5C 76.8652,23.1397 79.5319,21.1397 82.5,19.5C 85.5772,23.4615 88.7438,23.4615 92,19.5C 94.7868,20.8049 97.2868,22.4715 99.5,24.5C 97.9774,21.0627 95.3107,19.0627 91.5,18.5C 91.6641,15.8127 91.4974,13.146 91,10.5C 88.9251,8.35166 86.5918,8.01832 84,9.5C 83.8171,12.3647 83.3171,15.0314 82.5,17.5C 82.5,13.1667 82.5,8.83333 82.5,4.5C 86.9113,4.97905 91.078,4.31238 95,2.5C 97.456,4.32131 100.289,4.98798 103.5,4.5C 103.5,5.5 103.5,6.5 103.5,7.5C 106.167,7.5 108.833,7.5 111.5,7.5C 111.5,4.83333 111.5,2.16667 111.5,-0.5 Z"/></g>
<g><path style="opacity:1" fill="#e4edec" d="M 159.5,-0.5 C 172.833,-0.5 186.167,-0.5 199.5,-0.5C 199.5,66.1667 199.5,132.833 199.5,199.5C 178.167,199.5 156.833,199.5 135.5,199.5C 135.5,198.167 135.5,196.833 135.5,195.5C 143.517,195.499 151.517,195.166 159.5,194.5C 159.5,193.5 159.5,192.5 159.5,191.5C 164.833,191.5 170.167,191.5 175.5,191.5C 174.455,188.615 172.455,186.448 169.5,185C 166.08,179.232 161.246,175.399 155,173.5C 153.89,171.603 153.724,169.77 154.5,168C 153.167,167.333 151.833,166.667 150.5,166C 152.727,165.879 154.56,165.046 156,163.5C 156.718,164.451 157.551,164.617 158.5,164C 159.38,162.644 159.714,161.144 159.5,159.5C 154.797,158.717 150.963,160.05 148,163.5C 146.294,162.692 145.461,161.359 145.5,159.5C 144.167,159.5 142.833,159.5 141.5,159.5C 141.208,156.753 140.875,153.92 140.5,151C 140.938,149.08 141.605,147.246 142.5,145.5C 144.021,145.88 145.687,146.046 147.5,146C 146.16,148.179 146.493,148.679 148.5,147.5C 148.5,148.5 148.5,149.5 148.5,150.5C 150.099,150.768 151.432,150.434 152.5,149.5C 153.222,149.082 153.722,148.416 154,147.5C 154.667,148.833 155.333,148.833 156,147.5C 156.333,148.167 156.667,148.833 157,149.5C 159.361,146.558 162.194,145.891 165.5,147.5C 166.568,148.434 167.901,148.768 169.5,148.5C 168.865,152.462 170.198,153.795 173.5,152.5C 175.325,153.651 177.325,154.318 179.5,154.5C 179.238,153.022 179.571,151.689 180.5,150.5C 182.225,149.985 183.892,149.318 185.5,148.5C 182.986,146.201 182.986,143.868 185.5,141.5C 183.816,140.85 182.483,139.85 181.5,138.5C 181.657,137.127 181.49,135.793 181,134.5C 177.841,132.556 178.341,131.39 182.5,131C 180.833,130.667 179.167,130.333 177.5,130C 179.68,129.251 182.013,128.751 184.5,128.5C 182.305,127.231 180.139,127.231 178,128.5C 177.251,127.365 177.417,126.365 178.5,125.5C 182.11,126.847 182.443,126.18 179.5,123.5C 182.03,121.495 184.863,120.161 188,119.5C 188.167,119 188.333,118.5 188.5,118C 187.449,116.423 186.449,114.923 185.5,113.5C 186.819,111.532 186.819,109.532 185.5,107.5C 186.914,106.376 188.414,105.376 190,104.5C 190.692,103.563 190.525,102.897 189.5,102.5C 190.768,100.33 190.768,98.1632 189.5,96C 190.167,95.6667 190.833,95.3333 191.5,95C 191.398,90.0446 191.398,84.8779 191.5,79.5C 190.167,79.5 188.833,79.5 187.5,79.5C 187.335,76.1501 187.502,72.8168 188,69.5C 189.011,68.6634 190.178,68.33 191.5,68.5C 191.5,66.8333 191.5,65.1667 191.5,63.5C 189.284,63.7254 187.617,62.8921 186.5,61C 187.817,58.5619 188.651,56.0619 189,53.5C 188.667,53.8333 188.333,54.1667 188,54.5C 185.667,51.8333 183.333,51.8333 181,54.5C 179.835,50.8875 178.668,47.2209 177.5,43.5C 176.571,44.6888 176.238,46.0222 176.5,47.5C 175.5,47.5 174.5,47.5 173.5,47.5C 173.649,46.448 173.483,45.448 173,44.5C 170.216,42.9411 168.383,40.6078 167.5,37.5C 167.5,36.1667 167.5,34.8333 167.5,33.5C 169.044,33.2969 170.378,32.6302 171.5,31.5C 172.452,33.0453 172.785,34.712 172.5,36.5C 173.5,36.5 174.5,36.5 175.5,36.5C 175.859,34.2341 175.192,32.4007 173.5,31C 175.013,28.0844 174.68,25.4177 172.5,23C 174.953,21.1521 175.953,18.6521 175.5,15.5C 173.396,15.2011 171.396,15.5344 169.5,16.5C 166.975,17.9574 164.308,19.2907 161.5,20.5C 159.299,18.9435 159.299,17.7768 161.5,17C 159.575,11.4642 158.908,5.63091 159.5,-0.5 Z"/></g>
<g><path style="opacity:1" fill="#1e2a47" d="M 99.5,24.5 C 97.2868,22.4715 94.7868,20.8049 92,19.5C 88.7438,23.4615 85.5772,23.4615 82.5,19.5C 79.5319,21.1397 76.8652,23.1397 74.5,25.5C 76.1729,21.8271 78.8396,19.1604 82.5,17.5C 83.3171,15.0314 83.8171,12.3647 84,9.5C 86.5918,8.01832 88.9251,8.35166 91,10.5C 91.4974,13.146 91.6641,15.8127 91.5,18.5C 95.3107,19.0627 97.9774,21.0627 99.5,24.5 Z"/></g>
<g><path style="opacity:1" fill="#9bacc7" d="M 85.5,9.5 C 87.0481,9.82124 87.7148,10.8212 87.5,12.5C 84.7524,12.5983 84.0857,11.5983 85.5,9.5 Z"/></g>
<g><path style="opacity:1" fill="#e7eef1" d="M 162.5,25.5 C 163.265,28.0961 163.599,30.7628 163.5,33.5C 161.517,38.4918 157.85,40.3251 152.5,39C 146.303,34.3128 145.97,29.3128 151.5,24C 155.402,23.1122 159.069,23.6122 162.5,25.5 Z"/></g>
<g><path style="opacity:1" fill="#373e50" d="M 88.5,25.5 C 89.6266,26.1217 90.6266,26.955 91.5,28C 85.5092,28.4995 79.5092,28.6662 73.5,28.5C 73.2627,27.209 73.596,26.209 74.5,25.5C 75.5145,26.7647 77.0145,27.4313 79,27.5C 80.5,27.3333 82,27.1667 83.5,27C 84.8774,24.6988 86.544,24.1988 88.5,25.5 Z"/></g>
<g><path style="opacity:1" fill="#c6cee2" d="M 88.5,25.5 C 88.1575,27.2252 87.1575,27.7252 85.5,27C 86.2438,25.9614 87.2438,25.4614 88.5,25.5 Z"/></g>
<g><path style="opacity:1" fill="#393f47" d="M 99.5,24.5 C 101.104,25.287 101.771,26.6203 101.5,28.5C 98.4816,28.6646 95.4816,28.498 92.5,28C 94.8098,27.5034 97.1432,27.3367 99.5,27.5C 99.5,26.5 99.5,25.5 99.5,24.5 Z"/></g>
<g><path style="opacity:1" fill="#434957" d="M 122.5,31.5 C 120.5,31.5 118.5,31.5 116.5,31.5C 118.299,27.7602 120.299,27.7602 122.5,31.5 Z"/></g>
<g><path style="opacity:1" fill="#5e636a" d="M 154.5,28.5 C 158.991,29.1295 159.491,30.7962 156,33.5C 155.097,32.2986 153.931,31.4652 152.5,31C 153.381,30.2917 154.047,29.4584 154.5,28.5 Z"/></g>
<g><path style="opacity:1" fill="#8d939f" d="M 162.5,25.5 C 164.086,26.1481 165.753,26.6481 167.5,27C 165.893,28.049 165.227,29.549 165.5,31.5C 164.833,32.1667 164.167,32.8333 163.5,33.5C 163.599,30.7628 163.265,28.0961 162.5,25.5 Z"/></g>
<g><path style="opacity:1" fill="#ecf2f6" d="M 116.5,31.5 C 118.5,31.5 120.5,31.5 122.5,31.5C 124.312,33.4605 125.312,35.7939 125.5,38.5C 122.482,38.3354 119.482,38.502 116.5,39C 119.623,39.2065 122.623,39.8732 125.5,41C 121.668,46.7985 117.668,46.9652 113.5,41.5C 113.85,39.3742 113.85,37.0408 113.5,34.5C 114.833,33.8333 115.833,32.8333 116.5,31.5 Z"/></g>
<g><path style="opacity:1" fill="#354045" d="M 116.5,31.5 C 115.833,32.8333 114.833,33.8333 113.5,34.5C 113.5,32.5 114.5,31.5 116.5,31.5 Z"/></g>
<g><path style="opacity:1" fill="#444f65" d="M 162.5,25.5 C 159.069,23.6122 155.402,23.1122 151.5,24C 145.97,29.3128 146.303,34.3128 152.5,39C 157.85,40.3251 161.517,38.4918 163.5,33.5C 164.167,32.8333 164.833,32.1667 165.5,31.5C 167.993,31.1307 168.66,31.7973 167.5,33.5C 167.5,34.8333 167.5,36.1667 167.5,37.5C 166.751,38.531 166.085,39.6976 165.5,41C 160.257,44.8942 154.757,45.3942 149,42.5C 147.893,42.5852 146.893,42.9186 146,43.5C 145.115,40.1452 144.615,36.4785 144.5,32.5C 143.448,32.6495 142.448,32.4828 141.5,32C 145.982,31.5361 146.982,29.7028 144.5,26.5C 145.262,26.0894 146.262,25.9227 147.5,26C 149.977,24.6246 150.811,22.7912 150,20.5C 152.532,22.789 154.865,22.4557 157,19.5C 157.483,20.448 157.649,21.448 157.5,22.5C 158.822,22.33 159.989,22.6634 161,23.5C 164.995,19.7853 165.495,20.4519 162.5,25.5 Z"/></g>
<g><path style="opacity:1" fill="#636a70" d="M 81.5,45.5 C 78.0977,45.3424 74.7644,45.6758 71.5,46.5C 74.5524,43.0205 77.8857,42.6872 81.5,45.5 Z"/></g>
<g><path style="opacity:1" fill="#15243e" d="M 51.5,49.5 C 50.1667,50.8333 48.8333,50.8333 47.5,49.5C 43.8294,47.4905 41.1627,44.4905 39.5,40.5C 41.4935,38.1843 42.4935,35.5176 42.5,32.5C 45.1795,32.3274 47.5128,31.3274 49.5,29.5C 51.7935,31.2299 54.2935,32.5633 57,33.5C 57.8491,36.2548 58.5157,38.9214 59,41.5C 57.883,42.9494 57.2163,44.6161 57,46.5C 54.9419,47.2291 53.1086,48.2291 51.5,49.5 Z"/></g>
<g><path style="opacity:1" fill="#b8cbdd" d="M 46.5,35.5 C 54.5432,35.0028 56.2099,37.8361 51.5,44C 44.8906,44.2939 43.2239,41.4606 46.5,35.5 Z"/></g>
<g><path style="opacity:1" fill="#0e1f38" d="M 47.5,36.5 C 52.1585,36.0146 53.4919,37.848 51.5,42C 46.7282,42.8104 45.3948,40.9771 47.5,36.5 Z"/></g>
<g><path style="opacity:1" fill="#232c35" d="M 103.5,45.5 C 102.833,45.5 102.167,45.5 101.5,45.5C 100.06,43.5801 100.393,41.9134 102.5,40.5C 104.607,41.9134 104.94,43.5801 103.5,45.5 Z"/></g>
<g><path style="opacity:1" fill="#b7c1cc" d="M 101.5,42.5 C 103.337,42.6395 103.67,43.3061 102.5,44.5C 101.702,44.0431 101.369,43.3764 101.5,42.5 Z"/></g>
<g><path style="opacity:1" fill="#485054" d="M 81.5,45.5 C 83.0269,45.427 84.0269,46.0937 84.5,47.5C 82.9731,47.573 81.9731,46.9063 81.5,45.5 Z"/></g>
<g><path style="opacity:1" fill="#dde7eb" d="M 126.5,62.5 C 125.713,60.8958 124.38,60.2291 122.5,60.5C 119.619,58.32 116.286,57.32 112.5,57.5C 112.179,52.3054 112.513,47.3054 113.5,42.5C 113.343,43.8734 113.51,45.2068 114,46.5C 116.201,48.1791 118.034,50.1791 119.5,52.5C 120.966,50.1791 122.799,48.1791 125,46.5C 125.233,44.2199 126.066,42.2199 127.5,40.5C 127.833,44.1667 128.167,47.8333 128.5,51.5C 128.489,55.5652 127.822,59.2319 126.5,62.5 Z"/></g>
<g><path style="opacity:1" fill="#323d46" d="M 175.5,52.5 C 178.674,52.9522 179.007,53.9522 176.5,55.5C 174.481,54.8671 174.147,53.8671 175.5,52.5 Z"/></g>
<g><path style="opacity:1" fill="#1b2126" d="M 148.5,56.5 C 151.012,57.2162 151.012,58.2162 148.5,59.5C 147.438,58.5754 147.438,57.5754 148.5,56.5 Z"/></g>
<g><path style="opacity:1" fill="#5c6671" d="M 113.5,34.5 C 113.85,37.0408 113.85,39.3742 113.5,41.5C 113.5,41.8333 113.5,42.1667 113.5,42.5C 112.513,47.3054 112.179,52.3054 112.5,57.5C 116.286,57.32 119.619,58.32 122.5,60.5C 120.744,61.5521 120.077,63.2188 120.5,65.5C 118.901,65.7678 117.568,65.4345 116.5,64.5C 118.256,63.4479 118.923,61.7812 118.5,59.5C 116.738,59.6427 115.071,59.3094 113.5,58.5C 112.406,59.868 112.74,61.0347 114.5,62C 113.244,62.4169 112.577,63.2502 112.5,64.5C 110.833,64.5 109.167,64.5 107.5,64.5C 108.398,63.8423 109.398,63.1757 110.5,62.5C 107.914,61.52 105.247,61.1866 102.5,61.5C 102.527,63.1993 103.194,64.5326 104.5,65.5C 103.5,65.5 102.5,65.5 101.5,65.5C 101.5,64.1667 101.5,62.8333 101.5,61.5C 96.3183,61.4427 96.3183,60.776 101.5,59.5C 98.9135,58.52 96.2469,58.1866 93.5,58.5C 93.5,59.5 93.5,60.5 93.5,61.5C 94.552,61.3505 95.552,61.5172 96.5,62C 95.2625,62.2321 94.2625,62.7321 93.5,63.5C 89.1835,63.8277 85.1835,65.161 81.5,67.5C 80.3044,67.1543 80.3044,66.6543 81.5,66C 85.3333,64.4479 88.9999,62.6146 92.5,60.5C 92.1667,60.1667 91.8333,59.8333 91.5,59.5C 88.122,60.5908 84.7887,61.5908 81.5,62.5C 82.0906,61.8485 82.7573,61.1818 83.5,60.5C 81.9349,58.1769 80.7682,55.8436 80,53.5C 80.8525,55.1247 81.8525,55.4581 83,54.5C 83.9976,59.9696 86.8309,60.9696 91.5,57.5C 89.9349,55.1769 88.7682,52.8436 88,50.5C 89,51.5 90,52.5 91,53.5C 91.8928,52.2888 92.7261,52.2888 93.5,53.5C 91.6155,54.1973 91.2822,55.1973 92.5,56.5C 95.4465,57.3211 98.4465,57.3211 101.5,56.5C 101.5,52.8333 101.5,49.1667 101.5,45.5C 102.167,45.5 102.833,45.5 103.5,45.5C 103.5,49.1667 103.5,52.8333 103.5,56.5C 111.473,56.6737 111.473,57.1737 103.5,58C 102.167,58.6667 102.167,59.3333 103.5,60C 105.81,60.4966 108.143,60.6633 110.5,60.5C 110.334,53.825 110.5,47.1583 111,40.5C 111.037,38.0261 111.87,36.0261 113.5,34.5 Z"/></g>
<g><path style="opacity:1" fill="#e4eef2" d="M 116.5,64.5 C 115.167,64.5 113.833,64.5 112.5,64.5C 112.577,63.2502 113.244,62.4169 114.5,62C 112.74,61.0347 112.406,59.868 113.5,58.5C 115.071,59.3094 116.738,59.6427 118.5,59.5C 118.923,61.7812 118.256,63.4479 116.5,64.5 Z"/></g>
<g><path style="opacity:1" fill="#e8eff3" d="M 107.5,64.5 C 106.833,64.5 106.5,64.8333 106.5,65.5C 105.833,65.5 105.167,65.5 104.5,65.5C 103.194,64.5326 102.527,63.1993 102.5,61.5C 105.247,61.1866 107.914,61.52 110.5,62.5C 109.398,63.1757 108.398,63.8423 107.5,64.5 Z"/></g>
<g><path style="opacity:1" fill="#41474f" d="M 122.5,60.5 C 124.38,60.2291 125.713,60.8958 126.5,62.5C 124.847,62.3404 123.514,61.6737 122.5,60.5 Z"/></g>
<g><path style="opacity:1" fill="#1d2e47" d="M 175.5,57.5 C 178.331,59.9608 180.331,63.1275 181.5,67C 181.095,67.9454 180.428,68.6121 179.5,69C 176.833,69.6667 174.167,69.6667 171.5,69C 171.043,68.586 170.709,68.086 170.5,67.5C 172.931,64.5372 174.597,61.2039 175.5,57.5 Z"/></g>
<g><path style="opacity:1" fill="#ecf0f4" d="M 122.5,60.5 C 123.514,61.6737 124.847,62.3404 126.5,62.5C 128.592,65.0342 128.926,67.7008 127.5,70.5C 126.662,70.1583 126.328,69.4916 126.5,68.5C 125.791,67.596 124.791,67.2627 123.5,67.5C 122.71,66.5987 121.71,65.9321 120.5,65.5C 120.077,63.2188 120.744,61.5521 122.5,60.5 Z"/></g>
<g><path style="opacity:1" fill="#656e70" d="M 133.5,62.5 C 135.296,63.7927 136.963,65.2927 138.5,67C 135.814,66.8228 134.148,65.3228 133.5,62.5 Z"/></g>
<g><path style="opacity:1" fill="#3d4f5c" d="M 81.5,62.5 C 80.3406,64.2503 78.674,65.2503 76.5,65.5C 77.6594,63.7497 79.326,62.7497 81.5,62.5 Z"/></g>
<g><path style="opacity:1" fill="#e5eef4" d="M 101.5,65.5 C 100.833,65.8333 100.167,66.1667 99.5,66.5C 97.3609,65.8419 95.3609,64.8419 93.5,63.5C 94.2625,62.7321 95.2625,62.2321 96.5,62C 95.552,61.5172 94.552,61.3505 93.5,61.5C 93.5,60.5 93.5,59.5 93.5,58.5C 96.2469,58.1866 98.9135,58.52 101.5,59.5C 96.3183,60.776 96.3183,61.4427 101.5,61.5C 101.5,62.8333 101.5,64.1667 101.5,65.5 Z"/></g>
<g><path style="opacity:1" fill="#363d55" d="M 47.5,63.5 C 47.2671,65.0618 46.6005,66.3951 45.5,67.5C 44.5655,66.4324 44.2322,65.099 44.5,63.5C 45.5,63.5 46.5,63.5 47.5,63.5 Z"/></g>
<g><path style="opacity:1" fill="#eaf0f3" d="M 93.5,63.5 C 93.5,64.8333 93.5,66.1667 93.5,67.5C 83.5082,68.3762 76.5082,73.3762 72.5,82.5C 70.8762,82.6399 69.7096,81.9733 69,80.5C 68.2904,81.9733 67.1238,82.6399 65.5,82.5C 65.5,81.1667 65.5,79.8333 65.5,78.5C 67.2503,77.3406 68.2503,75.674 68.5,73.5C 71.5,71.1667 74.1667,68.5 76.5,65.5C 78.674,65.2503 80.3406,64.2503 81.5,62.5C 84.7887,61.5908 88.122,60.5908 91.5,59.5C 91.8333,59.8333 92.1667,60.1667 92.5,60.5C 88.9999,62.6146 85.3333,64.4479 81.5,66C 80.3044,66.6543 80.3044,67.1543 81.5,67.5C 85.1835,65.161 89.1835,63.8277 93.5,63.5 Z"/></g>
<g><path style="opacity:1" fill="#737c81" d="M 24.5,67.5 C 22.3743,68.1032 20.0409,68.1032 17.5,67.5C 14.7276,67.22 12.2276,67.8866 10,69.5C 9.83333,69.1667 9.66667,68.8333 9.5,68.5C 14.2563,64.8696 19.2563,64.5363 24.5,67.5 Z"/></g>
<g><path style="opacity:1" fill="#101f35" d="M 106.5,65.5 C 106.5,64.8333 106.833,64.5 107.5,64.5C 109.167,64.5 110.833,64.5 112.5,64.5C 113.833,64.5 115.167,64.5 116.5,64.5C 117.568,65.4345 118.901,65.7678 120.5,65.5C 121.71,65.9321 122.71,66.5987 123.5,67.5C 121.523,69.1881 119.523,69.5214 117.5,68.5C 115.5,68.5 113.5,68.5 111.5,68.5C 112.091,67.8485 112.757,67.1818 113.5,66.5C 113.167,66.1667 112.833,65.8333 112.5,65.5C 110.518,66.6225 108.518,66.6225 106.5,65.5 Z"/></g>
<g><path style="opacity:1" fill="#7083a1" d="M 106.5,65.5 C 108.518,66.6225 110.518,66.6225 112.5,65.5C 112.833,65.8333 113.167,66.1667 113.5,66.5C 112.757,67.1818 112.091,67.8485 111.5,68.5C 109.326,68.2503 107.659,67.2503 106.5,65.5 Z"/></g>
<g><path style="opacity:1" fill="#7b8da4" d="M 117.5,68.5 C 117.639,66.663 118.306,66.3296 119.5,67.5C 119.043,68.2975 118.376,68.6309 117.5,68.5 Z"/></g>
<g><path style="opacity:1" fill="#4c565d" d="M 76.5,65.5 C 74.1667,68.5 71.5,71.1667 68.5,73.5C 70.1667,69.8333 72.8333,67.1667 76.5,65.5 Z"/></g>
<g><path style="opacity:1" fill="#8699b4" d="M 123.5,67.5 C 124.791,67.2627 125.791,67.596 126.5,68.5C 123.309,68.7622 120.642,70.0955 118.5,72.5C 117.377,71.4563 116.044,70.7896 114.5,70.5C 112.342,70.9212 110.342,71.4212 108.5,72C 109.71,70.9609 110.71,69.7942 111.5,68.5C 113.5,68.5 115.5,68.5 117.5,68.5C 119.523,69.5214 121.523,69.1881 123.5,67.5 Z"/></g>
<g><path style="opacity:1" fill="#364151" d="M 122.5,31.5 C 123.496,31.4142 124.329,31.7476 125,32.5C 125.61,35.0216 126.943,37.0216 129,38.5C 129.181,47.4113 129.681,56.2447 130.5,65C 129.919,65.8926 129.585,66.8926 129.5,68C 130.905,70.5912 132.572,73.0912 134.5,75.5C 133.833,75.8333 133.167,76.1667 132.5,76.5C 132.09,73.7077 130.756,72.7077 128.5,73.5C 128.5,72.8333 128.167,72.5 127.5,72.5C 127.5,71.8333 127.5,71.1667 127.5,70.5C 128.926,67.7008 128.592,65.0342 126.5,62.5C 127.822,59.2319 128.489,55.5652 128.5,51.5C 128.167,47.8333 127.833,44.1667 127.5,40.5C 126.066,42.2199 125.233,44.2199 125,46.5C 122.799,48.1791 120.966,50.1791 119.5,52.5C 118.034,50.1791 116.201,48.1791 114,46.5C 113.51,45.2068 113.343,43.8734 113.5,42.5C 113.5,42.1667 113.5,41.8333 113.5,41.5C 117.668,46.9652 121.668,46.7985 125.5,41C 122.623,39.8732 119.623,39.2065 116.5,39C 119.482,38.502 122.482,38.3354 125.5,38.5C 125.312,35.7939 124.312,33.4605 122.5,31.5 Z"/></g>
<g><path style="opacity:1" fill="#535966" d="M 141.5,72.5 C 139.554,71.7456 138.721,70.4122 139,68.5C 140.481,69.4709 141.315,70.8042 141.5,72.5 Z"/></g>
<g><path style="opacity:1" fill="#525c64" d="M 65.5,53.5 C 64.0658,56.6984 63.5658,60.0317 64,63.5C 66.3626,61.093 68.8626,60.9263 71.5,63C 69.8739,62.8047 68.2072,62.8047 66.5,63C 64.1914,66.1437 61.3581,68.6437 58,70.5C 57.8446,72.856 57.8446,75.1893 58,77.5C 56.3333,78.5 54.6667,79.5 53,80.5C 53.3554,81.9594 53.1888,83.2928 52.5,84.5C 49.8129,81.07 50.8129,78.7366 55.5,77.5C 56.3184,74.8929 56.8184,72.2263 57,69.5C 58.1545,68.2567 59.4878,67.2567 61,66.5C 61.6866,62.4204 62.6866,58.4204 64,54.5C 64.3826,53.944 64.8826,53.6107 65.5,53.5 Z"/></g>
<g><path style="opacity:1" fill="#6c7476" d="M 151.5,69.5 C 153.852,70.5426 154.019,71.8759 152,73.5C 148.937,72.3248 148.77,70.9914 151.5,69.5 Z"/></g>
<g><path style="opacity:1" fill="#5f6974" d="M 16.5,69.5 C 13.3871,71.1475 10.0538,73.4809 6.5,76.5C 8.36216,72.2228 11.6955,69.8894 16.5,69.5 Z"/></g>
<g><path style="opacity:1" fill="#757f87" d="M 38.5,73.5 C 35.8127,73.3359 33.146,73.5026 30.5,74C 29.944,74.3826 29.6107,74.8826 29.5,75.5C 28.8333,75.5 28.1667,75.5 27.5,75.5C 27.6932,73.9137 28.0266,72.247 28.5,70.5C 30.2422,72.3148 32.4089,72.6482 35,71.5C 36.6811,71.6083 37.8478,72.2749 38.5,73.5 Z"/></g>
<g><path style="opacity:1" fill="#dae4ed" d="M 132.5,76.5 C 132.672,77.4916 132.338,78.1583 131.5,78.5C 130.292,77.7659 128.959,77.4326 127.5,77.5C 127.433,76.0413 127.766,74.7079 128.5,73.5C 130.756,72.7077 132.09,73.7077 132.5,76.5 Z"/></g>
<g><path style="opacity:1" fill="#4f5a5d" d="M 68.5,73.5 C 68.2503,75.674 67.2503,77.3406 65.5,78.5C 65.7497,76.326 66.7497,74.6594 68.5,73.5 Z"/></g>
<g><path style="opacity:1" fill="#93a0b3" d="M 127.5,72.5 C 128.167,72.5 128.5,72.8333 128.5,73.5C 127.766,74.7079 127.433,76.0413 127.5,77.5C 128.959,77.4326 130.292,77.7659 131.5,78.5C 126.507,80.681 124.673,79.0143 126,73.5C 126.383,72.944 126.883,72.6107 127.5,72.5 Z"/></g>
<g><path style="opacity:1" fill="#4e5560" d="M 141.5,72.5 C 143.539,73.911 144.539,75.911 144.5,78.5C 142.992,76.8185 141.992,74.8185 141.5,72.5 Z"/></g>
<g><path style="opacity:1" fill="#1a2944" d="M 27.5,75.5 C 28.1667,75.5 28.8333,75.5 29.5,75.5C 32.144,76.1439 33.8106,77.8106 34.5,80.5C 34.5,81.1667 34.5,81.8333 34.5,82.5C 34.5,83.5 34.5,84.5 34.5,85.5C 37.3854,85.1936 40.0521,85.5269 42.5,86.5C 38.5128,86.0097 34.8462,86.6764 31.5,88.5C 30.209,88.2627 29.209,88.596 28.5,89.5C 27.8333,89.1667 27.1667,88.8333 26.5,88.5C 26.5122,85.4484 26.1789,82.4484 25.5,79.5C 24.2092,77.4098 24.8758,76.0764 27.5,75.5 Z"/></g>
<g><path style="opacity:1" fill="#c1d6e5" d="M 28.5,81.5 C 29.675,81.281 30.675,81.6143 31.5,82.5C 29.9483,83.7979 28.9483,83.4646 28.5,81.5 Z"/></g>
<g><path style="opacity:1" fill="#ebf1f5" d="M 34.5,82.5 C 37.1873,82.3359 39.854,82.5026 42.5,83C 44.9272,84.5545 44.9272,85.7211 42.5,86.5C 40.0521,85.5269 37.3854,85.1936 34.5,85.5C 34.5,84.5 34.5,83.5 34.5,82.5 Z"/></g>
<g><path style="opacity:1" fill="#5a616b" d="M 48.5,79.5 C 49.6225,81.2884 49.7891,83.2884 49,85.5C 47.8904,87.0368 46.3904,87.7035 44.5,87.5C 43.5084,87.6716 42.8417,87.3382 42.5,86.5C 44.9272,85.7211 44.9272,84.5545 42.5,83C 39.854,82.5026 37.1873,82.3359 34.5,82.5C 34.5,81.8333 34.5,81.1667 34.5,80.5C 39.3336,81.4098 43.3336,80.0765 46.5,76.5C 47.9185,77.0047 48.5852,78.0047 48.5,79.5 Z"/></g>
<g><path style="opacity:1" fill="#eff8fa" d="M 48.5,79.5 C 48.6536,86.2672 46.987,86.9339 43.5,81.5C 44.5318,78.8068 46.1985,78.1402 48.5,79.5 Z"/></g>
<g><path style="opacity:1" fill="#57616a" d="M 2.5,86.5 C 2.53944,87.5832 2.87277,88.5832 3.5,89.5C 3.04311,90.2975 2.37644,90.6309 1.5,90.5C 0.559978,86.5369 0.393311,82.5369 1,78.5C 1.65431,77.3044 2.15431,77.3044 2.5,78.5C 1.22426,81.3031 1.22426,83.9697 2.5,86.5 Z"/></g>
<g><path style="opacity:1" fill="#444e59" d="M 65.5,78.5 C 65.5,79.8333 65.5,81.1667 65.5,82.5C 67.1238,82.6399 68.2904,81.9733 69,80.5C 69.7096,81.9733 70.8762,82.6399 72.5,82.5C 72.5,82.8333 72.5,83.1667 72.5,83.5C 69.5525,83.2229 66.7191,83.5562 64,84.5C 62.5162,88.4468 61.3495,92.4468 60.5,96.5C 59.8614,95.9032 59.528,95.0698 59.5,94C 60.5759,90.865 61.5759,87.6983 62.5,84.5C 60.2338,83.6858 57.9005,83.1858 55.5,83C 58.2263,82.8184 60.8929,82.3184 63.5,81.5C 63.9424,80.2613 64.6091,79.2613 65.5,78.5 Z"/></g>
<g><path style="opacity:1" fill="#606970" d="M 6.5,76.5 C 3.70062,84.3996 6.03395,90.2329 13.5,94C 8.80924,93.1476 5.80924,90.3143 4.5,85.5C 4.33591,82.8127 4.50258,80.146 5,77.5C 5.38258,76.944 5.88258,76.6107 6.5,76.5 Z"/></g>
<g><path style="opacity:1" fill="#6d7881" d="M 25.5,79.5 C 26.1789,82.4484 26.5122,85.4484 26.5,88.5C 24.7446,89.0722 23.0779,89.9055 21.5,91C 13.6516,91.5984 13.6516,90.9317 21.5,89C 22.8228,88.1841 23.4894,87.0174 23.5,85.5C 24.4582,83.6976 25.1249,81.6976 25.5,79.5 Z"/></g>
<g><path style="opacity:1" fill="#7b8590" d="M 186.5,97.5 C 185.916,100.285 186.916,101.952 189.5,102.5C 190.525,102.897 190.692,103.563 190,104.5C 188.414,105.376 186.914,106.376 185.5,107.5C 186.819,109.532 186.819,111.532 185.5,113.5C 184.25,113.577 183.417,114.244 183,115.5C 181.187,114.391 180.354,115.058 180.5,117.5C 178.571,117.769 176.905,117.269 175.5,116C 176.449,115.383 177.282,115.549 178,116.5C 178.465,115.069 179.299,113.903 180.5,113C 182.619,112.902 184.286,112.069 185.5,110.5C 184.726,107.2 184.559,103.866 185,100.5C 184.292,99.6195 183.458,98.9528 182.5,98.5C 180.771,97.8825 179.271,96.8825 178,95.5C 177.617,96.056 177.117,96.3893 176.5,96.5C 173.615,95.462 171.615,96.6287 170.5,100C 170.667,100.5 170.833,101 171,101.5C 171.278,100.584 171.778,99.9175 172.5,99.5C 172.5,101.167 172.5,102.833 172.5,104.5C 170.598,103.489 168.598,103.322 166.5,104C 168.645,105.818 168.645,107.318 166.5,108.5C 166.246,106.773 166.079,104.773 166,102.5C 167.5,101.667 168.667,100.5 169.5,99C 168.366,97.984 168.699,97.3173 170.5,97C 169.289,96.1072 169.289,95.2739 170.5,94.5C 172.173,92.9137 174.173,92.2471 176.5,92.5C 177.167,87.1667 177.833,87.1667 178.5,92.5C 179.833,92.5 181.167,92.5 182.5,92.5C 181.979,96.2865 183.313,97.9532 186.5,97.5 Z"/></g>
<g><path style="opacity:1" fill="#acbdd4" d="M 104.5,89.5 C 107.327,90.9005 109.994,90.5672 112.5,88.5C 113.696,88.8457 113.696,89.3457 112.5,90C 104.734,93.8829 97.0676,97.7162 89.5,101.5C 88.6522,100.375 87.6522,100.375 86.5,101.5C 83.7081,99.9423 80.7081,98.609 77.5,97.5C 76.8933,97.6236 76.56,97.9569 76.5,98.5C 75.596,97.791 75.2627,96.791 75.5,95.5C 78.6428,96.2067 81.6428,97.3733 84.5,99C 88.4845,100.115 91.8178,99.1154 94.5,96C 92.2689,94.7227 90.6022,92.8894 89.5,90.5C 90.3202,88.8888 91.6536,88.2222 93.5,88.5C 93.7135,90.1439 93.3802,91.6439 92.5,93C 93.7741,94.2208 95.2741,95.0541 97,95.5C 99.9947,94.724 102.828,93.5574 105.5,92C 104.748,91.3292 104.414,90.4959 104.5,89.5 Z"/></g>
<g><path style="opacity:1" fill="#60696a" d="M 186.5,97.5 C 186.461,96.2438 186.961,95.2438 188,94.5C 188.585,95.9976 188.085,96.9976 186.5,97.5 Z"/></g>
<g><path style="opacity:1" fill="#122441" d="M 93.5,63.5 C 95.3609,64.8419 97.3609,65.8419 99.5,66.5C 97.084,69.0999 94.7507,71.9332 92.5,75C 93.8502,76.7183 95.0168,78.5516 96,80.5C 95.5783,77.9023 95.5783,75.2356 96,72.5C 99.195,71.1486 101.028,68.8153 101.5,65.5C 102.5,65.5 103.5,65.5 104.5,65.5C 105.167,65.5 105.833,65.5 106.5,65.5C 107.659,67.2503 109.326,68.2503 111.5,68.5C 110.71,69.7942 109.71,70.9609 108.5,72C 110.342,71.4212 112.342,70.9212 114.5,70.5C 116.044,70.7896 117.377,71.4563 118.5,72.5C 120.642,70.0955 123.309,68.7622 126.5,68.5C 126.328,69.4916 126.662,70.1583 127.5,70.5C 127.5,71.1667 127.5,71.8333 127.5,72.5C 126.883,72.6107 126.383,72.944 126,73.5C 124.673,79.0143 126.507,80.681 131.5,78.5C 132.338,78.1583 132.672,77.4916 132.5,76.5C 133.167,76.1667 133.833,75.8333 134.5,75.5C 135.793,77.8083 137.126,80.1417 138.5,82.5C 139.72,84.6633 139.72,86.83 138.5,89C 138.683,90.6836 139.35,90.8502 140.5,89.5C 139.97,92.8455 140.637,96.1788 142.5,99.5C 142.315,100.584 141.982,101.584 141.5,102.5C 139.827,101.657 138.66,100.324 138,98.5C 139.437,102.251 138.604,105.418 135.5,108C 138.146,107.54 140.146,106.04 141.5,103.5C 142.092,106.631 141.092,108.964 138.5,110.5C 135.206,110.741 132.206,109.908 129.5,108C 132.561,106.627 134.394,104.46 135,101.5C 131.739,105.258 127.572,107.092 122.5,107C 120.273,107.941 118.273,109.108 116.5,110.5C 112.191,111.467 107.858,112.633 103.5,114C 97.9705,114.822 93.4705,112.989 90,108.5C 89.5498,105.936 90.7164,104.436 93.5,104C 92.2161,103.316 91.0495,103.483 90,104.5C 89.5172,103.552 89.3505,102.552 89.5,101.5C 97.0676,97.7162 104.734,93.8829 112.5,90C 113.696,89.3457 113.696,88.8457 112.5,88.5C 109.994,90.5672 107.327,90.9005 104.5,89.5C 104.414,90.4959 104.748,91.3292 105.5,92C 102.828,93.5574 99.9947,94.724 97,95.5C 95.2741,95.0541 93.7741,94.2208 92.5,93C 93.3802,91.6439 93.7135,90.1439 93.5,88.5C 91.6536,88.2222 90.3202,88.8888 89.5,90.5C 90.6022,92.8894 92.2689,94.7227 94.5,96C 91.8178,99.1154 88.4845,100.115 84.5,99C 81.6428,97.3733 78.6428,96.2067 75.5,95.5C 72.7688,92.0725 71.7688,88.0725 72.5,83.5C 72.5,83.1667 72.5,82.8333 72.5,82.5C 76.5082,73.3762 83.5082,68.3762 93.5,67.5C 93.5,66.1667 93.5,64.8333 93.5,63.5 Z"/></g>
<g><path style="opacity:1" fill="#c4d1e1" d="M 118.5,98.5 C 117.778,98.0825 117.278,97.4158 117,96.5C 115.333,97.8333 113.667,97.8333 112,96.5C 110.824,98.1957 109.657,99.8624 108.5,101.5C 105.141,103.487 101.475,103.987 97.5,103C 93.593,99.1174 93.9264,98.784 98.5,102C 105.865,102.657 110.531,99.3237 112.5,92C 114.579,91.1923 116.579,91.359 118.5,92.5C 117.752,94.4159 117.752,96.4159 118.5,98.5 Z"/></g>
<g><path style="opacity:1" fill="#9db2c9" d="M 96.5,84.5 C 97.1406,87.221 97.6406,89.8877 98,92.5C 95.6017,90.0223 95.1017,87.3557 96.5,84.5 Z"/></g>
<g><path style="opacity:1" fill="#b5c4d6" d="M 134.5,90.5 C 133.791,91.404 132.791,91.7373 131.5,91.5C 131.5,92.5 131.5,93.5 131.5,94.5C 130.127,94.6567 128.793,94.49 127.5,94C 123.474,91.9541 119.474,89.9541 115.5,88C 117.167,87.3333 118.833,87.3333 120.5,88C 121.459,89.4638 122.792,90.2972 124.5,90.5C 127.813,89.49 131.146,89.49 134.5,90.5 Z"/></g>
<g><path style="opacity:1" fill="#a2bad2" d="M 77.5,87.5 C 78.5964,89.1032 79.9297,90.6032 81.5,92C 78.6975,92.0242 77.3642,90.5242 77.5,87.5 Z"/></g>
<g><path style="opacity:1" fill="#89a0c0" d="M 134.5,90.5 C 134.201,88.396 134.534,86.396 135.5,84.5C 136.949,86.9119 136.616,88.9119 134.5,90.5 Z"/></g>
<g><path style="opacity:1" fill="#bac9e8" d="M 104.5,89.5 C 102.915,88.9976 102.415,87.9976 103,86.5C 104.039,87.2438 104.539,88.2438 104.5,89.5 Z"/></g>
<g><path style="opacity:1" fill="#adbece" d="M 107.5,83.5 C 109.912,83.6941 110.912,85.0274 110.5,87.5C 109.167,87.5 107.833,87.5 106.5,87.5C 106.433,86.0413 106.766,84.7079 107.5,83.5 Z"/></g>
<g><path style="opacity:1" fill="#99accb" d="M 119.5,83.5 C 120.583,83.5394 121.583,83.8728 122.5,84.5C 123.591,82.9852 124.924,82.1519 126.5,82C 124.708,85.8688 122.375,86.3688 119.5,83.5 Z"/></g>
<g><path style="opacity:1" fill="#8ca0bc" d="M 131.5,81.5 C 133.842,81.7748 133.842,82.6081 131.5,84C 130.056,84.7805 128.723,84.6139 127.5,83.5C 129.095,84.0437 130.429,83.3771 131.5,81.5 Z"/></g>
<g><path style="opacity:1" fill="#929dba" d="M 87.5,84.5 C 87.5,83.5 87.5,82.5 87.5,81.5C 88.5754,80.4376 89.5754,80.4376 90.5,81.5C 89.9747,82.1924 89.3081,82.6924 88.5,83C 89.3081,83.3076 89.9747,83.8076 90.5,84.5C 89.5754,85.5624 88.5754,85.5624 87.5,84.5 Z"/></g>
<g><path style="opacity:1" fill="#a2b4d5" d="M 119.5,83.5 C 117.668,82.8595 117.335,81.8595 118.5,80.5C 119.386,81.325 119.719,82.325 119.5,83.5 Z"/></g>
<g><path style="opacity:1" fill="#ced8e1" d="M 87.5,81.5 C 87.5,82.5 87.5,83.5 87.5,84.5C 87.5394,85.5832 87.8728,86.5832 88.5,87.5C 87.3687,88.6039 86.5354,88.2705 86,86.5C 85.0514,90.3779 83.8847,90.3779 82.5,86.5C 80.9954,89.1306 80.3287,88.7973 80.5,85.5C 76.7636,85.3399 76.7636,84.5066 80.5,83C 79.376,82.7508 78.376,82.2508 77.5,81.5C 78.2739,80.2888 79.1072,80.2888 80,81.5C 79.3829,79.9052 79.7163,78.5719 81,77.5C 81.3076,78.3081 81.8076,78.9747 82.5,79.5C 83.1494,77.3759 83.9827,75.3759 85,73.5C 84.5022,75.5269 84.6689,77.5269 85.5,79.5C 88.5056,77.9962 89.1723,78.6629 87.5,81.5 Z"/></g>
<g><path style="opacity:1" fill="#8a9eb7" d="M 114.5,76.5 C 116.527,76.3379 118.527,76.5045 120.5,77C 114.954,77.0472 112.288,79.8805 112.5,85.5C 110.922,81.9579 111.588,78.9579 114.5,76.5 Z"/></g>
<g><path style="opacity:1" fill="#96a9c5" d="M 101.5,74.5 C 107.208,74.4924 107.541,74.9924 102.5,76C 101.104,79.3047 99.1037,82.138 96.5,84.5C 97.7838,80.9864 99.4505,77.653 101.5,74.5 Z"/></g>
<g><path style="opacity:1" fill="#6f84a2" d="M 111.5,76.5 C 109.741,79.1897 107.407,79.8564 104.5,78.5C 106.777,77.5793 109.11,76.9126 111.5,76.5 Z"/></g>
<g><path style="opacity:1" fill="#92a6c0" d="M 111.5,76.5 C 111.685,74.8042 112.519,73.4709 114,72.5C 114.279,74.4122 113.446,75.7456 111.5,76.5 Z"/></g>
<g><path style="opacity:1" fill="#98a8c3" d="M 101.5,74.5 C 100.233,75.087 99.2334,75.087 98.5,74.5C 99.914,73.376 101.414,72.376 103,71.5C 103.239,72.788 102.739,73.788 101.5,74.5 Z"/></g>
<g><path style="opacity:1" fill="#a0b2c7" d="M 101.5,65.5 C 101.028,68.8153 99.195,71.1486 96,72.5C 95.5783,75.2356 95.5783,77.9023 96,80.5C 95.0168,78.5516 93.8502,76.7183 92.5,75C 94.7507,71.9332 97.084,69.0999 99.5,66.5C 100.167,66.1667 100.833,65.8333 101.5,65.5 Z"/></g>
<g><path style="opacity:1" fill="#7589a8" d="M 122.5,70.5 C 123.239,70.369 123.906,70.5357 124.5,71C 123.137,72.9449 122.303,75.1116 122,77.5C 121.691,76.2341 121.191,75.0674 120.5,74C 121.823,73.1841 122.489,72.0174 122.5,70.5 Z"/></g>
<g><path style="opacity:1" fill="#91a8c8" d="M 91.5,68.5 C 92.0431,68.56 92.3764,68.8933 92.5,69.5C 91.081,71.3359 89.9143,73.3359 89,75.5C 88.3333,74.1667 88.3333,72.8333 89,71.5C 90.045,70.6266 90.8783,69.6266 91.5,68.5 Z"/></g>
<g><path style="opacity:1" fill="#1e2938" d="M 76.5,98.5 C 76.56,97.9569 76.8933,97.6236 77.5,97.5C 80.7081,98.609 83.7081,99.9423 86.5,101.5C 82.7515,101.693 79.4182,100.693 76.5,98.5 Z"/></g>
<g><path style="opacity:1" fill="#eaf5fb" d="M 176.5,96.5 C 174.596,96.7376 173.262,97.7376 172.5,99.5C 171.778,99.9175 171.278,100.584 171,101.5C 170.833,101 170.667,100.5 170.5,100C 171.615,96.6287 173.615,95.462 176.5,96.5 Z"/></g>
<g><path style="opacity:1" fill="#fafbfc" d="M 72.5,83.5 C 71.7688,88.0725 72.7688,92.0725 75.5,95.5C 75.2627,96.791 75.596,97.791 76.5,98.5C 79.4182,100.693 82.7515,101.693 86.5,101.5C 87.6522,100.375 88.6522,100.375 89.5,101.5C 89.3505,102.552 89.5172,103.552 90,104.5C 91.0495,103.483 92.2161,103.316 93.5,104C 90.7164,104.436 89.5498,105.936 90,108.5C 93.4705,112.989 97.9705,114.822 103.5,114C 107.858,112.633 112.191,111.467 116.5,110.5C 116.5,112.5 116.5,114.5 116.5,116.5C 116.565,116.938 116.399,117.272 116,117.5C 115.213,116.289 114.546,115.289 114,114.5C 112.584,115.573 111.25,115.573 110,114.5C 109.355,115.646 108.522,116.646 107.5,117.5C 110.159,117.567 111.826,119.234 112.5,122.5C 110.456,123.031 108.789,124.198 107.5,126C 108.094,126.464 108.761,126.631 109.5,126.5C 113.78,127.655 114.114,128.989 110.5,130.5C 112.139,131.322 113.805,131.989 115.5,132.5C 116.004,135.453 117.004,138.286 118.5,141C 122.887,143.245 127.554,144.411 132.5,144.5C 132.631,145.239 132.464,145.906 132,146.5C 131.346,145.304 130.846,145.304 130.5,146.5C 131.167,147.167 131.833,147.833 132.5,148.5C 131.522,149.801 131.855,150.968 133.5,152C 133.02,158.676 136.02,162.509 142.5,163.5C 144.5,166.167 146.833,168.5 149.5,170.5C 150.433,173.37 152.1,175.704 154.5,177.5C 156.423,181.668 159.09,185.335 162.5,188.5C 140.236,188.479 117.57,188.646 94.5,189C 92.74,190.793 91.74,190.293 91.5,187.5C 92.1098,186.609 92.4431,185.609 92.5,184.5C 93.9931,183.688 94.6598,182.355 94.5,180.5C 94.5643,178.443 93.8976,176.777 92.5,175.5C 92.539,172.911 91.539,170.911 89.5,169.5C 88.0358,163.941 85.7024,158.774 82.5,154C 76.1507,153.594 69.8174,153.094 63.5,152.5C 59.3664,149.887 58.3664,146.22 60.5,141.5C 59.1249,137.479 58.1249,133.479 57.5,129.5C 58.3311,127.527 58.4978,125.527 58,123.5C 55.8416,122.174 54.0082,120.507 52.5,118.5C 54.9522,115.394 56.9522,112.061 58.5,108.5C 64.0248,105.109 64.6915,101.109 60.5,96.5C 61.3495,92.4468 62.5162,88.4468 64,84.5C 66.7191,83.5562 69.5525,83.2229 72.5,83.5 Z"/></g>
<g><path style="opacity:1" fill="#7f92b0" d="M 104.5,95.5 C 105.422,97.6718 104.588,99.3385 102,100.5C 102.464,98.8066 103.297,97.1399 104.5,95.5 Z"/></g>
<g><path style="opacity:1" fill="#99aac9" d="M 118.5,98.5 C 121.513,99.6478 124.513,99.8145 127.5,99C 124.963,100.457 122.296,101.624 119.5,102.5C 119.567,101.041 119.234,99.7079 118.5,98.5 Z"/></g>
<g><path style="opacity:1" fill="#768cab" d="M 129.5,98.5 C 131.842,98.7748 131.842,99.6081 129.5,101C 130.451,101.718 130.617,102.551 130,103.5C 129.167,102.667 128.333,101.833 127.5,101C 128.381,100.292 129.047,99.4584 129.5,98.5 Z"/></g>
<g><path style="opacity:1" fill="#11243e" d="M 118.5,98.5 C 119.234,99.7079 119.567,101.041 119.5,102.5C 115.615,104.016 111.948,103.682 108.5,101.5C 109.657,99.8624 110.824,98.1957 112,96.5C 113.667,97.8333 115.333,97.8333 117,96.5C 117.278,97.4158 117.778,98.0825 118.5,98.5 Z"/></g>
<g><path style="opacity:1" fill="#414a54" d="M 60.5,96.5 C 64.6915,101.109 64.0248,105.109 58.5,108.5C 59.6808,105.975 61.0142,103.475 62.5,101C 61.4178,99.6703 60.7512,98.1703 60.5,96.5 Z"/></g>
<g><path style="opacity:1" fill="#9baac7" d="M 124.5,102.5 C 125.239,102.369 125.906,102.536 126.5,103C 125.534,104.678 124.201,105.345 122.5,105C 123.381,104.292 124.047,103.458 124.5,102.5 Z"/></g>
<g><path style="opacity:1" fill="#8ca0be" d="M 108.5,101.5 C 111.948,103.682 115.615,104.016 119.5,102.5C 116.692,104.479 113.692,106.312 110.5,108C 105.348,110.122 100.348,109.789 95.5,107C 98.5045,105.43 101.505,105.597 104.5,107.5C 107.057,107.558 109.39,106.891 111.5,105.5C 110.174,104.358 109.174,103.024 108.5,101.5 Z"/></g>
<g><path style="opacity:1" fill="#2c3749" d="M 182.5,98.5 C 184.86,105.138 182.526,108.472 175.5,108.5C 174.71,107.599 173.71,106.932 172.5,106.5C 172.5,105.833 172.5,105.167 172.5,104.5C 172.5,102.833 172.5,101.167 172.5,99.5C 173.262,97.7376 174.596,96.7376 176.5,96.5C 177.117,96.3893 177.617,96.056 178,95.5C 179.271,96.8825 180.771,97.8825 182.5,98.5 Z"/></g>
<g><path style="opacity:1" fill="#c9d7e6" d="M 175.5,98.5 C 180.942,98.8857 182.275,101.386 179.5,106C 173.403,106.147 172.07,103.647 175.5,98.5 Z"/></g>
<g><path style="opacity:1" fill="#1a2a40" d="M 175.5,100.5 C 176.833,100.5 178.167,100.5 179.5,100.5C 179.5,101.833 179.5,103.167 179.5,104.5C 178.167,104.5 176.833,104.5 175.5,104.5C 175.5,103.167 175.5,101.833 175.5,100.5 Z"/></g>
<g><path style="opacity:1" fill="#96a9c7" d="M 141.5,102.5 C 141.5,102.833 141.5,103.167 141.5,103.5C 140.146,106.04 138.146,107.54 135.5,108C 138.604,105.418 139.437,102.251 138,98.5C 138.66,100.324 139.827,101.657 141.5,102.5 Z"/></g>
<g><path style="opacity:1" fill="#66717f" d="M 172.5,106.5 C 173.71,106.932 174.71,107.599 175.5,108.5C 176.203,110.034 176.036,111.701 175,113.5C 174.228,112.151 173.061,111.318 171.5,111C 172.167,110.667 172.833,110.333 173.5,110C 172.313,108.981 171.313,107.814 170.5,106.5C 170.97,105.537 171.637,105.537 172.5,106.5 Z"/></g>
<g><path style="opacity:1" fill="#666d78" d="M 75.5,108.5 C 77.5643,108.687 79.5643,109.187 81.5,110C 78.2801,113.645 76.2801,113.145 75.5,108.5 Z"/></g>
<g><path style="opacity:1" fill="#899bb4" d="M 138.5,110.5 C 137.833,111.167 137.167,111.833 136.5,112.5C 135.85,112.196 135.183,111.863 134.5,111.5C 134.167,112.167 133.833,112.833 133.5,113.5C 130.539,112.817 130.205,111.984 132.5,111C 129.922,109.335 127.255,108.335 124.5,108C 125.328,108.915 126.328,109.581 127.5,110C 126.5,110.333 125.5,110.667 124.5,111C 126.491,111.374 128.158,112.207 129.5,113.5C 127.436,113.313 125.436,112.813 123.5,112C 122.167,111.333 122.167,110.667 123.5,110C 121.153,109.666 118.819,109.833 116.5,110.5C 118.273,109.108 120.273,107.941 122.5,107C 127.572,107.092 131.739,105.258 135,101.5C 134.394,104.46 132.561,106.627 129.5,108C 132.206,109.908 135.206,110.741 138.5,110.5 Z"/></g>
<g><path style="opacity:1" fill="#28384e" d="M 136.5,112.5 C 137.598,113.601 137.765,114.934 137,116.5C 136.329,117.252 135.496,117.586 134.5,117.5C 133.871,115.003 132.204,113.67 129.5,113.5C 128.158,112.207 126.491,111.374 124.5,111C 125.5,110.667 126.5,110.333 127.5,110C 126.328,109.581 125.328,108.915 124.5,108C 127.255,108.335 129.922,109.335 132.5,111C 130.205,111.984 130.539,112.817 133.5,113.5C 133.833,112.833 134.167,112.167 134.5,111.5C 135.183,111.863 135.85,112.196 136.5,112.5 Z"/></g>
<g><path style="opacity:1" fill="#7b8da7" d="M 129.5,113.5 C 132.204,113.67 133.871,115.003 134.5,117.5C 132.611,116.396 130.945,115.063 129.5,113.5 Z"/></g>
<g><path style="opacity:1" fill="#56575d" d="M 75.5,115.5 C 78.6741,115.952 79.0075,116.952 76.5,118.5C 74.4807,117.867 74.1474,116.867 75.5,115.5 Z"/></g>
<g><path style="opacity:1" fill="#6a6c73" d="M 112.5,122.5 C 111.5,123.833 110.5,125.167 109.5,126.5C 108.761,126.631 108.094,126.464 107.5,126C 108.789,124.198 110.456,123.031 112.5,122.5 Z"/></g>
<g><path style="opacity:1" fill="#16253f" d="M 129.5,113.5 C 130.945,115.063 132.611,116.396 134.5,117.5C 134.189,118.478 133.522,119.145 132.5,119.5C 131.06,118.048 129.394,117.048 127.5,116.5C 128.29,117.794 129.29,118.961 130.5,120C 128.343,120.078 126.343,120.245 124.5,120.5C 125.559,122.534 126.559,124.534 127.5,126.5C 125.5,126.5 123.5,126.5 121.5,126.5C 120.873,122.58 119.207,119.247 116.5,116.5C 116.5,114.5 116.5,112.5 116.5,110.5C 118.819,109.833 121.153,109.666 123.5,110C 122.167,110.667 122.167,111.333 123.5,112C 125.436,112.813 127.436,113.313 129.5,113.5 Z"/></g>
<g><path style="opacity:1" fill="#7e92af" d="M 127.5,116.5 C 125.407,115.955 123.407,115.122 121.5,114C 124.082,113.458 126.082,114.292 127.5,116.5 Z"/></g>
<g><path style="opacity:1" fill="#16253b" d="M 162.5,126.5 C 162.5,125.5 162.5,124.5 162.5,123.5C 162.917,122.876 163.584,122.543 164.5,122.5C 171.126,124.324 170.959,125.991 164,127.5C 163.235,127.43 162.735,127.097 162.5,126.5 Z"/></g>
<g><path style="opacity:1" fill="#d6dcdf" d="M 116.5,116.5 C 119.207,119.247 120.873,122.58 121.5,126.5C 123.5,126.5 125.5,126.5 127.5,126.5C 126.048,127.302 124.382,127.802 122.5,128C 123.428,128.388 124.095,129.055 124.5,130C 123.66,131.171 122.827,132.338 122,133.5C 121.014,132.829 119.847,132.829 118.5,133.5C 120.038,131.449 119.704,129.782 117.5,128.5C 115.889,129.32 115.222,130.654 115.5,132.5C 113.805,131.989 112.139,131.322 110.5,130.5C 114.114,128.989 113.78,127.655 109.5,126.5C 110.5,125.167 111.5,123.833 112.5,122.5C 111.826,119.234 110.159,117.567 107.5,117.5C 108.522,116.646 109.355,115.646 110,114.5C 111.25,115.573 112.584,115.573 114,114.5C 114.546,115.289 115.213,116.289 116,117.5C 116.399,117.272 116.565,116.938 116.5,116.5 Z"/></g>
<g><path style="opacity:1" fill="#525b65" d="M 144.5,78.5 C 145.931,79.7804 146.598,81.4471 146.5,83.5C 150.131,83.9677 153.465,83.301 156.5,81.5C 159.167,83.1667 159.167,84.8333 156.5,86.5C 153.807,84.7298 150.807,84.0632 147.5,84.5C 148.272,88.4517 148.605,92.4517 148.5,96.5C 151.244,96.7521 153.744,96.0855 156,94.5C 159.333,96.1667 159.333,97.8333 156,99.5C 153.79,97.8891 151.29,97.2224 148.5,97.5C 149.558,106.705 147.892,115.371 143.5,123.5C 149.888,124.79 156.222,124.79 162.5,123.5C 162.5,124.5 162.5,125.5 162.5,126.5C 155.557,125.206 148.557,125.206 141.5,126.5C 136.875,130.766 135.208,136.099 136.5,142.5C 140.884,142.174 145.217,142.508 149.5,143.5C 143.872,144.495 138.206,144.829 132.5,144.5C 127.554,144.411 122.887,143.245 118.5,141C 117.004,138.286 116.004,135.453 115.5,132.5C 115.222,130.654 115.889,129.32 117.5,128.5C 119.704,129.782 120.038,131.449 118.5,133.5C 117.058,135.817 117.392,137.984 119.5,140C 124.284,142.032 129.284,142.866 134.5,142.5C 134.335,139.15 134.502,135.817 135,132.5C 142.523,125.117 146.523,116.117 147,105.5C 147.774,98.7764 147.441,92.1097 146,85.5C 144.467,85.0563 142.967,84.723 141.5,84.5C 140.548,86.0453 140.215,87.712 140.5,89.5C 139.35,90.8502 138.683,90.6836 138.5,89C 139.72,86.83 139.72,84.6633 138.5,82.5C 139.575,83.5624 140.575,83.5624 141.5,82.5C 139.315,78.4761 137.482,74.4761 136,70.5C 139.238,74.3088 141.404,78.6421 142.5,83.5C 143.552,83.6495 144.552,83.4828 145.5,83C 144.62,81.6439 144.286,80.1439 144.5,78.5 Z"/></g>
<g><path style="opacity:1" fill="#f3f6f9" d="M 118.5,133.5 C 119.847,132.829 121.014,132.829 122,133.5C 122.827,132.338 123.66,131.171 124.5,130C 124.095,129.055 123.428,128.388 122.5,128C 124.382,127.802 126.048,127.302 127.5,126.5C 126.559,124.534 125.559,122.534 124.5,120.5C 126.343,120.245 128.343,120.078 130.5,120C 129.29,118.961 128.29,117.794 127.5,116.5C 129.394,117.048 131.06,118.048 132.5,119.5C 133.522,119.145 134.189,118.478 134.5,117.5C 135.496,117.586 136.329,117.252 137,116.5C 137.765,114.934 137.598,113.601 136.5,112.5C 137.167,111.833 137.833,111.167 138.5,110.5C 141.092,108.964 142.092,106.631 141.5,103.5C 141.5,103.167 141.5,102.833 141.5,102.5C 141.982,101.584 142.315,100.584 142.5,99.5C 140.637,96.1788 139.97,92.8455 140.5,89.5C 140.215,87.712 140.548,86.0453 141.5,84.5C 142.967,84.723 144.467,85.0563 146,85.5C 147.441,92.1097 147.774,98.7764 147,105.5C 146.523,116.117 142.523,125.117 135,132.5C 134.502,135.817 134.335,139.15 134.5,142.5C 129.284,142.866 124.284,142.032 119.5,140C 117.392,137.984 117.058,135.817 118.5,133.5 Z"/></g>
<g><path style="opacity:1" fill="#a5a5aa" d="M 140.5,117.5 C 141.621,119.089 141.454,120.756 140,122.5C 138.167,124.333 136.333,126.167 134.5,128C 132.956,129.187 131.289,129.52 129.5,129C 132.009,127.579 134.343,125.912 136.5,124C 135.833,123.333 135.167,122.667 134.5,122C 138.215,123.145 140.215,121.645 140.5,117.5 Z"/></g>
<g><path style="opacity:1" fill="#76808b" d="M 142.5,88.5 C 142.56,87.9569 142.893,87.6236 143.5,87.5C 145.618,93.0376 145.951,98.7043 144.5,104.5C 143.833,99.0147 143.167,93.6813 142.5,88.5 Z"/></g>
<g><path style="opacity:1" fill="#484f5a" d="M 48.5,104.5 C 49.1667,105.167 49.8333,105.833 50.5,106.5C 52.6172,110.259 55.2839,110.926 58.5,108.5C 56.9522,112.061 54.9522,115.394 52.5,118.5C 54.0082,120.507 55.8416,122.174 58,123.5C 58.4978,125.527 58.3311,127.527 57.5,129.5C 58.1249,133.479 59.1249,137.479 60.5,141.5C 58.3664,146.22 59.3664,149.887 63.5,152.5C 57.1677,150.892 55.8344,147.225 59.5,141.5C 59.2972,139.792 58.4638,138.459 57,137.5C 56.4054,136.101 56.5721,134.768 57.5,133.5C 55.0063,130.92 55.0063,128.253 57.5,125.5C 55.9918,123.493 54.1584,121.826 52,120.5C 51.3333,119.167 51.3333,117.833 52,116.5C 53.0836,115.335 53.9169,114.002 54.5,112.5C 52.6672,110.95 50.5006,109.95 48,109.5C 48.0187,107.893 48.1854,106.226 48.5,104.5 Z"/></g>
<g><path style="opacity:1" fill="#1f2d47" d="M 181.5,138.5 C 182.483,139.85 183.816,140.85 185.5,141.5C 182.986,143.868 182.986,146.201 185.5,148.5C 183.892,149.318 182.225,149.985 180.5,150.5C 179.571,151.689 179.238,153.022 179.5,154.5C 177.325,154.318 175.325,153.651 173.5,152.5C 170.198,153.795 168.865,152.462 169.5,148.5C 167.901,148.768 166.568,148.434 165.5,147.5C 166.141,146.518 166.807,145.518 167.5,144.5C 166.833,143.5 166.167,142.5 165.5,141.5C 168.441,140.227 170.774,138.227 172.5,135.5C 174.833,136.833 177.167,136.833 179.5,135.5C 180.176,136.602 180.842,137.602 181.5,138.5 Z"/></g>
<g><path style="opacity:1" fill="#d2e4ec" d="M 173.5,140.5 C 179.488,140.664 180.821,143.164 177.5,148C 171.403,148.147 170.07,145.647 173.5,140.5 Z"/></g>
<g><path style="opacity:1" fill="#1d2b2f" d="M 174.5,142.5 C 176.048,142.821 176.715,143.821 176.5,145.5C 173.752,145.598 173.086,144.598 174.5,142.5 Z"/></g>
<g><path style="opacity:1" fill="#4b5460" d="M 138.5,157.5 C 137.883,157.389 137.383,157.056 137,156.5C 135.894,152.878 135.561,149.211 136,145.5C 137.283,149.414 138.116,153.414 138.5,157.5 Z"/></g>
<g><path style="opacity:1" fill="#60676f" d="M 152.5,149.5 C 151.432,150.434 150.099,150.768 148.5,150.5C 148.5,149.5 148.5,148.5 148.5,147.5C 151.051,144.77 152.384,145.437 152.5,149.5 Z"/></g>
<g><path style="opacity:1" fill="#3c434c" d="M 63.5,152.5 C 69.8174,153.094 76.1507,153.594 82.5,154C 85.7024,158.774 88.0358,163.941 89.5,169.5C 86.7201,164.777 84.0534,159.944 81.5,155C 76.1667,154.667 70.8333,154.333 65.5,154C 64.5842,153.722 63.9175,153.222 63.5,152.5 Z"/></g>
<g><path style="opacity:1" fill="#e3ecec" d="M 47.5,49.5 C 48.8333,50.8333 50.1667,50.8333 51.5,49.5C 51.1193,50.9311 50.1193,51.7645 48.5,52C 50.1089,54.3823 51.7756,56.7156 53.5,59C 51.8659,59.4935 50.1992,59.6602 48.5,59.5C 48.5674,60.9587 48.2341,62.2921 47.5,63.5C 46.5,63.5 45.5,63.5 44.5,63.5C 44.2322,65.099 44.5655,66.4324 45.5,67.5C 45.6495,68.552 45.4828,69.552 45,70.5C 43.3333,70.1667 41.6667,69.8333 40,69.5C 39.6886,70.7425 40.1886,71.7425 41.5,72.5C 40.675,73.3857 39.675,73.719 38.5,73.5C 37.8478,72.2749 36.6811,71.6083 35,71.5C 32.4089,72.6482 30.2422,72.3148 28.5,70.5C 28.0266,72.247 27.6932,73.9137 27.5,75.5C 24.8758,76.0764 24.2092,77.4098 25.5,79.5C 25.1249,81.6976 24.4582,83.6976 23.5,85.5C 23.4894,87.0174 22.8228,88.1841 21.5,89C 13.6516,90.9317 13.6516,91.5984 21.5,91C 23.0779,89.9055 24.7446,89.0722 26.5,88.5C 27.1667,88.8333 27.8333,89.1667 28.5,89.5C 28.9528,90.4584 29.6195,91.2917 30.5,92C 41.1668,91.9949 41.1668,91.3282 30.5,90C 31.056,89.6174 31.3893,89.1174 31.5,88.5C 34.8462,86.6764 38.5128,86.0097 42.5,86.5C 42.8417,87.3382 43.5084,87.6716 44.5,87.5C 44.7733,89.451 44.1066,90.951 42.5,92C 43.9733,92.7096 44.6399,93.8762 44.5,95.5C 43.1667,95.5 41.8333,95.5 40.5,95.5C 40.6495,94.448 40.4828,93.448 40,92.5C 39.8008,94.4025 38.9675,95.9025 37.5,97C 37.8333,97.3333 38.1667,97.6667 38.5,98C 37.5,98.3333 36.5,98.6667 35.5,99C 36.7659,99.3095 37.9326,99.8095 39,100.5C 40.487,99.7471 40.6537,98.9138 39.5,98C 41.1322,96.6896 42.7988,96.1896 44.5,96.5C 44.5099,99.4158 46.1766,101.583 49.5,103C 48.944,103.383 48.6107,103.883 48.5,104.5C 48.1854,106.226 48.0187,107.893 48,109.5C 50.5006,109.95 52.6672,110.95 54.5,112.5C 53.9169,114.002 53.0836,115.335 52,116.5C 51.3333,117.833 51.3333,119.167 52,120.5C 54.1584,121.826 55.9918,123.493 57.5,125.5C 55.0063,128.253 55.0063,130.92 57.5,133.5C 56.5721,134.768 56.4054,136.101 57,137.5C 58.4638,138.459 59.2972,139.792 59.5,141.5C 55.8344,147.225 57.1677,150.892 63.5,152.5C 63.9175,153.222 64.5842,153.722 65.5,154C 70.8333,154.333 76.1667,154.667 81.5,155C 84.0534,159.944 86.7201,164.777 89.5,169.5C 89.9925,171.819 90.9925,173.819 92.5,175.5C 92.5,178.5 92.5,181.5 92.5,184.5C 90.6182,185.221 90.2848,186.221 91.5,187.5C 91.74,190.293 92.74,190.793 94.5,189C 117.57,188.646 140.236,188.479 162.5,188.5C 163.525,188.103 163.692,187.437 163,186.5C 160.151,183.426 157.317,180.426 154.5,177.5C 153.567,174.63 151.9,172.296 149.5,170.5C 147.913,167.732 146.08,165.065 144,162.5C 143.329,161.748 142.496,161.414 141.5,161.5C 141.5,160.833 141.5,160.167 141.5,159.5C 142.833,159.5 144.167,159.5 145.5,159.5C 145.461,161.359 146.294,162.692 148,163.5C 150.963,160.05 154.797,158.717 159.5,159.5C 159.714,161.144 159.38,162.644 158.5,164C 157.551,164.617 156.718,164.451 156,163.5C 154.56,165.046 152.727,165.879 150.5,166C 151.833,166.667 153.167,167.333 154.5,168C 153.724,169.77 153.89,171.603 155,173.5C 161.246,175.399 166.08,179.232 169.5,185C 172.455,186.448 174.455,188.615 175.5,191.5C 170.167,191.5 164.833,191.5 159.5,191.5C 159.5,192.5 159.5,193.5 159.5,194.5C 151.517,195.166 143.517,195.499 135.5,195.5C 135.5,196.833 135.5,198.167 135.5,199.5C 90.1667,199.5 44.8333,199.5 -0.5,199.5C -0.5,167.833 -0.5,136.167 -0.5,104.5C 0.495904,104.586 1.32924,104.252 2,103.5C 2.20694,99.9106 2.70694,96.4106 3.5,93C 2.24402,92.5831 1.57735,91.7498 1.5,90.5C 2.37644,90.6309 3.04311,90.2975 3.5,89.5C 2.87277,88.5832 2.53944,87.5832 2.5,86.5C 2.33788,84.4727 2.50454,82.4727 3,80.5C 3.19808,82.3817 3.69808,84.0484 4.5,85.5C 5.80924,90.3143 8.80924,93.1476 13.5,94C 6.03395,90.2329 3.70062,84.3996 6.5,76.5C 10.0538,73.4809 13.3871,71.1475 16.5,69.5C 16.8333,68.8333 17.1667,68.1667 17.5,67.5C 20.0409,68.1032 22.3743,68.1032 24.5,67.5C 25.3331,65.2478 25.3331,63.0811 24.5,61C 26.584,60.2217 28.4173,59.055 30,57.5C 30.6172,58.4491 30.4506,59.2825 29.5,60C 30.5,60.6667 31.5,60.6667 32.5,60C 31.3595,59.2588 31.3595,58.4255 32.5,57.5C 31.5,56.6667 30.5,55.8333 29.5,55C 31.433,54.7489 33.2663,54.2489 35,53.5C 34.621,51.925 34.7877,50.425 35.5,49C 33.6133,48.8374 32.1133,49.6707 31,51.5C 30.2825,50.5494 29.4491,50.3828 28.5,51C 29.8331,52.8402 29.6665,53.3402 28,52.5C 25.8345,55.7472 23.8345,59.0806 22,62.5C 22.379,60.925 22.2123,59.425 21.5,58C 24.8841,55.3534 26.8841,51.8534 27.5,47.5C 28.2739,46.2888 29.1072,46.2888 30,47.5C 30.8068,43.551 31.3068,43.551 31.5,47.5C 32.5,47.5 33.5,47.5 34.5,47.5C 34.8333,42.1667 35.1667,42.1667 35.5,47.5C 39.0395,49.855 42.8729,51.855 47,53.5C 47.49,52.2068 47.6567,50.8734 47.5,49.5 Z"/></g>
<g><path style="opacity:1" fill="#383f48" d="M 37.5,120.5 C 40.026,122.418 42.026,124.751 43.5,127.5C 42.2058,126.71 41.0391,125.71 40,124.5C 39.0565,125.263 38.5565,126.263 38.5,127.5C 40.8025,137.516 40.9691,147.516 39,157.5C 36.5068,158.946 34.6735,158.279 33.5,155.5C 35.048,155.788 36.7147,155.788 38.5,155.5C 40.6875,149.231 38.6875,146.565 32.5,147.5C 34.54,144.866 36.7067,144.866 39,147.5C 38.2412,138.415 37.7412,129.415 37.5,120.5 Z"/></g>
<g><path style="opacity:1" fill="#323c46" d="M 32.5,147.5 C 27.8894,151.049 25.0561,155.715 24,161.5C 23.3333,160.167 22.6667,160.167 22,161.5C 20.872,163.345 20.372,165.345 20.5,167.5C 19.2355,165.228 19.4022,162.895 21,160.5C 23.1672,158.17 24.8338,155.503 26,152.5C 27.7772,150.21 29.9438,148.543 32.5,147.5 Z"/></g>
<g><path style="opacity:1" fill="#47565f" d="M 4.5,133.5 C 4.33537,136.518 4.50204,139.518 5,142.5C 6.73423,144.451 8.9009,145.451 11.5,145.5C 11.5,146.167 11.5,146.833 11.5,147.5C 9.73759,147.357 8.07092,147.691 6.5,148.5C 5.79367,146.296 4.79367,144.296 3.5,142.5C 3.10615,138.037 3.43949,135.037 4.5,133.5 Z"/></g>
<g><path style="opacity:1" fill="#f7f9fa" d="M 43.5,127.5 C 46.4449,139.39 48.9449,151.39 51,163.5C 51.2135,157.224 50.3802,151.058 48.5,145C 49.0319,142.98 50.3652,142.147 52.5,142.5C 52.7976,148.445 54.2976,154.112 57,159.5C 59.3643,168.417 61.1976,177.417 62.5,186.5C 62.2792,189.097 61.7792,189.097 61,186.5C 59.8456,188.957 58.5123,188.957 57,186.5C 48.77,188.452 40.27,189.118 31.5,188.5C 30.3307,185.489 28.664,182.822 26.5,180.5C 26.0075,178.181 25.0075,176.181 23.5,174.5C 23.2927,171.759 22.2927,169.426 20.5,167.5C 20.372,165.345 20.872,163.345 22,161.5C 22.6667,160.167 23.3333,160.167 24,161.5C 25.0561,155.715 27.8894,151.049 32.5,147.5C 38.6875,146.565 40.6875,149.231 38.5,155.5C 36.7147,155.788 35.048,155.788 33.5,155.5C 34.6735,158.279 36.5068,158.946 39,157.5C 40.9691,147.516 40.8025,137.516 38.5,127.5C 38.5565,126.263 39.0565,125.263 40,124.5C 41.0391,125.71 42.2058,126.71 43.5,127.5 Z"/></g>
<g><path style="opacity:1" fill="#3f475c" d="M 43.5,127.5 C 45.7303,131.51 47.397,135.843 48.5,140.5C 49.9492,141.172 51.2825,141.839 52.5,142.5C 50.3652,142.147 49.0319,142.98 48.5,145C 50.3802,151.058 51.2135,157.224 51,163.5C 48.9449,151.39 46.4449,139.39 43.5,127.5 Z"/></g>
<g><path style="opacity:1" fill="#1f2f49" d="M 11.5,147.5 C 11.5,146.833 11.5,146.167 11.5,145.5C 11.6653,141.818 11.4986,138.152 11,134.5C 8.99719,132.542 6.83053,132.209 4.5,133.5C 3.43949,135.037 3.10615,138.037 3.5,142.5C 1.74831,142.582 0.748308,141.749 0.5,140C 1.78258,137.152 1.78258,134.318 0.5,131.5C 6.9363,126.538 13.603,126.205 20.5,130.5C 19.1667,133.5 19.1667,136.5 20.5,139.5C 19.1349,140.941 17.6349,142.274 16,143.5C 15.5065,145.134 15.3398,146.801 15.5,148.5C 14.0413,148.567 12.7079,148.234 11.5,147.5 Z"/></g>
<g><path style="opacity:1" fill="#a5bfd6" d="M 13.5,137.5 C 15.337,137.639 15.6704,138.306 14.5,139.5C 13.7025,139.043 13.3691,138.376 13.5,137.5 Z"/></g>
<g><path style="opacity:1" fill="#f4f9f9" d="M 11.5,145.5 C 8.9009,145.451 6.73423,144.451 5,142.5C 4.50204,139.518 4.33537,136.518 4.5,133.5C 6.83053,132.209 8.99719,132.542 11,134.5C 11.4986,138.152 11.6653,141.818 11.5,145.5 Z"/></g>
<g><path style="opacity:1" fill="#92a8be" d="M 15.5,130.5 C 17.337,130.639 17.6704,131.306 16.5,132.5C 15.7025,132.043 15.3691,131.376 15.5,130.5 Z"/></g>
<g><path style="opacity:1" fill="#838e94" d="M 31.5,111.5 C 33.1733,112.343 34.34,113.676 35,115.5C 40.1016,112.703 40.6016,113.37 36.5,117.5C 37.1272,118.417 37.4606,119.417 37.5,120.5C 36.1154,119.426 34.9487,118.093 34,116.5C 33.1072,117.711 32.2739,117.711 31.5,116.5C 32.0253,115.808 32.6919,115.308 33.5,115C 32.1772,114.184 31.5106,113.017 31.5,111.5 Z"/></g>
<g><path style="opacity:1" fill="#2a3a51" d="M 31.5,111.5 C 29.0737,110.647 28.2404,108.981 29,106.5C 30.8921,107.617 31.7254,109.284 31.5,111.5 Z"/></g>
<g><path style="opacity:1" fill="#5e676d" d="M 9.5,100.5 C 9.7352,99.9033 10.2352,99.5699 11,99.5C 12.8114,100.078 14.6447,100.578 16.5,101C 14.1152,101.556 11.7819,101.39 9.5,100.5 Z"/></g>
<g><path style="opacity:1" fill="#5d6b73" d="M 26.5,93.5 C 27.3764,93.3691 28.0431,93.7025 28.5,94.5C 25.4174,97.8926 21.7507,99.2259 17.5,98.5C 21.2964,98.1054 24.2964,96.4388 26.5,93.5 Z"/></g>
<g><path style="opacity:1" fill="#6b757d" d="M 8.5,96.5 C 8.55999,95.9569 8.89333,95.6236 9.5,95.5C 11.2251,96.0149 12.8917,96.6816 14.5,97.5C 12.3835,98.4693 10.3835,98.136 8.5,96.5 Z"/></g>
<g><path style="opacity:1" fill="#8e999a" d="M 31.5,88.5 C 31.3893,89.1174 31.056,89.6174 30.5,90C 41.1668,91.3282 41.1668,91.9949 30.5,92C 29.6195,91.2917 28.9528,90.4584 28.5,89.5C 29.209,88.596 30.209,88.2627 31.5,88.5 Z"/></g>
<g><path style="opacity:1" fill="#7d8893" d="M 13.5,76.5 C 19.6898,76.3575 23.0231,79.3575 23.5,85.5C 22.5416,85.9528 21.7083,86.6195 21,87.5C 20.2825,86.5494 19.4491,86.3828 18.5,87C 19.6956,87.6543 19.6956,88.1543 18.5,88.5C 11.4134,86.7111 9.74674,82.7111 13.5,76.5 Z"/></g>
<g><path style="opacity:1" fill="#5e6a73" d="M 14.5,73.5 C 15.8734,73.3433 17.2068,73.51 18.5,74C 16.9419,74.21 15.6085,74.71 14.5,75.5C 13.8333,75.5 13.5,75.8333 13.5,76.5C 11.9256,76.9371 10.7589,77.9371 10,79.5C 9.6799,82.5399 9.6799,85.5399 10,88.5C 6.62823,83.9368 6.7949,79.4368 10.5,75C 11.745,74.2086 13.0783,73.7086 14.5,73.5 Z"/></g>
<g><path style="opacity:1" fill="#a4b0b7" d="M 14.5,73.5 C 17.597,72.2124 20.597,72.7124 23.5,75C 20.6055,76.5666 17.6055,76.7333 14.5,75.5C 15.6085,74.71 16.9419,74.21 18.5,74C 17.2068,73.51 15.8734,73.3433 14.5,73.5 Z"/></g>
<g><path style="opacity:1" fill="#383f4a" d="M 138.5,157.5 C 139.5,158.167 140.5,158.833 141.5,159.5C 141.5,160.167 141.5,160.833 141.5,161.5C 139.738,160.738 138.738,159.404 138.5,157.5 Z"/></g>
<g><path style="opacity:1" fill="#494f5c" d="M 52.5,142.5 C 57.9341,155.729 61.6007,169.562 63.5,184C 63.472,185.07 63.1386,185.903 62.5,186.5C 61.1976,177.417 59.3643,168.417 57,159.5C 54.2976,154.112 52.7976,148.445 52.5,142.5 Z"/></g>
<g><path style="opacity:1" fill="#414952" d="M 141.5,161.5 C 142.496,161.414 143.329,161.748 144,162.5C 146.08,165.065 147.913,167.732 149.5,170.5C 146.833,168.5 144.5,166.167 142.5,163.5C 142.167,162.833 141.833,162.167 141.5,161.5 Z"/></g>
<g><path style="opacity:1" fill="#2d3a47" d="M 20.5,167.5 C 22.2927,169.426 23.2927,171.759 23.5,174.5C 21.7073,172.574 20.7073,170.241 20.5,167.5 Z"/></g>
<g><path style="opacity:1" fill="#363f44" d="M 89.5,169.5 C 91.539,170.911 92.539,172.911 92.5,175.5C 90.9925,173.819 89.9925,171.819 89.5,169.5 Z"/></g>
<g><path style="opacity:1" fill="#39444a" d="M 149.5,170.5 C 151.9,172.296 153.567,174.63 154.5,177.5C 152.1,175.704 150.433,173.37 149.5,170.5 Z"/></g>
<g><path style="opacity:1" fill="#4c535c" d="M 92.5,175.5 C 93.8976,176.777 94.5643,178.443 94.5,180.5C 94.6598,182.355 93.9931,183.688 92.5,184.5C 92.5,181.5 92.5,178.5 92.5,175.5 Z"/></g>
<g><path style="opacity:1" fill="#3e444a" d="M 154.5,177.5 C 157.317,180.426 160.151,183.426 163,186.5C 163.692,187.437 163.525,188.103 162.5,188.5C 159.09,185.335 156.423,181.668 154.5,177.5 Z"/></g>
<g><path style="opacity:1" fill="#414a55" d="M 26.5,180.5 C 28.664,182.822 30.3307,185.489 31.5,188.5C 31.19,189.738 30.69,189.738 30,188.5C 28.5462,185.929 27.3795,183.262 26.5,180.5 Z"/></g>
<g><path style="opacity:1" fill="#353d40" d="M 92.5,184.5 C 92.4431,185.609 92.1098,186.609 91.5,187.5C 90.2848,186.221 90.6182,185.221 92.5,184.5 Z"/></g>
</svg>
