<?xml version="1.0" encoding="UTF-8"?>
<!DOCTYPE svg PUBLIC "-//W3C//DTD SVG 1.1//EN" "http://www.w3.org/Graphics/SVG/1.1/DTD/svg11.dtd">
<svg xmlns="http://www.w3.org/2000/svg" version="1.1" width="200px" height="200px" style="shape-rendering:geometricPrecision; text-rendering:geometricPrecision; image-rendering:optimizeQuality; fill-rule:evenodd; clip-rule:evenodd" xmlns:xlink="http://www.w3.org/1999/xlink">
<g><path style="opacity:1" fill="#d0ecf2" d="M -0.5,-0.5 C 32.8333,-0.5 66.1667,-0.5 99.5,-0.5C 99.8308,7.19552 99.4975,14.8622 98.5,22.5C 97.8165,22.8627 97.1499,23.1961 96.5,23.5C 88.0288,23.6593 79.8621,25.326 72,28.5C 70.1878,28.5066 68.6878,27.84 67.5,26.5C 68.0253,25.8076 68.6919,25.3076 69.5,25C 67.1253,22.5933 66.1253,23.0933 66.5,26.5C 65.448,26.3505 64.448,26.5172 63.5,27C 70.0439,29.1155 69.8772,30.9488 63,32.5C 62.6667,32.1667 62.3333,31.8333 62,31.5C 62.164,26.1611 62.664,20.8278 63.5,15.5C 60.8333,15.5 58.1667,15.5 55.5,15.5C 55.5222,19.5932 56.1888,23.5932 57.5,27.5C 57.4493,29.0998 57.1159,30.5998 56.5,32C 57.8333,32 59.1667,32 60.5,32C 59.1667,33 59.1667,34 60.5,35C 59.8333,35.6667 59.1667,36.3333 58.5,37C 54.8484,37.4986 51.1817,37.6653 47.5,37.5C 47.1081,40.7216 47.6081,43.7216 49,46.5C 51.2815,43.0435 54.4482,41.0435 58.5,40.5C 59.3857,41.325 59.719,42.325 59.5,43.5C 63.2434,43.4592 63.4101,44.1259 60,45.5C 58.4947,47.2983 58.3281,49.1316 59.5,51C 58.5509,51.6172 57.7175,51.4506 57,50.5C 56.5172,51.448 56.3505,52.448 56.5,53.5C 51.8868,54.2978 47.5534,55.9645 43.5,58.5C 42.9041,57.2839 42.7374,55.9506 43,54.5C 39.038,59.4339 35.8713,64.7673 33.5,70.5C 33.9555,67.7965 34.6221,65.1298 35.5,62.5C 37.8208,59.2041 40.1542,55.8708 42.5,52.5C 41.0499,51.1502 40.3832,49.4835 40.5,47.5C 37.5,47.5 34.5,47.5 31.5,47.5C 31.5,42.1667 31.5,36.8333 31.5,31.5C 30.1667,31.5 28.8333,31.5 27.5,31.5C 27.5,34.1667 27.5,36.8333 27.5,39.5C 26.1667,39.5 24.8333,39.5 23.5,39.5C 23.5,43.5 23.5,47.5 23.5,51.5C 20.8333,51.5 18.1667,51.5 15.5,51.5C 15.5,52.8333 15.5,54.1667 15.5,55.5C 19.5,55.5 23.5,55.5 27.5,55.5C 27.5,58.1667 27.5,60.8333 27.5,63.5C 23.5,63.5 19.5,63.5 15.5,63.5C 15.5,66.1667 15.5,68.8333 15.5,71.5C 12.8333,71.5 10.1667,71.5 7.5,71.5C 7.5,68.8333 7.5,66.1667 7.5,63.5C 4.83333,63.5 2.16667,63.5 -0.5,63.5C -0.5,42.1667 -0.5,20.8333 -0.5,-0.5 Z"/></g>
<g><path style="opacity:1" fill="#d1ecf3" d="M 101.5,-0.5 C 134.167,-0.5 166.833,-0.5 199.5,-0.5C 199.5,47.5 199.5,95.5 199.5,143.5C 196.833,143.5 194.167,143.5 191.5,143.5C 191.005,131.419 191.672,119.419 193.5,107.5C 192.189,103.593 191.522,99.5932 191.5,95.5C 185.833,95.5 180.167,95.5 174.5,95.5C 174.405,93.2143 173.738,91.2143 172.5,89.5C 171.834,79.8227 169.168,70.8227 164.5,62.5C 163.364,58.2294 161.198,54.5627 158,51.5C 157.316,50.2161 157.483,49.0495 158.5,48C 157.551,47.3828 156.718,47.5494 156,48.5C 153.609,45.4032 150.776,43.2365 147.5,42C 151.523,45.6526 151.189,46.1526 146.5,43.5C 145.893,43.6236 145.56,43.9569 145.5,44.5C 144.527,43.016 143.193,42.516 141.5,43C 143.946,44.4828 143.612,45.6495 140.5,46.5C 139.416,45.3349 138.583,44.0016 138,42.5C 137.667,42.8333 137.333,43.1667 137,43.5C 135.136,40.7928 132.636,39.9595 129.5,41C 128.549,41.7175 128.383,42.5509 129,43.5C 130.969,40.8761 132.802,40.8761 134.5,43.5C 133.167,43.5 131.833,43.5 130.5,43.5C 130.5,44.8333 130.5,46.1667 130.5,47.5C 128.821,47.2852 127.821,47.9519 127.5,49.5C 125.25,49.1814 123.25,49.6814 121.5,51C 122.138,52.7067 122.138,54.54 121.5,56.5C 120.292,55.7659 118.959,55.4326 117.5,55.5C 117.679,53.0459 117.013,50.8792 115.5,49C 116.187,47.8382 116.353,46.6716 116,45.5C 114.94,45.2545 113.773,45.2545 112.5,45.5C 109.722,44.2636 107.389,42.597 105.5,40.5C 105.5,40.1667 105.5,39.8333 105.5,39.5C 104.772,34.5488 104.272,29.5488 104,24.5C 103.292,23.6195 102.458,22.9528 101.5,22.5C 101.5,14.8333 101.5,7.16667 101.5,-0.5 Z"/></g>
<g><path style="opacity:1" fill="#cfe7e9" d="M 96.5,23.5 C 95.5701,27.3998 95.2367,31.3998 95.5,35.5C 94.6457,37.035 94.6457,38.3684 95.5,39.5C 95.5,39.8333 95.5,40.1667 95.5,40.5C 95.5,40.8333 95.5,41.1667 95.5,41.5C 93.9064,41.9195 92.4064,42.5862 91,43.5C 88.9011,42.7135 86.7345,42.3801 84.5,42.5C 86.0419,41.8365 87.7086,41.1698 89.5,40.5C 86.7715,39.9382 85.2715,38.2715 85,35.5C 84.1841,36.8228 83.0174,37.4894 81.5,37.5C 81.6107,36.8826 81.944,36.3826 82.5,36C 81.1667,36 79.8333,36 78.5,36C 80.0074,35.1627 80.5074,33.9961 80,32.5C 77.7434,35.165 75.5767,37.8317 73.5,40.5C 68.5933,40.7799 67.7599,42.4465 71,45.5C 74.0705,44.0406 76.9039,44.3739 79.5,46.5C 79.5,46.8333 79.5,47.1667 79.5,47.5C 82.3822,50.2214 83.5489,53.5548 83,57.5C 82.6667,57.1667 82.3333,56.8333 82,56.5C 81.8213,60.0252 81.3213,63.3586 80.5,66.5C 80.5,63.1667 80.5,59.8333 80.5,56.5C 74.5377,56.1222 68.8711,57.1222 63.5,59.5C 60.1262,59.6744 56.7928,60.1744 53.5,61C 51.8807,61.2355 50.8807,62.0689 50.5,63.5C 50.5,70.5 50.5,77.5 50.5,84.5C 47.4148,84.458 45.0814,83.1247 43.5,80.5C 40.562,83.5628 37.2287,85.8961 33.5,87.5C 32.1134,89.4888 32.4468,91.3221 34.5,93C 37.2538,93.2724 39.9205,93.7724 42.5,94.5C 42.9528,95.4584 43.6195,96.2917 44.5,97C 50.9658,97.9295 57.2991,98.7628 63.5,99.5C 57.3108,99.8033 50.9775,100.137 44.5,100.5C 45.5,101.333 46.5,102.167 47.5,103C 46.8333,103.333 46.1667,103.667 45.5,104C 45.7284,104.399 46.0618,104.565 46.5,104.5C 45.1667,104.833 43.8333,105.167 42.5,105.5C 37.1845,105.497 35.1845,108.164 36.5,113.5C 34.7839,113.371 33.1172,113.038 31.5,112.5C 30.1686,103.4 29.1686,94.3999 28.5,85.5C 27.0735,87.1484 26.2401,89.1484 26,91.5C 23.9126,87.03 24.0793,82.6967 26.5,78.5C 27.7362,79.2458 29.0695,79.5792 30.5,79.5C 30.5275,76.0836 31.5275,73.0836 33.5,70.5C 35.8713,64.7673 39.038,59.4339 43,54.5C 42.7374,55.9506 42.9041,57.2839 43.5,58.5C 47.5534,55.9645 51.8868,54.2978 56.5,53.5C 56.3505,52.448 56.5172,51.448 57,50.5C 57.7175,51.4506 58.5509,51.6172 59.5,51C 58.3281,49.1316 58.4947,47.2983 60,45.5C 63.4101,44.1259 63.2434,43.4592 59.5,43.5C 59.719,42.325 59.3857,41.325 58.5,40.5C 54.4482,41.0435 51.2815,43.0435 49,46.5C 47.6081,43.7216 47.1081,40.7216 47.5,37.5C 51.1817,37.6653 54.8484,37.4986 58.5,37C 59.1667,36.3333 59.8333,35.6667 60.5,35C 59.1667,34 59.1667,33 60.5,32C 59.1667,32 57.8333,32 56.5,32C 57.1159,30.5998 57.4493,29.0998 57.5,27.5C 56.1888,23.5932 55.5222,19.5932 55.5,15.5C 58.1667,15.5 60.8333,15.5 63.5,15.5C 62.664,20.8278 62.164,26.1611 62,31.5C 62.3333,31.8333 62.6667,32.1667 63,32.5C 69.8772,30.9488 70.0439,29.1155 63.5,27C 64.448,26.5172 65.448,26.3505 66.5,26.5C 66.1253,23.0933 67.1253,22.5933 69.5,25C 68.6919,25.3076 68.0253,25.8076 67.5,26.5C 68.6878,27.84 70.1878,28.5066 72,28.5C 79.8621,25.326 88.0288,23.6593 96.5,23.5 Z"/></g>
<g><path style="opacity:1" fill="#485a6e" d="M 101.5,22.5 C 102.458,22.9528 103.292,23.6195 104,24.5C 104.272,29.5488 104.772,34.5488 105.5,39.5C 104.292,40.2341 102.959,40.5674 101.5,40.5C 99.5,40.5 97.5,40.5 95.5,40.5C 95.5,40.1667 95.5,39.8333 95.5,39.5C 103.841,39.0821 105.841,35.0821 101.5,27.5C 100.262,31.3107 99.5958,31.3107 99.5,27.5C 98.5,27.5 97.5,27.5 96.5,27.5C 98.1484,26.0735 100.148,25.2401 102.5,25C 101.001,24.1618 100.668,23.3285 101.5,22.5 Z"/></g>
<g><path style="opacity:1" fill="#567d99" d="M 96.5,27.5 C 97.5,27.5 98.5,27.5 99.5,27.5C 99.5958,31.3107 100.262,31.3107 101.5,27.5C 105.841,35.0821 103.841,39.0821 95.5,39.5C 94.6457,38.3684 94.6457,37.035 95.5,35.5C 97.3176,37.0781 98.3176,36.5781 98.5,34C 97.3818,31.941 96.7151,29.7743 96.5,27.5 Z"/></g>
<g><path style="opacity:1" fill="#84a1a9" d="M 119.5,34.5 C 118.01,36.4006 116.343,37.0673 114.5,36.5C 114.205,35.1033 113.871,33.6033 113.5,32C 114.025,31.3076 114.692,30.8076 115.5,30.5C 116.736,31.2458 118.07,31.5792 119.5,31.5C 119.5,32.5 119.5,33.5 119.5,34.5 Z"/></g>
<g><path style="opacity:1" fill="#6e96a6" d="M 99.5,-0.5 C 100.167,-0.5 100.833,-0.5 101.5,-0.5C 101.5,7.16667 101.5,14.8333 101.5,22.5C 100.668,23.3285 101.001,24.1618 102.5,25C 100.148,25.2401 98.1484,26.0735 96.5,27.5C 96.7151,29.7743 97.3818,31.941 98.5,34C 98.3176,36.5781 97.3176,37.0781 95.5,35.5C 95.2367,31.3998 95.5701,27.3998 96.5,23.5C 97.1499,23.1961 97.8165,22.8627 98.5,22.5C 99.4975,14.8622 99.8308,7.19552 99.5,-0.5 Z"/></g>
<g><path style="opacity:1" fill="#8f9d97" d="M 81.5,37.5 C 80.8333,38.1667 80.1667,38.8333 79.5,39.5C 77.5588,39.8693 75.7255,40.536 74,41.5C 73.6012,41.2716 73.4346,40.9382 73.5,40.5C 75.5767,37.8317 77.7434,35.165 80,32.5C 80.5074,33.9961 80.0074,35.1627 78.5,36C 79.8333,36 81.1667,36 82.5,36C 81.944,36.3826 81.6107,36.8826 81.5,37.5 Z"/></g>
<g><path style="opacity:1" fill="#5b6c75" d="M 119.5,34.5 C 119.873,37.9823 118.873,40.9823 116.5,43.5C 115.365,41.2933 114.699,38.9599 114.5,36.5C 116.343,37.0673 118.01,36.4006 119.5,34.5 Z"/></g>
<g><path style="opacity:1" fill="#8d7176" d="M 79.5,39.5 C 79.5,41.8333 79.5,44.1667 79.5,46.5C 76.9039,44.3739 74.0705,44.0406 71,45.5C 67.7599,42.4465 68.5933,40.7799 73.5,40.5C 73.4346,40.9382 73.6012,41.2716 74,41.5C 75.7255,40.536 77.5588,39.8693 79.5,39.5 Z"/></g>
<g><path style="opacity:1" fill="#ac7f73" d="M 84.5,42.5 C 82.1861,43.1787 81.8528,44.512 83.5,46.5C 82.3112,47.4287 80.9778,47.762 79.5,47.5C 79.5,47.1667 79.5,46.8333 79.5,46.5C 79.5,44.1667 79.5,41.8333 79.5,39.5C 80.1667,38.8333 80.8333,38.1667 81.5,37.5C 83.0174,37.4894 84.1841,36.8228 85,35.5C 85.2715,38.2715 86.7715,39.9382 89.5,40.5C 87.7086,41.1698 86.0419,41.8365 84.5,42.5 Z"/></g>
<g><path style="opacity:1" fill="#b9cdc4" d="M 145.5,44.5 C 144.117,47.9427 141.45,49.4427 137.5,49C 136.944,49.3826 136.611,49.8826 136.5,50.5C 136.167,50.5 135.833,50.5 135.5,50.5C 135.5,50.1667 135.5,49.8333 135.5,49.5C 137.062,47.0993 136.729,45.0993 134.5,43.5C 132.802,40.8761 130.969,40.8761 129,43.5C 128.383,42.5509 128.549,41.7175 129.5,41C 132.636,39.9595 135.136,40.7928 137,43.5C 137.333,43.1667 137.667,42.8333 138,42.5C 138.583,44.0016 139.416,45.3349 140.5,46.5C 143.612,45.6495 143.946,44.4828 141.5,43C 143.193,42.516 144.527,43.016 145.5,44.5 Z"/></g>
<g><path style="opacity:1" fill="#e6f4d2" d="M 134.5,43.5 C 136.729,45.0993 137.062,47.0993 135.5,49.5C 132.833,49.5 130.167,49.5 127.5,49.5C 127.821,47.9519 128.821,47.2852 130.5,47.5C 130.5,46.1667 130.5,44.8333 130.5,43.5C 131.833,43.5 133.167,43.5 134.5,43.5 Z"/></g>
<g><path style="opacity:1" fill="#e9c897" d="M 95.5,40.5 C 97.5,40.5 99.5,40.5 101.5,40.5C 101.433,41.9587 101.766,43.2921 102.5,44.5C 102.5,48.1667 102.5,51.8333 102.5,55.5C 101.224,53.4375 100.39,51.1042 100,48.5C 99.6097,51.1042 98.7763,53.4375 97.5,55.5C 97.6653,51.8183 97.4986,48.1516 97,44.5C 96.7679,45.7375 96.2679,46.7375 95.5,47.5C 95.5,45.5 95.5,43.5 95.5,41.5C 95.5,41.1667 95.5,40.8333 95.5,40.5 Z"/></g>
<g><path style="opacity:1" fill="#9c6d71" d="M 135.5,50.5 C 135.833,50.5 136.167,50.5 136.5,50.5C 138.382,51.221 138.715,52.221 137.5,53.5C 133.154,53.6657 128.821,53.499 124.5,53C 127.907,51.0651 131.574,50.2318 135.5,50.5 Z"/></g>
<g><path style="opacity:1" fill="#9d9391" d="M 127.5,49.5 C 130.167,49.5 132.833,49.5 135.5,49.5C 135.5,49.8333 135.5,50.1667 135.5,50.5C 131.574,50.2318 127.907,51.0651 124.5,53C 128.821,53.499 133.154,53.6657 137.5,53.5C 137.5,53.8333 137.5,54.1667 137.5,54.5C 132.821,54.3342 128.155,54.5008 123.5,55C 123.957,55.414 124.291,55.914 124.5,56.5C 128.445,57.4909 132.445,57.8242 136.5,57.5C 134.952,58.7943 132.952,59.4609 130.5,59.5C 128.079,59.44 125.746,59.1066 123.5,58.5C 123.167,57.5 122.5,56.8333 121.5,56.5C 122.138,54.54 122.138,52.7067 121.5,51C 123.25,49.6814 125.25,49.1814 127.5,49.5 Z"/></g>
<g><path style="opacity:1" fill="#6b6977" d="M 137.5,54.5 C 137.443,55.609 137.11,56.609 136.5,57.5C 132.445,57.8242 128.445,57.4909 124.5,56.5C 124.291,55.914 123.957,55.414 123.5,55C 128.155,54.5008 132.821,54.3342 137.5,54.5 Z"/></g>
<g><path style="opacity:1" fill="#718f99" d="M 80.5,66.5 C 80.5,67.1667 80.5,67.8333 80.5,68.5C 79.713,70.1042 78.3797,70.7709 76.5,70.5C 76.8212,68.9519 77.8212,68.2852 79.5,68.5C 79.8204,65.1016 79.487,61.7683 78.5,58.5C 77.069,58.9766 75.7357,59.6433 74.5,60.5C 74.6886,63.9851 74.6886,67.6518 74.5,71.5C 74.5,72.1667 74.1667,72.5 73.5,72.5C 73.5,69.1667 73.5,65.8333 73.5,62.5C 71.8333,62.5 70.1667,62.5 68.5,62.5C 69.6085,61.71 70.9419,61.21 72.5,61C 70.8988,60.7266 69.3988,60.2266 68,59.5C 66.5295,60.2666 65.0295,60.9332 63.5,61.5C 63.5,60.8333 63.5,60.1667 63.5,59.5C 68.8711,57.1222 74.5377,56.1222 80.5,56.5C 80.5,59.8333 80.5,63.1667 80.5,66.5 Z"/></g>
<g><path style="opacity:1" fill="#c39c88" d="M 63.5,59.5 C 63.5,60.1667 63.5,60.8333 63.5,61.5C 62.391,61.5569 61.391,61.8902 60.5,62.5C 59.209,62.2627 58.209,62.596 57.5,63.5C 55.8333,63.5 54.1667,63.5 52.5,63.5C 52.5,71.8333 52.5,80.1667 52.5,88.5C 51.8333,80.1667 51.1667,71.8333 50.5,63.5C 50.8807,62.0689 51.8807,61.2355 53.5,61C 56.7928,60.1744 60.1262,59.6744 63.5,59.5 Z"/></g>
<g><path style="opacity:1" fill="#5f6666" d="M 68.5,62.5 C 68.5,68.1667 68.5,73.8333 68.5,79.5C 68.1667,79.5 67.8333,79.5 67.5,79.5C 67.5,74.1667 67.5,68.8333 67.5,63.5C 66.5,63.5 65.5,63.5 64.5,63.5C 64.8214,69.0262 64.4881,74.3595 63.5,79.5C 63.5,73.5 63.5,67.5 63.5,61.5C 65.0295,60.9332 66.5295,60.2666 68,59.5C 69.3988,60.2266 70.8988,60.7266 72.5,61C 70.9419,61.21 69.6085,61.71 68.5,62.5 Z"/></g>
<g><path style="opacity:1" fill="#3f8ea0" d="M 76.5,70.5 C 76.5,70.8333 76.5,71.1667 76.5,71.5C 75.8333,71.5 75.1667,71.5 74.5,71.5C 74.6886,67.6518 74.6886,63.9851 74.5,60.5C 75.7357,59.6433 77.069,58.9766 78.5,58.5C 79.487,61.7683 79.8204,65.1016 79.5,68.5C 77.8212,68.2852 76.8212,68.9519 76.5,70.5 Z"/></g>
<g><path style="opacity:1" fill="#ebdec7" d="M 105.5,39.5 C 105.5,39.8333 105.5,40.1667 105.5,40.5C 105.337,42.8568 105.503,45.1902 106,47.5C 108.173,50.3456 109.673,53.5122 110.5,57C 109.727,60.9257 108.727,64.7591 107.5,68.5C 103.445,68.8242 99.4454,68.4909 95.5,67.5C 92.696,65.8117 89.696,64.645 86.5,64C 87.448,63.5172 88.448,63.3505 89.5,63.5C 89.3359,60.8127 89.5026,58.146 90,55.5C 90.3768,54.0577 91.2101,53.0577 92.5,52.5C 91.5651,55.1128 91.3985,57.7795 92,60.5C 92.3333,60.1667 92.6667,59.8333 93,59.5C 93.4834,63.6497 95.8168,65.6497 100,65.5C 102.3,65.5056 104.466,65.0056 106.5,64C 107.617,60.9269 107.784,57.7603 107,54.5C 106.585,52.7091 105.585,51.3757 104,50.5C 103.809,48.2922 103.309,46.2922 102.5,44.5C 101.766,43.2921 101.433,41.9587 101.5,40.5C 102.959,40.5674 104.292,40.2341 105.5,39.5 Z"/></g>
<g><path style="opacity:1" fill="#e6f5f2" d="M 105.5,40.5 C 107.389,42.597 109.722,44.2636 112.5,45.5C 113.773,45.2545 114.94,45.2545 116,45.5C 116.353,46.6716 116.187,47.8382 115.5,49C 117.013,50.8792 117.679,53.0459 117.5,55.5C 118.959,55.4326 120.292,55.7659 121.5,56.5C 122.5,56.8333 123.167,57.5 123.5,58.5C 122.761,58.369 122.094,58.5357 121.5,59C 122.252,59.6708 122.586,60.5041 122.5,61.5C 120.634,60.9862 118.8,60.3195 117,59.5C 114.152,61.8591 112.319,64.8591 111.5,68.5C 110.833,68.8333 110.167,69.1667 109.5,69.5C 103.364,70.2725 103.031,71.9392 108.5,74.5C 108.058,75.7387 107.391,76.7387 106.5,77.5C 103.405,74.3712 99.7386,73.7045 95.5,75.5C 95.5,73.8333 95.5,72.1667 95.5,70.5C 94.791,69.596 93.791,69.2627 92.5,69.5C 91.376,68.1914 89.876,67.5247 88,67.5C 85.5379,68.1595 83.0379,68.4928 80.5,68.5C 80.5,67.8333 80.5,67.1667 80.5,66.5C 81.3213,63.3586 81.8213,60.0252 82,56.5C 82.3333,56.8333 82.6667,57.1667 83,57.5C 83.5489,53.5548 82.3822,50.2214 79.5,47.5C 80.9778,47.762 82.3112,47.4287 83.5,46.5C 81.8528,44.512 82.1861,43.1787 84.5,42.5C 86.7345,42.3801 88.9011,42.7135 91,43.5C 92.4064,42.5862 93.9064,41.9195 95.5,41.5C 95.5,43.5 95.5,45.5 95.5,47.5C 94.4728,49.184 93.4728,50.8506 92.5,52.5C 91.2101,53.0577 90.3768,54.0577 90,55.5C 89.5026,58.146 89.3359,60.8127 89.5,63.5C 88.448,63.3505 87.448,63.5172 86.5,64C 89.696,64.645 92.696,65.8117 95.5,67.5C 99.4454,68.4909 103.445,68.8242 107.5,68.5C 108.727,64.7591 109.727,60.9257 110.5,57C 109.673,53.5122 108.173,50.3456 106,47.5C 105.503,45.1902 105.337,42.8568 105.5,40.5 Z"/></g>
<g><path style="opacity:1" fill="#faf3bc" d="M 97.5,55.5 C 97.5,58.1667 97.5,60.8333 97.5,63.5C 98.8333,63.5 100.167,63.5 101.5,63.5C 102.092,60.8728 102.425,58.2062 102.5,55.5C 102.5,51.8333 102.5,48.1667 102.5,44.5C 103.309,46.2922 103.809,48.2922 104,50.5C 105.585,51.3757 106.585,52.7091 107,54.5C 107.784,57.7603 107.617,60.9269 106.5,64C 104.466,65.0056 102.3,65.5056 100,65.5C 95.8168,65.6497 93.4834,63.6497 93,59.5C 92.6667,59.8333 92.3333,60.1667 92,60.5C 91.3985,57.7795 91.5651,55.1128 92.5,52.5C 93.4728,50.8506 94.4728,49.184 95.5,47.5C 96.2679,46.7375 96.7679,45.7375 97,44.5C 97.4986,48.1516 97.6653,51.8183 97.5,55.5 Z"/></g>
<g><path style="opacity:1" fill="#f9efcd" d="M 102.5,55.5 C 102.425,58.2062 102.092,60.8728 101.5,63.5C 100.167,63.5 98.8333,63.5 97.5,63.5C 97.5,60.8333 97.5,58.1667 97.5,55.5C 98.7763,53.4375 99.6097,51.1042 100,48.5C 100.39,51.1042 101.224,53.4375 102.5,55.5 Z"/></g>
<g><path style="opacity:1" fill="#876665" d="M 63.5,61.5 C 63.5,67.5 63.5,73.5 63.5,79.5C 63.5,80.5 63.5,81.5 63.5,82.5C 61.0885,82.8633 59.5885,81.8633 59,79.5C 57.78,73.9987 58.6133,68.9987 61.5,64.5C 61.1373,63.8165 60.8039,63.1499 60.5,62.5C 61.391,61.8902 62.391,61.5569 63.5,61.5 Z"/></g>
<g><path style="opacity:1" fill="#92756d" d="M 92.5,69.5 C 89.8127,69.3359 87.146,69.5026 84.5,70C 83.944,70.3826 83.6107,70.8826 83.5,71.5C 81.2646,71.2053 79.2646,71.5386 77.5,72.5C 77.1667,72.5 76.8333,72.5 76.5,72.5C 76.5,72.1667 76.5,71.8333 76.5,71.5C 76.5,71.1667 76.5,70.8333 76.5,70.5C 78.3797,70.7709 79.713,70.1042 80.5,68.5C 83.0379,68.4928 85.5379,68.1595 88,67.5C 89.876,67.5247 91.376,68.1914 92.5,69.5 Z"/></g>
<g><path style="opacity:1" fill="#c8aa93" d="M 92.5,69.5 C 93.791,69.2627 94.791,69.596 95.5,70.5C 91.8212,70.7244 88.1545,71.0578 84.5,71.5C 84.1667,71.5 83.8333,71.5 83.5,71.5C 83.6107,70.8826 83.944,70.3826 84.5,70C 87.146,69.5026 89.8127,69.3359 92.5,69.5 Z"/></g>
<g><path style="opacity:1" fill="#d5d5bf" d="M 122.5,61.5 C 123.81,64.4732 125.81,66.8065 128.5,68.5C 125.945,71.25 123.612,74.25 121.5,77.5C 119.754,75.7484 117.754,74.4151 115.5,73.5C 113.633,72.2402 112.3,70.5735 111.5,68.5C 112.319,64.8591 114.152,61.8591 117,59.5C 118.8,60.3195 120.634,60.9862 122.5,61.5 Z"/></g>
<g><path style="opacity:1" fill="#868f95" d="M 38.5,68.5 C 41.7387,68.4129 44.7387,69.0795 47.5,70.5C 47.5,71.8333 47.5,73.1667 47.5,74.5C 45.1432,74.6633 42.8098,74.4966 40.5,74C 41.6721,73.5814 42.6721,72.9147 43.5,72C 41.6332,71.2888 40.1332,71.7888 39,73.5C 39.7712,71.82 39.6045,70.1533 38.5,68.5 Z"/></g>
<g><path style="opacity:1" fill="#d16c4f" d="M 57.5,63.5 C 57.5,71.8333 57.5,80.1667 57.5,88.5C 55.8333,88.5 54.1667,88.5 52.5,88.5C 52.5,80.1667 52.5,71.8333 52.5,63.5C 54.1667,63.5 55.8333,63.5 57.5,63.5 Z"/></g>
<g><path style="opacity:1" fill="#b8644d" d="M 83.5,71.5 C 83.8333,71.5 84.1667,71.5 84.5,71.5C 83.9898,74.3878 84.6565,76.7211 86.5,78.5C 86.5,78.8333 86.5,79.1667 86.5,79.5C 85.6773,82.977 85.1773,86.6437 85,90.5C 84.935,88.1167 84.1017,87.45 82.5,88.5C 81.8333,85.5 81.1667,82.5 80.5,79.5C 79.6705,84.8025 79.1705,90.1358 79,95.5C 78.5411,87.8247 78.0411,80.158 77.5,72.5C 79.2646,71.5386 81.2646,71.2053 83.5,71.5 Z"/></g>
<g><path style="opacity:1" fill="#db8253" d="M 95.5,70.5 C 95.5,72.1667 95.5,73.8333 95.5,75.5C 95.5,75.8333 95.5,76.1667 95.5,76.5C 92.5739,77.4608 89.5739,78.1274 86.5,78.5C 84.6565,76.7211 83.9898,74.3878 84.5,71.5C 88.1545,71.0578 91.8212,70.7244 95.5,70.5 Z"/></g>
<g><path style="opacity:1" fill="#c6c1be" d="M 109.5,69.5 C 109.215,71.288 109.548,72.9547 110.5,74.5C 111.167,73.8333 111.833,73.1667 112.5,72.5C 112.833,73 113.167,73.5 113.5,74C 112.318,75.7351 110.651,76.7351 108.5,77C 110.842,78.3919 110.842,79.2252 108.5,79.5C 107.833,78.8333 107.167,78.1667 106.5,77.5C 107.391,76.7387 108.058,75.7387 108.5,74.5C 103.031,71.9392 103.364,70.2725 109.5,69.5 Z"/></g>
<g><path style="opacity:1" fill="#a89089" d="M 111.5,68.5 C 112.3,70.5735 113.633,72.2402 115.5,73.5C 114.005,75.8311 114.338,77.8311 116.5,79.5C 115.694,80.7281 114.694,81.7281 113.5,82.5C 111.076,82.8076 108.743,82.4742 106.5,81.5C 107.243,80.8182 107.909,80.1515 108.5,79.5C 110.842,79.2252 110.842,78.3919 108.5,77C 110.651,76.7351 112.318,75.7351 113.5,74C 113.167,73.5 112.833,73 112.5,72.5C 111.833,73.1667 111.167,73.8333 110.5,74.5C 109.548,72.9547 109.215,71.288 109.5,69.5C 110.167,69.1667 110.833,68.8333 111.5,68.5 Z"/></g>
<g><path style="opacity:1" fill="#a8b293" d="M 50.5,63.5 C 51.1667,71.8333 51.8333,80.1667 52.5,88.5C 52.5,88.8333 52.5,89.1667 52.5,89.5C 51.5084,89.6716 50.8417,89.3382 50.5,88.5C 50.5,87.1667 50.5,85.8333 50.5,84.5C 50.5,77.5 50.5,70.5 50.5,63.5 Z"/></g>
<g><path style="opacity:1" fill="#ccc7a1" d="M 106.5,77.5 C 102.946,79.4837 99.2796,79.8171 95.5,78.5C 95.5,77.8333 95.5,77.1667 95.5,76.5C 95.5,76.1667 95.5,75.8333 95.5,75.5C 99.7386,73.7045 103.405,74.3712 106.5,77.5 Z"/></g>
<g><path style="opacity:1" fill="#74777b" d="M 128.5,68.5 C 127.03,74.616 123.697,79.2827 118.5,82.5C 117.833,81.5 117.167,80.5 116.5,79.5C 114.338,77.8311 114.005,75.8311 115.5,73.5C 117.754,74.4151 119.754,75.7484 121.5,77.5C 123.612,74.25 125.945,71.25 128.5,68.5 Z"/></g>
<g><path style="opacity:1" fill="#e5d7b4" d="M 68.5,62.5 C 70.1667,62.5 71.8333,62.5 73.5,62.5C 73.5,65.8333 73.5,69.1667 73.5,72.5C 73.5,74.8333 73.5,77.1667 73.5,79.5C 71.8333,79.5 70.1667,79.5 68.5,79.5C 68.5,73.8333 68.5,68.1667 68.5,62.5 Z"/></g>
<g><path style="opacity:1" fill="#97746b" d="M 95.5,76.5 C 95.5,77.1667 95.5,77.8333 95.5,78.5C 95.5,79.8333 95.5,81.1667 95.5,82.5C 97.8439,82.9397 99.8439,83.9397 101.5,85.5C 100.645,86.5307 99.9783,87.6974 99.5,89C 100.32,90.8003 100.986,92.6336 101.5,94.5C 101.5,94.8333 101.5,95.1667 101.5,95.5C 100.833,94.8333 100.167,94.1667 99.5,93.5C 98.5448,91.2543 97.8782,88.921 97.5,86.5C 95.5,86.8333 93.5,87.1667 91.5,87.5C 91.5,89.1667 91.5,90.8333 91.5,92.5C 87.9623,89.0606 86.2956,84.7272 86.5,79.5C 86.5,79.1667 86.5,78.8333 86.5,78.5C 89.5739,78.1274 92.5739,77.4608 95.5,76.5 Z"/></g>
<g><path style="opacity:1" fill="#d1edf3" d="M 33.5,70.5 C 31.5275,73.0836 30.5275,76.0836 30.5,79.5C 29.0695,79.5792 27.7362,79.2458 26.5,78.5C 24.0793,82.6967 23.9126,87.03 26,91.5C 26.2401,89.1484 27.0735,87.1484 28.5,85.5C 27.9418,96.7886 28.9418,107.789 31.5,118.5C 32.5,119.833 33.5,121.167 34.5,122.5C 34.4326,123.959 34.7659,125.292 35.5,126.5C 34.1266,126.343 32.7932,126.51 31.5,127C 32.3081,127.308 32.9747,127.808 33.5,128.5C 31.2473,132.959 30.914,137.626 32.5,142.5C 21.5202,143.499 10.5202,143.832 -0.5,143.5C -0.5,116.833 -0.5,90.1667 -0.5,63.5C 2.16667,63.5 4.83333,63.5 7.5,63.5C 7.5,66.1667 7.5,68.8333 7.5,71.5C 10.1667,71.5 12.8333,71.5 15.5,71.5C 15.5,68.8333 15.5,66.1667 15.5,63.5C 19.5,63.5 23.5,63.5 27.5,63.5C 27.5,60.8333 27.5,58.1667 27.5,55.5C 23.5,55.5 19.5,55.5 15.5,55.5C 15.5,54.1667 15.5,52.8333 15.5,51.5C 18.1667,51.5 20.8333,51.5 23.5,51.5C 23.5,47.5 23.5,43.5 23.5,39.5C 24.8333,39.5 26.1667,39.5 27.5,39.5C 27.5,36.8333 27.5,34.1667 27.5,31.5C 28.8333,31.5 30.1667,31.5 31.5,31.5C 31.5,36.8333 31.5,42.1667 31.5,47.5C 34.5,47.5 37.5,47.5 40.5,47.5C 40.3832,49.4835 41.0499,51.1502 42.5,52.5C 40.1542,55.8708 37.8208,59.2041 35.5,62.5C 34.6221,65.1298 33.9555,67.7965 33.5,70.5 Z"/></g>
<g><path style="opacity:1" fill="#cbc1c6" d="M 87.5,79.5 C 89.1992,79.3398 90.8659,79.5065 92.5,80C 92.1667,80.3333 91.8333,80.6667 91.5,81C 92.5,81.8333 93.5,82.6667 94.5,83.5C 89.8682,85.7113 87.5349,84.378 87.5,79.5 Z"/></g>
<g><path style="opacity:1" fill="#5c7f7d" d="M 106.5,77.5 C 107.167,78.1667 107.833,78.8333 108.5,79.5C 106.654,79.2222 105.32,79.8888 104.5,81.5C 101.572,82.4841 98.5719,82.8174 95.5,82.5C 95.5,81.1667 95.5,79.8333 95.5,78.5C 99.2796,79.8171 102.946,79.4837 106.5,77.5 Z"/></g>
<g><path style="opacity:1" fill="#496b79" d="M 116.5,79.5 C 117.167,80.5 117.833,81.5 118.5,82.5C 119.113,86.5123 117.446,88.5123 113.5,88.5C 113.954,86.2589 113.954,84.2589 113.5,82.5C 114.694,81.7281 115.694,80.7281 116.5,79.5 Z"/></g>
<g><path style="opacity:1" fill="#655e66" d="M 108.5,79.5 C 107.909,80.1515 107.243,80.8182 106.5,81.5C 108.743,82.4742 111.076,82.8076 113.5,82.5C 113.954,84.2589 113.954,86.2589 113.5,88.5C 112.833,88.5 112.167,88.5 111.5,88.5C 110.833,88.5 110.167,88.5 109.5,88.5C 109.5,87.5 109.5,86.5 109.5,85.5C 106.938,84.6285 104.272,84.6285 101.5,85.5C 99.8439,83.9397 97.8439,82.9397 95.5,82.5C 98.5719,82.8174 101.572,82.4841 104.5,81.5C 105.32,79.8888 106.654,79.2222 108.5,79.5 Z"/></g>
<g><path style="opacity:1" fill="#a15251" d="M 60.5,62.5 C 60.8039,63.1499 61.1373,63.8165 61.5,64.5C 58.6133,68.9987 57.78,73.9987 59,79.5C 59.5885,81.8633 61.0885,82.8633 63.5,82.5C 63.5,84.8333 63.5,87.1667 63.5,89.5C 59.8333,89.5 56.1667,89.5 52.5,89.5C 52.5,89.1667 52.5,88.8333 52.5,88.5C 54.1667,88.5 55.8333,88.5 57.5,88.5C 57.5,80.1667 57.5,71.8333 57.5,63.5C 58.209,62.596 59.209,62.2627 60.5,62.5 Z"/></g>
<g><path style="opacity:1" fill="#42526c" d="M 67.5,79.5 C 66.6739,74.6835 66.1739,69.6835 66,64.5C 65.3333,70.1667 65.3333,75.8333 66,81.5C 68.5445,83.3912 69.3778,85.7245 68.5,88.5C 69.7046,90.1376 71.0379,90.4709 72.5,89.5C 73.487,86.2317 73.8204,82.8984 73.5,79.5C 73.5,77.1667 73.5,74.8333 73.5,72.5C 74.1667,72.5 74.5,72.1667 74.5,71.5C 75.1667,71.5 75.8333,71.5 76.5,71.5C 76.5,71.8333 76.5,72.1667 76.5,72.5C 76.8254,80.3516 76.492,88.0182 75.5,95.5C 74.8876,92.3027 72.8876,90.9694 69.5,91.5C 67.3736,90.9518 65.3736,90.2852 63.5,89.5C 63.5,87.1667 63.5,84.8333 63.5,82.5C 63.5,81.5 63.5,80.5 63.5,79.5C 64.4881,74.3595 64.8214,69.0262 64.5,63.5C 65.5,63.5 66.5,63.5 67.5,63.5C 67.5,68.8333 67.5,74.1667 67.5,79.5 Z"/></g>
<g><path style="opacity:1" fill="#e8eddb" d="M 50.5,84.5 C 50.5,85.8333 50.5,87.1667 50.5,88.5C 47.3699,90.9483 43.7032,92.2817 39.5,92.5C 36.233,92.2251 34.233,90.5584 33.5,87.5C 37.2287,85.8961 40.562,83.5628 43.5,80.5C 45.0814,83.1247 47.4148,84.458 50.5,84.5 Z"/></g>
<g><path style="opacity:1" fill="#487087" d="M 67.5,79.5 C 67.8333,79.5 68.1667,79.5 68.5,79.5C 70.1667,79.5 71.8333,79.5 73.5,79.5C 73.8204,82.8984 73.487,86.2317 72.5,89.5C 71.0379,90.4709 69.7046,90.1376 68.5,88.5C 69.3778,85.7245 68.5445,83.3912 66,81.5C 65.3333,75.8333 65.3333,70.1667 66,64.5C 66.1739,69.6835 66.6739,74.6835 67.5,79.5 Z"/></g>
<g><path style="opacity:1" fill="#b6b1ae" d="M 99.5,93.5 C 98.5263,95.0853 97.0263,96.0853 95,96.5C 94.3828,95.5509 94.5494,94.7175 95.5,94C 94.2068,93.51 92.8734,93.3433 91.5,93.5C 91.5,93.1667 91.5,92.8333 91.5,92.5C 91.5,90.8333 91.5,89.1667 91.5,87.5C 93.5,87.1667 95.5,86.8333 97.5,86.5C 97.8782,88.921 98.5448,91.2543 99.5,93.5 Z"/></g>
<g><path style="opacity:1" fill="#c8946e" d="M 109.5,88.5 C 110.167,88.5 110.833,88.5 111.5,88.5C 111.5,89.8333 112.167,90.5 113.5,90.5C 111.507,91.4716 111.174,92.8049 112.5,94.5C 111.609,95.1098 110.609,95.4431 109.5,95.5C 109.5,94.1667 109.5,92.8333 109.5,91.5C 106.5,91.1667 105.167,92.5 105.5,95.5C 104.442,94.3998 103.608,93.0664 103,91.5C 102.768,92.7375 102.268,93.7375 101.5,94.5C 100.986,92.6336 100.32,90.8003 99.5,89C 99.9783,87.6974 100.645,86.5307 101.5,85.5C 104.272,84.6285 106.938,84.6285 109.5,85.5C 109.5,86.5 109.5,87.5 109.5,88.5 Z"/></g>
<g><path style="opacity:1" fill="#f7d890" d="M 109.5,88.5 C 108.848,89.7251 107.681,90.3917 106,90.5C 104.833,90.1667 103.667,89.8333 102.5,89.5C 104.743,88.5258 107.076,88.1924 109.5,88.5 Z"/></g>
<g><path style="opacity:1" fill="#61545d" d="M 150.5,85.5 C 153.388,84.9898 155.721,85.6565 157.5,87.5C 156.167,88.5 156.167,89.5 157.5,90.5C 153.77,91.0558 150.603,92.7225 148,95.5C 146.644,94.6198 145.144,94.2865 143.5,94.5C 142.791,93.596 141.791,93.2627 140.5,93.5C 142.657,92.5933 144.99,91.9267 147.5,91.5C 149.794,92.2121 151.794,91.3787 153.5,89C 152.207,88.51 150.873,88.3433 149.5,88.5C 150.11,87.609 150.443,86.609 150.5,85.5 Z"/></g>
<g><path style="opacity:1" fill="#7a5450" d="M 148.5,84.5 C 148.833,84.5 149.167,84.5 149.5,84.5C 149.5,85.1667 149.833,85.5 150.5,85.5C 150.443,86.609 150.11,87.609 149.5,88.5C 148.833,89.5 148.167,90.5 147.5,91.5C 144.99,91.9267 142.657,92.5933 140.5,93.5C 135.155,92.1082 129.822,90.6082 124.5,89C 123.209,87.7083 123.209,86.5417 124.5,85.5C 124.47,86.4972 124.97,87.1639 126,87.5C 131.374,88.0528 136.541,89.3861 141.5,91.5C 142.713,91.2528 143.38,90.5862 143.5,89.5C 147.151,89.8383 148.817,88.1716 148.5,84.5 Z"/></g>
<g><path style="opacity:1" fill="#7d9aa9" d="M 33.5,87.5 C 34.233,90.5584 36.233,92.2251 39.5,92.5C 43.7032,92.2817 47.3699,90.9483 50.5,88.5C 50.8417,89.3382 51.5084,89.6716 52.5,89.5C 56.1667,89.5 59.8333,89.5 63.5,89.5C 65.3736,90.2852 67.3736,90.9518 69.5,91.5C 68.6598,93.7856 67.1598,94.119 65,92.5C 63.6998,93.7073 62.1998,94.3739 60.5,94.5C 54.3122,94.0416 48.3122,94.0416 42.5,94.5C 39.9205,93.7724 37.2538,93.2724 34.5,93C 32.4468,91.3221 32.1134,89.4888 33.5,87.5 Z"/></g>
<g><path style="opacity:1" fill="#a5bbbf" d="M 28.5,85.5 C 29.1686,94.3999 30.1686,103.4 31.5,112.5C 31.5,112.833 31.5,113.167 31.5,113.5C 31.5,115.167 31.5,116.833 31.5,118.5C 28.9418,107.789 27.9418,96.7886 28.5,85.5 Z"/></g>
<g><path style="opacity:1" fill="#726c64" d="M 139.5,95.5 C 138.549,96.9187 138.216,98.5853 138.5,100.5C 136.214,100.405 134.214,99.7384 132.5,98.5C 134.048,98.1788 134.715,97.1788 134.5,95.5C 132.167,95.5 129.833,95.5 127.5,95.5C 127.047,94.5416 126.381,93.7083 125.5,93C 130.395,92.9698 135.061,93.8031 139.5,95.5 Z"/></g>
<g><path style="opacity:1" fill="#959f7a" d="M 109.5,95.5 C 108.167,95.5 106.833,95.5 105.5,95.5C 105.167,92.5 106.5,91.1667 109.5,91.5C 109.5,92.8333 109.5,94.1667 109.5,95.5 Z"/></g>
<g><path style="opacity:1" fill="#ae947e" d="M 122.5,84.5 C 123.167,84.5 123.833,84.5 124.5,84.5C 124.5,84.8333 124.5,85.1667 124.5,85.5C 123.209,86.5417 123.209,87.7083 124.5,89C 129.822,90.6082 135.155,92.1082 140.5,93.5C 141.791,93.2627 142.791,93.596 143.5,94.5C 142.631,96.717 142.298,99.0504 142.5,101.5C 143.791,101.263 144.791,101.596 145.5,102.5C 145.279,105.097 144.779,105.097 144,102.5C 143.586,102.957 143.086,103.291 142.5,103.5C 141.201,102.306 139.868,101.306 138.5,100.5C 139.5,100.5 140.5,100.5 141.5,100.5C 141.923,98.2188 141.256,96.5521 139.5,95.5C 135.061,93.8031 130.395,92.9698 125.5,93C 126.381,93.7083 127.047,94.5416 127.5,95.5C 125.088,95.3059 124.088,93.9726 124.5,91.5C 123.167,91.5 121.833,91.5 120.5,91.5C 121.939,89.412 122.606,87.0786 122.5,84.5 Z"/></g>
<g><path style="opacity:1" fill="#647475" d="M 160.5,95.5 C 159.596,96.209 159.263,97.209 159.5,98.5C 159.167,98.5 158.833,98.5 158.5,98.5C 155.772,98.1706 153.438,98.8372 151.5,100.5C 149.685,101.63 147.685,102.296 145.5,102.5C 144.791,101.596 143.791,101.263 142.5,101.5C 142.298,99.0504 142.631,96.717 143.5,94.5C 145.144,94.2865 146.644,94.6198 148,95.5C 150.603,92.7225 153.77,91.0558 157.5,90.5C 158.75,90.4226 159.583,89.756 160,88.5C 160.497,90.8098 160.663,93.1432 160.5,95.5 Z"/></g>
<g><path style="opacity:1" fill="#d99d61" d="M 118.5,91.5 C 119.167,91.5 119.833,91.5 120.5,91.5C 121.833,91.5 123.167,91.5 124.5,91.5C 124.088,93.9726 125.088,95.3059 127.5,95.5C 127.5,96.1667 127.5,96.8333 127.5,97.5C 126.604,96.4937 125.938,96.4937 125.5,97.5C 124.5,97.5 123.5,97.5 122.5,97.5C 122.401,100.237 122.735,102.904 123.5,105.5C 123.167,105.5 122.833,105.5 122.5,105.5C 122.5,104.833 122.167,104.5 121.5,104.5C 120.344,100.207 119.344,95.8741 118.5,91.5 Z"/></g>
<g><path style="opacity:1" fill="#465569" d="M 60.5,94.5 C 63.5825,97.236 67.0825,97.9027 71,96.5C 72.3024,97.0848 73.469,97.7515 74.5,98.5C 72.5648,99.1495 70.5648,99.4828 68.5,99.5C 66.8333,99.5 65.1667,99.5 63.5,99.5C 57.2991,98.7628 50.9658,97.9295 44.5,97C 43.6195,96.2917 42.9528,95.4584 42.5,94.5C 48.3122,94.0416 54.3122,94.0416 60.5,94.5 Z"/></g>
<g><path style="opacity:1" fill="#818d8f" d="M 69.5,91.5 C 72.8876,90.9694 74.8876,92.3027 75.5,95.5C 76.4475,96.9779 77.7809,97.9779 79.5,98.5C 78.209,98.2627 77.209,98.596 76.5,99.5C 75.5084,99.6716 74.8417,99.3382 74.5,98.5C 73.469,97.7515 72.3024,97.0848 71,96.5C 67.0825,97.9027 63.5825,97.236 60.5,94.5C 62.1998,94.3739 63.6998,93.7073 65,92.5C 67.1598,94.119 68.6598,93.7856 69.5,91.5 Z"/></g>
<g><path style="opacity:1" fill="#8f5755" d="M 76.5,72.5 C 76.8333,72.5 77.1667,72.5 77.5,72.5C 78.0411,80.158 78.5411,87.8247 79,95.5C 79.1705,90.1358 79.6705,84.8025 80.5,79.5C 81.1667,82.5 81.8333,85.5 82.5,88.5C 84.1017,87.45 84.935,88.1167 85,90.5C 85.1773,86.6437 85.6773,82.977 86.5,79.5C 86.2956,84.7272 87.9623,89.0606 91.5,92.5C 91.5,92.8333 91.5,93.1667 91.5,93.5C 91.5,94.1667 91.5,94.8333 91.5,95.5C 90.5,95.5 89.5,95.5 88.5,95.5C 88.2054,89.9049 86.8721,89.4049 84.5,94C 84.8588,96.2961 85.8588,98.1295 87.5,99.5C 86.0813,100.451 84.4147,100.784 82.5,100.5C 81.5,99.8333 80.5,99.1667 79.5,98.5C 77.7809,97.9779 76.4475,96.9779 75.5,95.5C 76.492,88.0182 76.8254,80.3516 76.5,72.5 Z"/></g>
<g><path style="opacity:1" fill="#574468" d="M 91.5,95.5 C 91.5,96.5 91.5,97.5 91.5,98.5C 89.901,98.2322 88.5676,98.5655 87.5,99.5C 85.8588,98.1295 84.8588,96.2961 84.5,94C 86.8721,89.4049 88.2054,89.9049 88.5,95.5C 89.5,95.5 90.5,95.5 91.5,95.5 Z"/></g>
<g><path style="opacity:1" fill="#616067" d="M 91.5,93.5 C 92.8734,93.3433 94.2068,93.51 95.5,94C 94.5494,94.7175 94.3828,95.5509 95,96.5C 97.0263,96.0853 98.5263,95.0853 99.5,93.5C 100.167,94.1667 100.833,94.8333 101.5,95.5C 101.5,96.1667 101.5,96.8333 101.5,97.5C 100.167,97.5 98.8333,97.5 97.5,97.5C 97.6567,98.8734 97.49,100.207 97,101.5C 96.7216,100.584 96.2216,99.9175 95.5,99.5C 94.4324,98.5655 93.099,98.2322 91.5,98.5C 91.5,97.5 91.5,96.5 91.5,95.5C 91.5,94.8333 91.5,94.1667 91.5,93.5 Z"/></g>
<g><path style="opacity:1" fill="#729fa9" d="M 160.5,95.5 C 164.82,95.9592 165.487,97.7925 162.5,101C 161.552,101.483 160.552,101.649 159.5,101.5C 159.5,100.5 159.5,99.5 159.5,98.5C 159.263,97.209 159.596,96.209 160.5,95.5 Z"/></g>
<g><path style="opacity:1" fill="#e89e58" d="M 112.5,94.5 C 113.468,96.6074 113.802,98.9407 113.5,101.5C 111.167,101.5 108.833,101.5 106.5,101.5C 106.167,99.5 105.833,97.5 105.5,95.5C 106.833,95.5 108.167,95.5 109.5,95.5C 110.609,95.4431 111.609,95.1098 112.5,94.5 Z"/></g>
<g><path style="opacity:1" fill="#525164" d="M 127.5,95.5 C 129.833,95.5 132.167,95.5 134.5,95.5C 134.715,97.1788 134.048,98.1788 132.5,98.5C 131.5,98.5 130.5,98.5 129.5,98.5C 129.158,97.6618 128.492,97.3284 127.5,97.5C 127.5,96.8333 127.5,96.1667 127.5,95.5 Z"/></g>
<g><path style="opacity:1" fill="#c3764a" d="M 105.5,95.5 C 105.833,97.5 106.167,99.5 106.5,101.5C 108.833,101.5 111.167,101.5 113.5,101.5C 110.713,102.477 107.713,102.81 104.5,102.5C 104.293,99.7594 103.293,97.4261 101.5,95.5C 101.5,95.1667 101.5,94.8333 101.5,94.5C 102.268,93.7375 102.768,92.7375 103,91.5C 103.608,93.0664 104.442,94.3998 105.5,95.5 Z"/></g>
<g><path style="opacity:1" fill="#9e8672" d="M 113.5,90.5 C 114.458,90.9528 115.292,91.6195 116,92.5C 116.671,91.7476 117.504,91.4142 118.5,91.5C 119.344,95.8741 120.344,100.207 121.5,104.5C 120.833,104.167 120.167,103.833 119.5,103.5C 119.079,99.0163 118.079,98.683 116.5,102.5C 115.609,101.89 114.609,101.557 113.5,101.5C 113.802,98.9407 113.468,96.6074 112.5,94.5C 111.174,92.8049 111.507,91.4716 113.5,90.5 Z"/></g>
<g><path style="opacity:1" fill="#a85360" d="M 139.5,95.5 C 141.256,96.5521 141.923,98.2188 141.5,100.5C 140.5,100.5 139.5,100.5 138.5,100.5C 138.216,98.5853 138.549,96.9187 139.5,95.5 Z"/></g>
<g><path style="opacity:1" fill="#f4edb9" d="M 158.5,98.5 C 156.401,99.6118 154.067,100.279 151.5,100.5C 153.438,98.8372 155.772,98.1706 158.5,98.5 Z"/></g>
<g><path style="opacity:1" fill="#897e65" d="M 91.5,98.5 C 93.099,98.2322 94.4324,98.5655 95.5,99.5C 94.1938,100.467 93.5271,101.801 93.5,103.5C 93.1667,103.5 92.8333,103.5 92.5,103.5C 92.38,102.414 91.7133,101.747 90.5,101.5C 89.2867,101.747 88.62,102.414 88.5,103.5C 86.8583,101.919 84.8583,101.253 82.5,101.5C 82.5,101.167 82.5,100.833 82.5,100.5C 84.4147,100.784 86.0813,100.451 87.5,99.5C 88.5676,98.5655 89.901,98.2322 91.5,98.5 Z"/></g>
<g><path style="opacity:1" fill="#ded1b7" d="M 129.5,98.5 C 130.5,98.5 131.5,98.5 132.5,98.5C 134.214,99.7384 136.214,100.405 138.5,100.5C 139.868,101.306 141.201,102.306 142.5,103.5C 143.086,103.291 143.586,102.957 144,102.5C 144.779,105.097 145.279,105.097 145.5,102.5C 147.685,102.296 149.685,101.63 151.5,100.5C 151.5,101.167 151.5,101.833 151.5,102.5C 150.046,104.263 150.38,105.597 152.5,106.5C 149.696,107.112 146.696,107.112 143.5,106.5C 139.195,104.254 134.529,102.92 129.5,102.5C 129.5,101.167 129.5,99.8333 129.5,98.5 Z"/></g>
<g><path style="opacity:1" fill="#e09c61" d="M 158.5,98.5 C 158.833,98.5 159.167,98.5 159.5,98.5C 159.5,99.5 159.5,100.5 159.5,101.5C 159.5,101.833 159.5,102.167 159.5,102.5C 156.833,102.5 154.167,102.5 151.5,102.5C 151.5,101.833 151.5,101.167 151.5,100.5C 154.067,100.279 156.401,99.6118 158.5,98.5 Z"/></g>
<g><path style="opacity:1" fill="#61587e" d="M 92.5,103.5 C 92.1667,103.5 91.8333,103.5 91.5,103.5C 90.5,103.5 89.5,103.5 88.5,103.5C 88.62,102.414 89.2867,101.747 90.5,101.5C 91.7133,101.747 92.38,102.414 92.5,103.5 Z"/></g>
<g><path style="opacity:1" fill="#dbd8af" d="M 74.5,98.5 C 74.8417,99.3382 75.5084,99.6716 76.5,99.5C 76.6107,100.117 76.944,100.617 77.5,101C 71.8157,103.841 65.8157,105.341 59.5,105.5C 59.5,104.5 59.5,103.5 59.5,102.5C 62.7458,101.946 65.7458,100.946 68.5,99.5C 70.5648,99.4828 72.5648,99.1495 74.5,98.5 Z"/></g>
<g><path style="opacity:1" fill="#da7d49" d="M 125.5,97.5 C 125.694,100.33 126.361,102.996 127.5,105.5C 126.167,105.5 124.833,105.5 123.5,105.5C 122.735,102.904 122.401,100.237 122.5,97.5C 123.5,97.5 124.5,97.5 125.5,97.5 Z"/></g>
<g><path style="opacity:1" fill="#daac80" d="M 82.5,101.5 C 84.8583,101.253 86.8583,101.919 88.5,103.5C 89.5,103.5 90.5,103.5 91.5,103.5C 91.5,104.167 91.5,104.833 91.5,105.5C 88.4173,105.084 85.4173,104.417 82.5,103.5C 82.5,102.833 82.5,102.167 82.5,101.5 Z"/></g>
<g><path style="opacity:1" fill="#d3c7b9" d="M 101.5,97.5 C 102.5,100.167 103.5,102.833 104.5,105.5C 107.956,105.646 111.622,105.812 115.5,106C 111.509,106.642 107.509,107.142 103.5,107.5C 101.983,107.489 100.816,106.823 100,105.5C 100.195,107.126 100.195,108.793 100,110.5C 98.9331,108.308 97.4331,106.642 95.5,105.5C 95.5,104.167 94.8333,103.5 93.5,103.5C 93.5271,101.801 94.1938,100.467 95.5,99.5C 96.2216,99.9175 96.7216,100.584 97,101.5C 97.49,100.207 97.6567,98.8734 97.5,97.5C 98.8333,97.5 100.167,97.5 101.5,97.5 Z"/></g>
<g><path style="opacity:1" fill="#785654" d="M 101.5,95.5 C 103.293,97.4261 104.293,99.7594 104.5,102.5C 107.713,102.81 110.713,102.477 113.5,101.5C 114.609,101.557 115.609,101.89 116.5,102.5C 112.928,104.29 108.928,105.29 104.5,105.5C 103.5,102.833 102.5,100.167 101.5,97.5C 101.5,96.8333 101.5,96.1667 101.5,95.5 Z"/></g>
<g><path style="opacity:1" fill="#845c58" d="M 151.5,102.5 C 154.167,102.5 156.833,102.5 159.5,102.5C 159.5,102.833 159.5,103.167 159.5,103.5C 156.962,104.043 154.628,105.043 152.5,106.5C 150.38,105.597 150.046,104.263 151.5,102.5 Z"/></g>
<g><path style="opacity:1" fill="#bb6e32" d="M 91.5,103.5 C 91.8333,103.5 92.1667,103.5 92.5,103.5C 92.8333,103.5 93.1667,103.5 93.5,103.5C 94.8333,103.5 95.5,104.167 95.5,105.5C 94.1667,105.5 92.8333,105.5 91.5,105.5C 91.5,104.833 91.5,104.167 91.5,103.5 Z"/></g>
<g><path style="opacity:1" fill="#547080" d="M 63.5,99.5 C 65.1667,99.5 66.8333,99.5 68.5,99.5C 65.7458,100.946 62.7458,101.946 59.5,102.5C 57.4951,103.039 55.4951,103.705 53.5,104.5C 54.0253,105.192 54.6919,105.692 55.5,106C 61.1569,106.499 66.8236,106.666 72.5,106.5C 68.391,107.762 64.2243,108.762 60,109.5C 57.7438,107.915 55.2438,107.248 52.5,107.5C 50.9582,106.699 49.2915,106.366 47.5,106.5C 47.6716,105.508 47.3382,104.842 46.5,104.5C 46.0618,104.565 45.7284,104.399 45.5,104C 46.1667,103.667 46.8333,103.333 47.5,103C 46.5,102.167 45.5,101.333 44.5,100.5C 50.9775,100.137 57.3108,99.8033 63.5,99.5 Z"/></g>
<g><path style="opacity:1" fill="#7f9f9b" d="M 79.5,98.5 C 80.5,99.1667 81.5,99.8333 82.5,100.5C 82.5,100.833 82.5,101.167 82.5,101.5C 82.5,102.167 82.5,102.833 82.5,103.5C 80.5976,102.489 78.5976,102.322 76.5,103C 76.2362,104.742 74.9028,105.909 72.5,106.5C 66.8236,106.666 61.1569,106.499 55.5,106C 54.6919,105.692 54.0253,105.192 53.5,104.5C 55.4951,103.705 57.4951,103.039 59.5,102.5C 59.5,103.5 59.5,104.5 59.5,105.5C 65.8157,105.341 71.8157,103.841 77.5,101C 76.944,100.617 76.6107,100.117 76.5,99.5C 77.209,98.596 78.209,98.2627 79.5,98.5 Z"/></g>
<g><path style="opacity:1" fill="#5f7582" d="M 82.5,103.5 C 82.2294,105.43 81.2294,106.764 79.5,107.5C 81.5078,109.083 83.8411,110.083 86.5,110.5C 84.1667,110.5 81.8333,110.5 79.5,110.5C 76.8333,110.167 74.1667,109.833 71.5,109.5C 72.6002,108.442 73.9336,107.608 75.5,107C 74.552,106.517 73.552,106.351 72.5,106.5C 74.9028,105.909 76.2362,104.742 76.5,103C 78.5976,102.322 80.5976,102.489 82.5,103.5 Z"/></g>
<g><path style="opacity:1" fill="#c18d77" d="M 127.5,97.5 C 128.492,97.3284 129.158,97.6618 129.5,98.5C 129.5,99.8333 129.5,101.167 129.5,102.5C 129.5,103.833 129.5,105.167 129.5,106.5C 127.167,106.5 124.833,106.5 122.5,106.5C 122.5,106.167 122.5,105.833 122.5,105.5C 122.833,105.5 123.167,105.5 123.5,105.5C 124.833,105.5 126.167,105.5 127.5,105.5C 126.361,102.996 125.694,100.33 125.5,97.5C 125.938,96.4937 126.604,96.4937 127.5,97.5 Z"/></g>
<g><path style="opacity:1" fill="#6d8a8e" d="M 159.5,103.5 C 161.222,104.821 162.889,105.821 164.5,106.5C 163.332,108.217 161.665,108.884 159.5,108.5C 154.445,109.899 149.445,109.732 144.5,108C 143.944,107.617 143.611,107.117 143.5,106.5C 146.696,107.112 149.696,107.112 152.5,106.5C 154.628,105.043 156.962,104.043 159.5,103.5 Z"/></g>
<g><path style="opacity:1" fill="#857d84" d="M 119.5,103.5 C 119.806,107.04 118.473,108.374 115.5,107.5C 114.702,107.957 114.369,108.624 114.5,109.5C 113.833,109.5 113.5,109.833 113.5,110.5C 112.833,110.5 112.167,110.5 111.5,110.5C 108.813,110.664 106.146,110.497 103.5,110C 104.598,109.23 104.598,108.397 103.5,107.5C 107.509,107.142 111.509,106.642 115.5,106C 111.622,105.812 107.956,105.646 104.5,105.5C 108.928,105.29 112.928,104.29 116.5,102.5C 118.079,98.683 119.079,99.0163 119.5,103.5 Z"/></g>
<g><path style="opacity:1" fill="#a2c1ca" d="M 164.5,62.5 C 169.168,70.8227 171.834,79.8227 172.5,89.5C 173.487,102.395 171.321,114.729 166,126.5C 165.34,128.324 164.173,129.657 162.5,130.5C 173.693,108.201 174.359,85.5341 164.5,62.5 Z"/></g>
<g><path style="opacity:1" fill="#a0939a" d="M 42.5,105.5 C 41.8953,107.026 40.7286,108.026 39,108.5C 38.3923,110.154 37.8923,111.821 37.5,113.5C 37.1667,113.5 36.8333,113.5 36.5,113.5C 35.1845,108.164 37.1845,105.497 42.5,105.5 Z"/></g>
<g><path style="opacity:1" fill="#a28d74" d="M 82.5,103.5 C 85.4173,104.417 88.4173,105.084 91.5,105.5C 92.8333,105.5 94.1667,105.5 95.5,105.5C 97.4331,106.642 98.9331,108.308 100,110.5C 100.195,108.793 100.195,107.126 100,105.5C 100.816,106.823 101.983,107.489 103.5,107.5C 104.598,108.397 104.598,109.23 103.5,110C 106.146,110.497 108.813,110.664 111.5,110.5C 107.354,111.647 103.02,111.814 98.5,111C 96.964,109.04 95.1307,107.54 93,106.5C 92.1667,106.667 91.3333,106.833 90.5,107C 93.9415,107.836 94.1081,108.669 91,109.5C 87.286,108.131 83.4526,107.464 79.5,107.5C 81.2294,106.764 82.2294,105.43 82.5,103.5 Z"/></g>
<g><path style="opacity:1" fill="#3f5771" d="M 72.5,106.5 C 73.552,106.351 74.552,106.517 75.5,107C 73.9336,107.608 72.6002,108.442 71.5,109.5C 70.209,109.263 69.209,109.596 68.5,110.5C 67.0337,111.347 66.2004,112.68 66,114.5C 63.595,112.179 61.9284,112.845 61,116.5C 59.9887,115.663 58.8221,115.33 57.5,115.5C 56.1667,115.5 54.8333,115.5 53.5,115.5C 53.7214,112.721 53.388,110.054 52.5,107.5C 55.2438,107.248 57.7438,107.915 60,109.5C 64.2243,108.762 68.391,107.762 72.5,106.5 Z"/></g>
<g><path style="opacity:1" fill="#6a606c" d="M 47.5,106.5 C 49.2915,106.366 50.9582,106.699 52.5,107.5C 53.388,110.054 53.7214,112.721 53.5,115.5C 51.9654,118.695 52.632,121.362 55.5,123.5C 56.4252,122.643 57.0919,121.643 57.5,120.5C 59.1993,120.473 60.5326,119.806 61.5,118.5C 61.5,124.167 61.5,129.833 61.5,135.5C 58.1078,134.01 56.7745,131.343 57.5,127.5C 56.1667,127.5 54.8333,127.5 53.5,127.5C 51.2417,124.643 49.2417,121.643 47.5,118.5C 46.6285,115.728 46.6285,113.062 47.5,110.5C 48.5,110.5 49.5,110.5 50.5,110.5C 50.5,109.5 50.5,108.5 50.5,107.5C 49.209,107.737 48.209,107.404 47.5,106.5 Z"/></g>
<g><path style="opacity:1" fill="#4b8893" d="M 119.5,103.5 C 120.167,103.833 120.833,104.167 121.5,104.5C 122.167,104.5 122.5,104.833 122.5,105.5C 122.5,105.833 122.5,106.167 122.5,106.5C 122.791,107.649 123.624,108.316 125,108.5C 126.935,107.657 128.769,107.657 130.5,108.5C 130.032,110.134 129.032,111.3 127.5,112C 128.737,112.232 129.737,112.732 130.5,113.5C 128.5,113.5 126.5,113.5 124.5,113.5C 122.153,112.284 119.653,112.284 117,113.5C 115.405,112.644 114.572,111.311 114.5,109.5C 114.369,108.624 114.702,107.957 115.5,107.5C 118.473,108.374 119.806,107.04 119.5,103.5 Z"/></g>
<g><path style="opacity:1" fill="#c3d0cb" d="M 71.5,109.5 C 74.1667,109.833 76.8333,110.167 79.5,110.5C 83.0793,111.525 86.7459,112.691 90.5,114C 89.4019,114.77 89.4019,115.603 90.5,116.5C 90.1667,116.5 89.8333,116.5 89.5,116.5C 82.9773,114.41 76.3107,112.743 69.5,111.5C 68.8333,111.5 68.5,111.167 68.5,110.5C 69.209,109.596 70.209,109.263 71.5,109.5 Z"/></g>
<g><path style="opacity:1" fill="#7aada7" d="M 79.5,110.5 C 81.8333,110.5 84.1667,110.5 86.5,110.5C 90.4629,110.861 94.1296,111.861 97.5,113.5C 95.4293,114.945 93.096,115.945 90.5,116.5C 89.4019,115.603 89.4019,114.77 90.5,114C 86.7459,112.691 83.0793,111.525 79.5,110.5 Z"/></g>
<g><path style="opacity:1" fill="#65555d" d="M 111.5,110.5 C 112.167,110.5 112.833,110.5 113.5,110.5C 113.218,111.778 112.551,112.778 111.5,113.5C 108.193,114.051 104.86,114.384 101.5,114.5C 100.292,113.766 98.9587,113.433 97.5,113.5C 94.1296,111.861 90.4629,110.861 86.5,110.5C 83.8411,110.083 81.5078,109.083 79.5,107.5C 83.4526,107.464 87.286,108.131 91,109.5C 94.1081,108.669 93.9415,107.836 90.5,107C 91.3333,106.833 92.1667,106.667 93,106.5C 95.1307,107.54 96.964,109.04 98.5,111C 103.02,111.814 107.354,111.647 111.5,110.5 Z"/></g>
<g><path style="opacity:1" fill="#835b5c" d="M 46.5,104.5 C 47.3382,104.842 47.6716,105.508 47.5,106.5C 48.209,107.404 49.209,107.737 50.5,107.5C 50.5,108.5 50.5,109.5 50.5,110.5C 49.5,110.5 48.5,110.5 47.5,110.5C 46.6285,113.062 46.6285,115.728 47.5,118.5C 45.1667,117.167 42.8333,115.833 40.5,114.5C 39.391,114.443 38.391,114.11 37.5,113.5C 37.8923,111.821 38.3923,110.154 39,108.5C 40.7286,108.026 41.8953,107.026 42.5,105.5C 43.8333,105.167 45.1667,104.833 46.5,104.5 Z"/></g>
<g><path style="opacity:1" fill="#73acab" d="M 39.5,109.5 C 41.5,109.5 43.5,109.5 45.5,109.5C 45.5,110.833 45.5,112.167 45.5,113.5C 43.5,113.5 41.5,113.5 39.5,113.5C 39.5,112.167 39.5,110.833 39.5,109.5 Z"/></g>
<g><path style="opacity:1" fill="#8d9098" d="M 139.5,108.5 C 138.761,108.369 138.094,108.536 137.5,109C 139.437,110.462 141.437,111.628 143.5,112.5C 139.515,113.915 136.682,116.581 135,120.5C 132.216,117.369 128.716,116.036 124.5,116.5C 124.5,115.5 124.5,114.5 124.5,113.5C 126.5,113.5 128.5,113.5 130.5,113.5C 131.467,112.194 132.801,111.527 134.5,111.5C 134.5,110.167 134.5,108.833 134.5,107.5C 136.415,107.216 138.081,107.549 139.5,108.5 Z"/></g>
<g><path style="opacity:1" fill="#67767d" d="M 68.5,110.5 C 68.5,111.167 68.8333,111.5 69.5,111.5C 69.5,112.833 69.5,114.167 69.5,115.5C 68.8333,115.5 68.1667,115.5 67.5,115.5C 67.1667,115.5 66.8333,115.5 66.5,115.5C 65.1667,115.5 63.8333,115.5 62.5,115.5C 62.5,116.5 62.5,117.5 62.5,118.5C 62.1667,118.5 61.8333,118.5 61.5,118.5C 60.5326,119.806 59.1993,120.473 57.5,120.5C 57.5,118.833 57.5,117.167 57.5,115.5C 58.8221,115.33 59.9887,115.663 61,116.5C 61.9284,112.845 63.595,112.179 66,114.5C 66.2004,112.68 67.0337,111.347 68.5,110.5 Z"/></g>
<g><path style="opacity:1" fill="#ae948b" d="M 157.5,110.5 C 161.833,110.825 162.5,112.492 159.5,115.5C 153.922,119.246 151.922,117.912 153.5,111.5C 154.959,111.567 156.292,111.234 157.5,110.5 Z"/></g>
<g><path style="opacity:1" fill="#548b79" d="M 69.5,111.5 C 76.3107,112.743 82.9773,114.41 89.5,116.5C 88.8166,118.176 87.4832,118.843 85.5,118.5C 84.1667,118.167 82.8333,117.833 81.5,117.5C 79.8333,116.167 78.1667,116.167 76.5,117.5C 74.4727,117.662 72.4727,117.495 70.5,117C 69.944,116.617 69.6107,116.117 69.5,115.5C 69.5,114.167 69.5,112.833 69.5,111.5 Z"/></g>
<g><path style="opacity:1" fill="#774a67" d="M 53.5,115.5 C 54.8333,115.5 56.1667,115.5 57.5,115.5C 57.5,117.167 57.5,118.833 57.5,120.5C 57.0919,121.643 56.4252,122.643 55.5,123.5C 52.632,121.362 51.9654,118.695 53.5,115.5 Z"/></g>
<g><path style="opacity:1" fill="#e3cfab" d="M 101.5,115.5 C 104.045,115.151 106.045,115.984 107.5,118C 103.803,120.092 99.8032,121.259 95.5,121.5C 95.5,122.5 95.5,123.5 95.5,124.5C 93.7085,124.634 92.0418,124.301 90.5,123.5C 90.2606,121.533 90.5939,119.699 91.5,118C 94.8886,117.224 98.2219,116.391 101.5,115.5 Z"/></g>
<g><path style="opacity:1" fill="#4b5771" d="M 114.5,109.5 C 114.572,111.311 115.405,112.644 117,113.5C 119.653,112.284 122.153,112.284 124.5,113.5C 124.5,114.5 124.5,115.5 124.5,116.5C 128.716,116.036 132.216,117.369 135,120.5C 136.682,116.581 139.515,113.915 143.5,112.5C 143.5,113.833 143.5,115.167 143.5,116.5C 135.863,117.546 135.863,118.879 143.5,120.5C 138.31,122.079 132.977,123.079 127.5,123.5C 125.585,123.216 123.919,123.549 122.5,124.5C 120.851,123.527 119.184,122.527 117.5,121.5C 116.127,121.657 114.793,121.49 113.5,121C 114.056,120.617 114.389,120.117 114.5,119.5C 113.791,118.596 112.791,118.263 111.5,118.5C 111.5,116.833 111.5,115.167 111.5,113.5C 112.551,112.778 113.218,111.778 113.5,110.5C 113.5,109.833 113.833,109.5 114.5,109.5 Z"/></g>
<g><path style="opacity:1" fill="#626671" d="M 129.5,102.5 C 134.529,102.92 139.195,104.254 143.5,106.5C 143.611,107.117 143.944,107.617 144.5,108C 149.445,109.732 154.445,109.899 159.5,108.5C 158.833,109.167 158.167,109.833 157.5,110.5C 156.292,111.234 154.959,111.567 153.5,111.5C 151.922,117.912 153.922,119.246 159.5,115.5C 160.043,115.56 160.376,115.893 160.5,116.5C 159.675,117.386 158.675,117.719 157.5,117.5C 154.676,117.989 153.343,119.656 153.5,122.5C 155.741,122.046 157.741,122.046 159.5,122.5C 159.5,124.5 159.5,126.5 159.5,128.5C 158.5,128.5 157.5,128.5 156.5,128.5C 157.234,127.292 157.567,125.959 157.5,124.5C 154.833,124.5 152.167,124.5 149.5,124.5C 149.5,124.167 149.5,123.833 149.5,123.5C 149.918,122.778 150.584,122.278 151.5,122C 149.063,120.625 146.397,120.125 143.5,120.5C 135.863,118.879 135.863,117.546 143.5,116.5C 143.5,115.167 143.5,113.833 143.5,112.5C 146,113.89 148.333,113.723 150.5,112C 146.968,110.368 143.301,109.201 139.5,108.5C 138.081,107.549 136.415,107.216 134.5,107.5C 134.5,108.833 134.5,110.167 134.5,111.5C 132.801,111.527 131.467,112.194 130.5,113.5C 129.737,112.732 128.737,112.232 127.5,112C 129.032,111.3 130.032,110.134 130.5,108.5C 128.769,107.657 126.935,107.657 125,108.5C 123.624,108.316 122.791,107.649 122.5,106.5C 124.833,106.5 127.167,106.5 129.5,106.5C 129.5,105.167 129.5,103.833 129.5,102.5 Z"/></g>
<g><path style="opacity:1" fill="#cfc2b0" d="M 139.5,108.5 C 143.301,109.201 146.968,110.368 150.5,112C 148.333,113.723 146,113.89 143.5,112.5C 141.437,111.628 139.437,110.462 137.5,109C 138.094,108.536 138.761,108.369 139.5,108.5 Z"/></g>
<g><path style="opacity:1" fill="#a5807e" d="M 81.5,117.5 C 82.8333,117.833 84.1667,118.167 85.5,118.5C 86.2625,119.268 87.2625,119.768 88.5,120C 85.715,120.726 85.0484,122.226 86.5,124.5C 85.6618,124.842 85.3284,125.508 85.5,126.5C 85.5,126.833 85.5,127.167 85.5,127.5C 84.3846,124.169 83.0513,120.836 81.5,117.5 Z"/></g>
<g><path style="opacity:1" fill="#677375" d="M 97.5,113.5 C 98.9587,113.433 100.292,113.766 101.5,114.5C 101.5,114.833 101.5,115.167 101.5,115.5C 98.2219,116.391 94.8886,117.224 91.5,118C 90.5939,119.699 90.2606,121.533 90.5,123.5C 89.2921,124.234 87.9587,124.567 86.5,124.5C 85.0484,122.226 85.715,120.726 88.5,120C 87.2625,119.768 86.2625,119.268 85.5,118.5C 87.4832,118.843 88.8166,118.176 89.5,116.5C 89.8333,116.5 90.1667,116.5 90.5,116.5C 93.096,115.945 95.4293,114.945 97.5,113.5 Z"/></g>
<g><path style="opacity:1" fill="#cbb4a5" d="M 143.5,120.5 C 146.397,120.125 149.063,120.625 151.5,122C 150.584,122.278 149.918,122.778 149.5,123.5C 147.265,123.795 145.265,123.461 143.5,122.5C 143.5,121.833 143.5,121.167 143.5,120.5 Z"/></g>
<g><path style="opacity:1" fill="#cae5ea" d="M 164.5,62.5 C 174.359,85.5341 173.693,108.201 162.5,130.5C 162.672,131.492 162.338,132.158 161.5,132.5C 161.5,131.833 161.5,131.167 161.5,130.5C 161.167,129.5 160.5,128.833 159.5,128.5C 159.5,126.5 159.5,124.5 159.5,122.5C 160.833,122.5 162.167,122.5 163.5,122.5C 163.578,119.513 162.411,118.847 160,120.5C 158.69,119.87 157.856,118.87 157.5,117.5C 158.675,117.719 159.675,117.386 160.5,116.5C 160.376,115.893 160.043,115.56 159.5,115.5C 162.5,112.492 161.833,110.825 157.5,110.5C 158.167,109.833 158.833,109.167 159.5,108.5C 161.665,108.884 163.332,108.217 164.5,106.5C 162.889,105.821 161.222,104.821 159.5,103.5C 159.5,103.167 159.5,102.833 159.5,102.5C 159.5,102.167 159.5,101.833 159.5,101.5C 160.552,101.649 161.552,101.483 162.5,101C 165.487,97.7925 164.82,95.9592 160.5,95.5C 160.663,93.1432 160.497,90.8098 160,88.5C 159.583,89.756 158.75,90.4226 157.5,90.5C 156.167,89.5 156.167,88.5 157.5,87.5C 159.155,86.0698 161.155,85.2365 163.5,85C 162.09,83.6283 160.423,82.795 158.5,82.5C 157.534,79.5314 155.867,77.198 153.5,75.5C 153.047,74.5416 152.381,73.7083 151.5,73C 155.512,72.7933 159.346,73.6266 163,75.5C 163.5,75.1667 164,74.8333 164.5,74.5C 163.82,72.1111 162.986,69.7778 162,67.5C 161.798,69.2556 161.298,70.9223 160.5,72.5C 159.893,72.3764 159.56,72.0431 159.5,71.5C 160.451,70.0813 160.784,68.4147 160.5,66.5C 156.207,65.3436 151.874,64.3436 147.5,63.5C 146.833,63.5 146.167,63.5 145.5,63.5C 144.232,61.6132 142.399,60.6132 140,60.5C 135.931,61.7958 131.764,62.6292 127.5,63C 129.058,63.21 130.391,63.71 131.5,64.5C 130.325,64.281 129.325,64.6143 128.5,65.5C 131.22,67.1107 134.22,67.944 137.5,68C 137.598,69.3825 137.598,70.5492 137.5,71.5C 137.664,74.1873 137.497,76.854 137,79.5C 136.586,79.0426 136.086,78.7093 135.5,78.5C 132.538,79.0088 129.871,80.0088 127.5,81.5C 124.715,80.9162 123.048,81.9162 122.5,84.5C 122.606,87.0786 121.939,89.412 120.5,91.5C 119.833,91.5 119.167,91.5 118.5,91.5C 117.504,91.4142 116.671,91.7476 116,92.5C 115.292,91.6195 114.458,90.9528 113.5,90.5C 112.167,90.5 111.5,89.8333 111.5,88.5C 112.167,88.5 112.833,88.5 113.5,88.5C 117.446,88.5123 119.113,86.5123 118.5,82.5C 123.697,79.2827 127.03,74.616 128.5,68.5C 125.81,66.8065 123.81,64.4732 122.5,61.5C 122.586,60.5041 122.252,59.6708 121.5,59C 122.094,58.5357 122.761,58.369 123.5,58.5C 125.746,59.1066 128.079,59.44 130.5,59.5C 132.952,59.4609 134.952,58.7943 136.5,57.5C 137.11,56.609 137.443,55.609 137.5,54.5C 137.5,54.1667 137.5,53.8333 137.5,53.5C 138.715,52.221 138.382,51.221 136.5,50.5C 136.611,49.8826 136.944,49.3826 137.5,49C 141.45,49.4427 144.117,47.9427 145.5,44.5C 145.56,43.9569 145.893,43.6236 146.5,43.5C 151.189,46.1526 151.523,45.6526 147.5,42C 150.776,43.2365 153.609,45.4032 156,48.5C 156.718,47.5494 157.551,47.3828 158.5,48C 157.483,49.0495 157.316,50.2161 158,51.5C 161.198,54.5627 163.364,58.2294 164.5,62.5 Z"/></g>
<g><path style="opacity:1" fill="#cccda8" d="M 166.5,90.5 C 168.727,91.4006 169.727,93.0672 169.5,95.5C 167.801,95.6602 166.134,95.4935 164.5,95C 165.267,93.5295 165.933,92.0295 166.5,90.5 Z"/></g>
<g><path style="opacity:1" fill="#9f8692" d="M 149.5,88.5 C 150.873,88.3433 152.207,88.51 153.5,89C 151.794,91.3787 149.794,92.2121 147.5,91.5C 148.167,90.5 148.833,89.5 149.5,88.5 Z"/></g>
<g><path style="opacity:1" fill="#bb6150" d="M 124.5,84.5 C 127.127,85.0916 129.794,85.4249 132.5,85.5C 136.031,86.9746 139.698,88.3079 143.5,89.5C 143.38,90.5862 142.713,91.2528 141.5,91.5C 136.541,89.3861 131.374,88.0528 126,87.5C 124.97,87.1639 124.47,86.4972 124.5,85.5C 124.5,85.1667 124.5,84.8333 124.5,84.5 Z"/></g>
<g><path style="opacity:1" fill="#d69069" d="M 148.5,84.5 C 148.817,88.1716 147.151,89.8383 143.5,89.5C 139.698,88.3079 136.031,86.9746 132.5,85.5C 132.5,85.1667 132.5,84.8333 132.5,84.5C 137.734,83.1979 143.067,83.1979 148.5,84.5 Z"/></g>
<g><path style="opacity:1" fill="#f5854b" d="M 139.5,84.5 C 142.397,84.1253 145.063,84.6253 147.5,86C 145.558,88.901 143.225,89.0676 140.5,86.5C 139.702,86.0431 139.369,85.3764 139.5,84.5 Z"/></g>
<g><path style="opacity:1" fill="#6c8690" d="M 158.5,82.5 C 160.423,82.795 162.09,83.6283 163.5,85C 161.155,85.2365 159.155,86.0698 157.5,87.5C 155.721,85.6565 153.388,84.9898 150.5,85.5C 149.833,85.5 149.5,85.1667 149.5,84.5C 152.5,83.8333 155.5,83.1667 158.5,82.5 Z"/></g>
<g><path style="opacity:1" fill="#cbc8c7" d="M 153.5,75.5 C 155.867,77.198 157.534,79.5314 158.5,82.5C 155.5,83.1667 152.5,83.8333 149.5,84.5C 149.167,84.5 148.833,84.5 148.5,84.5C 148.5,84.1667 148.5,83.8333 148.5,83.5C 150.742,82.3519 153.076,81.3519 155.5,80.5C 154.05,79.1502 153.383,77.4835 153.5,75.5 Z"/></g>
<g><path style="opacity:1" fill="#957062" d="M 130.5,81.5 C 132.117,82.038 133.784,82.3713 135.5,82.5C 138.884,82.6604 142.217,82.327 145.5,81.5C 147.038,81.4534 148.038,82.1201 148.5,83.5C 148.5,83.8333 148.5,84.1667 148.5,84.5C 143.067,83.1979 137.734,83.1979 132.5,84.5C 129.993,84.3678 129.326,83.3678 130.5,81.5 Z"/></g>
<g><path style="opacity:1" fill="#d3a292" d="M 127.5,81.5 C 128.5,81.5 129.5,81.5 130.5,81.5C 129.326,83.3678 129.993,84.3678 132.5,84.5C 132.5,84.8333 132.5,85.1667 132.5,85.5C 129.794,85.4249 127.127,85.0916 124.5,84.5C 123.833,84.5 123.167,84.5 122.5,84.5C 123.048,81.9162 124.715,80.9162 127.5,81.5 Z"/></g>
<g><path style="opacity:1" fill="#a0a6a4" d="M 137.5,71.5 C 138.317,73.9686 138.817,76.6353 139,79.5C 141.461,77.491 143.961,77.3243 146.5,79C 143.123,79.4517 139.789,80.1184 136.5,81C 135.944,81.3826 135.611,81.8826 135.5,82.5C 133.784,82.3713 132.117,82.038 130.5,81.5C 129.5,81.5 128.5,81.5 127.5,81.5C 129.871,80.0088 132.538,79.0088 135.5,78.5C 136.086,78.7093 136.586,79.0426 137,79.5C 137.497,76.854 137.664,74.1873 137.5,71.5 Z"/></g>
<g><path style="opacity:1" fill="#827e81" d="M 145.5,63.5 C 146.167,63.5 146.833,63.5 147.5,63.5C 146.847,64.8068 146.18,66.1401 145.5,67.5C 150.138,69.0473 154.804,70.3807 159.5,71.5C 159.56,72.0431 159.893,72.3764 160.5,72.5C 161.298,70.9223 161.798,69.2556 162,67.5C 162.986,69.7778 163.82,72.1111 164.5,74.5C 164,74.8333 163.5,75.1667 163,75.5C 159.346,73.6266 155.512,72.7933 151.5,73C 152.381,73.7083 153.047,74.5416 153.5,75.5C 153.383,77.4835 154.05,79.1502 155.5,80.5C 153.076,81.3519 150.742,82.3519 148.5,83.5C 148.038,82.1201 147.038,81.4534 145.5,81.5C 142.217,82.327 138.884,82.6604 135.5,82.5C 135.611,81.8826 135.944,81.3826 136.5,81C 139.789,80.1184 143.123,79.4517 146.5,79C 143.961,77.3243 141.461,77.491 139,79.5C 138.817,76.6353 138.317,73.9686 137.5,71.5C 137.598,70.5492 137.598,69.3825 137.5,68C 134.22,67.944 131.22,67.1107 128.5,65.5C 129.325,64.6143 130.325,64.281 131.5,64.5C 135.22,64.2961 138.553,65.2961 141.5,67.5C 143.522,66.8111 144.856,65.4778 145.5,63.5 Z"/></g>
<g><path style="opacity:1" fill="#f4f6eb" d="M 147.5,63.5 C 151.874,64.3436 156.207,65.3436 160.5,66.5C 160.784,68.4147 160.451,70.0813 159.5,71.5C 154.804,70.3807 150.138,69.0473 145.5,67.5C 146.18,66.1401 146.847,64.8068 147.5,63.5 Z"/></g>
<g><path style="opacity:1" fill="#f1f2e6" d="M 145.5,63.5 C 144.856,65.4778 143.522,66.8111 141.5,67.5C 138.553,65.2961 135.22,64.2961 131.5,64.5C 130.391,63.71 129.058,63.21 127.5,63C 131.764,62.6292 135.931,61.7958 140,60.5C 142.399,60.6132 144.232,61.6132 145.5,63.5 Z"/></g>
<g><path style="opacity:1" fill="#8e8a8a" d="M 145.5,50.5 C 150.547,50.3756 152.38,52.7089 151,57.5C 147.395,61.6777 144.895,61.011 143.5,55.5C 144.187,53.8228 144.854,52.1561 145.5,50.5 Z"/></g>
<g><path style="opacity:1" fill="#ab696b" d="M 31.5,113.5 C 32.1515,114.091 32.8182,114.757 33.5,115.5C 34.7362,114.754 36.0695,114.421 37.5,114.5C 37.4326,115.959 37.7659,117.292 38.5,118.5C 37.6236,118.369 36.9569,118.702 36.5,119.5C 38.8942,122.719 41.0608,126.053 43,129.5C 44.1362,131.743 44.9695,134.076 45.5,136.5C 45.631,137.239 45.4643,137.906 45,138.5C 43.9331,136.308 42.4331,134.642 40.5,133.5C 40.5086,131.692 40.0086,130.025 39,128.5C 37.7225,126.253 36.2225,124.253 34.5,122.5C 33.5,121.167 32.5,119.833 31.5,118.5C 31.5,116.833 31.5,115.167 31.5,113.5 Z"/></g>
<g><path style="opacity:1" fill="#edc695" d="M 31.5,113.5 C 31.5,113.167 31.5,112.833 31.5,112.5C 33.1172,113.038 34.7839,113.371 36.5,113.5C 36.8333,113.5 37.1667,113.5 37.5,113.5C 38.391,114.11 39.391,114.443 40.5,114.5C 40.9528,115.458 41.6195,116.292 42.5,117C 41.2164,118.297 41.3831,119.464 43,120.5C 43.3333,119.833 43.6667,119.167 44,118.5C 46.1743,120.744 48.1743,123.077 50,125.5C 51.0086,127.025 51.5086,128.692 51.5,130.5C 51.5,130.833 51.5,131.167 51.5,131.5C 49.8007,131.473 48.4674,130.806 47.5,129.5C 46.4664,128.313 45.133,127.48 43.5,127C 46.2926,124.266 45.9593,123.266 42.5,124C 41.2509,122.02 39.9176,120.187 38.5,118.5C 37.7659,117.292 37.4326,115.959 37.5,114.5C 36.0695,114.421 34.7362,114.754 33.5,115.5C 32.8182,114.757 32.1515,114.091 31.5,113.5 Z"/></g>
<g><path style="opacity:1" fill="#e0d8d8" d="M 114.5,119.5 C 114.389,120.117 114.056,120.617 113.5,121C 114.793,121.49 116.127,121.657 117.5,121.5C 115.641,124.019 113.641,124.019 111.5,121.5C 111.167,121.5 110.833,121.5 110.5,121.5C 111.183,119.824 112.517,119.157 114.5,119.5 Z"/></g>
<g><path style="opacity:1" fill="#70979c" d="M 157.5,117.5 C 157.856,118.87 158.69,119.87 160,120.5C 162.411,118.847 163.578,119.513 163.5,122.5C 162.167,122.5 160.833,122.5 159.5,122.5C 157.741,122.046 155.741,122.046 153.5,122.5C 153.343,119.656 154.676,117.989 157.5,117.5 Z"/></g>
<g><path style="opacity:1" fill="#d99479" d="M 38.5,118.5 C 39.9176,120.187 41.2509,122.02 42.5,124C 45.9593,123.266 46.2926,124.266 43.5,127C 45.133,127.48 46.4664,128.313 47.5,129.5C 48.3862,131.722 48.3862,133.888 47.5,136C 48.8561,137.567 49.5228,139.4 49.5,141.5C 48.1667,139.833 46.8333,138.167 45.5,136.5C 44.9695,134.076 44.1362,131.743 43,129.5C 41.0608,126.053 38.8942,122.719 36.5,119.5C 36.9569,118.702 37.6236,118.369 38.5,118.5 Z"/></g>
<g><path style="opacity:1" fill="#969794" d="M 111.5,113.5 C 111.5,115.167 111.5,116.833 111.5,118.5C 112.791,118.263 113.791,118.596 114.5,119.5C 112.517,119.157 111.183,119.824 110.5,121.5C 109.883,121.389 109.383,121.056 109,120.5C 104.599,122.133 100.099,123.467 95.5,124.5C 95.5,123.5 95.5,122.5 95.5,121.5C 99.8032,121.259 103.803,120.092 107.5,118C 106.045,115.984 104.045,115.151 101.5,115.5C 101.5,115.167 101.5,114.833 101.5,114.5C 104.86,114.384 108.193,114.051 111.5,113.5 Z"/></g>
<g><path style="opacity:1" fill="#e09177" d="M 40.5,114.5 C 42.8333,115.833 45.1667,117.167 47.5,118.5C 49.2417,121.643 51.2417,124.643 53.5,127.5C 55.2672,129.938 56.6006,132.605 57.5,135.5C 55.4559,133.781 53.4559,132.114 51.5,130.5C 51.5086,128.692 51.0086,127.025 50,125.5C 48.1743,123.077 46.1743,120.744 44,118.5C 43.6667,119.167 43.3333,119.833 43,120.5C 41.3831,119.464 41.2164,118.297 42.5,117C 41.6195,116.292 40.9528,115.458 40.5,114.5 Z"/></g>
<g><path style="opacity:1" fill="#8b6d61" d="M 67.5,115.5 C 68.1667,115.5 68.8333,115.5 69.5,115.5C 69.6107,116.117 69.944,116.617 70.5,117C 72.4727,117.495 74.4727,117.662 76.5,117.5C 76.9968,119.78 77.3301,122.447 77.5,125.5C 75.6921,124.082 75.0254,122.082 75.5,119.5C 73.8561,119.714 72.3561,119.38 71,118.5C 70.51,119.793 70.3433,121.127 70.5,122.5C 69.6586,120.188 68.6586,117.855 67.5,115.5 Z"/></g>
<g><path style="opacity:1" fill="#555a66" d="M 110.5,121.5 C 110.833,121.5 111.167,121.5 111.5,121.5C 107.955,122.239 104.622,123.572 101.5,125.5C 99.7028,126.73 97.7028,127.396 95.5,127.5C 94.5,127.5 93.5,127.5 92.5,127.5C 90.139,127.326 87.8056,126.993 85.5,126.5C 85.3284,125.508 85.6618,124.842 86.5,124.5C 87.9587,124.567 89.2921,124.234 90.5,123.5C 92.0418,124.301 93.7085,124.634 95.5,124.5C 100.099,123.467 104.599,122.133 109,120.5C 109.383,121.056 109.883,121.389 110.5,121.5 Z"/></g>
<g><path style="opacity:1" fill="#b099a3" d="M 34.5,122.5 C 36.2225,124.253 37.7225,126.253 39,128.5C 40.0086,130.025 40.5086,131.692 40.5,133.5C 38.4776,131.469 36.8109,129.135 35.5,126.5C 34.7659,125.292 34.4326,123.959 34.5,122.5 Z"/></g>
<g><path style="opacity:1" fill="#e8af89" d="M 76.5,117.5 C 78.1667,116.167 79.8333,116.167 81.5,117.5C 83.0513,120.836 84.3846,124.169 85.5,127.5C 85.8333,127.5 86.1667,127.5 86.5,127.5C 86.5,129.833 86.5,132.167 86.5,134.5C 84.4974,130.462 82.9974,126.129 82,121.5C 81.6264,123.491 80.793,125.158 79.5,126.5C 79.1583,125.662 78.4916,125.328 77.5,125.5C 77.3301,122.447 76.9968,119.78 76.5,117.5 Z"/></g>
<g><path style="opacity:1" fill="#fac791" d="M 66.5,115.5 C 67.6431,123.625 68.9765,131.625 70.5,139.5C 69.8501,139.196 69.1835,138.863 68.5,138.5C 67.5481,140.045 67.2148,141.712 67.5,143.5C 64.8743,139.858 63.541,135.691 63.5,131C 65.1136,127.029 65.6136,122.862 65,118.5C 64.3457,117.304 63.8457,117.304 63.5,118.5C 64.8177,120.912 64.651,123.246 63,125.5C 62.5034,123.19 62.3367,120.857 62.5,118.5C 62.5,117.5 62.5,116.5 62.5,115.5C 63.8333,115.5 65.1667,115.5 66.5,115.5 Z"/></g>
<g><path style="opacity:1" fill="#869496" d="M 115.5,128.5 C 113.379,128.675 111.379,128.341 109.5,127.5C 109.62,126.414 110.287,125.747 111.5,125.5C 113.653,125.561 114.986,126.561 115.5,128.5 Z"/></g>
<g><path style="opacity:1" fill="#77505b" d="M 143.5,120.5 C 143.5,121.167 143.5,121.833 143.5,122.5C 142.5,122.5 141.5,122.5 140.5,122.5C 140.5,123.5 140.5,124.5 140.5,125.5C 138.5,125.5 136.5,125.5 134.5,125.5C 129.526,126.326 124.526,126.993 119.5,127.5C 118.167,127.833 116.833,128.167 115.5,128.5C 114.986,126.561 113.653,125.561 111.5,125.5C 110.287,125.747 109.62,126.414 109.5,127.5C 108.833,127.5 108.167,127.5 107.5,127.5C 106.082,125.692 104.082,125.025 101.5,125.5C 104.622,123.572 107.955,122.239 111.5,121.5C 113.641,124.019 115.641,124.019 117.5,121.5C 119.184,122.527 120.851,123.527 122.5,124.5C 124.338,125.678 126.005,125.345 127.5,123.5C 132.977,123.079 138.31,122.079 143.5,120.5 Z"/></g>
<g><path style="opacity:1" fill="#beb4b9" d="M 127.5,123.5 C 126.005,125.345 124.338,125.678 122.5,124.5C 123.919,123.549 125.585,123.216 127.5,123.5 Z"/></g>
<g><path style="opacity:1" fill="#c06e4e" d="M 143.5,122.5 C 145.265,123.461 147.265,123.795 149.5,123.5C 149.5,123.833 149.5,124.167 149.5,124.5C 148.393,126.969 146.393,127.969 143.5,127.5C 142.833,127.5 142.167,127.5 141.5,127.5C 141.672,126.508 141.338,125.842 140.5,125.5C 140.5,124.5 140.5,123.5 140.5,122.5C 141.5,122.5 142.5,122.5 143.5,122.5 Z"/></g>
<g><path style="opacity:1" fill="#a26651" d="M 149.5,124.5 C 152.167,124.5 154.833,124.5 157.5,124.5C 157.567,125.959 157.234,127.292 156.5,128.5C 154.5,128.5 152.5,128.5 150.5,128.5C 147.941,128.802 145.607,128.468 143.5,127.5C 146.393,127.969 148.393,126.969 149.5,124.5 Z"/></g>
<g><path style="opacity:1" fill="#706071" d="M 77.5,125.5 C 77.186,130.725 77.8527,135.725 79.5,140.5C 78.5416,140.047 77.7083,139.381 77,138.5C 76.3375,134.679 75.1708,131.012 73.5,127.5C 72.52,130.086 72.1866,132.753 72.5,135.5C 72.1667,135.5 71.8333,135.5 71.5,135.5C 71.8182,130.968 71.4849,126.634 70.5,122.5C 70.3433,121.127 70.51,119.793 71,118.5C 72.3561,119.38 73.8561,119.714 75.5,119.5C 75.0254,122.082 75.6921,124.082 77.5,125.5 Z"/></g>
<g><path style="opacity:1" fill="#c25d55" d="M 101.5,125.5 C 104.082,125.025 106.082,125.692 107.5,127.5C 107.918,128.222 108.584,128.722 109.5,129C 104.635,129.307 99.9685,128.807 95.5,127.5C 97.7028,127.396 99.7028,126.73 101.5,125.5 Z"/></g>
<g><path style="opacity:1" fill="#c58772" d="M 118.5,129.5 C 120.027,129.427 121.027,130.094 121.5,131.5C 121.5,132.5 121.5,133.5 121.5,134.5C 121.167,134.5 120.833,134.5 120.5,134.5C 120.586,133.504 120.252,132.671 119.5,132C 117.754,131.529 116.087,130.862 114.5,130C 115.793,129.51 117.127,129.343 118.5,129.5 Z"/></g>
<g><path style="opacity:1" fill="#c66547" d="M 134.5,125.5 C 134.159,129.25 132.826,129.916 130.5,127.5C 129.295,128.577 128.628,129.91 128.5,131.5C 126.167,131.5 123.833,131.5 121.5,131.5C 121.027,130.094 120.027,129.427 118.5,129.5C 118.833,128.833 119.167,128.167 119.5,127.5C 124.526,126.993 129.526,126.326 134.5,125.5 Z"/></g>
<g><path style="opacity:1" fill="#a0b3c8" d="M 150.5,128.5 C 152.5,128.5 154.5,128.5 156.5,128.5C 157.5,128.5 158.5,128.5 159.5,128.5C 160.5,128.833 161.167,129.5 161.5,130.5C 160.833,130.5 160.167,130.5 159.5,130.5C 155.363,130.034 151.029,130.034 146.5,130.5C 147.157,129.684 148.49,129.017 150.5,128.5 Z"/></g>
<g><path style="opacity:1" fill="#8e514f" d="M 92.5,127.5 C 93.5,127.5 94.5,127.5 95.5,127.5C 99.9685,128.807 104.635,129.307 109.5,129C 108.584,128.722 107.918,128.222 107.5,127.5C 108.167,127.5 108.833,127.5 109.5,127.5C 111.379,128.341 113.379,128.675 115.5,128.5C 116.833,128.167 118.167,127.833 119.5,127.5C 119.167,128.167 118.833,128.833 118.5,129.5C 117.127,129.343 115.793,129.51 114.5,130C 116.087,130.862 117.754,131.529 119.5,132C 120.252,132.671 120.586,133.504 120.5,134.5C 118.801,134.473 117.467,133.806 116.5,132.5C 113.167,132.167 109.833,131.833 106.5,131.5C 103.124,129.918 99.4578,129.251 95.5,129.5C 95.31,131.959 96.31,133.626 98.5,134.5C 94.1078,134.474 92.1078,132.141 92.5,127.5 Z"/></g>
<g><path style="opacity:1" fill="#a24f56" d="M 134.5,125.5 C 136.5,125.5 138.5,125.5 140.5,125.5C 141.338,125.842 141.672,126.508 141.5,127.5C 140.833,127.5 140.167,127.5 139.5,127.5C 138.078,127.75 137.078,128.583 136.5,130C 133.746,130.272 131.079,130.772 128.5,131.5C 128.628,129.91 129.295,128.577 130.5,127.5C 132.826,129.916 134.159,129.25 134.5,125.5 Z"/></g>
<g><path style="opacity:1" fill="#5683aa" d="M 159.5,130.5 C 155.969,131.23 152.303,131.896 148.5,132.5C 147.817,132.137 147.15,131.804 146.5,131.5C 146.5,131.167 146.5,130.833 146.5,130.5C 151.029,130.034 155.363,130.034 159.5,130.5 Z"/></g>
<g><path style="opacity:1" fill="#e79e82" d="M 66.5,115.5 C 66.8333,115.5 67.1667,115.5 67.5,115.5C 68.6586,117.855 69.6586,120.188 70.5,122.5C 70.2991,125.508 69.9657,128.508 69.5,131.5C 69.5854,133.333 70.2521,134.666 71.5,135.5C 71.8333,135.5 72.1667,135.5 72.5,135.5C 73.8333,139.5 75.1667,143.5 76.5,147.5C 75.609,146.89 74.609,146.557 73.5,146.5C 73.5358,143.539 72.5358,141.206 70.5,139.5C 68.9765,131.625 67.6431,123.625 66.5,115.5 Z"/></g>
<g><path style="opacity:1" fill="#d46b5f" d="M 70.5,122.5 C 71.4849,126.634 71.8182,130.968 71.5,135.5C 70.2521,134.666 69.5854,133.333 69.5,131.5C 69.9657,128.508 70.2991,125.508 70.5,122.5 Z"/></g>
<g><path style="opacity:1" fill="#6f475f" d="M 139.5,127.5 C 139.5,128.5 139.5,129.5 139.5,130.5C 136.272,131.981 132.939,132.981 129.5,133.5C 126.904,134.265 124.237,134.599 121.5,134.5C 121.5,133.5 121.5,132.5 121.5,131.5C 123.833,131.5 126.167,131.5 128.5,131.5C 131.079,130.772 133.746,130.272 136.5,130C 137.078,128.583 138.078,127.75 139.5,127.5 Z"/></g>
<g><path style="opacity:1" fill="#736b69" d="M 139.5,127.5 C 140.167,127.5 140.833,127.5 141.5,127.5C 142.167,127.5 142.833,127.5 143.5,127.5C 145.607,128.468 147.941,128.802 150.5,128.5C 148.49,129.017 147.157,129.684 146.5,130.5C 146.5,130.833 146.5,131.167 146.5,131.5C 146.737,132.791 146.404,133.791 145.5,134.5C 145.5,133.5 145.5,132.5 145.5,131.5C 143.585,131.216 141.919,131.549 140.5,132.5C 139.662,132.158 139.328,131.492 139.5,130.5C 139.5,129.5 139.5,128.5 139.5,127.5 Z"/></g>
<g><path style="opacity:1" fill="#8e6b6a" d="M 106.5,131.5 C 105.596,132.209 105.263,133.209 105.5,134.5C 109.179,134.724 112.846,135.058 116.5,135.5C 116.5,134.5 116.5,133.5 116.5,132.5C 117.467,133.806 118.801,134.473 120.5,134.5C 120.833,134.5 121.167,134.5 121.5,134.5C 121.209,135.649 120.376,136.316 119,136.5C 115.208,137.31 111.375,137.644 107.5,137.5C 106.833,137.5 106.167,137.5 105.5,137.5C 103.824,135.166 101.491,134.166 98.5,134.5C 96.31,133.626 95.31,131.959 95.5,129.5C 99.4578,129.251 103.124,129.918 106.5,131.5 Z"/></g>
<g><path style="opacity:1" fill="#e0ddb7" d="M 106.5,131.5 C 109.833,131.833 113.167,132.167 116.5,132.5C 116.5,133.5 116.5,134.5 116.5,135.5C 112.846,135.058 109.179,134.724 105.5,134.5C 105.263,133.209 105.596,132.209 106.5,131.5 Z"/></g>
<g><path style="opacity:1" fill="#485872" d="M 139.5,130.5 C 139.328,131.492 139.662,132.158 140.5,132.5C 140.932,133.71 141.599,134.71 142.5,135.5C 142.5,136.833 142.5,138.167 142.5,139.5C 142.5,140.5 142.5,141.5 142.5,142.5C 141.833,142.5 141.5,142.833 141.5,143.5C 140.833,143.5 140.167,143.5 139.5,143.5C 139.5,141.833 139.5,140.167 139.5,138.5C 139.539,137.417 139.873,136.417 140.5,135.5C 137.572,134.516 134.572,134.183 131.5,134.5C 131.5,135.5 131.5,136.5 131.5,137.5C 131.167,137.5 130.833,137.5 130.5,137.5C 129.766,136.292 129.433,134.959 129.5,133.5C 132.939,132.981 136.272,131.981 139.5,130.5 Z"/></g>
<g><path style="opacity:1" fill="#c1b6ad" d="M 145.5,134.5 C 145.158,135.338 144.492,135.672 143.5,135.5C 143.167,135.5 142.833,135.5 142.5,135.5C 141.599,134.71 140.932,133.71 140.5,132.5C 141.919,131.549 143.585,131.216 145.5,131.5C 145.5,132.5 145.5,133.5 145.5,134.5 Z"/></g>
<g><path style="opacity:1" fill="#40526a" d="M 159.5,130.5 C 160.167,130.5 160.833,130.5 161.5,130.5C 161.5,131.167 161.5,131.833 161.5,132.5C 158.739,133.738 156.072,135.072 153.5,136.5C 149.958,136.813 146.625,136.479 143.5,135.5C 144.492,135.672 145.158,135.338 145.5,134.5C 146.404,133.791 146.737,132.791 146.5,131.5C 147.15,131.804 147.817,132.137 148.5,132.5C 152.303,131.896 155.969,131.23 159.5,130.5 Z"/></g>
<g><path style="opacity:1" fill="#53868d" d="M 139.5,138.5 C 138.604,137.494 137.938,137.494 137.5,138.5C 136.833,138.5 136.5,138.833 136.5,139.5C 135.883,139.389 135.383,139.056 135,138.5C 134.798,140.256 134.298,141.922 133.5,143.5C 132.831,141.369 132.165,139.369 131.5,137.5C 131.5,136.5 131.5,135.5 131.5,134.5C 134.572,134.183 137.572,134.516 140.5,135.5C 139.873,136.417 139.539,137.417 139.5,138.5 Z"/></g>
<g><path style="opacity:1" fill="#774d58" d="M 86.5,127.5 C 87.7787,131.42 89.1121,135.42 90.5,139.5C 89.5,138.167 88.5,136.833 87.5,135.5C 86.8333,135.5 86.5,135.167 86.5,134.5C 86.5,132.167 86.5,129.833 86.5,127.5 Z"/></g>
<g><path style="opacity:1" fill="#a56964" d="M 53.5,127.5 C 54.8333,127.5 56.1667,127.5 57.5,127.5C 56.7745,131.343 58.1078,134.01 61.5,135.5C 62.2888,140.536 63.2888,145.536 64.5,150.5C 61.8822,146.602 59.5489,141.935 57.5,136.5C 57.5,136.167 57.5,135.833 57.5,135.5C 56.6006,132.605 55.2672,129.938 53.5,127.5 Z"/></g>
<g><path style="opacity:1" fill="#564b53" d="M 129.5,133.5 C 129.433,134.959 129.766,136.292 130.5,137.5C 130.5,138.167 130.167,138.5 129.5,138.5C 129.013,137.527 128.513,136.527 128,135.5C 123.365,137.366 118.532,138.366 113.5,138.5C 111.5,138.5 109.5,138.5 107.5,138.5C 107.5,138.167 107.5,137.833 107.5,137.5C 111.375,137.644 115.208,137.31 119,136.5C 120.376,136.316 121.209,135.649 121.5,134.5C 124.237,134.599 126.904,134.265 129.5,133.5 Z"/></g>
<g><path style="opacity:1" fill="#895e5a" d="M 142.5,135.5 C 142.833,135.5 143.167,135.5 143.5,135.5C 146.625,136.479 149.958,136.813 153.5,136.5C 155.099,136.232 156.432,136.566 157.5,137.5C 154.287,137.19 151.287,137.523 148.5,138.5C 146.379,138.325 144.379,138.659 142.5,139.5C 142.5,138.167 142.5,136.833 142.5,135.5 Z"/></g>
<g><path style="opacity:1" fill="#61656f" d="M 85.5,127.5 C 85.5,127.167 85.5,126.833 85.5,126.5C 87.8056,126.993 90.139,127.326 92.5,127.5C 92.1078,132.141 94.1078,134.474 98.5,134.5C 101.491,134.166 103.824,135.166 105.5,137.5C 103.051,136.943 100.718,136.943 98.5,137.5C 99.7287,138.281 101.062,138.781 102.5,139C 103.598,139.77 103.598,140.603 102.5,141.5C 99.6122,140.99 97.2789,141.656 95.5,143.5C 94.325,143.281 93.325,143.614 92.5,144.5C 101.141,145.498 109.808,145.831 118.5,145.5C 118.5,147.5 118.5,149.5 118.5,151.5C 118.167,151.5 117.833,151.5 117.5,151.5C 117.5,150.167 117.5,148.833 117.5,147.5C 110.167,147.5 102.833,147.5 95.5,147.5C 94.1667,147.5 92.8333,147.5 91.5,147.5C 91.1667,144.833 90.8333,142.167 90.5,139.5C 89.1121,135.42 87.7787,131.42 86.5,127.5C 86.1667,127.5 85.8333,127.5 85.5,127.5 Z"/></g>
<g><path style="opacity:1" fill="#f48e63" d="M 51.5,130.5 C 53.4559,132.114 55.4559,133.781 57.5,135.5C 57.5,135.833 57.5,136.167 57.5,136.5C 58.0508,139.807 58.3841,143.14 58.5,146.5C 57.5,146.5 56.5,146.5 55.5,146.5C 54.7249,144.612 54.7249,142.612 55.5,140.5C 53.8561,140.714 52.3561,140.38 51,139.5C 50.5702,136.808 50.7369,134.141 51.5,131.5C 51.5,131.167 51.5,130.833 51.5,130.5 Z"/></g>
<g><path style="opacity:1" fill="#ef956e" d="M 148.5,138.5 C 146.563,139.954 144.897,141.621 143.5,143.5C 142.833,143.5 142.5,143.167 142.5,142.5C 142.5,141.5 142.5,140.5 142.5,139.5C 144.379,138.659 146.379,138.325 148.5,138.5 Z"/></g>
<g><path style="opacity:1" fill="#f2cd9f" d="M 157.5,137.5 C 159.084,138.382 160.751,139.215 162.5,140C 163.337,141.011 163.67,142.178 163.5,143.5C 160.455,143.492 157.455,143.159 154.5,142.5C 150.802,142.552 147.135,142.886 143.5,143.5C 144.897,141.621 146.563,139.954 148.5,138.5C 151.287,137.523 154.287,137.19 157.5,137.5 Z"/></g>
<g><path style="opacity:1" fill="#e18066" d="M 77.5,125.5 C 78.4916,125.328 79.1583,125.662 79.5,126.5C 80.0431,135.234 83.0431,142.901 88.5,149.5C 89.1667,151.5 89.8333,153.5 90.5,155.5C 90.7678,157.099 90.4345,158.432 89.5,159.5C 88.5,159.5 87.5,159.5 86.5,159.5C 86.6633,157.143 86.4966,154.81 86,152.5C 85,151.833 84,151.167 83,150.5C 82.5034,148.19 82.3367,145.857 82.5,143.5C 81.5,143.5 80.5,143.5 79.5,143.5C 79.5,142.5 79.5,141.5 79.5,140.5C 77.8527,135.725 77.186,130.725 77.5,125.5 Z"/></g>
<g><path style="opacity:1" fill="#5c7c83" d="M 129.5,138.5 C 128.735,143.906 131.069,145.906 136.5,144.5C 135.713,146.104 134.38,146.771 132.5,146.5C 130.833,146.5 129.167,146.5 127.5,146.5C 127.5,145.167 127.5,143.833 127.5,142.5C 124.656,141.449 121.656,141.449 118.5,142.5C 115.881,142.232 113.381,142.565 111,143.5C 108.313,142.287 105.48,141.62 102.5,141.5C 103.598,140.603 103.598,139.77 102.5,139C 101.062,138.781 99.7287,138.281 98.5,137.5C 100.718,136.943 103.051,136.943 105.5,137.5C 106.167,137.5 106.833,137.5 107.5,137.5C 107.5,137.833 107.5,138.167 107.5,138.5C 107.5,139.5 107.5,140.5 107.5,141.5C 110.247,141.813 112.914,141.48 115.5,140.5C 114.757,139.818 114.091,139.151 113.5,138.5C 118.532,138.366 123.365,137.366 128,135.5C 128.513,136.527 129.013,137.527 129.5,138.5 Z"/></g>
<g><path style="opacity:1" fill="#77a193" d="M 107.5,138.5 C 109.5,138.5 111.5,138.5 113.5,138.5C 114.091,139.151 114.757,139.818 115.5,140.5C 112.914,141.48 110.247,141.813 107.5,141.5C 107.5,140.5 107.5,139.5 107.5,138.5 Z"/></g>
<g><path style="opacity:1" fill="#e9976e" d="M 47.5,129.5 C 48.4674,130.806 49.8007,131.473 51.5,131.5C 50.7369,134.141 50.5702,136.808 51,139.5C 52.3561,140.38 53.8561,140.714 55.5,140.5C 54.7249,142.612 54.7249,144.612 55.5,146.5C 55.5,147.167 55.5,147.833 55.5,148.5C 52.8103,146.807 50.8103,144.473 49.5,141.5C 49.5228,139.4 48.8561,137.567 47.5,136C 48.3862,133.888 48.3862,131.722 47.5,129.5 Z"/></g>
<g><path style="opacity:1" fill="#4f516c" d="M 79.5,140.5 C 79.5,141.5 79.5,142.5 79.5,143.5C 79.5,145.167 79.5,146.833 79.5,148.5C 78.609,147.89 77.609,147.557 76.5,147.5C 75.1667,143.5 73.8333,139.5 72.5,135.5C 72.1866,132.753 72.52,130.086 73.5,127.5C 75.1708,131.012 76.3375,134.679 77,138.5C 77.7083,139.381 78.5416,140.047 79.5,140.5 Z"/></g>
<g><path style="opacity:1" fill="#3f5c7a" d="M 102.5,141.5 C 105.48,141.62 108.313,142.287 111,143.5C 113.381,142.565 115.881,142.232 118.5,142.5C 118.389,143.117 118.056,143.617 117.5,144C 110.152,144.521 102.819,144.355 95.5,143.5C 97.2789,141.656 99.6122,140.99 102.5,141.5 Z"/></g>
<g><path style="opacity:1" fill="#95af77" d="M 139.5,138.5 C 139.5,140.167 139.5,141.833 139.5,143.5C 137.744,142.448 137.077,140.781 137.5,138.5C 137.938,137.494 138.604,137.494 139.5,138.5 Z"/></g>
<g><path style="opacity:1" fill="#fac786" d="M 86.5,134.5 C 86.5,135.167 86.8333,135.5 87.5,135.5C 87.3874,138.049 88.0541,140.382 89.5,142.5C 88.6258,144.747 88.2924,147.08 88.5,149.5C 83.0431,142.901 80.0431,135.234 79.5,126.5C 80.793,125.158 81.6264,123.491 82,121.5C 82.9974,126.129 84.4974,130.462 86.5,134.5 Z"/></g>
<g><path style="opacity:1" fill="#6a99b6" d="M 130.5,137.5 C 130.833,137.5 131.167,137.5 131.5,137.5C 132.165,139.369 132.831,141.369 133.5,143.5C 134.298,141.922 134.798,140.256 135,138.5C 135.383,139.056 135.883,139.389 136.5,139.5C 136.5,141.167 136.5,142.833 136.5,144.5C 131.069,145.906 128.735,143.906 129.5,138.5C 130.167,138.5 130.5,138.167 130.5,137.5 Z"/></g>
<g><path style="opacity:1" fill="#d1ecf3" d="M 172.5,89.5 C 173.738,91.2143 174.405,93.2143 174.5,95.5C 180.167,95.5 185.833,95.5 191.5,95.5C 191.522,99.5932 192.189,103.593 193.5,107.5C 191.672,119.419 191.005,131.419 191.5,143.5C 194.167,143.5 196.833,143.5 199.5,143.5C 199.5,162.167 199.5,180.833 199.5,199.5C 186.167,199.5 172.833,199.5 159.5,199.5C 159.5,196.167 159.5,192.833 159.5,189.5C 162.764,188.676 166.098,188.342 169.5,188.5C 169.5,187.167 169.5,185.833 169.5,184.5C 168.127,184.657 166.793,184.49 165.5,184C 170.486,180.697 173.153,176.031 173.5,170C 176.868,167.419 178.201,163.919 177.5,159.5C 178.622,157.712 178.789,155.712 178,153.5C 176.287,152.122 174.953,150.455 174,148.5C 170.807,146.008 167.307,144.342 163.5,143.5C 163.67,142.178 163.337,141.011 162.5,140C 160.751,139.215 159.084,138.382 157.5,137.5C 156.432,136.566 155.099,136.232 153.5,136.5C 156.072,135.072 158.739,133.738 161.5,132.5C 162.338,132.158 162.672,131.492 162.5,130.5C 164.173,129.657 165.34,128.324 166,126.5C 171.321,114.729 173.487,102.395 172.5,89.5 Z"/></g>
<g><path style="opacity:1" fill="#f8cb7e" d="M 70.5,139.5 C 72.5358,141.206 73.5358,143.539 73.5,146.5C 73.8432,148.483 73.1765,149.817 71.5,150.5C 70.8865,148.717 69.7198,147.384 68,146.5C 67.5172,145.552 67.3505,144.552 67.5,143.5C 67.2148,141.712 67.5481,140.045 68.5,138.5C 69.1835,138.863 69.8501,139.196 70.5,139.5 Z"/></g>
<g><path style="opacity:1" fill="#e4a780" d="M 87.5,135.5 C 88.5,136.833 89.5,138.167 90.5,139.5C 90.8333,142.167 91.1667,144.833 91.5,147.5C 92.8333,147.5 94.1667,147.5 95.5,147.5C 95.5,148.167 95.8333,148.5 96.5,148.5C 96.7329,150.062 97.3995,151.395 98.5,152.5C 97.8333,152.5 97.5,152.833 97.5,153.5C 95.9519,153.179 95.2852,152.179 95.5,150.5C 93.139,150.326 90.8056,149.993 88.5,149.5C 88.2924,147.08 88.6258,144.747 89.5,142.5C 88.0541,140.382 87.3874,138.049 87.5,135.5 Z"/></g>
<g><path style="opacity:1" fill="#5893ae" d="M 127.5,142.5 C 125.621,142.393 125.288,142.893 126.5,144C 123.937,145.079 121.271,145.579 118.5,145.5C 109.808,145.831 101.141,145.498 92.5,144.5C 93.325,143.614 94.325,143.281 95.5,143.5C 102.819,144.355 110.152,144.521 117.5,144C 118.056,143.617 118.389,143.117 118.5,142.5C 121.656,141.449 124.656,141.449 127.5,142.5 Z"/></g>
<g><path style="opacity:1" fill="#e28f74" d="M 67.5,143.5 C 67.3505,144.552 67.5172,145.552 68,146.5C 69.7198,147.384 70.8865,148.717 71.5,150.5C 71.5,151.167 71.5,151.833 71.5,152.5C 69.649,152.649 67.8157,152.649 66,152.5C 65.7216,151.584 65.2216,150.918 64.5,150.5C 63.2888,145.536 62.2888,140.536 61.5,135.5C 61.5,129.833 61.5,124.167 61.5,118.5C 61.8333,118.5 62.1667,118.5 62.5,118.5C 62.3367,120.857 62.5034,123.19 63,125.5C 64.651,123.246 64.8177,120.912 63.5,118.5C 63.8457,117.304 64.3457,117.304 65,118.5C 65.6136,122.862 65.1136,127.029 63.5,131C 63.541,135.691 64.8743,139.858 67.5,143.5 Z"/></g>
<g><path style="opacity:1" fill="#ba7666" d="M 142.5,142.5 C 142.5,143.167 142.833,143.5 143.5,143.5C 147.135,142.886 150.802,142.552 154.5,142.5C 150.048,143.263 145.715,144.763 141.5,147C 142.094,147.464 142.761,147.631 143.5,147.5C 141.626,148.285 139.626,148.952 137.5,149.5C 137.389,148.883 137.056,148.383 136.5,148C 138.618,146.951 140.284,145.451 141.5,143.5C 141.5,142.833 141.833,142.5 142.5,142.5 Z"/></g>
<g><path style="opacity:1" fill="#eadbc3" d="M 154.5,142.5 C 157.455,143.159 160.455,143.492 163.5,143.5C 164.446,145.132 165.446,146.799 166.5,148.5C 165.68,150.111 164.346,150.778 162.5,150.5C 162.439,148.408 161.439,146.908 159.5,146C 153.986,145.07 148.652,145.57 143.5,147.5C 142.761,147.631 142.094,147.464 141.5,147C 145.715,144.763 150.048,143.263 154.5,142.5 Z"/></g>
<g><path style="opacity:1" fill="#41758d" d="M 127.5,142.5 C 127.5,143.833 127.5,145.167 127.5,146.5C 129.167,146.5 130.833,146.5 132.5,146.5C 132.5,147.167 132.5,147.833 132.5,148.5C 127.497,148.531 122.83,149.531 118.5,151.5C 118.5,149.5 118.5,147.5 118.5,145.5C 121.271,145.579 123.937,145.079 126.5,144C 125.288,142.893 125.621,142.393 127.5,142.5 Z"/></g>
<g><path style="opacity:1" fill="#957b80" d="M 40.5,133.5 C 42.4331,134.642 43.9331,136.308 45,138.5C 45.4643,137.906 45.631,137.239 45.5,136.5C 46.8333,138.167 48.1667,139.833 49.5,141.5C 50.8103,144.473 52.8103,146.807 55.5,148.5C 55.3284,149.492 55.6618,150.158 56.5,150.5C 57.3645,154.113 59.6979,156.113 63.5,156.5C 64.6119,157.265 65.2786,158.265 65.5,159.5C 53.7961,154.128 45.4628,145.462 40.5,133.5 Z"/></g>
<g><path style="opacity:1" fill="#644f56" d="M 137.5,138.5 C 137.077,140.781 137.744,142.448 139.5,143.5C 140.167,143.5 140.833,143.5 141.5,143.5C 140.284,145.451 138.618,146.951 136.5,148C 137.056,148.383 137.389,148.883 137.5,149.5C 135.973,149.427 134.973,150.094 134.5,151.5C 133.833,151.5 133.167,151.5 132.5,151.5C 132.5,150.5 132.5,149.5 132.5,148.5C 132.5,147.833 132.5,147.167 132.5,146.5C 134.38,146.771 135.713,146.104 136.5,144.5C 136.5,142.833 136.5,141.167 136.5,139.5C 136.5,138.833 136.833,138.5 137.5,138.5 Z"/></g>
<g><path style="opacity:1" fill="#f3d49d" d="M 163.5,143.5 C 167.307,144.342 170.807,146.008 174,148.5C 174.953,150.455 176.287,152.122 178,153.5C 178.789,155.712 178.622,157.712 177.5,159.5C 175.824,160.183 175.157,161.517 175.5,163.5C 172.859,161.196 170.192,158.862 167.5,156.5C 167.043,154.227 165.71,152.894 163.5,152.5C 162.167,151.167 160.833,149.833 159.5,148.5C 156.15,148.335 152.817,148.502 149.5,149C 147.694,149.81 146.194,150.976 145,152.5C 143.56,153.148 142.06,153.481 140.5,153.5C 139.082,151.692 137.082,151.025 134.5,151.5C 134.973,150.094 135.973,149.427 137.5,149.5C 139.626,148.952 141.626,148.285 143.5,147.5C 148.652,145.57 153.986,145.07 159.5,146C 161.439,146.908 162.439,148.408 162.5,150.5C 164.346,150.778 165.68,150.111 166.5,148.5C 165.446,146.799 164.446,145.132 163.5,143.5 Z"/></g>
<g><path style="opacity:1" fill="#f4bd85" d="M 73.5,146.5 C 74.609,146.557 75.609,146.89 76.5,147.5C 77.609,147.557 78.609,147.89 79.5,148.5C 79.3379,150.527 79.5045,152.527 80,154.5C 81.8159,155.924 83.3159,157.59 84.5,159.5C 82.8008,159.66 81.1341,159.494 79.5,159C 77.7669,155.64 75.1003,153.473 71.5,152.5C 71.5,151.833 71.5,151.167 71.5,150.5C 73.1765,149.817 73.8432,148.483 73.5,146.5 Z"/></g>
<g><path style="opacity:1" fill="#e6d4ba" d="M 96.5,148.5 C 102.653,148.648 108.986,148.648 115.5,148.5C 115.5,149.5 115.5,150.5 115.5,151.5C 110.362,151.434 105.362,152.1 100.5,153.5C 99.8333,153.167 99.1667,152.833 98.5,152.5C 97.3995,151.395 96.7329,150.062 96.5,148.5 Z"/></g>
<g><path style="opacity:1" fill="#405277" d="M 132.5,148.5 C 132.5,149.5 132.5,150.5 132.5,151.5C 131.5,151.5 130.5,151.5 129.5,151.5C 125.357,151.904 121.357,152.904 117.5,154.5C 117.5,153.5 117.5,152.5 117.5,151.5C 117.833,151.5 118.167,151.5 118.5,151.5C 122.83,149.531 127.497,148.531 132.5,148.5 Z"/></g>
<g><path style="opacity:1" fill="#ba5b5d" d="M 56.5,150.5 C 57.8734,150.343 59.2068,150.51 60.5,151C 63.6645,154.053 67.3311,156.386 71.5,158C 70.5842,158.278 69.9175,158.778 69.5,159.5C 68.1667,159.5 66.8333,159.5 65.5,159.5C 65.2786,158.265 64.6119,157.265 63.5,156.5C 59.6979,156.113 57.3645,154.113 56.5,150.5 Z"/></g>
<g><path style="opacity:1" fill="#b1b2af" d="M 95.5,147.5 C 102.833,147.5 110.167,147.5 117.5,147.5C 117.5,148.833 117.5,150.167 117.5,151.5C 117.5,152.5 117.5,153.5 117.5,154.5C 111.642,154.822 105.975,154.489 100.5,153.5C 105.362,152.1 110.362,151.434 115.5,151.5C 115.5,150.5 115.5,149.5 115.5,148.5C 108.986,148.648 102.653,148.648 96.5,148.5C 95.8333,148.5 95.5,148.167 95.5,147.5 Z"/></g>
<g><path style="opacity:1" fill="#f9ca89" d="M 129.5,151.5 C 130.5,151.5 131.5,151.5 132.5,151.5C 133.167,151.5 133.833,151.5 134.5,151.5C 137.082,151.025 139.082,151.692 140.5,153.5C 136.268,154.956 131.935,155.956 127.5,156.5C 123.36,157.044 122.693,156.044 125.5,153.5C 127.153,153.34 128.486,152.674 129.5,151.5 Z"/></g>
<g><path style="opacity:1" fill="#585554" d="M 129.5,151.5 C 128.486,152.674 127.153,153.34 125.5,153.5C 120.932,155.68 116.098,157.013 111,157.5C 108.029,155.366 104.862,155.033 101.5,156.5C 100.099,155.479 98.7653,154.479 97.5,153.5C 97.5,152.833 97.8333,152.5 98.5,152.5C 99.1667,152.833 99.8333,153.167 100.5,153.5C 105.975,154.489 111.642,154.822 117.5,154.5C 121.357,152.904 125.357,151.904 129.5,151.5 Z"/></g>
<g><path style="opacity:1" fill="#facf8f" d="M 159.5,148.5 C 160.833,149.833 162.167,151.167 163.5,152.5C 163.047,153.458 162.381,154.292 161.5,155C 158.308,155.197 155.308,156.03 152.5,157.5C 151.702,157.957 151.369,158.624 151.5,159.5C 140.421,161.678 129.255,163.345 118,164.5C 115.39,164.467 113.223,163.8 111.5,162.5C 115.514,162.666 119.514,162.499 123.5,162C 135.706,158.984 147.706,155.484 159.5,151.5C 159.5,150.5 159.5,149.5 159.5,148.5 Z"/></g>
<g><path style="opacity:1" fill="#efa87c" d="M 163.5,152.5 C 165.71,152.894 167.043,154.227 167.5,156.5C 165.518,157.817 163.518,157.817 161.5,156.5C 157.999,157.205 154.665,158.205 151.5,159.5C 151.369,158.624 151.702,157.957 152.5,157.5C 155.308,156.03 158.308,155.197 161.5,155C 162.381,154.292 163.047,153.458 163.5,152.5 Z"/></g>
<g><path style="opacity:1" fill="#f8e7c1" d="M 159.5,148.5 C 159.5,149.5 159.5,150.5 159.5,151.5C 147.706,155.484 135.706,158.984 123.5,162C 119.514,162.499 115.514,162.666 111.5,162.5C 111.5,161.5 111.5,160.5 111.5,159.5C 115.846,159.666 120.179,159.499 124.5,159C 126.119,158.764 127.119,157.931 127.5,156.5C 131.935,155.956 136.268,154.956 140.5,153.5C 142.06,153.481 143.56,153.148 145,152.5C 146.194,150.976 147.694,149.81 149.5,149C 152.817,148.502 156.15,148.335 159.5,148.5 Z"/></g>
<g><path style="opacity:1" fill="#d0edf3" d="M 35.5,126.5 C 36.8109,129.135 38.4776,131.469 40.5,133.5C 45.4628,145.462 53.7961,154.128 65.5,159.5C 70.1302,162.486 74.7969,165.486 79.5,168.5C 79.5,168.833 79.5,169.167 79.5,169.5C 78.0125,171.605 76.0125,173.272 73.5,174.5C 76.6029,176.047 79.1029,175.38 81,172.5C 82.4341,172.93 83.6008,173.764 84.5,175C 83.1955,175.804 82.5288,176.971 82.5,178.5C 83.1568,183.998 85.9901,187.998 91,190.5C 93.2763,189.355 95.4429,189.688 97.5,191.5C 100.272,190.974 102.938,190.141 105.5,189C 102.018,189 98.6842,188.833 95.5,188.5C 95.5,187.5 95.5,186.5 95.5,185.5C 103.507,185.666 111.507,185.5 119.5,185C 123.135,181.864 126.969,181.697 131,184.5C 135.21,184.088 139.376,183.421 143.5,182.5C 136.688,181.983 130.021,180.817 123.5,179C 126.833,178.833 130.167,178.667 133.5,178.5C 137.481,178.611 141.314,179.278 145,180.5C 147.297,178.487 149.797,178.487 152.5,180.5C 149.463,181.902 146.463,183.235 143.5,184.5C 143.5,185.833 143.5,187.167 143.5,188.5C 140.428,188.183 137.428,188.516 134.5,189.5C 138.096,192.149 141.763,192.149 145.5,189.5C 148.583,191.346 151.916,191.846 155.5,191C 153.406,189.648 151.073,189.148 148.5,189.5C 148.33,188.178 148.663,187.011 149.5,186C 151.473,185.505 153.473,185.338 155.5,185.5C 155.5,186.833 155.5,188.167 155.5,189.5C 156.833,189.5 158.167,189.5 159.5,189.5C 159.5,192.833 159.5,196.167 159.5,199.5C 106.167,199.5 52.8333,199.5 -0.5,199.5C -0.5,180.833 -0.5,162.167 -0.5,143.5C 10.5202,143.832 21.5202,143.499 32.5,142.5C 30.914,137.626 31.2473,132.959 33.5,128.5C 32.9747,127.808 32.3081,127.308 31.5,127C 32.7932,126.51 34.1266,126.343 35.5,126.5 Z"/></g>
<g><path style="opacity:1" fill="#f5c38f" d="M 88.5,149.5 C 90.8056,149.993 93.139,150.326 95.5,150.5C 95.2852,152.179 95.9519,153.179 97.5,153.5C 98.7653,154.479 100.099,155.479 101.5,156.5C 104.862,155.033 108.029,155.366 111,157.5C 116.098,157.013 120.932,155.68 125.5,153.5C 122.693,156.044 123.36,157.044 127.5,156.5C 127.119,157.931 126.119,158.764 124.5,159C 120.179,159.499 115.846,159.666 111.5,159.5C 111.5,160.5 111.5,161.5 111.5,162.5C 110.85,162.804 110.183,163.137 109.5,163.5C 104.877,162.338 100.21,161.338 95.5,160.5C 93.5986,158.994 91.9319,157.327 90.5,155.5C 89.8333,153.5 89.1667,151.5 88.5,149.5 Z"/></g>
<g><path style="opacity:1" fill="#cf6f5f" d="M 57.5,136.5 C 59.5489,141.935 61.8822,146.602 64.5,150.5C 65.2216,150.918 65.7216,151.584 66,152.5C 67.8157,152.649 69.649,152.649 71.5,152.5C 75.1003,153.473 77.7669,155.64 79.5,159C 81.1341,159.494 82.8008,159.66 84.5,159.5C 83.8333,161.5 83.1667,163.5 82.5,165.5C 79.3922,164.435 76.7255,162.602 74.5,160C 73.2068,159.51 71.8734,159.343 70.5,159.5C 70.1667,159.5 69.8333,159.5 69.5,159.5C 69.9175,158.778 70.5842,158.278 71.5,158C 67.3311,156.386 63.6645,154.053 60.5,151C 59.2068,150.51 57.8734,150.343 56.5,150.5C 55.6618,150.158 55.3284,149.492 55.5,148.5C 55.5,147.833 55.5,147.167 55.5,146.5C 56.5,146.5 57.5,146.5 58.5,146.5C 58.3841,143.14 58.0508,139.807 57.5,136.5 Z"/></g>
<g><path style="opacity:1" fill="#926870" d="M 65.5,159.5 C 66.8333,159.5 68.1667,159.5 69.5,159.5C 69.8333,159.5 70.1667,159.5 70.5,159.5C 71.8936,161.708 73.8936,163.208 76.5,164C 77.748,165.4 78.748,166.9 79.5,168.5C 74.7969,165.486 70.1302,162.486 65.5,159.5 Z"/></g>
<g><path style="opacity:1" fill="#f09068" d="M 90.5,155.5 C 91.9319,157.327 93.5986,158.994 95.5,160.5C 100.21,161.338 104.877,162.338 109.5,163.5C 110.183,163.137 110.85,162.804 111.5,162.5C 113.223,163.8 115.39,164.467 118,164.5C 129.255,163.345 140.421,161.678 151.5,159.5C 154.665,158.205 157.999,157.205 161.5,156.5C 163.518,157.817 165.518,157.817 167.5,156.5C 170.192,158.862 172.859,161.196 175.5,163.5C 175.5,164.167 175.5,164.833 175.5,165.5C 173.958,164.699 172.292,164.366 170.5,164.5C 170.166,170.833 167.499,171.999 162.5,168C 161.853,166.391 161.02,164.891 160,163.5C 159.536,164.094 159.369,164.761 159.5,165.5C 156.193,165.538 153.026,164.872 150,163.5C 134.665,166.771 119.165,168.271 103.5,168C 102.257,166.846 101.257,165.512 100.5,164C 98.8659,163.506 97.1992,163.34 95.5,163.5C 93.1898,162.675 91.1898,161.342 89.5,159.5C 90.4345,158.432 90.7678,157.099 90.5,155.5 Z"/></g>
<g><path style="opacity:1" fill="#e47b63" d="M 95.5,163.5 C 97.1992,163.34 98.8659,163.506 100.5,164C 101.257,165.512 102.257,166.846 103.5,168C 119.165,168.271 134.665,166.771 150,163.5C 153.026,164.872 156.193,165.538 159.5,165.5C 157.333,167.511 154.666,168.678 151.5,169C 143.844,168.761 136.511,169.928 129.5,172.5C 128.051,171.72 126.551,171.054 125,170.5C 119.837,171.801 114.67,171.801 109.5,170.5C 106.989,171.655 104.322,172.322 101.5,172.5C 101.072,168.413 99.072,165.413 95.5,163.5 Z"/></g>
<g><path style="opacity:1" fill="#90666a" d="M 79.5,169.5 C 79.5,169.167 79.5,168.833 79.5,168.5C 80.8734,168.343 82.2068,168.51 83.5,169C 85.503,171.002 87.8364,172.502 90.5,173.5C 92.5311,175.31 94.1978,177.31 95.5,179.5C 93.3021,177.902 90.9687,176.569 88.5,175.5C 86.0495,172.723 83.0495,170.723 79.5,169.5 Z"/></g>
<g><path style="opacity:1" fill="#b95f5d" d="M 79.5,143.5 C 80.5,143.5 81.5,143.5 82.5,143.5C 82.3367,145.857 82.5034,148.19 83,150.5C 84,151.167 85,151.833 86,152.5C 86.4966,154.81 86.6633,157.143 86.5,159.5C 87.5,159.5 88.5,159.5 89.5,159.5C 91.1898,161.342 93.1898,162.675 95.5,163.5C 99.072,165.413 101.072,168.413 101.5,172.5C 109.964,173.313 118.63,174.313 127.5,175.5C 117.158,177.996 106.491,179.33 95.5,179.5C 94.1978,177.31 92.5311,175.31 90.5,173.5C 87.8364,172.502 85.503,171.002 83.5,169C 82.2068,168.51 80.8734,168.343 79.5,168.5C 78.748,166.9 77.748,165.4 76.5,164C 73.8936,163.208 71.8936,161.708 70.5,159.5C 71.8734,159.343 73.2068,159.51 74.5,160C 76.7255,162.602 79.3922,164.435 82.5,165.5C 83.1667,163.5 83.8333,161.5 84.5,159.5C 83.3159,157.59 81.8159,155.924 80,154.5C 79.5045,152.527 79.3379,150.527 79.5,148.5C 79.5,146.833 79.5,145.167 79.5,143.5 Z"/></g>
<g><path style="opacity:1" fill="#d57263" d="M 175.5,165.5 C 172.22,170.64 167.886,174.64 162.5,177.5C 159.99,176.843 157.823,175.509 156,173.5C 151.208,172.414 146.375,172.247 141.5,173C 139.148,173.24 137.148,174.073 135.5,175.5C 132.833,175.5 130.167,175.5 127.5,175.5C 118.63,174.313 109.964,173.313 101.5,172.5C 104.322,172.322 106.989,171.655 109.5,170.5C 114.67,171.801 119.837,171.801 125,170.5C 126.551,171.054 128.051,171.72 129.5,172.5C 136.511,169.928 143.844,168.761 151.5,169C 154.666,168.678 157.333,167.511 159.5,165.5C 159.369,164.761 159.536,164.094 160,163.5C 161.02,164.891 161.853,166.391 162.5,168C 167.499,171.999 170.166,170.833 170.5,164.5C 172.292,164.366 173.958,164.699 175.5,165.5 Z"/></g>
<g><path style="opacity:1" fill="#d5e9f1" d="M 177.5,159.5 C 178.201,163.919 176.868,167.419 173.5,170C 173.153,176.031 170.486,180.697 165.5,184C 166.793,184.49 168.127,184.657 169.5,184.5C 169.5,185.833 169.5,187.167 169.5,188.5C 166.098,188.342 162.764,188.676 159.5,189.5C 158.167,189.5 156.833,189.5 155.5,189.5C 155.5,188.167 155.5,186.833 155.5,185.5C 153.473,185.338 151.473,185.505 149.5,186C 148.663,187.011 148.33,188.178 148.5,189.5C 151.073,189.148 153.406,189.648 155.5,191C 151.916,191.846 148.583,191.346 145.5,189.5C 141.763,192.149 138.096,192.149 134.5,189.5C 137.428,188.516 140.428,188.183 143.5,188.5C 143.5,187.167 143.5,185.833 143.5,184.5C 146.463,183.235 149.463,181.902 152.5,180.5C 149.797,178.487 147.297,178.487 145,180.5C 141.314,179.278 137.481,178.611 133.5,178.5C 130.167,178.667 126.833,178.833 123.5,179C 130.021,180.817 136.688,181.983 143.5,182.5C 139.376,183.421 135.21,184.088 131,184.5C 126.969,181.697 123.135,181.864 119.5,185C 111.507,185.5 103.507,185.666 95.5,185.5C 95.5,186.5 95.5,187.5 95.5,188.5C 98.6842,188.833 102.018,189 105.5,189C 102.938,190.141 100.272,190.974 97.5,191.5C 95.4429,189.688 93.2763,189.355 91,190.5C 85.9901,187.998 83.1568,183.998 82.5,178.5C 82.5288,176.971 83.1955,175.804 84.5,175C 83.6008,173.764 82.4341,172.93 81,172.5C 79.1029,175.38 76.6029,176.047 73.5,174.5C 76.0125,173.272 78.0125,171.605 79.5,169.5C 83.0495,170.723 86.0495,172.723 88.5,175.5C 85.551,178.93 86.2177,181.763 90.5,184C 99.4019,182.98 108.402,182.313 117.5,182C 118.167,181.667 118.833,181.333 119.5,181C 114.845,180.501 110.179,180.334 105.5,180.5C 119.889,177.841 134.556,176.675 149.5,177C 152.309,178.741 155.309,179.908 158.5,180.5C 160.23,179.974 161.564,178.974 162.5,177.5C 167.886,174.64 172.22,170.64 175.5,165.5C 175.5,164.833 175.5,164.167 175.5,163.5C 175.157,161.517 175.824,160.183 177.5,159.5 Z"/></g>
<g><path style="opacity:1" fill="#cbeef1" d="M 88.5,175.5 C 90.9687,176.569 93.3021,177.902 95.5,179.5C 98.6248,180.479 101.958,180.813 105.5,180.5C 110.179,180.334 114.845,180.501 119.5,181C 118.833,181.333 118.167,181.667 117.5,182C 108.402,182.313 99.4019,182.98 90.5,184C 86.2177,181.763 85.551,178.93 88.5,175.5 Z"/></g>
<g><path style="opacity:1" fill="#895e69" d="M 127.5,175.5 C 130.167,175.5 132.833,175.5 135.5,175.5C 140.511,175.334 145.511,175.501 150.5,176C 153.391,177.274 156.058,178.774 158.5,180.5C 155.309,179.908 152.309,178.741 149.5,177C 134.556,176.675 119.889,177.841 105.5,180.5C 101.958,180.813 98.6248,180.479 95.5,179.5C 106.491,179.33 117.158,177.996 127.5,175.5 Z"/></g>
<g><path style="opacity:1" fill="#b65c5c" d="M 162.5,177.5 C 161.564,178.974 160.23,179.974 158.5,180.5C 156.058,178.774 153.391,177.274 150.5,176C 145.511,175.501 140.511,175.334 135.5,175.5C 137.148,174.073 139.148,173.24 141.5,173C 146.375,172.247 151.208,172.414 156,173.5C 157.823,175.509 159.99,176.843 162.5,177.5 Z"/></g>
</svg>
