<?xml version="1.0" encoding="UTF-8"?>
<!DOCTYPE svg PUBLIC "-//W3C//DTD SVG 1.1//EN" "http://www.w3.org/Graphics/SVG/1.1/DTD/svg11.dtd">
<svg xmlns="http://www.w3.org/2000/svg" version="1.1" width="200px" height="200px" style="shape-rendering:geometricPrecision; text-rendering:geometricPrecision; image-rendering:optimizeQuality; fill-rule:evenodd; clip-rule:evenodd" xmlns:xlink="http://www.w3.org/1999/xlink">
<g><path style="opacity:1" fill="#a7cec9" d="M -0.5,-0.5 C 20.8333,-0.5 42.1667,-0.5 63.5,-0.5C 63.5,1.16667 63.5,2.83333 63.5,4.5C 63.5,8.16667 63.5,11.8333 63.5,15.5C 64.552,15.3505 65.552,15.5172 66.5,16C 61.1899,17.9884 56.1899,20.4884 51.5,23.5C 50.7132,22.7579 50.0465,21.9246 49.5,21C 50.87,19.5587 51.87,17.892 52.5,16C 40.1712,15.5001 27.8378,15.3335 15.5,15.5C 15.3334,29.8372 15.5001,44.1705 16,58.5C 16.9147,57.6721 17.5814,56.6721 18,55.5C 18.704,57.2784 19.204,59.1118 19.5,61C 18.7722,67.1426 18.2722,73.3092 18,79.5C 17.0187,81.9598 16.1854,84.4598 15.5,87C 15.7066,90.4438 16.7066,90.9438 18.5,88.5C 19.1067,88.6236 19.44,88.9569 19.5,89.5C 19.5,90.1667 19.5,90.8333 19.5,91.5C 17.6916,91.4914 16.0249,91.9914 14.5,93C 12.2805,95.7128 10.2805,98.5461 8.5,101.5C 7.59872,102.29 6.93205,103.29 6.5,104.5C 4.21879,104.077 2.55213,104.744 1.5,106.5C 1.5,106.833 1.5,107.167 1.5,107.5C 0.833333,107.5 0.166667,107.5 -0.5,107.5C -0.5,71.5 -0.5,35.5 -0.5,-0.5 Z"/></g>
<g><path style="opacity:1" fill="#a7cec9" d="M 126.5,-0.5 C 150.833,-0.5 175.167,-0.5 199.5,-0.5C 199.5,16.1667 199.5,32.8333 199.5,49.5C 198.115,50.5736 196.949,51.9069 196,53.5C 195.376,51.5355 195.876,49.8689 197.5,48.5C 195.554,37.6869 194.887,26.6869 195.5,15.5C 183.5,15.5 171.5,15.5 159.5,15.5C 159.5,16.8333 159.5,18.1667 159.5,19.5C 158.167,19.5 156.833,19.5 155.5,19.5C 155.5,18.1667 155.5,16.8333 155.5,15.5C 151.5,15.5 147.5,15.5 143.5,15.5C 143.649,16.552 143.483,17.552 143,18.5C 136.663,17.6065 134.163,13.9398 135.5,7.5C 128.268,7.5555 121.268,6.38883 114.5,4C 118.149,1.37361 122.149,-0.126392 126.5,-0.5 Z"/></g>
<g><path style="opacity:1" fill="#a9cfc6" d="M 63.5,4.5 C 67.2807,3.78861 70.2807,4.95527 72.5,8C 75.7939,8.34586 78.9606,9.1792 82,10.5C 84.3894,10.0369 86.7228,9.37027 89,8.5C 98.8346,9.17511 108.668,10.0084 118.5,11C 122.035,11.6633 125.035,13.1633 127.5,15.5C 120.437,14.7878 113.437,13.6211 106.5,12C 89.6925,10.2409 74.0258,13.4076 59.5,21.5C 42.1297,30.5543 30.463,44.5543 24.5,63.5C 21.1408,69.977 19.8075,76.977 20.5,84.5C 21.5,84.5 22.5,84.5 23.5,84.5C 22.8763,86.754 21.543,88.4206 19.5,89.5C 19.44,88.9569 19.1067,88.6236 18.5,88.5C 16.7066,90.9438 15.7066,90.4438 15.5,87C 16.1854,84.4598 17.0187,81.9598 18,79.5C 18.2722,73.3092 18.7722,67.1426 19.5,61C 19.204,59.1118 18.704,57.2784 18,55.5C 17.5814,56.6721 16.9147,57.6721 16,58.5C 15.5001,44.1705 15.3334,29.8372 15.5,15.5C 27.8378,15.3335 40.1712,15.5001 52.5,16C 51.87,17.892 50.87,19.5587 49.5,21C 50.0465,21.9246 50.7132,22.7579 51.5,23.5C 56.1899,20.4884 61.1899,17.9884 66.5,16C 65.552,15.5172 64.552,15.3505 63.5,15.5C 63.5,11.8333 63.5,8.16667 63.5,4.5 Z"/></g>
<g><path style="opacity:1" fill="#faf8e5" d="M 127.5,15.5 C 132.201,19.3657 137.535,22.5324 143.5,25C 159.999,36.3425 170.333,51.8425 174.5,71.5C 173.526,70.365 172.359,69.365 171,68.5C 172.035,61.1721 169.201,56.3387 162.5,54C 162.827,51.3151 162.827,48.4818 162.5,45.5C 161.5,45.5 160.5,45.5 159.5,45.5C 159.311,50.3006 158.644,54.9673 157.5,59.5C 154.355,55.2341 151.188,50.9008 148,46.5C 144.985,49.6828 141.818,52.6828 138.5,55.5C 137.479,53.812 136.145,52.4787 134.5,51.5C 132.307,46.3087 129.307,41.642 125.5,37.5C 122.805,41.0296 120.305,44.6963 118,48.5C 117.329,49.2524 116.496,49.5858 115.5,49.5C 114.488,48.1283 113.488,46.795 112.5,45.5C 108.281,37.9342 103.614,30.6008 98.5,23.5C 96.1444,26.8998 93.8111,30.2331 91.5,33.5C 90.8637,30.0586 92.0304,27.0586 95,24.5C 95.4955,22.5273 95.6621,20.5273 95.5,18.5C 91.0893,18.463 87.4226,19.963 84.5,23C 84.8333,23.3333 85.1667,23.6667 85.5,24C 83.6951,24.972 82.0284,26.1387 80.5,27.5C 78.4235,25.7123 76.2568,24.0456 74,22.5C 70.5448,23.6356 67.3782,22.9689 64.5,20.5C 62.9291,21.3094 61.2624,21.6427 59.5,21.5C 74.0258,13.4076 89.6925,10.2409 106.5,12C 113.437,13.6211 120.437,14.7878 127.5,15.5 Z"/></g>
<g><path style="opacity:1" fill="#a7cfc7" d="M 63.5,-0.5 C 84.5,-0.5 105.5,-0.5 126.5,-0.5C 122.149,-0.126392 118.149,1.37361 114.5,4C 121.268,6.38883 128.268,7.5555 135.5,7.5C 134.163,13.9398 136.663,17.6065 143,18.5C 143.483,17.552 143.649,16.552 143.5,15.5C 147.5,15.5 151.5,15.5 155.5,15.5C 155.5,16.8333 155.5,18.1667 155.5,19.5C 156.833,19.5 158.167,19.5 159.5,19.5C 159.5,18.1667 159.5,16.8333 159.5,15.5C 171.5,15.5 183.5,15.5 195.5,15.5C 194.887,26.6869 195.554,37.6869 197.5,48.5C 195.876,49.8689 195.376,51.5355 196,53.5C 196.949,51.9069 198.115,50.5736 199.5,49.5C 199.5,51.5 199.5,53.5 199.5,55.5C 198.167,55.5 196.833,55.5 195.5,55.5C 195.5,68.8333 195.5,82.1667 195.5,95.5C 194.167,95.5 192.833,95.5 191.5,95.5C 191.778,97.3464 191.111,98.6798 189.5,99.5C 187.146,98.0017 184.813,96.6683 182.5,95.5C 179.025,91.8962 176.025,87.8962 173.5,83.5C 175.842,79.8837 176.175,75.8837 174.5,71.5C 170.333,51.8425 159.999,36.3425 143.5,25C 137.535,22.5324 132.201,19.3657 127.5,15.5C 125.035,13.1633 122.035,11.6633 118.5,11C 108.668,10.0084 98.8346,9.17511 89,8.5C 86.7228,9.37027 84.3894,10.0369 82,10.5C 78.9606,9.1792 75.7939,8.34586 72.5,8C 70.2807,4.95527 67.2807,3.78861 63.5,4.5C 63.5,2.83333 63.5,1.16667 63.5,-0.5 Z"/></g>
<g><path style="opacity:1" fill="#f8f8e2" d="M 91.5,33.5 C 88.6081,38.9431 85.4414,44.2765 82,49.5C 81.2917,48.6195 80.4584,47.9528 79.5,47.5C 78.1015,43.7123 75.9349,40.3789 73,37.5C 71.955,38.3734 71.1217,39.3734 70.5,40.5C 67.4737,45.1843 64.4737,49.8509 61.5,54.5C 61.1667,54.5 60.8333,54.5 60.5,54.5C 60.0785,51.3429 61.2452,49.0095 64,47.5C 64.6667,46.1667 64.6667,44.8333 64,43.5C 60.8683,44.9763 57.5349,45.6429 54,45.5C 49.1642,44.873 44.3308,44.7064 39.5,45C 41.8776,45.9745 41.5443,46.6411 38.5,47C 39.5171,48.0495 39.6838,49.2161 39,50.5C 36.0919,52.6615 33.7586,55.3281 32,58.5C 31.3946,56.5188 30.3946,56.1854 29,57.5C 28.187,59.4357 27.687,61.4357 27.5,63.5C 26.5,63.5 25.5,63.5 24.5,63.5C 30.463,44.5543 42.1297,30.5543 59.5,21.5C 61.2624,21.6427 62.9291,21.3094 64.5,20.5C 67.3782,22.9689 70.5448,23.6356 74,22.5C 76.2568,24.0456 78.4235,25.7123 80.5,27.5C 82.0284,26.1387 83.6951,24.972 85.5,24C 85.1667,23.6667 84.8333,23.3333 84.5,23C 87.4226,19.963 91.0893,18.463 95.5,18.5C 95.6621,20.5273 95.4955,22.5273 95,24.5C 92.0304,27.0586 90.8637,30.0586 91.5,33.5 Z"/></g>
<g><path style="opacity:1" fill="#b7d2c8" d="M 56.5,32.5 C 59.2853,32.933 61.6187,34.2663 63.5,36.5C 56.4065,39.2462 49.0732,40.0795 41.5,39C 47.5411,38.9738 52.5411,36.8072 56.5,32.5 Z"/></g>
<g><path style="opacity:1" fill="#1e3f4b" d="M 112.5,45.5 C 110.958,44.6993 109.292,44.366 107.5,44.5C 107.662,42.4727 107.495,40.4727 107,38.5C 105.989,37.6634 104.822,37.33 103.5,37.5C 103.205,41.0765 104.205,44.2432 106.5,47C 105.538,49.7607 104.205,52.2607 102.5,54.5C 101.221,56.1233 99.8872,57.79 98.5,59.5C 95.9705,56.136 93.6372,52.636 91.5,49C 90.8333,48.8333 90.1667,48.6667 89.5,48.5C 87.403,49.5485 85.403,50.5485 83.5,51.5C 80.2053,52.8245 78.872,51.4911 79.5,47.5C 80.4584,47.9528 81.2917,48.6195 82,49.5C 85.4414,44.2765 88.6081,38.9431 91.5,33.5C 93.8111,30.2331 96.1444,26.8998 98.5,23.5C 103.614,30.6008 108.281,37.9342 112.5,45.5 Z"/></g>
<g><path style="opacity:1" fill="#fdfae2" d="M 96.5,31.5 C 98.2039,34.8613 99.5372,38.5279 100.5,42.5C 100.239,44.9498 99.5723,47.2831 98.5,49.5C 97.675,50.3857 96.675,50.719 95.5,50.5C 95.5198,48.857 94.8532,47.5237 93.5,46.5C 96.0918,43.6865 96.0918,40.8532 93.5,38C 94.8561,36.4329 95.5228,34.5996 95.5,32.5C 95.5,31.8333 95.8333,31.5 96.5,31.5 Z"/></g>
<g><path style="opacity:1" fill="#aed0c6" d="M 48.5,41.5 C 52.1667,41.5 55.8333,41.5 59.5,41.5C 59.5,42.5 59.5,43.5 59.5,44.5C 55.8333,44.5 52.1667,44.5 48.5,44.5C 48.5,43.5 48.5,42.5 48.5,41.5 Z"/></g>
<g><path style="opacity:1" fill="#e9f3ec" d="M 95.5,32.5 C 95.5228,34.5996 94.8561,36.4329 93.5,38C 96.0918,40.8532 96.0918,43.6865 93.5,46.5C 94.8532,47.5237 95.5198,48.857 95.5,50.5C 96.675,50.719 97.675,50.3857 98.5,49.5C 99.5723,47.2831 100.239,44.9498 100.5,42.5C 99.5372,38.5279 98.2039,34.8613 96.5,31.5C 96.6282,29.9102 97.2949,28.5769 98.5,27.5C 100.718,34.0162 102.385,40.6828 103.5,47.5C 102.855,50.787 101.188,53.4537 98.5,55.5C 96.1468,53.1401 94.1468,50.4735 92.5,47.5C 90.4244,46.9003 88.4244,46.567 86.5,46.5C 89.5242,41.7686 92.5242,37.1019 95.5,32.5 Z"/></g>
<g><path style="opacity:1" fill="#2a3f3b" d="M 70.5,40.5 C 71.1667,40.5 71.5,40.8333 71.5,41.5C 70.0991,44.6339 68.4325,47.6339 66.5,50.5C 65.5275,52.1392 64.1942,53.4726 62.5,54.5C 62.1667,54.5 61.8333,54.5 61.5,54.5C 64.4737,49.8509 67.4737,45.1843 70.5,40.5 Z"/></g>
<g><path style="opacity:1" fill="#1c3840" d="M 134.5,51.5 C 133.292,50.7659 131.959,50.4326 130.5,50.5C 130.5,49.5 130.5,48.5 130.5,47.5C 129.5,47.5 128.5,47.5 127.5,47.5C 127.768,49.099 127.434,50.4324 126.5,51.5C 126.823,47.774 126.489,44.1073 125.5,40.5C 122.833,44.5 120.167,48.5 117.5,52.5C 119.001,54.9572 120.668,54.9572 122.5,52.5C 123.984,53.4669 124.984,54.8002 125.5,56.5C 124.85,56.8039 124.183,57.1373 123.5,57.5C 123.167,56.8333 122.833,56.1667 122.5,55.5C 116.453,57.3463 114.119,55.3463 115.5,49.5C 116.496,49.5858 117.329,49.2524 118,48.5C 120.305,44.6963 122.805,41.0296 125.5,37.5C 129.307,41.642 132.307,46.3087 134.5,51.5 Z"/></g>
<g><path style="opacity:1" fill="#eef8f1" d="M 73.5,40.5 C 73.8214,46.0262 73.4881,51.3595 72.5,56.5C 71.4884,55.1283 70.4884,53.795 69.5,52.5C 68.5,51.8333 67.5,51.1667 66.5,50.5C 68.4325,47.6339 70.0991,44.6339 71.5,41.5C 72.1667,41.1667 72.8333,40.8333 73.5,40.5 Z"/></g>
<g><path style="opacity:1" fill="#deeeec" d="M 126.5,51.5 C 126.784,53.4147 126.451,55.0813 125.5,56.5C 124.984,54.8002 123.984,53.4669 122.5,52.5C 120.668,54.9572 119.001,54.9572 117.5,52.5C 120.167,48.5 122.833,44.5 125.5,40.5C 126.489,44.1073 126.823,47.774 126.5,51.5 Z"/></g>
<g><path style="opacity:1" fill="#b0d4e3" d="M 66.5,50.5 C 67.5,51.1667 68.5,51.8333 69.5,52.5C 67.0587,53.5566 64.7254,54.89 62.5,56.5C 61.537,56.0302 61.537,55.3635 62.5,54.5C 64.1942,53.4726 65.5275,52.1392 66.5,50.5 Z"/></g>
<g><path style="opacity:1" fill="#f8eed3" d="M 174.5,71.5 C 176.175,75.8837 175.842,79.8837 173.5,83.5C 167.808,75.7949 162.474,67.7949 157.5,59.5C 158.644,54.9673 159.311,50.3006 159.5,45.5C 160.5,45.5 161.5,45.5 162.5,45.5C 162.827,48.4818 162.827,51.3151 162.5,54C 169.201,56.3387 172.035,61.1721 171,68.5C 172.359,69.365 173.526,70.365 174.5,71.5 Z"/></g>
<g><path style="opacity:1" fill="#8da9b6" d="M 73.5,40.5 C 74.6525,46.3188 74.8192,52.3188 74,58.5C 73.2828,57.9558 72.7828,57.2891 72.5,56.5C 73.4881,51.3595 73.8214,46.0262 73.5,40.5 Z"/></g>
<g><path style="opacity:1" fill="#063a52" d="M 79.5,47.5 C 78.872,51.4911 80.2053,52.8245 83.5,51.5C 85.5313,55.711 88.198,59.5444 91.5,63C 98.419,67.3757 105.252,71.8757 112,76.5C 110.775,68.3773 107.608,61.044 102.5,54.5C 104.205,52.2607 105.538,49.7607 106.5,47C 104.205,44.2432 103.205,41.0765 103.5,37.5C 104.822,37.33 105.989,37.6634 107,38.5C 107.495,40.4727 107.662,42.4727 107.5,44.5C 109.292,44.366 110.958,44.6993 112.5,45.5C 113.488,46.795 114.488,48.1283 115.5,49.5C 114.119,55.3463 116.453,57.3463 122.5,55.5C 122.833,56.1667 123.167,56.8333 123.5,57.5C 124.183,57.1373 124.85,56.8039 125.5,56.5C 126.451,55.0813 126.784,53.4147 126.5,51.5C 127.434,50.4324 127.768,49.099 127.5,47.5C 128.5,47.5 129.5,47.5 130.5,47.5C 130.5,48.5 130.5,49.5 130.5,50.5C 131.959,50.4326 133.292,50.7659 134.5,51.5C 136.145,52.4787 137.479,53.812 138.5,55.5C 141.818,52.6828 144.985,49.6828 148,46.5C 151.188,50.9008 154.355,55.2341 157.5,59.5C 162.474,67.7949 167.808,75.7949 173.5,83.5C 176.025,87.8962 179.025,91.8962 182.5,95.5C 183.754,98.0934 185.42,100.427 187.5,102.5C 186.833,103.167 186.167,103.833 185.5,104.5C 183.921,100.226 180.755,98.2257 176,98.5C 171.538,98.6377 168.372,100.638 166.5,104.5C 165.167,104.5 163.833,104.5 162.5,104.5C 160.873,102.37 159.04,100.37 157,98.5C 156.689,97.2575 157.189,96.2575 158.5,95.5C 156.694,92.528 154.694,89.6947 152.5,87C 156.84,88.6654 161.174,90.6654 165.5,93C 167.259,93.7975 168.926,93.6309 170.5,92.5C 165.876,87.3747 161.043,82.3747 156,77.5C 155.449,73.4549 153.282,70.7883 149.5,69.5C 149.5,69.1667 149.5,68.8333 149.5,68.5C 149.393,66.6214 149.893,66.2881 151,67.5C 151.815,62.6478 151.648,57.9811 150.5,53.5C 150.167,52.5 149.5,51.8333 148.5,51.5C 148.103,50.475 147.437,50.3083 146.5,51C 142.24,55.7677 137.573,59.9344 132.5,63.5C 130.857,63.4802 129.524,64.1468 128.5,65.5C 126.866,65.032 125.7,64.032 125,62.5C 122.896,64.3485 122.396,66.5152 123.5,69C 120.124,72.3782 116.457,75.3782 112.5,78C 113.167,78.3333 113.833,78.6667 114.5,79C 112.282,80.0906 110.116,81.2573 108,82.5C 107.51,83.7932 107.343,85.1266 107.5,86.5C 103.859,89.8049 100.192,93.1383 96.5,96.5C 96.0618,96.5654 95.7284,96.3988 95.5,96C 97.7059,93.9633 99.7059,91.7966 101.5,89.5C 103.914,88.5944 104.747,86.9278 104,84.5C 100.197,77.1832 95.6965,70.5165 90.5,64.5C 90.1667,64.5 89.8333,64.5 89.5,64.5C 88.448,64.3505 87.448,64.5172 86.5,65C 77.4274,73.284 68.2608,81.4507 59,89.5C 58.3083,90.4368 58.475,91.1034 59.5,91.5C 60.6005,92.6049 61.2671,93.9382 61.5,95.5C 61.3359,98.1873 61.5026,100.854 62,103.5C 62.3826,102.944 62.8826,102.611 63.5,102.5C 63.5,103.5 63.5,104.5 63.5,105.5C 62.209,105.263 61.209,105.596 60.5,106.5C 59.8333,106.5 59.1667,106.5 58.5,106.5C 60.0812,101.985 59.7478,97.6519 57.5,93.5C 56.6735,97.4592 56.1735,101.459 56,105.5C 55.9502,101.843 55.1168,98.51 53.5,95.5C 54.1174,95.3893 54.6174,95.056 55,94.5C 55.7625,90.4126 55.5958,86.4126 54.5,82.5C 54.5,82.1667 54.5,81.8333 54.5,81.5C 57.423,80.8366 58.0897,79.1699 56.5,76.5C 55.2054,75.9017 53.8721,75.4017 52.5,75C 54.8073,73.1724 54.474,71.5057 51.5,70C 53.8655,68.2105 55.5321,66.0439 56.5,63.5C 55.1667,63.5 53.8333,63.5 52.5,63.5C 52.3505,62.448 52.5172,61.448 53,60.5C 55.0693,59.7362 57.236,59.2362 59.5,59C 60.3366,57.9887 60.67,56.8221 60.5,55.5C 60.5,55.1667 60.5,54.8333 60.5,54.5C 60.8333,54.5 61.1667,54.5 61.5,54.5C 61.8333,54.5 62.1667,54.5 62.5,54.5C 61.537,55.3635 61.537,56.0302 62.5,56.5C 64.7254,54.89 67.0587,53.5566 69.5,52.5C 70.4884,53.795 71.4884,55.1283 72.5,56.5C 72.7828,57.2891 73.2828,57.9558 74,58.5C 74.8192,52.3188 74.6525,46.3188 73.5,40.5C 72.8333,40.8333 72.1667,41.1667 71.5,41.5C 71.5,40.8333 71.1667,40.5 70.5,40.5C 71.1217,39.3734 71.955,38.3734 73,37.5C 75.9349,40.3789 78.1015,43.7123 79.5,47.5 Z"/></g>
<g><path style="opacity:1" fill="#e1f0ed" d="M 48.5,52.5 C 49.8333,57.5 49.8333,62.5 48.5,67.5C 48.4633,61.9078 46.2967,60.5744 42,63.5C 41.6012,63.2716 41.4346,62.9382 41.5,62.5C 43.8333,59.1667 46.1667,55.8333 48.5,52.5 Z"/></g>
<g><path style="opacity:1" fill="#617e82" d="M 48.5,52.5 C 48.56,51.9569 48.8933,51.6236 49.5,51.5C 50.4941,56.456 50.8275,61.456 50.5,66.5C 50.2893,68.4241 49.6226,68.7574 48.5,67.5C 49.8333,62.5 49.8333,57.5 48.5,52.5 Z"/></g>
<g><path style="opacity:1" fill="#4492a3" d="M 102.5,54.5 C 107.608,61.044 110.775,68.3773 112,76.5C 105.252,71.8757 98.419,67.3757 91.5,63C 88.198,59.5444 85.5313,55.711 83.5,51.5C 85.403,50.5485 87.403,49.5485 89.5,48.5C 90.1667,48.6667 90.8333,48.8333 91.5,49C 93.6372,52.636 95.9705,56.136 98.5,59.5C 99.8872,57.79 101.221,56.1233 102.5,54.5 Z"/></g>
<g><path style="opacity:1" fill="#4392a1" d="M 66.5,55.5 C 70.224,55.0502 72.3907,56.7168 73,60.5C 73.4993,65.4889 73.6659,70.4889 73.5,75.5C 72.1779,75.67 71.0113,75.3366 70,74.5C 66.8513,69.6897 63.3513,65.1897 59.5,61C 62.02,59.3029 64.3533,57.4695 66.5,55.5 Z"/></g>
<g><path style="opacity:1" fill="#87bec0" d="M 148.5,51.5 C 149.5,51.8333 150.167,52.5 150.5,53.5C 149.965,57.4994 149.299,61.4994 148.5,65.5C 147.702,65.0431 147.369,64.3764 147.5,63.5C 148.483,59.7016 148.817,55.7016 148.5,51.5 Z"/></g>
<g><path style="opacity:1" fill="#f5edd3" d="M 60.5,54.5 C 60.5,54.8333 60.5,55.1667 60.5,55.5C 59.2101,56.0577 58.3768,57.0577 58,58.5C 56.6244,57.2949 55.4577,55.9616 54.5,54.5C 52.998,52.825 51.6647,50.9917 50.5,49C 49.8333,48.3333 49.1667,48.3333 48.5,49C 40.0216,60.8123 31.6883,72.6457 23.5,84.5C 22.5,84.5 21.5,84.5 20.5,84.5C 19.8075,76.977 21.1408,69.977 24.5,63.5C 25.5,63.5 26.5,63.5 27.5,63.5C 27.687,61.4357 28.187,59.4357 29,57.5C 30.3946,56.1854 31.3946,56.5188 32,58.5C 33.7586,55.3281 36.0919,52.6615 39,50.5C 39.6838,49.2161 39.5171,48.0495 38.5,47C 41.5443,46.6411 41.8776,45.9745 39.5,45C 44.3308,44.7064 49.1642,44.873 54,45.5C 57.5349,45.6429 60.8683,44.9763 64,43.5C 64.6667,44.8333 64.6667,46.1667 64,47.5C 61.2452,49.0095 60.0785,51.3429 60.5,54.5 Z"/></g>
<g><path style="opacity:1" fill="#458690" d="M 150.5,53.5 C 151.648,57.9811 151.815,62.6478 151,67.5C 149.893,66.2881 149.393,66.6214 149.5,68.5C 147.11,67.1092 145.443,65.1092 144.5,62.5C 145.609,62.5569 146.609,62.8902 147.5,63.5C 147.369,64.3764 147.702,65.0431 148.5,65.5C 149.299,61.4994 149.965,57.4994 150.5,53.5 Z"/></g>
<g><path style="opacity:1" fill="#e9f6ec" d="M 148.5,51.5 C 148.817,55.7016 148.483,59.7016 147.5,63.5C 146.609,62.8902 145.609,62.5569 144.5,62.5C 143.185,63.4756 141.852,64.4756 140.5,65.5C 139.232,64.5721 137.899,64.4054 136.5,65C 134.294,67.0367 132.294,69.2034 130.5,71.5C 120.867,79.1322 111.533,87.1322 102.5,95.5C 100.372,97.4025 98.0387,99.0692 95.5,100.5C 95.1667,100 94.8333,99.5 94.5,99C 95.0556,97.9889 95.7222,97.1556 96.5,96.5C 100.192,93.1383 103.859,89.8049 107.5,86.5C 116.159,79.1733 124.493,71.5066 132.5,63.5C 137.573,59.9344 142.24,55.7677 146.5,51C 147.437,50.3083 148.103,50.475 148.5,51.5 Z"/></g>
<g><path style="opacity:1" fill="#1a3b3e" d="M 54.5,54.5 C 53.5041,54.5858 52.6708,54.2524 52,53.5C 51.8247,58.0195 51.3247,62.3528 50.5,66.5C 50.8275,61.456 50.4941,56.456 49.5,51.5C 48.8933,51.6236 48.56,51.9569 48.5,52.5C 46.1667,55.8333 43.8333,59.1667 41.5,62.5C 40.5987,63.2905 39.9321,64.2905 39.5,65.5C 33.1667,74.1667 26.8333,82.8333 20.5,91.5C 20.1667,91.5 19.8333,91.5 19.5,91.5C 19.5,90.8333 19.5,90.1667 19.5,89.5C 21.543,88.4206 22.8763,86.754 23.5,84.5C 31.6883,72.6457 40.0216,60.8123 48.5,49C 49.1667,48.3333 49.8333,48.3333 50.5,49C 51.6647,50.9917 52.998,52.825 54.5,54.5 Z"/></g>
<g><path style="opacity:1" fill="#d7f1f2" d="M 89.5,64.5 C 89.6716,65.4916 89.3382,66.1583 88.5,66.5C 79.0199,75.0698 69.3532,83.4031 59.5,91.5C 58.475,91.1034 58.3083,90.4368 59,89.5C 68.2608,81.4507 77.4274,73.284 86.5,65C 87.448,64.5172 88.448,64.3505 89.5,64.5 Z"/></g>
<g><path style="opacity:1" fill="#4391a2" d="M 20.5,91.5 C 26.8333,82.8333 33.1667,74.1667 39.5,65.5C 41.8285,66.7489 43.6618,66.0823 45,63.5C 46.1306,65.7249 46.9639,68.0583 47.5,70.5C 43.7422,78.309 39.7422,85.9756 35.5,93.5C 34.8333,93.1667 34.1667,92.8333 33.5,92.5C 32.1449,96.49 32.4782,100.323 34.5,104C 28.5424,101.484 23.8758,97.317 20.5,91.5 Z"/></g>
<g><path style="opacity:1" fill="#79b6b8" d="M 144.5,62.5 C 145.443,65.1092 147.11,67.1092 149.5,68.5C 149.5,68.8333 149.5,69.1667 149.5,69.5C 149.772,73.9017 149.439,78.2351 148.5,82.5C 148.929,85.1118 149.929,86.6118 151.5,87C 150.976,89.4133 149.976,91.5799 148.5,93.5C 147.702,93.0431 147.369,92.3764 147.5,91.5C 145.826,86.9532 144.326,82.2865 143,77.5C 135.844,73.9594 132.177,76.2927 132,84.5C 131.333,85.1667 130.667,85.8333 130,86.5C 130.076,89.6019 129.91,92.6019 129.5,95.5C 127.718,94.2804 125.718,93.6138 123.5,93.5C 120.73,92.7291 118.73,93.8958 117.5,97C 117.836,98.0299 118.503,98.5299 119.5,98.5C 119.065,100.297 119.065,102.297 119.5,104.5C 115.958,104.187 112.625,104.521 109.5,105.5C 106.728,104.233 104.061,104.233 101.5,105.5C 101.167,105.5 100.833,105.5 100.5,105.5C 95.3491,104.673 90.0158,104.173 84.5,104C 80.21,98.2359 74.5433,96.2359 67.5,98C 65.3645,98.8763 64.0312,100.376 63.5,102.5C 62.8826,102.611 62.3826,102.944 62,103.5C 61.5026,100.854 61.3359,98.1873 61.5,95.5C 62.2216,95.0825 62.7216,94.4158 63,93.5C 63.3076,94.3081 63.8076,94.9747 64.5,95.5C 65.6108,93.4478 67.2775,92.1145 69.5,91.5C 71.903,91.305 73.5696,90.1384 74.5,88C 74.1639,86.9701 73.4972,86.4701 72.5,86.5C 73.9885,84.3549 74.9885,82.0215 75.5,79.5C 79.6106,78.3053 83.6106,76.8053 87.5,75C 89.805,72.4065 90.1383,69.5732 88.5,66.5C 89.3382,66.1583 89.6716,65.4916 89.5,64.5C 89.8333,64.5 90.1667,64.5 90.5,64.5C 90.3433,65.8734 90.51,67.2068 91,68.5C 94.5295,75.559 98.0295,82.559 101.5,89.5C 99.7059,91.7966 97.7059,93.9633 95.5,96C 95.7284,96.3988 96.0618,96.5654 96.5,96.5C 95.7222,97.1556 95.0556,97.9889 94.5,99C 94.8333,99.5 95.1667,100 95.5,100.5C 98.0387,99.0692 100.372,97.4025 102.5,95.5C 110.779,92.198 118.446,87.0313 125.5,80C 123.054,78.5172 123.388,77.3505 126.5,76.5C 127.386,77.325 127.719,78.325 127.5,79.5C 128.675,79.719 129.675,79.3857 130.5,78.5C 129.328,76.1772 129.328,73.8439 130.5,71.5C 132.294,69.2034 134.294,67.0367 136.5,65C 137.899,64.4054 139.232,64.5721 140.5,65.5C 141.852,64.4756 143.185,63.4756 144.5,62.5 Z"/></g>
<g><path style="opacity:1" fill="#163a47" d="M 132.5,63.5 C 124.493,71.5066 116.159,79.1733 107.5,86.5C 107.343,85.1266 107.51,83.7932 108,82.5C 110.116,81.2573 112.282,80.0906 114.5,79C 113.833,78.6667 113.167,78.3333 112.5,78C 116.457,75.3782 120.124,72.3782 123.5,69C 122.396,66.5152 122.896,64.3485 125,62.5C 125.7,64.032 126.866,65.032 128.5,65.5C 129.524,64.1468 130.857,63.4802 132.5,63.5 Z"/></g>
<g><path style="opacity:1" fill="#0a3f50" d="M 54.5,54.5 C 55.4577,55.9616 56.6244,57.2949 58,58.5C 58.3768,57.0577 59.2101,56.0577 60.5,55.5C 60.67,56.8221 60.3366,57.9887 59.5,59C 57.236,59.2362 55.0693,59.7362 53,60.5C 52.5172,61.448 52.3505,62.448 52.5,63.5C 53.8333,63.5 55.1667,63.5 56.5,63.5C 55.5321,66.0439 53.8655,68.2105 51.5,70C 54.474,71.5057 54.8073,73.1724 52.5,75C 53.8721,75.4017 55.2054,75.9017 56.5,76.5C 58.0897,79.1699 57.423,80.8366 54.5,81.5C 53.5,81.5 52.5,81.5 51.5,81.5C 51.5,86.8333 51.5,92.1667 51.5,97.5C 50.0413,97.5674 48.7079,97.2341 47.5,96.5C 46.7577,94.5742 45.7577,92.7409 44.5,91C 45.0944,90.5357 45.7611,90.369 46.5,90.5C 47.1451,91.8118 48.1451,92.8118 49.5,93.5C 50.8174,87.0117 50.8174,80.6783 49.5,74.5C 47.1556,74.5062 45.8223,75.6729 45.5,78C 44.744,81.1248 44.4107,84.2914 44.5,87.5C 43.8333,87.5 43.1667,87.5 42.5,87.5C 41.5041,87.4142 40.6708,87.7476 40,88.5C 39.1826,94.0164 39.3493,99.3497 40.5,104.5C 42.1038,101.597 43.1038,98.2634 43.5,94.5C 44.487,97.7683 44.8204,101.102 44.5,104.5C 45.8734,104.657 47.2068,104.49 48.5,104C 47.7476,103.329 47.4142,102.496 47.5,101.5C 48.4959,101.414 49.3292,101.748 50,102.5C 50.3333,101.5 50.6667,100.5 51,99.5C 51.1534,102.151 51.9867,104.484 53.5,106.5C 36.1667,106.5 18.8333,106.5 1.5,106.5C 2.55213,104.744 4.21879,104.077 6.5,104.5C 9.89838,104.82 13.2317,104.487 16.5,103.5C 15.8333,102.5 15.1667,101.5 14.5,100.5C 15.0253,99.8076 15.6919,99.3076 16.5,99C 15.7877,97.575 15.621,96.075 16,94.5C 13.5938,96.9833 11.4271,99.65 9.5,102.5C 8.89333,102.376 8.55999,102.043 8.5,101.5C 10.2805,98.5461 12.2805,95.7128 14.5,93C 16.0249,91.9914 17.6916,91.4914 19.5,91.5C 19.8333,91.5 20.1667,91.5 20.5,91.5C 23.8758,97.317 28.5424,101.484 34.5,104C 32.4782,100.323 32.1449,96.49 33.5,92.5C 34.1667,92.8333 34.8333,93.1667 35.5,93.5C 39.7422,85.9756 43.7422,78.309 47.5,70.5C 46.9639,68.0583 46.1306,65.7249 45,63.5C 43.6618,66.0823 41.8285,66.7489 39.5,65.5C 39.9321,64.2905 40.5987,63.2905 41.5,62.5C 41.4346,62.9382 41.6012,63.2716 42,63.5C 46.2967,60.5744 48.4633,61.9078 48.5,67.5C 49.6226,68.7574 50.2893,68.4241 50.5,66.5C 51.3247,62.3528 51.8247,58.0195 52,53.5C 52.6708,54.2524 53.5041,54.5858 54.5,54.5 Z"/></g>
<g><path style="opacity:1" fill="#428695" d="M 49.5,74.5 C 50.8174,80.6783 50.8174,87.0117 49.5,93.5C 48.1451,92.8118 47.1451,91.8118 46.5,90.5C 47.3255,86.0181 47.8255,81.3514 48,76.5C 48.7172,75.9558 49.2172,75.2891 49.5,74.5 Z"/></g>
<g><path style="opacity:1" fill="#458fa0" d="M 90.5,64.5 C 95.6965,70.5165 100.197,77.1832 104,84.5C 104.747,86.9278 103.914,88.5944 101.5,89.5C 98.0295,82.559 94.5295,75.559 91,68.5C 90.51,67.2068 90.3433,65.8734 90.5,64.5 Z"/></g>
<g><path style="opacity:1" fill="#7cb9b2" d="M 88.5,66.5 C 90.1383,69.5732 89.805,72.4065 87.5,75C 83.6106,76.8053 79.6106,78.3053 75.5,79.5C 74.9885,82.0215 73.9885,84.3549 72.5,86.5C 70.2729,87.4006 69.2729,89.0672 69.5,91.5C 67.2775,92.1145 65.6108,93.4478 64.5,95.5C 63.8076,94.9747 63.3076,94.3081 63,93.5C 62.7216,94.4158 62.2216,95.0825 61.5,95.5C 61.2671,93.9382 60.6005,92.6049 59.5,91.5C 69.3532,83.4031 79.0199,75.0698 88.5,66.5 Z"/></g>
<g><path style="opacity:1" fill="#7cb8af" d="M 130.5,71.5 C 129.328,73.8439 129.328,76.1772 130.5,78.5C 129.675,79.3857 128.675,79.719 127.5,79.5C 127.719,78.325 127.386,77.325 126.5,76.5C 123.388,77.3505 123.054,78.5172 125.5,80C 118.446,87.0313 110.779,92.198 102.5,95.5C 111.533,87.1322 120.867,79.1322 130.5,71.5 Z"/></g>
<g><path style="opacity:1" fill="#4490a0" d="M 149.5,69.5 C 153.282,70.7883 155.449,73.4549 156,77.5C 161.043,82.3747 165.876,87.3747 170.5,92.5C 168.926,93.6309 167.259,93.7975 165.5,93C 161.174,90.6654 156.84,88.6654 152.5,87C 154.694,89.6947 156.694,92.528 158.5,95.5C 157.189,96.2575 156.689,97.2575 157,98.5C 159.04,100.37 160.873,102.37 162.5,104.5C 156.824,104.666 151.157,104.499 145.5,104C 148.986,100.583 149.32,96.9168 146.5,93C 146.57,92.2352 146.903,91.7352 147.5,91.5C 147.369,92.3764 147.702,93.0431 148.5,93.5C 149.976,91.5799 150.976,89.4133 151.5,87C 149.929,86.6118 148.929,85.1118 148.5,82.5C 149.439,78.2351 149.772,73.9017 149.5,69.5 Z"/></g>
<g><path style="opacity:1" fill="#aacdd2" d="M 49.5,74.5 C 49.2172,75.2891 48.7172,75.9558 48,76.5C 47.8255,81.3514 47.3255,86.0181 46.5,90.5C 45.4489,89.7777 44.7822,88.7777 44.5,87.5C 44.4107,84.2914 44.744,81.1248 45.5,78C 45.8223,75.6729 47.1556,74.5062 49.5,74.5 Z"/></g>
<g><path style="opacity:1" fill="#e3f8f0" d="M 72.5,86.5 C 73.4972,86.4701 74.1639,86.9701 74.5,88C 73.5696,90.1384 71.903,91.305 69.5,91.5C 69.2729,89.0672 70.2729,87.4006 72.5,86.5 Z"/></g>
<g><path style="opacity:1" fill="#43839c" d="M 54.5,82.5 C 55.5958,86.4126 55.7625,90.4126 55,94.5C 54.6174,95.056 54.1174,95.3893 53.5,95.5C 52.8373,93.5274 52.5039,91.3608 52.5,89C 52.5332,86.3897 53.1999,84.223 54.5,82.5 Z"/></g>
<g><path style="opacity:1" fill="#0d4250" d="M 147.5,91.5 C 146.903,91.7352 146.57,92.2352 146.5,93C 149.32,96.9168 148.986,100.583 145.5,104C 151.157,104.499 156.824,104.666 162.5,104.5C 163.833,104.5 165.167,104.5 166.5,104.5C 167.5,104.5 168.5,104.5 169.5,104.5C 171.167,104.5 172.833,104.5 174.5,104.5C 178.167,104.5 181.833,104.5 185.5,104.5C 186.167,103.833 186.833,103.167 187.5,102.5C 189.45,104.026 191.783,105.026 194.5,105.5C 175.815,105.84 157.482,106.84 139.5,108.5C 138.833,108.5 138.167,108.5 137.5,108.5C 131.588,106.544 125.255,105.877 118.5,106.5C 115.287,106.81 112.287,106.477 109.5,105.5C 112.625,104.521 115.958,104.187 119.5,104.5C 123.226,104.823 126.893,104.489 130.5,103.5C 129.607,100.916 129.274,98.2492 129.5,95.5C 129.91,92.6019 130.076,89.6019 130,86.5C 130.667,85.8333 131.333,85.1667 132,84.5C 132.177,76.2927 135.844,73.9594 143,77.5C 144.326,82.2865 145.826,86.9532 147.5,91.5 Z"/></g>
<g><path style="opacity:1" fill="#639eb1" d="M 142.5,86.5 C 145.556,90.3462 144.723,93.3462 140,95.5C 139.333,93.8333 139.333,92.1667 140,90.5C 141.481,89.5291 142.315,88.1958 142.5,86.5 Z"/></g>
<g><path style="opacity:1" fill="#5591a3" d="M 139.5,77.5 C 140.458,77.9528 141.292,78.6195 142,79.5C 142.497,81.8098 142.663,84.1432 142.5,86.5C 141.504,86.4142 140.671,86.7476 140,87.5C 139.95,85.256 139.117,83.5893 137.5,82.5C 138.968,81.2209 139.635,79.5542 139.5,77.5 Z"/></g>
<g><path style="opacity:1" fill="#8ebec7" d="M 139.5,77.5 C 139.635,79.5542 138.968,81.2209 137.5,82.5C 137.66,84.1992 137.494,85.8659 137,87.5C 136.107,86.2888 135.274,86.2888 134.5,87.5C 137.152,89.5917 137.986,92.2583 137,95.5C 134.69,93.8011 132.857,91.8011 131.5,89.5C 131.703,87.7923 132.536,86.459 134,85.5C 134.333,83.5 134.667,81.5 135,79.5C 136.11,77.9632 137.61,77.2965 139.5,77.5 Z"/></g>
<g><path style="opacity:1" fill="#baf1f1" d="M 28.5,91.5 C 32.1021,91.678 32.1021,92.678 28.5,94.5C 27.4376,93.5754 27.4376,92.5754 28.5,91.5 Z"/></g>
<g><path style="opacity:1" fill="#dbf3ec" d="M 123.5,93.5 C 122.92,95.7488 121.587,97.4154 119.5,98.5C 118.503,98.5299 117.836,98.0299 117.5,97C 118.73,93.8958 120.73,92.7291 123.5,93.5 Z"/></g>
<g><path style="opacity:1" fill="#408196" d="M 142.5,103.5 C 142.795,101.265 142.461,99.2646 141.5,97.5C 143.303,93.8779 144.636,93.8779 145.5,97.5C 145.533,100.102 144.533,102.102 142.5,103.5 Z"/></g>
<g><path style="opacity:1" fill="#67a0ad" d="M 42.5,87.5 C 43.1667,87.5 43.8333,87.5 44.5,87.5C 44.7822,88.7777 45.4489,89.7777 46.5,90.5C 45.7611,90.369 45.0944,90.5357 44.5,91C 45.7577,92.7409 46.7577,94.5742 47.5,96.5C 47.5,98.1667 47.5,99.8333 47.5,101.5C 47.4142,102.496 47.7476,103.329 48.5,104C 47.2068,104.49 45.8734,104.657 44.5,104.5C 44.8204,101.102 44.487,97.7683 43.5,94.5C 43.1038,98.2634 42.1038,101.597 40.5,104.5C 39.9883,98.6118 40.6549,92.9452 42.5,87.5 Z"/></g>
<g><path style="opacity:1" fill="#43899d" d="M 18.5,94.5 C 22.625,97.4526 26.625,100.619 30.5,104C 26.5138,104.499 22.5138,104.666 18.5,104.5C 18.4802,102.857 19.1468,101.524 20.5,100.5C 19.9747,99.8076 19.3081,99.3076 18.5,99C 19.4132,97.5861 19.4132,96.0861 18.5,94.5 Z"/></g>
<g><path style="opacity:1" fill="#8fc2c7" d="M 131.5,94.5 C 136.751,96.0753 138.417,99.4087 136.5,104.5C 131.981,102.727 130.314,99.3932 131.5,94.5 Z"/></g>
<g><path style="opacity:1" fill="#72b4be" d="M 141.5,97.5 C 142.461,99.2646 142.795,101.265 142.5,103.5C 141.5,103.5 140.5,103.5 139.5,103.5C 139.054,100.99 139.72,98.9899 141.5,97.5 Z"/></g>
<g><path style="opacity:1" fill="#a5d8ea" d="M 42.5,87.5 C 40.6549,92.9452 39.9883,98.6118 40.5,104.5C 39.3493,99.3497 39.1826,94.0164 40,88.5C 40.6708,87.7476 41.5041,87.4142 42.5,87.5 Z"/></g>
<g><path style="opacity:1" fill="#428ea1" d="M 123.5,93.5 C 125.718,93.6138 127.718,94.2804 129.5,95.5C 129.274,98.2492 129.607,100.916 130.5,103.5C 126.893,104.489 123.226,104.823 119.5,104.5C 119.065,102.297 119.065,100.297 119.5,98.5C 121.587,97.4154 122.92,95.7488 123.5,93.5 Z"/></g>
<g><path style="opacity:1" fill="#46899e" d="M 6.5,104.5 C 6.93205,103.29 7.59872,102.29 8.5,101.5C 8.55999,102.043 8.89333,102.376 9.5,102.5C 11.4271,99.65 13.5938,96.9833 16,94.5C 15.621,96.075 15.7877,97.575 16.5,99C 15.6919,99.3076 15.0253,99.8076 14.5,100.5C 15.1667,101.5 15.8333,102.5 16.5,103.5C 13.2317,104.487 9.89838,104.82 6.5,104.5 Z"/></g>
<g><path style="opacity:1" fill="#0c414d" d="M 100.5,105.5 C 87.3438,106.496 74.0105,106.829 60.5,106.5C 61.209,105.596 62.209,105.263 63.5,105.5C 63.5,104.5 63.5,103.5 63.5,102.5C 64.0312,100.376 65.3645,98.8763 67.5,98C 74.5433,96.2359 80.21,98.2359 84.5,104C 90.0158,104.173 95.3491,104.673 100.5,105.5 Z"/></g>
<g><path style="opacity:1" fill="#3a7b91" d="M 72.5,99.5 C 83.4775,103.938 82.8108,105.605 70.5,104.5C 71.4408,102.95 72.1075,101.284 72.5,99.5 Z"/></g>
<g><path style="opacity:1" fill="#80bac6" d="M 72.5,99.5 C 72.1075,101.284 71.4408,102.95 70.5,104.5C 68.396,104.799 66.396,104.466 64.5,103.5C 66.6423,101.095 69.309,99.7622 72.5,99.5 Z"/></g>
<g><path style="opacity:1" fill="#48899d" d="M 185.5,104.5 C 181.833,104.5 178.167,104.5 174.5,104.5C 175.287,102.896 176.62,102.229 178.5,102.5C 178.5,101.5 178.5,100.5 178.5,99.5C 174.756,99.928 171.756,101.595 169.5,104.5C 168.5,104.5 167.5,104.5 166.5,104.5C 168.372,100.638 171.538,98.6377 176,98.5C 180.755,98.2257 183.921,100.226 185.5,104.5 Z"/></g>
<g><path style="opacity:1" fill="#86c4d0" d="M 174.5,104.5 C 172.833,104.5 171.167,104.5 169.5,104.5C 171.756,101.595 174.756,99.928 178.5,99.5C 178.5,100.5 178.5,101.5 178.5,102.5C 176.62,102.229 175.287,102.896 174.5,104.5 Z"/></g>
<g><path style="opacity:1" fill="#266077" d="M 54.5,81.5 C 54.5,81.8333 54.5,82.1667 54.5,82.5C 53.1999,84.223 52.5332,86.3897 52.5,89C 52.5039,91.3608 52.8373,93.5274 53.5,95.5C 55.1168,98.51 55.9502,101.843 56,105.5C 56.1735,101.459 56.6735,97.4592 57.5,93.5C 59.7478,97.6519 60.0812,101.985 58.5,106.5C 56.8333,106.5 55.1667,106.5 53.5,106.5C 51.9867,104.484 51.1534,102.151 51,99.5C 50.6667,100.5 50.3333,101.5 50,102.5C 49.3292,101.748 48.4959,101.414 47.5,101.5C 47.5,99.8333 47.5,98.1667 47.5,96.5C 48.7079,97.2341 50.0413,97.5674 51.5,97.5C 51.5,92.1667 51.5,86.8333 51.5,81.5C 52.5,81.5 53.5,81.5 54.5,81.5 Z"/></g>
<g><path style="opacity:1" fill="#90bfc2" d="M 100.5,105.5 C 100.833,105.5 101.167,105.5 101.5,105.5C 103.652,106.077 103.985,107.244 102.5,109C 99.3924,110.759 96.059,111.592 92.5,111.5C 90.1667,111.5 87.8333,111.5 85.5,111.5C 84.2825,110.839 82.9492,110.172 81.5,109.5C 85.3991,109.583 89.3991,109.083 93.5,108C 62.8351,107.5 32.1685,107.333 1.5,107.5C 1.5,107.167 1.5,106.833 1.5,106.5C 18.8333,106.5 36.1667,106.5 53.5,106.5C 55.1667,106.5 56.8333,106.5 58.5,106.5C 59.1667,106.5 59.8333,106.5 60.5,106.5C 74.0105,106.829 87.3438,106.496 100.5,105.5 Z"/></g>
<g><path style="opacity:1" fill="#ddeeea" d="M 101.5,105.5 C 104.061,104.233 106.728,104.233 109.5,105.5C 112.287,106.477 115.287,106.81 118.5,106.5C 121.973,107.778 122.973,110.111 121.5,113.5C 120.957,113.56 120.624,113.893 120.5,114.5C 130.5,115.167 140.5,115.833 150.5,116.5C 155.957,125.279 160.957,134.279 165.5,143.5C 164.5,143.5 163.5,143.5 162.5,143.5C 162.657,142.127 162.49,140.793 162,139.5C 160.255,137.911 159.088,135.911 158.5,133.5C 153.789,131.421 151.623,127.754 152,122.5C 151.208,120.413 150.041,118.579 148.5,117C 135.807,116.246 123.141,116.413 110.5,117.5C 112.679,116.323 115.013,115.323 117.5,114.5C 121.514,111.957 121.181,109.79 116.5,108C 115,107.833 113.5,107.667 112,107.5C 105.63,110.639 98.7962,112.639 91.5,113.5C 91.0618,113.565 90.7284,113.399 90.5,113C 91.4158,112.722 92.0825,112.222 92.5,111.5C 96.059,111.592 99.3924,110.759 102.5,109C 103.985,107.244 103.652,106.077 101.5,105.5 Z"/></g>
<g><path style="opacity:1" fill="#a5cdc8" d="M 199.5,55.5 C 199.5,103.5 199.5,151.5 199.5,199.5C 132.833,199.5 66.1667,199.5 -0.5,199.5C -0.5,196.167 -0.5,192.833 -0.5,189.5C 1.5,189.5 3.5,189.5 5.5,189.5C 30.3725,190.176 55.3725,190.842 80.5,191.5C 81.1835,191.137 81.8501,190.804 82.5,190.5C 91.9469,195.443 101.614,195.776 111.5,191.5C 137.628,190.851 163.628,190.184 189.5,189.5C 190.404,188.791 190.737,187.791 190.5,186.5C 190.5,186.167 190.5,185.833 190.5,185.5C 191.376,185.631 192.043,185.298 192.5,184.5C 188.073,176.639 183.407,168.972 178.5,161.5C 169.765,145.698 160.765,130.031 151.5,114.5C 147.555,113.509 143.555,113.176 139.5,113.5C 139.5,111.833 139.5,110.167 139.5,108.5C 157.482,106.84 175.815,105.84 194.5,105.5C 191.783,105.026 189.45,104.026 187.5,102.5C 185.42,100.427 183.754,98.0934 182.5,95.5C 184.813,96.6683 187.146,98.0017 189.5,99.5C 191.111,98.6798 191.778,97.3464 191.5,95.5C 192.833,95.5 194.167,95.5 195.5,95.5C 195.5,82.1667 195.5,68.8333 195.5,55.5C 196.833,55.5 198.167,55.5 199.5,55.5 Z"/></g>
<g><path style="opacity:1" fill="#afd1c8" d="M 85.5,111.5 C 87.8333,111.5 90.1667,111.5 92.5,111.5C 92.0825,112.222 91.4158,112.722 90.5,113C 90.7284,113.399 91.0618,113.565 91.5,113.5C 86.6462,114.965 81.6462,116.299 76.5,117.5C 67.0144,116.506 57.3478,116.173 47.5,116.5C 56.3178,115.507 65.3178,115.173 74.5,115.5C 75.0431,115.44 75.3764,115.107 75.5,114.5C 74.3112,113.571 72.9778,113.238 71.5,113.5C 63.6772,112.671 55.6772,112.171 47.5,112C 52.2859,111.784 56.9526,110.95 61.5,109.5C 62.6473,109.818 63.4806,110.484 64,111.5C 64.4828,110.552 64.6495,109.552 64.5,108.5C 69.5,108.5 74.5,108.5 79.5,108.5C 79.5,109.5 79.5,110.5 79.5,111.5C 81.5,111.5 83.5,111.5 85.5,111.5 Z"/></g>
<g><path style="opacity:1" fill="#a5cec9" d="M -0.5,107.5 C 0.166667,107.5 0.833333,107.5 1.5,107.5C 32.1685,107.333 62.8351,107.5 93.5,108C 89.3991,109.083 85.3991,109.583 81.5,109.5C 82.9492,110.172 84.2825,110.839 85.5,111.5C 83.5,111.5 81.5,111.5 79.5,111.5C 79.5,110.5 79.5,109.5 79.5,108.5C 74.5,108.5 69.5,108.5 64.5,108.5C 64.6495,109.552 64.4828,110.552 64,111.5C 63.4806,110.484 62.6473,109.818 61.5,109.5C 56.9526,110.95 52.2859,111.784 47.5,112C 55.6772,112.171 63.6772,112.671 71.5,113.5C 62.9832,113.174 54.6499,113.507 46.5,114.5C 31.0848,137.656 16.4181,161.322 2.5,185.5C 3.20895,186.404 4.20895,186.737 5.5,186.5C 5.5,187.5 5.5,188.5 5.5,189.5C 3.5,189.5 1.5,189.5 -0.5,189.5C -0.5,162.167 -0.5,134.833 -0.5,107.5 Z"/></g>
<g><path style="opacity:1" fill="#a0c8c8" d="M 118.5,106.5 C 125.255,105.877 131.588,106.544 137.5,108.5C 137.5,110.167 137.5,111.833 137.5,113.5C 132.167,113.5 126.833,113.5 121.5,113.5C 122.973,110.111 121.973,107.778 118.5,106.5 Z"/></g>
<g><path style="opacity:1" fill="#356b78" d="M 46.5,114.5 C 54.6499,113.507 62.9832,113.174 71.5,113.5C 72.9778,113.238 74.3112,113.571 75.5,114.5C 75.3764,115.107 75.0431,115.44 74.5,115.5C 65.3483,114.506 56.015,114.173 46.5,114.5 Z"/></g>
<g><path style="opacity:1" fill="#9fc3d1" d="M 97.5,115.5 C 97.5,116.833 96.8333,117.5 95.5,117.5C 95.5,116.167 96.1667,115.5 97.5,115.5 Z"/></g>
<g><path style="opacity:1" fill="#517b7b" d="M 173.5,116.5 C 175.604,116.201 177.604,116.534 179.5,117.5C 179.376,118.107 179.043,118.44 178.5,118.5C 176.833,117.833 175.167,117.167 173.5,116.5 Z"/></g>
<g><path style="opacity:1" fill="#fdfae3" d="M 47.5,116.5 C 57.3478,116.173 67.0144,116.506 76.5,117.5C 72.3919,119.058 68.0586,119.724 63.5,119.5C 63.5,120.5 63.5,121.5 63.5,122.5C 58.1667,122.5 52.8333,122.5 47.5,122.5C 47.5,120.5 47.5,118.5 47.5,116.5 Z"/></g>
<g><path style="opacity:1" fill="#133a4c" d="M 117.5,114.5 C 116.833,112.5 116.167,110.5 115.5,108.5C 113.801,108.527 112.467,109.194 111.5,110.5C 111.565,110.062 111.399,109.728 111,109.5C 110.311,110.357 109.478,111.023 108.5,111.5C 107.227,112.257 107.227,112.923 108.5,113.5C 108.092,114.643 107.425,115.643 106.5,116.5C 103.484,116.336 100.484,116.003 97.5,115.5C 96.1667,115.5 95.5,116.167 95.5,117.5C 94.6714,117.164 93.6714,117.164 92.5,117.5C 90.4068,118.045 88.4068,118.878 86.5,120C 85.5494,120.718 85.3828,121.551 86,122.5C 86.8159,121.177 87.9826,120.511 89.5,120.5C 93.4043,121.885 93.4043,123.385 89.5,125C 86.2893,125.798 83.2893,125.298 80.5,123.5C 79.359,125.421 79.1923,127.421 80,129.5C 81.897,127.984 84.0637,127.317 86.5,127.5C 88.3684,128.263 90.0351,129.263 91.5,130.5C 91.2178,131.778 90.5511,132.778 89.5,133.5C 85.4299,132.644 81.4299,131.477 77.5,130C 74.8936,129.208 72.8936,127.708 71.5,125.5C 73.0879,123.887 74.0879,121.887 74.5,119.5C 75.1667,118.833 75.8333,118.167 76.5,117.5C 81.6462,116.299 86.6462,114.965 91.5,113.5C 98.7962,112.639 105.63,110.639 112,107.5C 113.5,107.667 115,107.833 116.5,108C 121.181,109.79 121.514,111.957 117.5,114.5 Z"/></g>
<g><path style="opacity:1" fill="#b6c9cb" d="M 111.5,110.5 C 110.833,111.833 109.833,112.833 108.5,113.5C 107.227,112.923 107.227,112.257 108.5,111.5C 109.478,111.023 110.311,110.357 111,109.5C 111.399,109.728 111.565,110.062 111.5,110.5 Z"/></g>
<g><path style="opacity:1" fill="#07353b" d="M 173.5,116.5 C 175.167,117.167 176.833,117.833 178.5,118.5C 174.818,118.665 171.152,118.499 167.5,118C 169.205,115.572 171.205,115.072 173.5,116.5 Z"/></g>
<g><path style="opacity:1" fill="#aed7e3" d="M 92.5,117.5 C 91.6935,118.728 90.6935,119.728 89.5,120.5C 87.9826,120.511 86.8159,121.177 86,122.5C 85.3828,121.551 85.5494,120.718 86.5,120C 88.4068,118.878 90.4068,118.045 92.5,117.5 Z"/></g>
<g><path style="opacity:1" fill="#243e41" d="M 74.5,119.5 C 74.0879,121.887 73.0879,123.887 71.5,125.5C 70.8333,125.5 70.5,125.167 70.5,124.5C 70.5,123.833 70.5,123.167 70.5,122.5C 71.2362,120.771 72.5695,119.771 74.5,119.5 Z"/></g>
<g><path style="opacity:1" fill="#24454a" d="M 137.5,108.5 C 138.167,108.5 138.833,108.5 139.5,108.5C 139.5,110.167 139.5,111.833 139.5,113.5C 143.555,113.176 147.555,113.509 151.5,114.5C 160.765,130.031 169.765,145.698 178.5,161.5C 177.833,161.5 177.5,161.833 177.5,162.5C 173.75,155.998 169.75,149.665 165.5,143.5C 160.957,134.279 155.957,125.279 150.5,116.5C 140.5,115.833 130.5,115.167 120.5,114.5C 120.624,113.893 120.957,113.56 121.5,113.5C 126.833,113.5 132.167,113.5 137.5,113.5C 137.5,111.833 137.5,110.167 137.5,108.5 Z"/></g>
<g><path style="opacity:1" fill="#0b3947" d="M 17.5,119.5 C 23.3945,118.035 27.3945,120.035 29.5,125.5C 23.8333,126.833 18.1667,126.833 12.5,125.5C 13.1799,124.14 13.8466,122.807 14.5,121.5C 15.4345,122.568 15.7678,123.901 15.5,125.5C 18.8499,125.665 22.1832,125.498 25.5,125C 26.8333,124 26.8333,123 25.5,122C 22.5,121.667 19.5,121.333 16.5,121C 17.056,120.617 17.3893,120.117 17.5,119.5 Z"/></g>
<g><path style="opacity:1" fill="#2e6e80" d="M 17.5,119.5 C 17.3893,120.117 17.056,120.617 16.5,121C 19.5,121.333 22.5,121.667 25.5,122C 26.8333,123 26.8333,124 25.5,125C 22.1832,125.498 18.8499,125.665 15.5,125.5C 15.7678,123.901 15.4345,122.568 14.5,121.5C 14.9731,120.094 15.9731,119.427 17.5,119.5 Z"/></g>
<g><path style="opacity:1" fill="#aacede" d="M 86.5,127.5 C 86.56,126.957 86.8933,126.624 87.5,126.5C 89.8333,127.667 92.1667,128.833 94.5,130C 93.552,130.483 92.552,130.649 91.5,130.5C 90.0351,129.263 88.3684,128.263 86.5,127.5 Z"/></g>
<g><path style="opacity:1" fill="#fbf9e4" d="M 165.5,143.5 C 166.672,145.844 166.672,148.177 165.5,150.5C 166.167,150.833 166.833,151.167 167.5,151.5C 167,151.833 166.5,152.167 166,152.5C 160.989,150 158.822,146 159.5,140.5C 156.167,140.5 152.833,140.5 149.5,140.5C 149.5,141.5 149.5,142.5 149.5,143.5C 144.489,143.666 139.489,143.499 134.5,143C 135.591,140.936 135.758,138.769 135,136.5C 134.667,138.167 134.333,139.833 134,141.5C 133.751,140.376 133.251,139.376 132.5,138.5C 131.756,139.991 131.09,141.491 130.5,143C 129.423,143.47 128.423,143.303 127.5,142.5C 127.662,140.473 127.495,138.473 127,136.5C 119.544,131.866 111.377,129.033 102.5,128C 93.1978,125.053 93.1978,122.053 102.5,119C 105.063,117.921 107.729,117.421 110.5,117.5C 123.141,116.413 135.807,116.246 148.5,117C 150.041,118.579 151.208,120.413 152,122.5C 151.623,127.754 153.789,131.421 158.5,133.5C 159.088,135.911 160.255,137.911 162,139.5C 162.49,140.793 162.657,142.127 162.5,143.5C 163.5,143.5 164.5,143.5 165.5,143.5 Z"/></g>
<g><path style="opacity:1" fill="#c4d1c4" d="M 140.5,121.5 C 142.977,121.051 144.977,121.717 146.5,123.5C 142.878,124.659 139.211,124.825 135.5,124C 137.315,123.243 138.981,122.41 140.5,121.5 Z"/></g>
<g><path style="opacity:1" fill="#e5f3ef" d="M 70.5,124.5 C 70.5,125.167 70.8333,125.5 71.5,125.5C 72.8936,127.708 74.8936,129.208 77.5,130C 81.4299,131.477 85.4299,132.644 89.5,133.5C 91.3057,134.024 92.9724,134.691 94.5,135.5C 91.8127,135.664 89.146,135.497 86.5,135C 82.4791,132.66 78.1457,131.326 73.5,131C 71.8783,129.705 70.545,128.205 69.5,126.5C 69.5427,125.584 69.8761,124.917 70.5,124.5 Z"/></g>
<g><path style="opacity:1" fill="#ebf4ec" d="M 47.5,116.5 C 47.5,118.5 47.5,120.5 47.5,122.5C 52.8333,122.5 58.1667,122.5 63.5,122.5C 63.5,121.5 63.5,120.5 63.5,119.5C 68.0586,119.724 72.3919,119.058 76.5,117.5C 75.8333,118.167 75.1667,118.833 74.5,119.5C 72.5695,119.771 71.2362,120.771 70.5,122.5C 69.3281,121.295 67.9948,121.295 66.5,122.5C 65.2888,123.274 65.2888,124.107 66.5,125C 63.3333,125.167 60.1667,125.333 57,125.5C 53.3969,125.45 50.0636,124.783 47,123.5C 45.2942,124.308 44.4609,125.641 44.5,127.5C 43.5,127.5 42.5,127.5 41.5,127.5C 41.6803,131.847 39.847,135.181 36,137.5C 31.4154,145.048 26.9154,152.715 22.5,160.5C 30.7501,162.12 39.0834,162.787 47.5,162.5C 41.5591,163.911 35.3925,164.577 29,164.5C 25.3167,164.499 21.8167,164.165 18.5,163.5C 27.4177,147.323 37.0844,131.656 47.5,116.5 Z"/></g>
<g><path style="opacity:1" fill="#17444e" d="M 177.5,131.5 C 180.01,131.991 182.344,132.991 184.5,134.5C 178.833,135.833 173.167,135.833 167.5,134.5C 170.447,133.679 173.447,133.179 176.5,133C 177.056,132.617 177.389,132.117 177.5,131.5 Z"/></g>
<g><path style="opacity:1" fill="#fbfae9" d="M 165.5,143.5 C 169.75,149.665 173.75,155.998 177.5,162.5C 177.5,162.833 177.5,163.167 177.5,163.5C 177.631,164.376 177.298,165.043 176.5,165.5C 159.559,163.774 142.559,162.941 125.5,163C 117.416,164.58 110.416,168.08 104.5,173.5C 103.353,169.354 103.186,165.02 104,160.5C 104.414,160.043 104.914,159.709 105.5,159.5C 106.484,162.428 106.817,165.428 106.5,168.5C 107.5,168.5 108.5,168.5 109.5,168.5C 109.827,166.512 110.16,164.512 110.5,162.5C 110.291,161.006 109.624,159.839 108.5,159C 110.219,157.13 111.219,154.963 111.5,152.5C 108.089,153.36 104.756,154.526 101.5,156C 100.299,156.903 99.4652,158.069 99,159.5C 98.18,166.014 98.3467,172.347 99.5,178.5C 99.5,179.833 98.8333,180.5 97.5,180.5C 97.5,173.5 97.5,166.5 97.5,159.5C 98.2672,156.265 100.267,154.099 103.5,153C 112.163,150.831 120.163,147.331 127.5,142.5C 128.423,143.303 129.423,143.47 130.5,143C 131.09,141.491 131.756,139.991 132.5,138.5C 133.251,139.376 133.751,140.376 134,141.5C 134.333,139.833 134.667,138.167 135,136.5C 135.758,138.769 135.591,140.936 134.5,143C 139.489,143.499 144.489,143.666 149.5,143.5C 149.5,142.5 149.5,141.5 149.5,140.5C 152.833,140.5 156.167,140.5 159.5,140.5C 158.822,146 160.989,150 166,152.5C 166.5,152.167 167,151.833 167.5,151.5C 166.833,151.167 166.167,150.833 165.5,150.5C 166.672,148.177 166.672,145.844 165.5,143.5 Z"/></g>
<g><path style="opacity:1" fill="#fcfae7" d="M 70.5,122.5 C 70.5,123.167 70.5,123.833 70.5,124.5C 69.8761,124.917 69.5427,125.584 69.5,126.5C 70.545,128.205 71.8783,129.705 73.5,131C 78.1457,131.326 82.4791,132.66 86.5,135C 89.146,135.497 91.8127,135.664 94.5,135.5C 96.679,135.84 98.5123,136.84 100,138.5C 100.507,139.996 100.007,141.163 98.5,142C 92.2099,143.823 85.8765,145.489 79.5,147C 75.963,148.281 72.7963,150.114 70,152.5C 69.3582,156.55 70.8582,159.55 74.5,161.5C 72.8333,162.167 71.1667,162.833 69.5,163.5C 68.8333,163.5 68.1667,163.5 67.5,163.5C 61.021,162.509 54.3543,162.176 47.5,162.5C 39.0834,162.787 30.7501,162.12 22.5,160.5C 26.9154,152.715 31.4154,145.048 36,137.5C 39.847,135.181 41.6803,131.847 41.5,127.5C 42.5,127.5 43.5,127.5 44.5,127.5C 44.4609,125.641 45.2942,124.308 47,123.5C 50.0636,124.783 53.3969,125.45 57,125.5C 60.1667,125.333 63.3333,125.167 66.5,125C 65.2888,124.107 65.2888,123.274 66.5,122.5C 67.9948,121.295 69.3281,121.295 70.5,122.5 Z"/></g>
<g><path style="opacity:1" fill="#0f394e" d="M 117.5,114.5 C 115.013,115.323 112.679,116.323 110.5,117.5C 107.729,117.421 105.063,117.921 102.5,119C 93.1978,122.053 93.1978,125.053 102.5,128C 111.377,129.033 119.544,131.866 127,136.5C 127.495,138.473 127.662,140.473 127.5,142.5C 120.163,147.331 112.163,150.831 103.5,153C 100.267,154.099 98.2672,156.265 97.5,159.5C 96.6525,167.006 95.9859,174.672 95.5,182.5C 93.1667,182.5 90.8333,182.5 88.5,182.5C 89.625,181.348 89.625,180.348 88.5,179.5C 83.2601,173.374 76.5935,169.541 68.5,168C 50.868,168.857 33.2013,169.357 15.5,169.5C 15.5,168.833 15.5,168.167 15.5,167.5C 26.3464,167.828 37.0131,167.494 47.5,166.5C 54.8333,166.5 62.1667,166.5 69.5,166.5C 76.2356,167.784 82.0689,170.784 87,175.5C 88.045,174.627 88.8783,173.627 89.5,172.5C 89.67,171.178 89.3366,170.011 88.5,169C 83.9421,166.27 79.2754,163.77 74.5,161.5C 70.8582,159.55 69.3582,156.55 70,152.5C 72.7963,150.114 75.963,148.281 79.5,147C 85.8765,145.489 92.2099,143.823 98.5,142C 100.007,141.163 100.507,139.996 100,138.5C 98.5123,136.84 96.679,135.84 94.5,135.5C 92.9724,134.691 91.3057,134.024 89.5,133.5C 90.5511,132.778 91.2178,131.778 91.5,130.5C 92.552,130.649 93.552,130.483 94.5,130C 92.1667,128.833 89.8333,127.667 87.5,126.5C 86.8933,126.624 86.56,126.957 86.5,127.5C 84.0637,127.317 81.897,127.984 80,129.5C 79.1923,127.421 79.359,125.421 80.5,123.5C 83.2893,125.298 86.2893,125.798 89.5,125C 93.4043,123.385 93.4043,121.885 89.5,120.5C 90.6935,119.728 91.6935,118.728 92.5,117.5C 93.6714,117.164 94.6714,117.164 95.5,117.5C 96.8333,117.5 97.5,116.833 97.5,115.5C 100.484,116.003 103.484,116.336 106.5,116.5C 107.425,115.643 108.092,114.643 108.5,113.5C 109.833,112.833 110.833,111.833 111.5,110.5C 112.467,109.194 113.801,108.527 115.5,108.5C 116.167,110.5 116.833,112.5 117.5,114.5 Z"/></g>
<g><path style="opacity:1" fill="#9ec8d8" d="M 90.5,149.5 C 91.552,149.351 92.552,149.517 93.5,150C 91.6297,151.366 89.6297,152.533 87.5,153.5C 87.1667,153.167 86.8333,152.833 86.5,152.5C 87.9014,151.479 89.2347,150.479 90.5,149.5 Z"/></g>
<g><path style="opacity:1" fill="#a3c3d6" d="M 105.5,144.5 C 106.376,144.369 107.043,144.702 107.5,145.5C 106.295,147.138 104.962,147.471 103.5,146.5C 104.243,145.818 104.909,145.151 105.5,144.5 Z"/></g>
<g><path style="opacity:1" fill="#bbdee5" d="M 111.5,140.5 C 112.713,141.497 112.546,142.497 111,143.5C 110.53,142.423 110.697,141.423 111.5,140.5 Z"/></g>
<g><path style="opacity:1" fill="#afcfd4" d="M 109.5,136.5 C 111.496,135.312 112.329,135.979 112,138.5C 111.292,137.619 110.458,136.953 109.5,136.5 Z"/></g>
<g><path style="opacity:1" fill="#88adba" d="M 97.5,130.5 C 98.9778,130.238 100.311,130.571 101.5,131.5C 100.833,131.833 100.167,132.167 99.5,132.5C 98.2867,132.253 97.62,131.586 97.5,130.5 Z"/></g>
<g><path style="opacity:1" fill="#fafbe3" d="M 104.5,173.5 C 103.167,175.5 101.5,177.167 99.5,178.5C 98.3467,172.347 98.18,166.014 99,159.5C 99.4652,158.069 100.299,156.903 101.5,156C 104.756,154.526 108.089,153.36 111.5,152.5C 111.219,154.963 110.219,157.13 108.5,159C 109.624,159.839 110.291,161.006 110.5,162.5C 110.16,164.512 109.827,166.512 109.5,168.5C 108.5,168.5 107.5,168.5 106.5,168.5C 106.817,165.428 106.484,162.428 105.5,159.5C 104.914,159.709 104.414,160.043 104,160.5C 103.186,165.02 103.353,169.354 104.5,173.5 Z"/></g>
<g><path style="opacity:1" fill="#a2cddf" d="M 84.5,154.5 C 85.782,155.708 85.782,157.042 84.5,158.5C 83.7084,157.3 83.7084,155.967 84.5,154.5 Z"/></g>
<g><path style="opacity:1" fill="#b5e1f1" d="M 84.5,160.5 C 86.0847,161.002 86.5847,162.002 86,163.5C 84.9614,162.756 84.4614,161.756 84.5,160.5 Z"/></g>
<g><path style="opacity:1" fill="#9cc5c0" d="M 177.5,163.5 C 178.401,164.29 179.068,165.29 179.5,166.5C 173.021,167.491 166.354,167.824 159.5,167.5C 147.174,166.695 134.84,166.528 122.5,167C 114.783,169.708 108.449,174.374 103.5,181C 101.288,181.789 99.2884,181.622 97.5,180.5C 98.8333,180.5 99.5,179.833 99.5,178.5C 101.5,177.167 103.167,175.5 104.5,173.5C 110.416,168.08 117.416,164.58 125.5,163C 142.559,162.941 159.559,163.774 176.5,165.5C 177.298,165.043 177.631,164.376 177.5,163.5 Z"/></g>
<g><path style="opacity:1" fill="#a3c7c0" d="M 47.5,162.5 C 54.3543,162.176 61.021,162.509 67.5,163.5C 60.6046,163.85 53.9379,164.85 47.5,166.5C 37.0131,167.494 26.3464,167.828 15.5,167.5C 16.0256,165.77 17.0256,164.436 18.5,163.5C 21.8167,164.165 25.3167,164.499 29,164.5C 35.3925,164.577 41.5591,163.911 47.5,162.5 Z"/></g>
<g><path style="opacity:1" fill="#e1f0ef" d="M 74.5,161.5 C 79.2754,163.77 83.9421,166.27 88.5,169C 89.3366,170.011 89.67,171.178 89.5,172.5C 86.5687,171.453 84.0687,169.786 82,167.5C 79.8458,166.726 77.6792,166.059 75.5,165.5C 73.8984,163.926 71.8984,163.259 69.5,163.5C 71.1667,162.833 72.8333,162.167 74.5,161.5 Z"/></g>
<g><path style="opacity:1" fill="#8fbdcd" d="M 67.5,163.5 C 68.1667,163.5 68.8333,163.5 69.5,163.5C 71.8984,163.259 73.8984,163.926 75.5,165.5C 73.2646,165.205 71.2646,165.539 69.5,166.5C 62.1667,166.5 54.8333,166.5 47.5,166.5C 53.9379,164.85 60.6046,163.85 67.5,163.5 Z"/></g>
<g><path style="opacity:1" fill="#9cc5be" d="M 69.5,166.5 C 71.2646,165.539 73.2646,165.205 75.5,165.5C 77.6792,166.059 79.8458,166.726 82,167.5C 84.0687,169.786 86.5687,171.453 89.5,172.5C 88.8783,173.627 88.045,174.627 87,175.5C 82.0689,170.784 76.2356,167.784 69.5,166.5 Z"/></g>
<g><path style="opacity:1" fill="#6c9ba8" d="M 87.5,164.5 C 88.9953,164.415 89.9953,165.081 90.5,166.5C 88.6043,167.639 87.6043,166.973 87.5,164.5 Z"/></g>
<g><path style="opacity:1" fill="#396376" d="M 179.5,166.5 C 180.043,166.56 180.376,166.893 180.5,167.5C 174.012,168.167 167.679,168.833 161.5,169.5C 157.958,169.813 154.625,169.479 151.5,168.5C 154.385,168.806 157.052,168.473 159.5,167.5C 166.354,167.824 173.021,167.491 179.5,166.5 Z"/></g>
<g><path style="opacity:1" fill="#dce7e3" d="M 88.5,179.5 C 82.7157,174.842 76.049,172.008 68.5,171C 57.1767,170.96 45.8434,171.127 34.5,171.5C 27.5,171.167 20.5,170.833 13.5,170.5C 13.9569,169.702 14.6236,169.369 15.5,169.5C 33.2013,169.357 50.868,168.857 68.5,168C 76.5935,169.541 83.2601,173.374 88.5,179.5 Z"/></g>
<g><path style="opacity:1" fill="#dfebe8" d="M 151.5,168.5 C 154.625,169.479 157.958,169.813 161.5,169.5C 168.677,169.04 175.677,169.54 182.5,171C 169.504,171.5 156.504,171.667 143.5,171.5C 137.5,170.167 131.5,170.167 125.5,171.5C 120.445,172.025 115.779,173.692 111.5,176.5C 111.167,176.333 110.833,176.167 110.5,176C 117.484,169.383 125.817,166.549 135.5,167.5C 140.838,167.834 146.172,168.168 151.5,168.5 Z"/></g>
<g><path style="opacity:1" fill="#23454e" d="M 97.5,159.5 C 97.5,166.5 97.5,173.5 97.5,180.5C 99.2884,181.622 101.288,181.789 103.5,181C 108.449,174.374 114.783,169.708 122.5,167C 134.84,166.528 147.174,166.695 159.5,167.5C 157.052,168.473 154.385,168.806 151.5,168.5C 146.172,168.168 140.838,167.834 135.5,167.5C 125.817,166.549 117.484,169.383 110.5,176C 110.833,176.167 111.167,176.333 111.5,176.5C 115.779,173.692 120.445,172.025 125.5,171.5C 127.735,171.205 129.735,171.539 131.5,172.5C 124.956,172.575 118.956,174.242 113.5,177.5C 110.568,178.8 108.234,180.8 106.5,183.5C 100.31,183.823 94.31,183.49 88.5,182.5C 90.8333,182.5 93.1667,182.5 95.5,182.5C 95.9859,174.672 96.6525,167.006 97.5,159.5 Z"/></g>
<g><path style="opacity:1" fill="#476762" d="M 125.5,171.5 C 131.5,170.167 137.5,170.167 143.5,171.5C 140.615,171.194 137.948,171.527 135.5,172.5C 134.167,172.5 132.833,172.5 131.5,172.5C 129.735,171.539 127.735,171.205 125.5,171.5 Z"/></g>
<g><path style="opacity:1" fill="#203f47" d="M 46.5,114.5 C 56.015,114.173 65.3483,114.506 74.5,115.5C 65.3178,115.173 56.3178,115.507 47.5,116.5C 37.0844,131.656 27.4177,147.323 18.5,163.5C 17.0256,164.436 16.0256,165.77 15.5,167.5C 15.5,168.167 15.5,168.833 15.5,169.5C 14.6236,169.369 13.9569,169.702 13.5,170.5C 20.5,170.833 27.5,171.167 34.5,171.5C 45.8434,171.127 57.1767,170.96 68.5,171C 76.049,172.008 82.7157,174.842 88.5,179.5C 89.625,180.348 89.625,181.348 88.5,182.5C 84.4939,177.997 79.4939,175.33 73.5,174.5C 68.41,173.035 63.0767,172.368 57.5,172.5C 42.8384,173.137 28.1717,173.637 13.5,174C 12.944,174.383 12.6107,174.883 12.5,175.5C 11.8333,175.5 11.5,175.833 11.5,176.5C 11.5,177.167 11.1667,177.5 10.5,177.5C 9.52216,177.811 8.85549,178.478 8.5,179.5C 31.8238,180.5 55.1571,180.833 78.5,180.5C 79.1667,180.5 79.5,180.833 79.5,181.5C 57.5409,180.869 35.7076,181.535 14,183.5C 11.5472,182.507 9.0472,182.34 6.5,183C 5.74756,183.671 5.41423,184.504 5.5,185.5C 4.5,185.5 3.5,185.5 2.5,185.5C 16.4181,161.322 31.0848,137.656 46.5,114.5 Z"/></g>
<g><path style="opacity:1" fill="#ecfaf8" d="M 73.5,174.5 C 70.6029,174.681 67.7695,174.348 65,173.5C 48.3598,174.146 31.8598,174.813 15.5,175.5C 14.5,175.5 13.5,175.5 12.5,175.5C 12.6107,174.883 12.944,174.383 13.5,174C 28.1717,173.637 42.8384,173.137 57.5,172.5C 63.0767,172.368 68.41,173.035 73.5,174.5 Z"/></g>
<g><path style="opacity:1" fill="#f3f7f1" d="M 131.5,172.5 C 132.833,172.5 134.167,172.5 135.5,172.5C 151.154,173.196 166.821,173.696 182.5,174C 183.056,174.383 183.389,174.883 183.5,175.5C 164.833,175.5 146.167,175.5 127.5,175.5C 122.626,175.358 117.959,176.024 113.5,177.5C 118.956,174.242 124.956,172.575 131.5,172.5 Z"/></g>
<g><path style="opacity:1" fill="#faf5e1" d="M 73.5,174.5 C 79.4939,175.33 84.4939,177.997 88.5,182.5C 94.31,183.49 100.31,183.823 106.5,183.5C 101.056,184.884 95.3895,185.55 89.5,185.5C 86.7251,182.395 83.3918,180.062 79.5,178.5C 77.0521,177.527 74.3854,177.194 71.5,177.5C 70.4863,176.326 69.153,175.66 67.5,175.5C 50.1667,175.5 32.8333,175.5 15.5,175.5C 31.8598,174.813 48.3598,174.146 65,173.5C 67.7695,174.348 70.6029,174.681 73.5,174.5 Z"/></g>
<g><path style="opacity:1" fill="#daa385" d="M 11.5,176.5 C 11.5,175.833 11.8333,175.5 12.5,175.5C 13.5,175.5 14.5,175.5 15.5,175.5C 32.8333,175.5 50.1667,175.5 67.5,175.5C 49.8333,176.167 32.1667,176.833 14.5,177.5C 13.391,177.443 12.391,177.11 11.5,176.5 Z"/></g>
<g><path style="opacity:1" fill="#fcc29f" d="M 67.5,175.5 C 69.153,175.66 70.4863,176.326 71.5,177.5C 52.5,177.5 33.5,177.5 14.5,177.5C 32.1667,176.833 49.8333,176.167 67.5,175.5 Z"/></g>
<g><path style="opacity:1" fill="#efb694" d="M 127.5,175.5 C 146.167,175.5 164.833,175.5 183.5,175.5C 183.5,175.833 183.5,176.167 183.5,176.5C 174.339,177.166 165.006,177.5 155.5,177.5C 145.809,177.498 136.475,176.832 127.5,175.5 Z"/></g>
<g><path style="opacity:1" fill="#fee3c0" d="M 11.5,176.5 C 12.391,177.11 13.391,177.443 14.5,177.5C 33.5,177.5 52.5,177.5 71.5,177.5C 74.3854,177.194 77.0521,177.527 79.5,178.5C 56.8333,178.5 34.1667,178.5 11.5,178.5C 10.8333,178.5 10.5,178.167 10.5,177.5C 11.1667,177.5 11.5,177.167 11.5,176.5 Z"/></g>
<g><path style="opacity:1" fill="#fce4c2" d="M 127.5,175.5 C 136.475,176.832 145.809,177.498 155.5,177.5C 165.006,177.5 174.339,177.166 183.5,176.5C 184.167,176.5 184.5,176.833 184.5,177.5C 161.337,178.332 138.004,178.832 114.5,179C 111.5,181.333 108.5,183.667 105.5,186C 99.9836,186.817 94.6503,186.651 89.5,185.5C 95.3895,185.55 101.056,184.884 106.5,183.5C 108.234,180.8 110.568,178.8 113.5,177.5C 117.959,176.024 122.626,175.358 127.5,175.5 Z"/></g>
<g><path style="opacity:1" fill="#d2a68d" d="M 184.5,177.5 C 185.167,177.833 185.833,178.167 186.5,178.5C 163.167,179.167 139.833,179.833 116.5,180.5C 113.418,182.075 110.751,184.242 108.5,187C 102.251,188.536 95.9172,188.87 89.5,188C 86.8723,186.374 84.539,184.374 82.5,182C 81.552,181.517 80.552,181.351 79.5,181.5C 79.5,180.833 79.1667,180.5 78.5,180.5C 56.1667,179.833 33.8333,179.167 11.5,178.5C 34.1667,178.5 56.8333,178.5 79.5,178.5C 83.3918,180.062 86.7251,182.395 89.5,185.5C 94.6503,186.651 99.9836,186.817 105.5,186C 108.5,183.667 111.5,181.333 114.5,179C 138.004,178.832 161.337,178.332 184.5,177.5 Z"/></g>
<g><path style="opacity:1" fill="#998b80" d="M 10.5,177.5 C 10.5,178.167 10.8333,178.5 11.5,178.5C 33.8333,179.167 56.1667,179.833 78.5,180.5C 55.1571,180.833 31.8238,180.5 8.5,179.5C 8.85549,178.478 9.52216,177.811 10.5,177.5 Z"/></g>
<g><path style="opacity:1" fill="#968980" d="M 186.5,178.5 C 187.338,178.842 187.672,179.508 187.5,180.5C 186.167,180.5 184.833,180.5 183.5,180.5C 161.167,180.5 138.833,180.5 116.5,180.5C 139.833,179.833 163.167,179.167 186.5,178.5 Z"/></g>
<g><path style="opacity:1" fill="#073750" d="M 183.5,180.5 C 184.833,180.5 186.167,180.5 187.5,180.5C 187.918,181.222 188.584,181.722 189.5,182C 188.224,183.212 186.724,184.045 185,184.5C 181.937,183.368 178.937,183.368 176,184.5C 173.539,183.782 171.039,183.115 168.5,182.5C 157.374,183.213 146.208,183.213 135,182.5C 131.25,182.975 127.75,183.975 124.5,185.5C 121.833,185.5 119.167,185.5 116.5,185.5C 116.047,184.542 115.381,183.708 114.5,183C 115.167,182.667 115.833,182.333 116.5,182C 139.004,181.832 161.337,181.332 183.5,180.5 Z"/></g>
<g><path style="opacity:1" fill="#0d384c" d="M 116.5,180.5 C 138.833,180.5 161.167,180.5 183.5,180.5C 161.337,181.332 139.004,181.832 116.5,182C 115.833,182.333 115.167,182.667 114.5,183C 115.381,183.708 116.047,184.542 116.5,185.5C 115.5,186.833 114.5,188.167 113.5,189.5C 112.5,189.833 111.833,190.5 111.5,191.5C 101.614,195.776 91.9469,195.443 82.5,190.5C 82.5,189.833 82.1667,189.5 81.5,189.5C 80.657,187.827 79.3237,186.66 77.5,186C 53.5023,185.5 29.5023,185.333 5.5,185.5C 5.41423,184.504 5.74756,183.671 6.5,183C 9.0472,182.34 11.5472,182.507 14,183.5C 35.7076,181.535 57.5409,180.869 79.5,181.5C 80.552,181.351 81.552,181.517 82.5,182C 84.539,184.374 86.8723,186.374 89.5,188C 95.9172,188.87 102.251,188.536 108.5,187C 110.751,184.242 113.418,182.075 116.5,180.5 Z"/></g>
<g><path style="opacity:1" fill="#153f4d" d="M 178.5,161.5 C 183.407,168.972 188.073,176.639 192.5,184.5C 192.043,185.298 191.376,185.631 190.5,185.5C 168.5,185.5 146.5,185.5 124.5,185.5C 127.75,183.975 131.25,182.975 135,182.5C 146.208,183.213 157.374,183.213 168.5,182.5C 171.039,183.115 173.539,183.782 176,184.5C 178.937,183.368 181.937,183.368 185,184.5C 186.724,184.045 188.224,183.212 189.5,182C 188.584,181.722 187.918,181.222 187.5,180.5C 187.672,179.508 187.338,178.842 186.5,178.5C 185.833,178.167 185.167,177.833 184.5,177.5C 184.5,176.833 184.167,176.5 183.5,176.5C 183.5,176.167 183.5,175.833 183.5,175.5C 183.389,174.883 183.056,174.383 182.5,174C 166.821,173.696 151.154,173.196 135.5,172.5C 137.948,171.527 140.615,171.194 143.5,171.5C 156.504,171.667 169.504,171.5 182.5,171C 175.677,169.54 168.677,169.04 161.5,169.5C 167.679,168.833 174.012,168.167 180.5,167.5C 180.376,166.893 180.043,166.56 179.5,166.5C 179.068,165.29 178.401,164.29 177.5,163.5C 177.5,163.167 177.5,162.833 177.5,162.5C 177.5,161.833 177.833,161.5 178.5,161.5 Z"/></g>
<g><path style="opacity:1" fill="#337484" d="M 116.5,185.5 C 119.167,185.5 121.833,185.5 124.5,185.5C 146.5,185.5 168.5,185.5 190.5,185.5C 190.5,185.833 190.5,186.167 190.5,186.5C 166.164,186.333 141.831,186.5 117.5,187C 116.748,187.671 116.414,188.504 116.5,189.5C 115.5,189.5 114.5,189.5 113.5,189.5C 114.5,188.167 115.5,186.833 116.5,185.5 Z"/></g>
<g><path style="opacity:1" fill="#4a91a2" d="M 2.5,185.5 C 3.5,185.5 4.5,185.5 5.5,185.5C 29.5023,185.333 53.5023,185.5 77.5,186C 79.3237,186.66 80.657,187.827 81.5,189.5C 56.1667,189.5 30.8333,189.5 5.5,189.5C 5.5,188.5 5.5,187.5 5.5,186.5C 4.20895,186.737 3.20895,186.404 2.5,185.5 Z"/></g>
<g><path style="opacity:1" fill="#4c9aac" d="M 190.5,186.5 C 190.737,187.791 190.404,188.791 189.5,189.5C 165.167,189.5 140.833,189.5 116.5,189.5C 116.414,188.504 116.748,187.671 117.5,187C 141.831,186.5 166.164,186.333 190.5,186.5 Z"/></g>
<g><path style="opacity:1" fill="#75b1b6" d="M 5.5,189.5 C 30.8333,189.5 56.1667,189.5 81.5,189.5C 82.1667,189.5 82.5,189.833 82.5,190.5C 81.8501,190.804 81.1835,191.137 80.5,191.5C 55.3725,190.842 30.3725,190.176 5.5,189.5 Z"/></g>
<g><path style="opacity:1" fill="#75afb3" d="M 113.5,189.5 C 114.5,189.5 115.5,189.5 116.5,189.5C 140.833,189.5 165.167,189.5 189.5,189.5C 163.628,190.184 137.628,190.851 111.5,191.5C 111.833,190.5 112.5,189.833 113.5,189.5 Z"/></g>
</svg>
