<?xml version="1.0" encoding="UTF-8"?>
<!DOCTYPE svg PUBLIC "-//W3C//DTD SVG 1.1//EN" "http://www.w3.org/Graphics/SVG/1.1/DTD/svg11.dtd">
<svg xmlns="http://www.w3.org/2000/svg" version="1.1" width="200px" height="200px" style="shape-rendering:geometricPrecision; text-rendering:geometricPrecision; image-rendering:optimizeQuality; fill-rule:evenodd; clip-rule:evenodd" xmlns:xlink="http://www.w3.org/1999/xlink">
<g><path style="opacity:0.995" fill="#e1efe1" d="M 144.5,25.5 C 137.197,24.6636 130.864,21.8303 125.5,17C 120.654,16.8114 115.988,15.8114 111.5,14C 107.514,13.5012 103.514,13.3345 99.5,13.5C 94.4889,13.3341 89.4889,13.5007 84.5,14C 80.3889,15.8905 76.0556,16.8905 71.5,17C 67.9428,20.5278 63.6094,22.1945 58.5,22C 51.9101,25.2851 46.5768,29.9518 42.5,36C 43.9441,37.0637 45.6107,37.5637 47.5,37.5C 50.8418,35.6982 54.3418,34.0315 58,32.5C 65.1601,35.5885 64.9934,37.4219 57.5,38C 58.7736,38.9772 58.7736,39.8106 57.5,40.5C 51.1579,40.3338 44.8246,40.5005 38.5,41C 36.8068,43.6248 34.4734,45.4581 31.5,46.5C 44.4059,26.6875 62.7392,14.8542 86.5,11C 106.526,8.87119 125.192,12.8712 142.5,23C 143.381,23.7083 144.047,24.5416 144.5,25.5 Z"/></g>
<g><path style="opacity:0.999" fill="#f6f5e0" d="M 99.5,13.5 C 103.514,13.3345 107.514,13.5012 111.5,14C 115.988,15.8114 120.654,16.8114 125.5,17C 130.864,21.8303 137.197,24.6636 144.5,25.5C 158.985,34.8387 168.818,47.8387 174,64.5C 175.364,73.6428 177.197,82.6428 179.5,91.5C 179.167,91.5 178.833,91.5 178.5,91.5C 168.555,76.3811 158.388,61.3811 148,46.5C 144.985,49.6828 141.818,52.6828 138.5,55.5C 134.155,49.4622 129.821,43.4622 125.5,37.5C 122.488,41.5383 119.488,45.5383 116.5,49.5C 112.342,44.5227 108.676,39.1894 105.5,33.5C 105.611,32.8826 105.944,32.3826 106.5,32C 104.877,28.3969 103.71,24.5635 103,20.5C 99.0009,19.4364 97.8343,17.1031 99.5,13.5 Z"/></g>
<g><path style="opacity:1" fill="#faf9e5" d="M 99.5,13.5 C 97.8343,17.1031 99.0009,19.4364 103,20.5C 103.71,24.5635 104.877,28.3969 106.5,32C 105.944,32.3826 105.611,32.8826 105.5,33.5C 103.189,30.2331 100.856,26.8998 98.5,23.5C 93.2258,31.7231 88.2258,40.0564 83.5,48.5C 82.8333,48.5 82.5,48.8333 82.5,49.5C 80.457,48.4206 79.1237,46.754 78.5,44.5C 78.6107,43.8826 78.944,43.3826 79.5,43C 78.283,41.3523 77.4497,39.519 77,37.5C 74.5641,35.5327 72.0641,33.866 69.5,32.5C 69.7683,35.1194 69.435,37.6194 68.5,40C 66.7292,40.037 64.8958,39.8703 63,39.5C 61.3189,39.6083 60.1522,40.2749 59.5,41.5C 58.8333,41.5 58.1667,41.5 57.5,41.5C 57.5,41.1667 57.5,40.8333 57.5,40.5C 58.7736,39.8106 58.7736,38.9772 57.5,38C 64.9934,37.4219 65.1601,35.5885 58,32.5C 54.3418,34.0315 50.8418,35.6982 47.5,37.5C 45.6107,37.5637 43.9441,37.0637 42.5,36C 46.5768,29.9518 51.9101,25.2851 58.5,22C 63.6094,22.1945 67.9428,20.5278 71.5,17C 76.0556,16.8905 80.3889,15.8905 84.5,14C 89.4889,13.5007 94.4889,13.3341 99.5,13.5 Z"/></g>
<g><path style="opacity:1" fill="#f2f0d9" d="M 78.5,44.5 C 77.1692,41.8733 75.3358,39.54 73,37.5C 68,44.5 63,51.5 58,58.5C 55.425,55.681 53.0917,52.681 51,49.5C 50.2825,48.5494 49.4491,48.3828 48.5,49C 39.9343,61.3215 31.2676,73.4882 22.5,85.5C 21.8826,85.3893 21.3826,85.056 21,84.5C 20.7679,85.7375 20.2679,86.7375 19.5,87.5C 19.3347,72.4731 23.3347,58.8064 31.5,46.5C 34.4734,45.4581 36.8068,43.6248 38.5,41C 44.8246,40.5005 51.1579,40.3338 57.5,40.5C 57.5,40.8333 57.5,41.1667 57.5,41.5C 54.5,41.5 51.5,41.5 48.5,41.5C 48.5,42.5 48.5,43.5 48.5,44.5C 52.1667,44.5 55.8333,44.5 59.5,44.5C 59.5,43.5 59.5,42.5 59.5,41.5C 60.1522,40.2749 61.3189,39.6083 63,39.5C 64.8958,39.8703 66.7292,40.037 68.5,40C 69.435,37.6194 69.7683,35.1194 69.5,32.5C 72.0641,33.866 74.5641,35.5327 77,37.5C 77.4497,39.519 78.283,41.3523 79.5,43C 78.944,43.3826 78.6107,43.8826 78.5,44.5 Z"/></g>
<g><path style="opacity:1" fill="#b5cdc1" d="M 57.5,41.5 C 58.1667,41.5 58.8333,41.5 59.5,41.5C 59.5,42.5 59.5,43.5 59.5,44.5C 55.8333,44.5 52.1667,44.5 48.5,44.5C 48.5,43.5 48.5,42.5 48.5,41.5C 51.5,41.5 54.5,41.5 57.5,41.5 Z"/></g>
<g><path style="opacity:1" fill="#183942" d="M 78.5,44.5 C 79.1237,46.754 80.457,48.4206 82.5,49.5C 81.0327,51.8431 79.6994,51.5097 78.5,48.5C 76.2874,51.075 75.9541,53.9083 77.5,57C 77.1377,58.2247 76.6377,59.3914 76,60.5C 74.9887,59.6634 73.8221,59.33 72.5,59.5C 70.8063,55.0765 68.1396,54.4099 64.5,57.5C 64.5,56.8333 64.5,56.1667 64.5,55.5C 67.7224,51.2077 70.3891,51.541 72.5,56.5C 72.7828,57.2891 73.2828,57.9558 74,58.5C 74.8192,52.3188 74.6525,46.3188 73.5,40.5C 69.5116,45.795 65.5116,51.1284 61.5,56.5C 60.7326,57.172 60.0659,58.0053 59.5,59C 57.1902,59.4966 54.8568,59.6633 52.5,59.5C 53.0356,62.6981 52.369,65.3647 50.5,67.5C 50.8214,61.9738 50.4881,56.6405 49.5,51.5C 46.6007,54.9516 43.9341,58.6183 41.5,62.5C 40.5987,63.2905 39.9321,64.2905 39.5,65.5C 33.1667,74.1667 26.8333,82.8333 20.5,91.5C 20.1667,91.5 19.8333,91.5 19.5,91.5C 20.5,89.5 21.5,87.5 22.5,85.5C 31.2676,73.4882 39.9343,61.3215 48.5,49C 49.4491,48.3828 50.2825,48.5494 51,49.5C 53.0917,52.681 55.425,55.681 58,58.5C 63,51.5 68,44.5 73,37.5C 75.3358,39.54 77.1692,41.8733 78.5,44.5 Z"/></g>
<g><path style="opacity:1" fill="#849da6" d="M 73.5,40.5 C 74.6525,46.3188 74.8192,52.3188 74,58.5C 73.2828,57.9558 72.7828,57.2891 72.5,56.5C 73.4881,51.3595 73.8214,46.0262 73.5,40.5 Z"/></g>
<g><path style="opacity:1" fill="#e4f4f0" d="M 73.5,40.5 C 73.8214,46.0262 73.4881,51.3595 72.5,56.5C 70.3891,51.541 67.7224,51.2077 64.5,55.5C 63.609,56.1098 62.609,56.4431 61.5,56.5C 65.5116,51.1284 69.5116,45.795 73.5,40.5 Z"/></g>
<g><path style="opacity:1" fill="#e0f2f1" d="M 49.5,51.5 C 49.8214,57.0262 49.4881,62.3595 48.5,67.5C 48.0818,64.9104 47.0818,62.5771 45.5,60.5C 44.1861,61.3128 43.0195,62.3128 42,63.5C 41.6012,63.2716 41.4346,62.9382 41.5,62.5C 43.9341,58.6183 46.6007,54.9516 49.5,51.5 Z"/></g>
<g><path style="opacity:1" fill="#4491a2" d="M 72.5,59.5 C 72.8333,60.1667 73.1667,60.8333 73.5,61.5C 73.5,66.1667 73.5,70.8333 73.5,75.5C 71.0122,75.3167 69.0122,74.3167 67.5,72.5C 65.4565,68.251 62.7899,64.4177 59.5,61C 61.1957,59.8236 62.8624,58.657 64.5,57.5C 68.1396,54.4099 70.8063,55.0765 72.5,59.5 Z"/></g>
<g><path style="opacity:1" fill="#143a48" d="M 105.5,33.5 C 108.676,39.1894 112.342,44.5227 116.5,49.5C 119.488,45.5383 122.488,41.5383 125.5,37.5C 129.821,43.4622 134.155,49.4622 138.5,55.5C 141.818,52.6828 144.985,49.6828 148,46.5C 158.388,61.3811 168.555,76.3811 178.5,91.5C 176.22,90.3599 173.886,89.1932 171.5,88C 171.833,87.6667 172.167,87.3333 172.5,87C 171.013,84.5148 169.179,82.3482 167,80.5C 166.685,82.5856 166.185,84.5856 165.5,86.5C 164.167,85.8333 163.167,84.8333 162.5,83.5C 163.242,81.5742 164.242,79.7409 165.5,78C 163.046,72.2566 160.212,66.7566 157,61.5C 155.512,59.1695 153.679,58.8362 151.5,60.5C 151.663,58.1432 151.497,55.8098 151,53.5C 150.292,52.6195 149.458,51.9528 148.5,51.5C 148.631,50.6236 148.298,49.9569 147.5,49.5C 143.349,54.1518 139.015,58.6518 134.5,63C 121.962,74.375 109.295,85.5417 96.5,96.5C 96.0618,96.5654 95.7284,96.3988 95.5,96C 97.7059,93.9633 99.7059,91.7966 101.5,89.5C 105.151,87.3636 105.484,84.6969 102.5,81.5C 103.93,81.4208 105.264,81.7542 106.5,82.5C 105.97,81.2438 105.97,79.7438 106.5,78C 108.235,77.3486 109.902,77.5153 111.5,78.5C 113.225,77.9851 114.892,77.3184 116.5,76.5C 120.72,72.9576 123.72,68.6243 125.5,63.5C 122.481,58.9608 118.981,55.6274 115,53.5C 113.853,50.3823 112.52,47.3823 111,44.5C 108.698,42.2986 106.531,39.9653 104.5,37.5C 103.595,40.7848 103.595,44.1181 104.5,47.5C 104.559,50.1094 103.892,52.4428 102.5,54.5C 101.221,56.1233 99.8872,57.79 98.5,59.5C 96.0843,56.3372 93.9177,53.0039 92,49.5C 90.6439,48.6198 89.1439,48.2865 87.5,48.5C 86.0357,49.4054 84.7024,49.4054 83.5,48.5C 88.2258,40.0564 93.2258,31.7231 98.5,23.5C 100.856,26.8998 103.189,30.2331 105.5,33.5 Z"/></g>
<g><path style="opacity:1" fill="#d7e9e8" d="M 124.5,40.5 C 125.812,42.7432 126.478,45.4098 126.5,48.5C 126.333,51.1667 126.167,53.8333 126,56.5C 124.676,52.4031 122.51,51.7364 119.5,54.5C 118.5,54.1667 117.833,53.5 117.5,52.5C 120.361,48.7729 122.695,44.7729 124.5,40.5 Z"/></g>
<g><path style="opacity:1" fill="#eaf4ea" d="M 97.5,27.5 C 98.5862,27.62 99.2528,28.2867 99.5,29.5C 101.371,36.4358 102.537,43.4358 103,50.5C 101.959,52.5852 100.459,54.2519 98.5,55.5C 96.1468,53.1401 94.1468,50.4735 92.5,47.5C 90.4244,46.9003 88.4244,46.567 86.5,46.5C 90.4427,40.2753 94.1093,33.942 97.5,27.5 Z"/></g>
<g><path style="opacity:1" fill="#5a7c84" d="M 49.5,51.5 C 50.4881,56.6405 50.8214,61.9738 50.5,67.5C 50.5,68.8333 49.8333,69.5 48.5,69.5C 48.5,68.8333 48.5,68.1667 48.5,67.5C 49.4881,62.3595 49.8214,57.0262 49.5,51.5 Z"/></g>
<g><path style="opacity:1" fill="#d1f0f1" d="M 87.5,64.5 C 88.1667,64.5 88.8333,64.5 89.5,64.5C 80.1683,74.161 70.1683,83.161 59.5,91.5C 58.475,91.1034 58.3083,90.4368 59,89.5C 68.6252,81.2768 78.1252,72.9435 87.5,64.5 Z"/></g>
<g><path style="opacity:1" fill="#043a54" d="M 64.5,55.5 C 64.5,56.1667 64.5,56.8333 64.5,57.5C 62.8624,58.657 61.1957,59.8236 59.5,61C 62.7899,64.4177 65.4565,68.251 67.5,72.5C 67.747,75.505 66.747,78.005 64.5,80C 64.8333,80.3333 65.1667,80.6667 65.5,81C 61.9315,82.6865 58.5981,84.8532 55.5,87.5C 55.8841,85.3352 55.2174,83.6685 53.5,82.5C 52.1667,86.8333 52.1667,91.1667 53.5,95.5C 55.1112,94.6798 55.7778,93.3464 55.5,91.5C 56.3382,91.8417 56.6716,92.5084 56.5,93.5C 56.6117,97.7801 56.6117,101.78 56.5,105.5C 55.8333,102.833 55.1667,100.167 54.5,97.5C 52.3635,98.4724 51.1968,100.139 51,102.5C 50.502,99.5184 50.3354,96.5184 50.5,93.5C 50.8235,86.9779 50.4902,80.6446 49.5,74.5C 48.962,72.8828 48.6287,71.2161 48.5,69.5C 49.8333,69.5 50.5,68.8333 50.5,67.5C 52.369,65.3647 53.0356,62.6981 52.5,59.5C 54.8568,59.6633 57.1902,59.4966 59.5,59C 60.0659,58.0053 60.7326,57.172 61.5,56.5C 62.609,56.4431 63.609,56.1098 64.5,55.5 Z"/></g>
<g><path style="opacity:1" fill="#e3f6ef" d="M 148.5,51.5 C 148.666,55.8461 148.499,60.1794 148,64.5C 145.389,61.7566 143.222,62.09 141.5,65.5C 139.863,64.7822 138.197,64.6155 136.5,65C 123.276,77.3936 109.61,89.227 95.5,100.5C 95.1667,100 94.8333,99.5 94.5,99C 95.0556,97.9889 95.7222,97.1556 96.5,96.5C 109.295,85.5417 121.962,74.375 134.5,63C 139.015,58.6518 143.349,54.1518 147.5,49.5C 148.298,49.9569 148.631,50.6236 148.5,51.5 Z"/></g>
<g><path style="opacity:1" fill="#033a53" d="M 162.5,83.5 C 158.355,80.8537 155.521,77.1871 154,72.5C 152.385,71.6138 150.885,70.6138 149.5,69.5C 149.351,68.448 149.517,67.448 150,66.5C 150.333,66.8333 150.667,67.1667 151,67.5C 151.497,65.1902 151.663,62.8568 151.5,60.5C 153.679,58.8362 155.512,59.1695 157,61.5C 160.212,66.7566 163.046,72.2566 165.5,78C 164.242,79.7409 163.242,81.5742 162.5,83.5 Z"/></g>
<g><path style="opacity:1" fill="#7bb6b6" d="M 89.5,64.5 C 89.8333,64.5 90.1667,64.5 90.5,64.5C 90.3433,65.8734 90.51,67.2068 91,68.5C 95.571,74.9754 99.071,81.9754 101.5,89.5C 99.7059,91.7966 97.7059,93.9633 95.5,96C 95.7284,96.3988 96.0618,96.5654 96.5,96.5C 95.7222,97.1556 95.0556,97.9889 94.5,99C 94.8333,99.5 95.1667,100 95.5,100.5C 109.61,89.227 123.276,77.3936 136.5,65C 138.197,64.6155 139.863,64.7822 141.5,65.5C 139.611,66.322 137.611,67.1553 135.5,68C 133.658,70.5429 131.491,72.7096 129,74.5C 128.517,75.448 128.351,76.448 128.5,77.5C 127.127,77.3433 125.793,77.51 124.5,78C 122.743,80.8456 120.743,83.5122 118.5,86C 112.652,89.824 106.985,93.824 101.5,98C 100.643,98.6891 99.9767,99.5224 99.5,100.5C 101.045,101.452 102.712,101.785 104.5,101.5C 104.5,100.5 104.5,99.5 104.5,98.5C 107.108,98.6056 109.108,99.7723 110.5,102C 112.906,102.779 114.573,101.946 115.5,99.5C 114.472,94.8461 116.472,92.5128 121.5,92.5C 119.677,93.4933 118.344,94.9933 117.5,97C 117.836,98.0299 118.503,98.5299 119.5,98.5C 118.359,100.451 118.359,102.451 119.5,104.5C 115.958,104.187 112.625,104.521 109.5,105.5C 106.728,104.233 104.061,104.233 101.5,105.5C 101.5,106.167 101.167,106.5 100.5,106.5C 95.5932,104.711 90.2599,103.878 84.5,104C 80.21,98.2359 74.5433,96.2359 67.5,98C 65,99.1667 63.1667,101 62,103.5C 62.016,99.205 61.1826,95.205 59.5,91.5C 70.1683,83.161 80.1683,74.161 89.5,64.5 Z"/></g>
<g><path style="opacity:1" fill="#033b53" d="M 102.5,81.5 C 99.5299,77.0046 96.6966,72.3379 94,67.5C 93.2411,65.9371 92.0744,64.9371 90.5,64.5C 90.1667,64.5 89.8333,64.5 89.5,64.5C 88.8333,64.5 88.1667,64.5 87.5,64.5C 86.0536,63.3871 84.3869,63.2204 82.5,64C 77.6325,72.6481 74.6325,71.8147 73.5,61.5C 73.1667,60.8333 72.8333,60.1667 72.5,59.5C 73.8221,59.33 74.9887,59.6634 76,60.5C 76.6377,59.3914 77.1377,58.2247 77.5,57C 75.9541,53.9083 76.2874,51.075 78.5,48.5C 79.6994,51.5097 81.0327,51.8431 82.5,49.5C 82.5,48.8333 82.8333,48.5 83.5,48.5C 84.7024,49.4054 86.0357,49.4054 87.5,48.5C 86.713,50.1042 85.3797,50.7709 83.5,50.5C 85.2867,54.7292 87.6201,58.7292 90.5,62.5C 97.7425,67.0387 104.909,71.7054 112,76.5C 110.775,68.3773 107.608,61.044 102.5,54.5C 103.892,52.4428 104.559,50.1094 104.5,47.5C 103.595,44.1181 103.595,40.7848 104.5,37.5C 106.531,39.9653 108.698,42.2986 111,44.5C 112.52,47.3823 113.853,50.3823 115,53.5C 118.981,55.6274 122.481,58.9608 125.5,63.5C 123.72,68.6243 120.72,72.9576 116.5,76.5C 114.892,77.3184 113.225,77.9851 111.5,78.5C 109.902,77.5153 108.235,77.3486 106.5,78C 105.97,79.7438 105.97,81.2438 106.5,82.5C 105.264,81.7542 103.93,81.4208 102.5,81.5 Z"/></g>
<g><path style="opacity:1" fill="#4590a2" d="M 87.5,48.5 C 89.1439,48.2865 90.6439,48.6198 92,49.5C 93.9177,53.0039 96.0843,56.3372 98.5,59.5C 99.8872,57.79 101.221,56.1233 102.5,54.5C 107.608,61.044 110.775,68.3773 112,76.5C 104.909,71.7054 97.7425,67.0387 90.5,62.5C 87.6201,58.7292 85.2867,54.7292 83.5,50.5C 85.3797,50.7709 86.713,50.1042 87.5,48.5 Z"/></g>
<g><path style="opacity:1" fill="#468d9c" d="M 90.5,64.5 C 92.0744,64.9371 93.2411,65.9371 94,67.5C 96.6966,72.3379 99.5299,77.0046 102.5,81.5C 105.484,84.6969 105.151,87.3636 101.5,89.5C 99.071,81.9754 95.571,74.9754 91,68.5C 90.51,67.2068 90.3433,65.8734 90.5,64.5 Z"/></g>
<g><path style="opacity:1" fill="#79b5b9" d="M 148.5,51.5 C 149.458,51.9528 150.292,52.6195 151,53.5C 151.497,55.8098 151.663,58.1432 151.5,60.5C 151.663,62.8568 151.497,65.1902 151,67.5C 150.667,67.1667 150.333,66.8333 150,66.5C 149.517,67.448 149.351,68.448 149.5,69.5C 149.772,73.9017 149.439,78.2351 148.5,82.5C 148.929,85.1118 149.929,86.6118 151.5,87C 150.976,89.4133 149.976,91.5799 148.5,93.5C 147.702,93.0431 147.369,92.3764 147.5,91.5C 146.57,87.414 145.403,83.414 144,79.5C 143.578,77.5743 142.411,76.5743 140.5,76.5C 134.586,75.2289 131.753,77.8955 132,84.5C 131.333,85.1667 130.667,85.8333 130,86.5C 130.076,89.6019 129.91,92.6019 129.5,95.5C 127.685,94.3702 125.685,93.7036 123.5,93.5C 123.158,92.6618 122.492,92.3284 121.5,92.5C 116.472,92.5128 114.472,94.8461 115.5,99.5C 114.573,101.946 112.906,102.779 110.5,102C 109.108,99.7723 107.108,98.6056 104.5,98.5C 104.5,99.5 104.5,100.5 104.5,101.5C 102.712,101.785 101.045,101.452 99.5,100.5C 99.9767,99.5224 100.643,98.6891 101.5,98C 106.985,93.824 112.652,89.824 118.5,86C 120.743,83.5122 122.743,80.8456 124.5,78C 125.793,77.51 127.127,77.3433 128.5,77.5C 128.351,76.448 128.517,75.448 129,74.5C 131.491,72.7096 133.658,70.5429 135.5,68C 137.611,67.1553 139.611,66.322 141.5,65.5C 143.222,62.09 145.389,61.7566 148,64.5C 148.499,60.1794 148.666,55.8461 148.5,51.5 Z"/></g>
<g><path style="opacity:1" fill="#a2ced6" d="M 49.5,74.5 C 49.2172,75.2891 48.7172,75.9558 48,76.5C 47.8255,81.3514 47.3255,86.0181 46.5,90.5C 44.7581,87.8555 44.0914,84.8555 44.5,81.5C 44.611,77.9359 46.2777,75.6026 49.5,74.5 Z"/></g>
<g><path style="opacity:1" fill="#448fa0" d="M 149.5,69.5 C 150.885,70.6138 152.385,71.6138 154,72.5C 155.521,77.1871 158.355,80.8537 162.5,83.5C 163.167,84.8333 164.167,85.8333 165.5,86.5C 166.419,89.0892 168.086,91.0892 170.5,92.5C 170,92.8333 169.5,93.1667 169,93.5C 163.246,91.6961 157.746,89.5295 152.5,87C 154.694,89.6947 156.694,92.528 158.5,95.5C 157.189,96.2575 156.689,97.2575 157,98.5C 158.833,100.333 160.667,102.167 162.5,104C 156.833,104.667 151.167,104.667 145.5,104C 148.986,100.583 149.32,96.9168 146.5,93C 146.57,92.2352 146.903,91.7352 147.5,91.5C 147.369,92.3764 147.702,93.0431 148.5,93.5C 149.976,91.5799 150.976,89.4133 151.5,87C 149.929,86.6118 148.929,85.1118 148.5,82.5C 149.439,78.2351 149.772,73.9017 149.5,69.5 Z"/></g>
<g><path style="opacity:1" fill="#4592a1" d="M 20.5,91.5 C 26.8333,82.8333 33.1667,74.1667 39.5,65.5C 40.1499,65.8039 40.8165,66.1373 41.5,66.5C 42.6199,65.1666 43.9532,64.6666 45.5,65C 46.4585,66.7073 47.1252,68.5406 47.5,70.5C 43.7422,78.309 39.7422,85.9756 35.5,93.5C 34.8333,93.1667 34.1667,92.8333 33.5,92.5C 32.6747,96.1224 32.1747,99.789 32,103.5C 28.0342,100.536 24.3675,97.2026 21,93.5C 20.5357,92.9056 20.369,92.2389 20.5,91.5 Z"/></g>
<g><path style="opacity:1" fill="#82b4be" d="M 139.5,77.5 C 140.458,77.9528 141.292,78.6195 142,79.5C 142.497,81.8098 142.663,84.1432 142.5,86.5C 141.504,86.4142 140.671,86.7476 140,87.5C 139,80.8333 138,80.8333 137,87.5C 136.107,86.2888 135.274,86.2888 134.5,87.5C 137.152,89.5917 137.986,92.2583 137,95.5C 135.622,93.7866 133.955,92.4533 132,91.5C 133.298,87.7474 134.298,83.7474 135,79.5C 136.11,77.9632 137.61,77.2965 139.5,77.5 Z"/></g>
<g><path style="opacity:1" fill="#44839c" d="M 55.5,87.5 C 55.5,88.8333 55.5,90.1667 55.5,91.5C 55.7778,93.3464 55.1112,94.6798 53.5,95.5C 52.1667,91.1667 52.1667,86.8333 53.5,82.5C 55.2174,83.6685 55.8841,85.3352 55.5,87.5 Z"/></g>
<g><path style="opacity:1" fill="#daf9f1" d="M 71.5,86.5 C 72.5,86.5 73.5,86.5 74.5,86.5C 74.6841,89.3213 73.3507,90.9879 70.5,91.5C 69.3482,89.6029 69.6815,87.9362 71.5,86.5 Z"/></g>
<g><path style="opacity:0.863" fill="#98c7ca" d="M 22.5,85.5 C 21.5,87.5 20.5,89.5 19.5,91.5C 17.6916,91.4914 16.0249,91.9914 14.5,93C 12.6133,95.9502 10.6133,98.7835 8.5,101.5C 8.16667,101.5 7.83333,101.5 7.5,101.5C 9.31107,98.5557 11.1444,95.5557 13,92.5C 15.7265,91.4063 17.8932,89.7396 19.5,87.5C 20.2679,86.7375 20.7679,85.7375 21,84.5C 21.3826,85.056 21.8826,85.3893 22.5,85.5 Z"/></g>
<g><path style="opacity:1" fill="#468392" d="M 49.5,74.5 C 50.4902,80.6446 50.8235,86.9779 50.5,93.5C 48.5956,93.2624 47.2623,92.2624 46.5,90.5C 47.3255,86.0181 47.8255,81.3514 48,76.5C 48.7172,75.9558 49.2172,75.2891 49.5,74.5 Z"/></g>
<g><path style="opacity:1" fill="#74aec0" d="M 141.5,89.5 C 142.947,91.8382 142.447,93.8382 140,95.5C 139.51,94.2068 139.343,92.8734 139.5,91.5C 139.833,90.5 140.5,89.8333 141.5,89.5 Z"/></g>
<g><path style="opacity:1" fill="#649daa" d="M 44.5,81.5 C 44.0914,84.8555 44.7581,87.8555 46.5,90.5C 45.7611,90.369 45.0944,90.5357 44.5,91C 47.0288,93.6417 48.0288,96.8084 47.5,100.5C 47.33,101.822 47.6634,102.989 48.5,104C 47.2068,104.49 45.8734,104.657 44.5,104.5C 44.8204,101.102 44.487,97.7683 43.5,94.5C 43.1038,98.2634 42.1038,101.597 40.5,104.5C 39.9883,98.6118 40.6549,92.9452 42.5,87.5C 43.1667,85.5 43.8333,83.5 44.5,81.5 Z"/></g>
<g><path style="opacity:0.592" fill="#95c9d0" d="M 179.5,91.5 C 180.906,91.9731 181.573,92.9731 181.5,94.5C 180.094,94.0269 179.427,93.0269 179.5,91.5 Z"/></g>
<g><path style="opacity:1" fill="#a3d7e8" d="M 42.5,87.5 C 40.6549,92.9452 39.9883,98.6118 40.5,104.5C 39.3493,99.3497 39.1826,94.0164 40,88.5C 40.6708,87.7476 41.5041,87.4142 42.5,87.5 Z"/></g>
<g><path style="opacity:1" fill="#d7f6f3" d="M 121.5,92.5 C 122.492,92.3284 123.158,92.6618 123.5,93.5C 122.92,95.7488 121.587,97.4154 119.5,98.5C 118.503,98.5299 117.836,98.0299 117.5,97C 118.344,94.9933 119.677,93.4933 121.5,92.5 Z"/></g>
<g><path style="opacity:0.792" fill="#97cdd4" d="M 181.5,94.5 C 183.914,95.9108 185.581,97.9108 186.5,100.5C 184.086,99.0892 182.419,97.0892 181.5,94.5 Z"/></g>
<g><path style="opacity:1" fill="#0e4255" d="M 139.5,77.5 C 139.5,76.8333 139.833,76.5 140.5,76.5C 142.411,76.5743 143.578,77.5743 144,79.5C 145.403,83.414 146.57,87.414 147.5,91.5C 146.903,91.7352 146.57,92.2352 146.5,93C 149.32,96.9168 148.986,100.583 145.5,104C 151.167,104.667 156.833,104.667 162.5,104C 160.667,102.167 158.833,100.333 157,98.5C 156.689,97.2575 157.189,96.2575 158.5,95.5C 156.694,92.528 154.694,89.6947 152.5,87C 157.746,89.5295 163.246,91.6961 169,93.5C 169.5,93.1667 170,92.8333 170.5,92.5C 168.086,91.0892 166.419,89.0892 165.5,86.5C 166.185,84.5856 166.685,82.5856 167,80.5C 169.179,82.3482 171.013,84.5148 172.5,87C 172.167,87.3333 171.833,87.6667 171.5,88C 173.886,89.1932 176.22,90.3599 178.5,91.5C 178.833,91.5 179.167,91.5 179.5,91.5C 179.427,93.0269 180.094,94.0269 181.5,94.5C 182.419,97.0892 184.086,99.0892 186.5,100.5C 186.511,102.017 187.177,103.184 188.5,104C 190.473,104.495 192.473,104.662 194.5,104.5C 195.774,105.189 195.774,106.023 194.5,107C 189.826,107.333 185.16,107.167 180.5,106.5C 178.712,106.785 177.045,106.452 175.5,105.5C 178.833,104.833 182.167,104.167 185.5,103.5C 179.018,96.6853 172.685,96.852 166.5,104C 167.448,104.483 168.448,104.649 169.5,104.5C 171.167,104.5 172.833,104.5 174.5,104.5C 174.027,105.906 173.027,106.573 171.5,106.5C 161.167,106.5 150.833,106.5 140.5,106.5C 141.609,105.71 142.942,105.21 144.5,105C 142.527,104.505 140.527,104.338 138.5,104.5C 138.216,102.585 138.549,100.919 139.5,99.5C 139.5,100.833 139.5,102.167 139.5,103.5C 144.987,102.875 146.653,99.8746 144.5,94.5C 143.735,95.6119 142.735,96.2786 141.5,96.5C 140.5,96.5 139.5,96.5 138.5,96.5C 138.216,94.5853 138.549,92.9187 139.5,91.5C 139.343,92.8734 139.51,94.2068 140,95.5C 142.447,93.8382 142.947,91.8382 141.5,89.5C 142.11,88.609 142.443,87.609 142.5,86.5C 142.663,84.1432 142.497,81.8098 142,79.5C 141.292,78.6195 140.458,77.9528 139.5,77.5 Z"/></g>
<g><path style="opacity:1" fill="#62a1b0" d="M 139.5,99.5 C 140.167,98.5 140.833,97.5 141.5,96.5C 142.735,96.2786 143.735,95.6119 144.5,94.5C 146.653,99.8746 144.987,102.875 139.5,103.5C 139.5,102.167 139.5,100.833 139.5,99.5 Z"/></g>
<g><path style="opacity:1" fill="#458e9e" d="M 123.5,93.5 C 125.685,93.7036 127.685,94.3702 129.5,95.5C 129.274,98.2492 129.607,100.916 130.5,103.5C 126.893,104.489 123.226,104.823 119.5,104.5C 118.359,102.451 118.359,100.451 119.5,98.5C 121.587,97.4154 122.92,95.7488 123.5,93.5 Z"/></g>
<g><path style="opacity:0.992" fill="#548a9b" d="M 180.5,106.5 C 177.5,107.833 174.5,107.833 171.5,106.5C 173.027,106.573 174.027,105.906 174.5,104.5C 175.287,102.896 176.62,102.229 178.5,102.5C 178.5,101.5 178.5,100.5 178.5,99.5C 174.756,99.928 171.756,101.595 169.5,104.5C 168.448,104.649 167.448,104.483 166.5,104C 172.685,96.852 179.018,96.6853 185.5,103.5C 182.167,104.167 178.833,104.833 175.5,105.5C 177.045,106.452 178.712,106.785 180.5,106.5 Z"/></g>
<g><path style="opacity:1" fill="#86c3d1" d="M 174.5,104.5 C 172.833,104.5 171.167,104.5 169.5,104.5C 171.756,101.595 174.756,99.928 178.5,99.5C 178.5,100.5 178.5,101.5 178.5,102.5C 176.62,102.229 175.287,102.896 174.5,104.5 Z"/></g>
<g><path style="opacity:1" fill="#47889c" d="M 8.5,104.5 C 7.89022,103.609 7.55688,102.609 7.5,101.5C 7.83333,101.5 8.16667,101.5 8.5,101.5C 8.55999,102.043 8.89333,102.376 9.5,102.5C 11.4271,99.65 13.5938,96.9833 16,94.5C 16.1667,94.8333 16.3333,95.1667 16.5,95.5C 15.2889,96.7202 15.2889,97.8869 16.5,99C 15.6919,99.3076 15.0253,99.8076 14.5,100.5C 15.1667,101.5 15.8333,102.5 16.5,103.5C 13.9135,104.48 11.2469,104.813 8.5,104.5 Z"/></g>
<g><path style="opacity:0.184" fill="#93c2c4" d="M 186.5,100.5 C 188.807,102.68 191.473,104.014 194.5,104.5C 192.473,104.662 190.473,104.495 188.5,104C 187.177,103.184 186.511,102.017 186.5,100.5 Z"/></g>
<g><path style="opacity:1" fill="#0c3f4c" d="M 73.5,61.5 C 74.6325,71.8147 77.6325,72.6481 82.5,64C 84.3869,63.2204 86.0536,63.3871 87.5,64.5C 78.1252,72.9435 68.6252,81.2768 59,89.5C 58.3083,90.4368 58.475,91.1034 59.5,91.5C 61.1826,95.205 62.016,99.205 62,103.5C 63.1667,101 65,99.1667 67.5,98C 74.5433,96.2359 80.21,98.2359 84.5,104C 90.2599,103.878 95.5932,104.711 100.5,106.5C 87.1667,106.5 73.8333,106.5 60.5,106.5C 59.7401,102.919 59.2401,99.2519 59,95.5C 58.5831,94.244 57.7498,93.5774 56.5,93.5C 56.6716,92.5084 56.3382,91.8417 55.5,91.5C 55.5,90.1667 55.5,88.8333 55.5,87.5C 58.5981,84.8532 61.9315,82.6865 65.5,81C 65.1667,80.6667 64.8333,80.3333 64.5,80C 66.747,78.005 67.747,75.505 67.5,72.5C 69.0122,74.3167 71.0122,75.3167 73.5,75.5C 73.5,70.8333 73.5,66.1667 73.5,61.5 Z"/></g>
<g><path style="opacity:1" fill="#3c7a8f" d="M 72.5,99.5 C 83.4775,103.938 82.8108,105.605 70.5,104.5C 71.4408,102.95 72.1075,101.284 72.5,99.5 Z"/></g>
<g><path style="opacity:1" fill="#81bac5" d="M 72.5,99.5 C 72.1075,101.284 71.4408,102.95 70.5,104.5C 68.396,104.799 66.396,104.466 64.5,103.5C 66.6423,101.095 69.309,99.7622 72.5,99.5 Z"/></g>
<g><path style="opacity:0.992" fill="#0b4150" d="M 48.5,67.5 C 48.5,68.1667 48.5,68.8333 48.5,69.5C 48.6287,71.2161 48.962,72.8828 49.5,74.5C 46.2777,75.6026 44.611,77.9359 44.5,81.5C 43.8333,83.5 43.1667,85.5 42.5,87.5C 41.5041,87.4142 40.6708,87.7476 40,88.5C 39.1826,94.0164 39.3493,99.3497 40.5,104.5C 42.1038,101.597 43.1038,98.2634 43.5,94.5C 44.487,97.7683 44.8204,101.102 44.5,104.5C 45.8734,104.657 47.2068,104.49 48.5,104C 47.6634,102.989 47.33,101.822 47.5,100.5C 48.9663,101.347 49.7996,102.68 50,104.5C 51.3024,105.085 52.469,105.751 53.5,106.5C 41.8333,106.5 30.1667,106.5 18.5,106.5C 17.5,106.5 16.5,106.5 15.5,106.5C 11.1161,106.826 6.7828,106.492 2.5,105.5C 4.39605,104.534 6.39605,104.201 8.5,104.5C 11.2469,104.813 13.9135,104.48 16.5,103.5C 15.8333,102.5 15.1667,101.5 14.5,100.5C 15.0253,99.8076 15.6919,99.3076 16.5,99C 15.2889,97.8869 15.2889,96.7202 16.5,95.5C 16.3333,95.1667 16.1667,94.8333 16,94.5C 13.5938,96.9833 11.4271,99.65 9.5,102.5C 8.89333,102.376 8.55999,102.043 8.5,101.5C 10.6133,98.7835 12.6133,95.9502 14.5,93C 16.0249,91.9914 17.6916,91.4914 19.5,91.5C 19.8333,91.5 20.1667,91.5 20.5,91.5C 20.369,92.2389 20.5357,92.9056 21,93.5C 24.3675,97.2026 28.0342,100.536 32,103.5C 32.1747,99.789 32.6747,96.1224 33.5,92.5C 34.1667,92.8333 34.8333,93.1667 35.5,93.5C 39.7422,85.9756 43.7422,78.309 47.5,70.5C 47.1252,68.5406 46.4585,66.7073 45.5,65C 43.9532,64.6666 42.6199,65.1666 41.5,66.5C 40.8165,66.1373 40.1499,65.8039 39.5,65.5C 39.9321,64.2905 40.5987,63.2905 41.5,62.5C 41.4346,62.9382 41.6012,63.2716 42,63.5C 43.0195,62.3128 44.1861,61.3128 45.5,60.5C 47.0818,62.5771 48.0818,64.9104 48.5,67.5 Z"/></g>
<g><path style="opacity:1" fill="#44899d" d="M 18.5,94.5 C 22.625,97.4526 26.625,100.619 30.5,104C 26.5138,104.499 22.5138,104.666 18.5,104.5C 18.4802,102.857 19.1468,101.524 20.5,100.5C 19.9747,99.8076 19.3081,99.3076 18.5,99C 19.4132,97.5861 19.4132,96.0861 18.5,94.5 Z"/></g>
<g><path style="opacity:1" fill="#b4f1f4" d="M 28.5,91.5 C 32.1021,91.678 32.1021,92.678 28.5,94.5C 27.4376,93.5754 27.4376,92.5754 28.5,91.5 Z"/></g>
<g><path style="opacity:1" fill="#265e72" d="M 46.5,90.5 C 47.2623,92.2624 48.5956,93.2624 50.5,93.5C 50.3354,96.5184 50.502,99.5184 51,102.5C 51.1968,100.139 52.3635,98.4724 54.5,97.5C 55.1667,100.167 55.8333,102.833 56.5,105.5C 56.6117,101.78 56.6117,97.7801 56.5,93.5C 57.7498,93.5774 58.5831,94.244 59,95.5C 59.2401,99.2519 59.7401,102.919 60.5,106.5C 58.1667,106.5 55.8333,106.5 53.5,106.5C 52.469,105.751 51.3024,105.085 50,104.5C 49.7996,102.68 48.9663,101.347 47.5,100.5C 48.0288,96.8084 47.0288,93.6417 44.5,91C 45.0944,90.5357 45.7611,90.369 46.5,90.5 Z"/></g>
<g><path style="opacity:1" fill="#11404a" d="M 140.5,76.5 C 139.833,76.5 139.5,76.8333 139.5,77.5C 137.61,77.2965 136.11,77.9632 135,79.5C 134.298,83.7474 133.298,87.7474 132,91.5C 133.955,92.4533 135.622,93.7866 137,95.5C 137.986,92.2583 137.152,89.5917 134.5,87.5C 135.274,86.2888 136.107,86.2888 137,87.5C 138,80.8333 139,80.8333 140,87.5C 140.671,86.7476 141.504,86.4142 142.5,86.5C 142.443,87.609 142.11,88.609 141.5,89.5C 140.5,89.8333 139.833,90.5 139.5,91.5C 138.549,92.9187 138.216,94.5853 138.5,96.5C 139.5,96.5 140.5,96.5 141.5,96.5C 140.833,97.5 140.167,98.5 139.5,99.5C 138.549,100.919 138.216,102.585 138.5,104.5C 140.527,104.338 142.527,104.505 144.5,105C 142.942,105.21 141.609,105.71 140.5,106.5C 139.659,108.379 139.325,110.379 139.5,112.5C 143.49,114.056 147.157,115.056 150.5,115.5C 140.478,115.832 130.478,115.499 120.5,114.5C 120.624,113.893 120.957,113.56 121.5,113.5C 126.833,113.5 132.167,113.5 137.5,113.5C 137.5,111.167 137.5,108.833 137.5,106.5C 131.167,106.5 124.833,106.5 118.5,106.5C 115.287,106.81 112.287,106.477 109.5,105.5C 112.625,104.521 115.958,104.187 119.5,104.5C 123.226,104.823 126.893,104.489 130.5,103.5C 129.607,100.916 129.274,98.2492 129.5,95.5C 129.91,92.6019 130.076,89.6019 130,86.5C 130.667,85.8333 131.333,85.1667 132,84.5C 131.753,77.8955 134.586,75.2289 140.5,76.5 Z"/></g>
<g><path style="opacity:1" fill="#8fc4c9" d="M 131.5,94.5 C 136.751,96.0753 138.417,99.4087 136.5,104.5C 131.981,102.727 130.314,99.3932 131.5,94.5 Z"/></g>
<g><path style="opacity:0.031" fill="#92bdbe" d="M 7.5,101.5 C 7.55688,102.609 7.89022,103.609 8.5,104.5C 6.39605,104.201 4.39605,104.534 2.5,105.5C 6.7828,106.492 11.1161,106.826 15.5,106.5C 11.0189,107.648 6.35219,107.815 1.5,107C 0.166667,106 0.166667,105 1.5,104C 3.8452,103.764 5.8452,102.93 7.5,101.5 Z"/></g>
<g><path style="opacity:1" fill="#a3ccca" d="M 101.5,105.5 C 103.973,105.604 104.639,106.604 103.5,108.5C 96.3603,110.716 89.3603,113.049 82.5,115.5C 82.5,116.167 82.1667,116.5 81.5,116.5C 79.7354,115.539 77.7354,115.205 75.5,115.5C 71.049,114.173 66.2157,113.506 61,113.5C 55.9881,113.501 51.1547,113.834 46.5,114.5C 40.4154,124.338 34.082,134.004 27.5,143.5C 28.7967,138.633 26.9634,136.967 22,138.5C 18.5274,137.342 15.0274,136.176 11.5,135C 10.572,134.612 9.90536,133.945 9.5,133C 11.1281,129.415 11.9615,125.581 12,121.5C 16.226,119.174 17.3927,115.841 15.5,111.5C 16.7786,109.854 18.4453,108.687 20.5,108C 19.5842,107.722 18.9175,107.222 18.5,106.5C 30.1667,106.5 41.8333,106.5 53.5,106.5C 55.8333,106.5 58.1667,106.5 60.5,106.5C 73.8333,106.5 87.1667,106.5 100.5,106.5C 101.167,106.5 101.5,106.167 101.5,105.5 Z M 29.5,124.5 C 29.6716,123.508 29.3382,122.842 28.5,122.5C 28.8272,119.324 28.8272,116.157 28.5,113C 30.0762,112.56 31.4096,111.727 32.5,110.5C 39.0736,116.211 38.9069,121.878 32,127.5C 31.1482,126.429 30.3149,125.429 29.5,124.5 Z"/></g>
<g><path style="opacity:1" fill="#d1eceb" d="M 101.5,105.5 C 104.061,104.233 106.728,104.233 109.5,105.5C 112.287,106.477 115.287,106.81 118.5,106.5C 121.976,107.783 122.976,110.117 121.5,113.5C 120.957,113.56 120.624,113.893 120.5,114.5C 130.478,115.499 140.478,115.832 150.5,115.5C 150.5,115.833 150.5,116.167 150.5,116.5C 137.137,116.242 123.804,116.575 110.5,117.5C 113.024,116.26 115.691,115.093 118.5,114C 121.129,111.211 120.462,109.211 116.5,108C 115,107.833 113.5,107.667 112,107.5C 102.656,111.464 92.8224,114.13 82.5,115.5C 89.3603,113.049 96.3603,110.716 103.5,108.5C 104.639,106.604 103.973,105.604 101.5,105.5 Z"/></g>
<g><path style="opacity:0.992" fill="#a1cbcd" d="M 118.5,106.5 C 124.833,106.5 131.167,106.5 137.5,106.5C 137.5,108.833 137.5,111.167 137.5,113.5C 132.167,113.5 126.833,113.5 121.5,113.5C 122.976,110.117 121.976,107.783 118.5,106.5 Z"/></g>
<g><path style="opacity:1" fill="#3e696e" d="M 46.5,114.5 C 51.1547,113.834 55.9881,113.501 61,113.5C 66.2157,113.506 71.049,114.173 75.5,115.5C 75.1667,115.5 74.8333,115.5 74.5,115.5C 65.3483,114.506 56.015,114.173 46.5,114.5 Z"/></g>
<g><path style="opacity:1" fill="#f6f8e6" d="M 150.5,116.5 C 159.351,130.869 167.685,145.536 175.5,160.5C 175.5,161.833 175.5,163.167 175.5,164.5C 158.827,163.833 142.16,163.333 125.5,163C 116.848,164.525 109.515,168.359 103.5,174.5C 103.286,172.856 103.62,171.356 104.5,170C 112.443,165.851 120.109,162.851 127.5,161C 142.453,162.054 157.453,162.554 172.5,162.5C 171.907,159.055 170.907,155.721 169.5,152.5C 168.264,151.754 166.93,151.421 165.5,151.5C 165.66,149.801 165.494,148.134 165,146.5C 160.845,139.002 156.512,131.669 152,124.5C 151.71,126.044 151.044,127.377 150,128.5C 140.328,125.726 130.495,125.059 120.5,126.5C 119.833,126.833 119.167,127.167 118.5,127.5C 120.695,128.769 122.861,128.769 125,127.5C 127.133,129.079 127.966,131.079 127.5,133.5C 119.953,128.746 111.619,126.246 102.5,126C 103.552,124.284 102.886,123.284 100.5,123C 103.55,120.497 106.883,118.664 110.5,117.5C 123.804,116.575 137.137,116.242 150.5,116.5 Z"/></g>
<g><path style="opacity:1" fill="#2e6875" d="M 26.5,120.5 C 27.1667,121.167 27.8333,121.833 28.5,122.5C 29.3382,122.842 29.6716,123.508 29.5,124.5C 29.6716,125.492 29.3382,126.158 28.5,126.5C 28.631,125.761 28.4643,125.094 28,124.5C 23.9341,125.464 19.7675,125.797 15.5,125.5C 15.33,124.178 15.6634,123.011 16.5,122C 20.0252,121.821 23.3586,121.321 26.5,120.5 Z"/></g>
<g><path style="opacity:1" fill="#0a3642" d="M 26.5,120.5 C 23.3586,121.321 20.0252,121.821 16.5,122C 15.6634,123.011 15.33,124.178 15.5,125.5C 19.7675,125.797 23.9341,125.464 28,124.5C 28.4643,125.094 28.631,125.761 28.5,126.5C 23.1254,126.828 17.7921,126.495 12.5,125.5C 13.373,123.587 14.373,121.753 15.5,120C 19.2554,119.245 22.9221,119.411 26.5,120.5 Z"/></g>
<g><path style="opacity:1" fill="#fdfae6" d="M 103.5,174.5 C 102.5,176.167 101.167,177.5 99.5,178.5C 98.0383,171.472 98.205,164.472 100,157.5C 103.924,154.414 108.424,152.914 113.5,153C 117.333,151.036 121.333,149.369 125.5,148C 128.578,143.55 129.244,138.717 127.5,133.5C 127.966,131.079 127.133,129.079 125,127.5C 122.861,128.769 120.695,128.769 118.5,127.5C 119.167,127.167 119.833,126.833 120.5,126.5C 130.495,125.059 140.328,125.726 150,128.5C 151.044,127.377 151.71,126.044 152,124.5C 156.512,131.669 160.845,139.002 165,146.5C 165.494,148.134 165.66,149.801 165.5,151.5C 166.93,151.421 168.264,151.754 169.5,152.5C 170.907,155.721 171.907,159.055 172.5,162.5C 157.453,162.554 142.453,162.054 127.5,161C 120.109,162.851 112.443,165.851 104.5,170C 103.62,171.356 103.286,172.856 103.5,174.5 Z"/></g>
<g><path style="opacity:1" fill="#123a4b" d="M 110.5,117.5 C 105.558,118.091 100.892,119.591 96.5,122C 95.5494,122.718 95.3828,123.551 96,124.5C 97.7998,126.317 99.9664,127.484 102.5,128C 110.851,128.865 118.518,131.365 125.5,135.5C 128.312,138.839 127.979,142.005 124.5,145C 117.677,148.123 110.677,150.789 103.5,153C 101.833,154.167 100.167,155.333 98.5,156.5C 97.5315,164.444 97.1981,172.444 97.5,180.5C 99.2646,181.461 101.265,181.795 103.5,181.5C 105.929,181.415 107.929,180.415 109.5,178.5C 110.107,178.624 110.44,178.957 110.5,179.5C 109.038,180.458 107.705,181.624 106.5,183C 100.319,183.819 94.3188,183.653 88.5,182.5C 89.625,181.348 89.625,180.348 88.5,179.5C 87.8333,178.5 87.1667,177.5 86.5,176.5C 87.1667,176.5 87.5,176.167 87.5,175.5C 88.1667,174.5 88.8333,173.5 89.5,172.5C 89.67,171.178 89.3366,170.011 88.5,169C 81.9137,165.793 75.747,161.959 70,157.5C 69.3333,155.833 69.3333,154.167 70,152.5C 72.7963,150.114 75.963,148.281 79.5,147C 85.8765,145.489 92.2099,143.823 98.5,142C 99.3567,141.311 100.023,140.478 100.5,139.5C 99.0758,137.282 97.0758,135.782 94.5,135C 87.2268,133.464 80.2268,131.131 73.5,128C 69.6217,124.447 69.955,121.281 74.5,118.5C 76.8333,117.833 79.1667,117.167 81.5,116.5C 82.1667,116.5 82.5,116.167 82.5,115.5C 92.8224,114.13 102.656,111.464 112,107.5C 113.5,107.667 115,107.833 116.5,108C 120.462,109.211 121.129,111.211 118.5,114C 115.691,115.093 113.024,116.26 110.5,117.5 Z"/></g>
<g><path style="opacity:1" fill="#06364f" d="M 107.5,133.5 C 106.85,133.196 106.183,132.863 105.5,132.5C 104.227,133.257 104.227,133.923 105.5,134.5C 106.405,136.911 107.905,138.911 110,140.5C 110.278,139.584 110.778,138.918 111.5,138.5C 111.56,139.043 111.893,139.376 112.5,139.5C 113.958,137.862 114.292,136.195 113.5,134.5C 117.36,133.061 120.86,133.727 124,136.5C 124.383,135.944 124.883,135.611 125.5,135.5C 126.519,137.54 126.519,139.54 125.5,141.5C 124.28,142.711 123.113,142.711 122,141.5C 121.546,144.612 119.713,146.278 116.5,146.5C 114.588,146.512 112.588,146.179 110.5,145.5C 110.628,147.129 109.628,148.462 107.5,149.5C 106.818,148.757 106.151,148.091 105.5,147.5C 106.091,146.849 106.757,146.182 107.5,145.5C 107.043,144.702 106.376,144.369 105.5,144.5C 104.234,143.91 102.901,143.41 101.5,143C 101.621,139.552 101.954,136.052 102.5,132.5C 102.868,131.09 103.701,130.09 105,129.5C 106.356,130.38 107.856,130.714 109.5,130.5C 109.715,132.179 109.048,133.179 107.5,133.5 Z"/></g>
<g><path style="opacity:1" fill="#b7dee6" d="M 111.5,140.5 C 112.713,141.497 112.546,142.497 111,143.5C 110.53,142.423 110.697,141.423 111.5,140.5 Z"/></g>
<g><path style="opacity:1" fill="#c0e5e9" d="M 111.5,138.5 C 110.203,135.397 110.536,135.063 112.5,137.5C 112.376,138.107 112.043,138.44 111.5,138.5 Z"/></g>
<g><path style="opacity:1" fill="#a4d2e0" d="M 107.5,133.5 C 107.158,134.338 106.492,134.672 105.5,134.5C 104.227,133.923 104.227,133.257 105.5,132.5C 106.183,132.863 106.85,133.196 107.5,133.5 Z"/></g>
<g><path style="opacity:1" fill="#86adbd" d="M 97.5,130.5 C 98.9778,130.238 100.311,130.571 101.5,131.5C 100.833,131.833 100.167,132.167 99.5,132.5C 98.2867,132.253 97.62,131.586 97.5,130.5 Z"/></g>
<g><path style="opacity:1" fill="#a9cfde" d="M 86.5,127.5 C 86.56,126.957 86.8933,126.624 87.5,126.5C 89.8333,127.667 92.1667,128.833 94.5,130C 91.6131,130.067 88.9465,129.233 86.5,127.5 Z"/></g>
<g><path style="opacity:1" fill="#aed7e1" d="M 90.5,117.5 C 91.2389,117.369 91.9056,117.536 92.5,118C 90.2462,119.377 88.0795,120.877 86,122.5C 85.3333,121.833 85.3333,121.167 86,120.5C 87.6516,119.601 89.1516,118.601 90.5,117.5 Z"/></g>
<g><path style="opacity:1" fill="#9dc3d5" d="M 95.5,115.5 C 97.337,115.639 97.6704,116.306 96.5,117.5C 95.7025,117.043 95.3691,116.376 95.5,115.5 Z"/></g>
<g><path style="opacity:1" fill="#adcbd5" d="M 110.5,109.5 C 111.507,111.268 110.841,112.601 108.5,113.5C 108.167,113.167 107.833,112.833 107.5,112.5C 108.77,111.712 109.77,110.712 110.5,109.5 Z"/></g>
<g><path style="opacity:0.635" fill="#88afb0" d="M 27.5,143.5 C 27.1551,146.198 25.8218,148.198 23.5,149.5C 24.3403,147.147 25.6736,145.147 27.5,143.5 Z"/></g>
<g><path style="opacity:1" fill="#1d3d42" d="M 46.5,114.5 C 56.015,114.173 65.3483,114.506 74.5,115.5C 65.4938,115.334 56.4938,115.5 47.5,116C 37.1835,131.472 27.5168,147.305 18.5,163.5C 17.1634,164.315 16.1634,165.482 15.5,167C 34.1697,167.166 52.8364,167.166 71.5,167C 77.5906,168.544 82.9239,171.377 87.5,175.5C 87.5,176.167 87.1667,176.5 86.5,176.5C 81.1829,172.343 75.1829,169.509 68.5,168C 50.2023,168.901 31.869,169.401 13.5,169.5C 13.7036,167.315 14.3702,165.315 15.5,163.5C 17.588,161.664 18.9213,159.331 19.5,156.5C 20.9063,156.027 21.573,155.027 21.5,153.5C 21.6596,151.847 22.3263,150.514 23.5,149.5C 25.8218,148.198 27.1551,146.198 27.5,143.5C 34.082,134.004 40.4154,124.338 46.5,114.5 Z"/></g>
<g><path style="opacity:1" fill="#9fc3d5" d="M 105.5,144.5 C 106.376,144.369 107.043,144.702 107.5,145.5C 106.757,146.182 106.091,146.849 105.5,147.5C 104.624,147.631 103.957,147.298 103.5,146.5C 104.243,145.818 104.909,145.151 105.5,144.5 Z"/></g>
<g><path style="opacity:1" fill="#e6f2ec" d="M 110.5,117.5 C 106.883,118.664 103.55,120.497 100.5,123C 102.886,123.284 103.552,124.284 102.5,126C 111.619,126.246 119.953,128.746 127.5,133.5C 129.244,138.717 128.578,143.55 125.5,148C 121.333,149.369 117.333,151.036 113.5,153C 108.424,152.914 103.924,154.414 100,157.5C 98.205,164.472 98.0383,171.472 99.5,178.5C 99.5,179.833 98.8333,180.5 97.5,180.5C 97.1981,172.444 97.5315,164.444 98.5,156.5C 100.167,155.333 101.833,154.167 103.5,153C 110.677,150.789 117.677,148.123 124.5,145C 127.979,142.005 128.312,138.839 125.5,135.5C 118.518,131.365 110.851,128.865 102.5,128C 99.9664,127.484 97.7998,126.317 96,124.5C 95.3828,123.551 95.5494,122.718 96.5,122C 100.892,119.591 105.558,118.091 110.5,117.5 Z"/></g>
<g><path style="opacity:1" fill="#f1f7eb" d="M 74.5,115.5 C 74.8333,115.5 75.1667,115.5 75.5,115.5C 77.7354,115.205 79.7354,115.539 81.5,116.5C 79.1667,117.167 76.8333,117.833 74.5,118.5C 69.955,121.281 69.6217,124.447 73.5,128C 80.2268,131.131 87.2268,133.464 94.5,135C 97.0758,135.782 99.0758,137.282 100.5,139.5C 100.023,140.478 99.3567,141.311 98.5,142C 92.2099,143.823 85.8765,145.489 79.5,147C 75.963,148.281 72.7963,150.114 70,152.5C 69.3333,154.167 69.3333,155.833 70,157.5C 75.747,161.959 81.9137,165.793 88.5,169C 89.3366,170.011 89.67,171.178 89.5,172.5C 82.6597,167.493 74.9931,164.327 66.5,163C 53.9635,162.484 41.4635,162.984 29,164.5C 25.3167,164.499 21.8167,164.165 18.5,163.5C 27.5168,147.305 37.1835,131.472 47.5,116C 56.4938,115.5 65.4938,115.334 74.5,115.5 Z"/></g>
<g><path style="opacity:1" fill="#fcfae6" d="M 74.5,118.5 C 71.9026,118.643 69.5692,119.477 67.5,121C 69.1377,123.558 70.3043,126.391 71,129.5C 76.7633,133.73 83.2633,136.23 90.5,137C 94.1322,138.373 94.2988,139.873 91,141.5C 87.7899,141.762 84.7899,141.428 82,140.5C 81.6905,141.766 81.1905,142.933 80.5,144C 71.4514,145.37 67.2848,150.537 68,159.5C 68.7504,160.126 69.5838,160.626 70.5,161C 61.5445,161.494 52.5445,161.661 43.5,161.5C 38.4053,160.636 34.2386,158.303 31,154.5C 30.51,153.207 30.3433,151.873 30.5,150.5C 31.8221,150.67 32.9887,150.337 34,149.5C 34.4138,145.666 35.5805,142.666 37.5,140.5C 37.1667,139.833 36.8333,139.167 36.5,138.5C 41.1442,132.045 45.1442,125.212 48.5,118C 55,117.5 61.5,117 68,116.5C 70.6103,116.533 72.777,117.2 74.5,118.5 Z"/></g>
<g><path style="opacity:1" fill="#9fc8d6" d="M 90.5,149.5 C 91.552,149.351 92.552,149.517 93.5,150C 91.6297,151.366 89.6297,152.533 87.5,153.5C 87.1667,153.167 86.8333,152.833 86.5,152.5C 87.9014,151.479 89.2347,150.479 90.5,149.5 Z"/></g>
<g><path style="opacity:0.851" fill="#8fb1bb" d="M 21.5,153.5 C 21.573,155.027 20.9063,156.027 19.5,156.5C 19.427,154.973 20.0937,153.973 21.5,153.5 Z"/></g>
<g><path style="opacity:1" fill="#a1cdde" d="M 84.5,154.5 C 85.782,155.708 85.782,157.042 84.5,158.5C 83.7084,157.3 83.7084,155.967 84.5,154.5 Z"/></g>
<g><path style="opacity:0.737" fill="#80a7a7" d="M 19.5,156.5 C 18.9213,159.331 17.588,161.664 15.5,163.5C 16.0787,160.669 17.412,158.336 19.5,156.5 Z"/></g>
<g><path style="opacity:1" fill="#b5e1ef" d="M 84.5,160.5 C 86.0847,161.002 86.5847,162.002 86,163.5C 84.9614,162.756 84.4614,161.756 84.5,160.5 Z"/></g>
<g><path style="opacity:0.996" fill="#406166" d="M 139.5,112.5 C 143.767,112.203 147.934,112.536 152,113.5C 164.938,136.385 178.104,159.052 191.5,181.5C 190.395,180.4 189.062,179.733 187.5,179.5C 187.5,178.833 187.167,178.5 186.5,178.5C 185.833,178.167 185.167,177.833 184.5,177.5C 184.5,176.833 184.167,176.5 183.5,176.5C 183.5,176.167 183.5,175.833 183.5,175.5C 183.167,174.833 182.833,174.167 182.5,173.5C 182.737,172.209 182.404,171.209 181.5,170.5C 171.5,169.833 161.5,169.167 151.5,168.5C 154.385,168.806 157.052,168.473 159.5,167.5C 166.2,167.83 172.866,167.497 179.5,166.5C 178.5,164.187 177.166,162.187 175.5,160.5C 167.685,145.536 159.351,130.869 150.5,116.5C 150.5,116.167 150.5,115.833 150.5,115.5C 147.157,115.056 143.49,114.056 139.5,112.5 Z"/></g>
<g><path style="opacity:1" fill="#a3c6c2" d="M 175.5,160.5 C 177.166,162.187 178.5,164.187 179.5,166.5C 172.866,167.497 166.2,167.83 159.5,167.5C 147.174,166.695 134.84,166.528 122.5,167C 114.582,169.751 108.248,174.585 103.5,181.5C 101.265,181.795 99.2646,181.461 97.5,180.5C 98.8333,180.5 99.5,179.833 99.5,178.5C 101.167,177.5 102.5,176.167 103.5,174.5C 109.515,168.359 116.848,164.525 125.5,163C 142.16,163.333 158.827,163.833 175.5,164.5C 175.5,163.167 175.5,161.833 175.5,160.5 Z"/></g>
<g><path style="opacity:1" fill="#a1c5c5" d="M 89.5,172.5 C 88.8333,173.5 88.1667,174.5 87.5,175.5C 82.9239,171.377 77.5906,168.544 71.5,167C 52.8364,167.166 34.1697,167.166 15.5,167C 16.1634,165.482 17.1634,164.315 18.5,163.5C 21.8167,164.165 25.3167,164.499 29,164.5C 41.4635,162.984 53.9635,162.484 66.5,163C 74.9931,164.327 82.6597,167.493 89.5,172.5 Z"/></g>
<g><path style="opacity:1" fill="#deeeef" d="M 86.5,176.5 C 87.1667,177.5 87.8333,178.5 88.5,179.5C 82.7106,174.84 76.044,172.007 68.5,171C 50.1768,171.201 31.8435,171.368 13.5,171.5C 13.5,170.833 13.5,170.167 13.5,169.5C 31.869,169.401 50.2023,168.901 68.5,168C 75.1829,169.509 81.1829,172.343 86.5,176.5 Z"/></g>
<g><path style="opacity:1" fill="#dff2f2" d="M 151.5,168.5 C 161.5,169.167 171.5,169.833 181.5,170.5C 181.5,170.833 181.5,171.167 181.5,171.5C 162.822,171.4 144.156,171.233 125.5,171C 120.508,171.996 115.841,173.829 111.5,176.5C 111.167,176.333 110.833,176.167 110.5,176C 116.886,169.811 124.553,166.978 133.5,167.5C 139.484,168.165 145.484,168.499 151.5,168.5 Z"/></g>
<g><path style="opacity:1" fill="#213e43" d="M 159.5,167.5 C 157.052,168.473 154.385,168.806 151.5,168.5C 145.484,168.499 139.484,168.165 133.5,167.5C 124.553,166.978 116.886,169.811 110.5,176C 110.833,176.167 111.167,176.333 111.5,176.5C 115.841,173.829 120.508,171.996 125.5,171C 144.156,171.233 162.822,171.4 181.5,171.5C 169.011,172.495 156.344,172.829 143.5,172.5C 134.669,171.92 126.002,172.753 117.5,175C 114.798,176.012 112.465,177.512 110.5,179.5C 110.44,178.957 110.107,178.624 109.5,178.5C 107.929,180.415 105.929,181.415 103.5,181.5C 108.248,174.585 114.582,169.751 122.5,167C 134.84,166.528 147.174,166.695 159.5,167.5 Z"/></g>
<g><path style="opacity:1" fill="#627f84" d="M 15.5,163.5 C 14.3702,165.315 13.7036,167.315 13.5,169.5C 13.5,170.167 13.5,170.833 13.5,171.5C 24.0846,172.499 35.418,172.832 47.5,172.5C 35.9318,173.186 24.2651,173.853 12.5,174.5C 12.2172,173.711 11.7172,173.044 11,172.5C 9.48305,174.24 7.98305,175.906 6.5,177.5C 8.81077,173.66 10.9774,169.66 13,165.5C 13.7083,164.619 14.5416,163.953 15.5,163.5 Z"/></g>
<g><path style="opacity:1" fill="#687f81" d="M 181.5,170.5 C 182.404,171.209 182.737,172.209 182.5,173.5C 169.323,173.829 156.323,173.495 143.5,172.5C 156.344,172.829 169.011,172.495 181.5,171.5C 181.5,171.167 181.5,170.833 181.5,170.5 Z"/></g>
<g><path style="opacity:1" fill="#2b4145" d="M 88.5,179.5 C 89.625,180.348 89.625,181.348 88.5,182.5C 83.2894,177.228 76.9561,174.061 69.5,173C 62.1742,172.5 54.8409,172.334 47.5,172.5C 35.418,172.832 24.0846,172.499 13.5,171.5C 31.8435,171.368 50.1768,171.201 68.5,171C 76.044,172.007 82.7106,174.84 88.5,179.5 Z"/></g>
<g><path style="opacity:1" fill="#f7f4e7" d="M 47.5,172.5 C 54.8409,172.334 62.1742,172.5 69.5,173C 76.9561,174.061 83.2894,177.228 88.5,182.5C 94.3188,183.653 100.319,183.819 106.5,183C 107.705,181.624 109.038,180.458 110.5,179.5C 112.465,177.512 114.798,176.012 117.5,175C 126.002,172.753 134.669,171.92 143.5,172.5C 156.323,173.495 169.323,173.829 182.5,173.5C 182.833,174.167 183.167,174.833 183.5,175.5C 164.833,175.5 146.167,175.5 127.5,175.5C 123.762,176.613 120.096,177.613 116.5,178.5C 112.458,180.362 108.792,182.862 105.5,186C 100.5,186.667 95.5,186.667 90.5,186C 87.8723,184.374 85.539,182.374 83.5,180C 82.255,179.209 80.9217,178.709 79.5,178.5C 76.1138,177.865 72.7804,176.865 69.5,175.5C 50.5,175.5 31.5,175.5 12.5,175.5C 12.5,175.167 12.5,174.833 12.5,174.5C 24.2651,173.853 35.9318,173.186 47.5,172.5 Z"/></g>
<g><path style="opacity:1" fill="#d9b196" d="M 12.5,175.5 C 31.5,175.5 50.5,175.5 69.5,175.5C 69.3893,176.117 69.056,176.617 68.5,177C 49.1695,177.5 29.8362,177.667 10.5,177.5C 10.8333,176.5 11.5,175.833 12.5,175.5 Z"/></g>
<g><path style="opacity:0.998" fill="#e3b99c" d="M 127.5,175.5 C 146.167,175.5 164.833,175.5 183.5,175.5C 183.5,175.833 183.5,176.167 183.5,176.5C 164.671,177.662 145.671,177.829 126.5,177C 127.056,176.617 127.389,176.117 127.5,175.5 Z"/></g>
<g><path style="opacity:1" fill="#fee2c5" d="M 69.5,175.5 C 72.7804,176.865 76.1138,177.865 79.5,178.5C 58.1667,178.5 36.8333,178.5 15.5,178.5C 13.5853,178.784 11.9187,178.451 10.5,177.5C 29.8362,177.667 49.1695,177.5 68.5,177C 69.056,176.617 69.3893,176.117 69.5,175.5 Z"/></g>
<g><path style="opacity:0.998" fill="#fee1c5" d="M 127.5,175.5 C 127.389,176.117 127.056,176.617 126.5,177C 145.671,177.829 164.671,177.662 183.5,176.5C 184.167,176.5 184.5,176.833 184.5,177.5C 162.006,178.497 139.339,178.831 116.5,178.5C 120.096,177.613 123.762,176.613 127.5,175.5 Z"/></g>
<g><path style="opacity:1" fill="#c2ab98" d="M 184.5,177.5 C 185.167,177.833 185.833,178.167 186.5,178.5C 163.167,179.167 139.833,179.833 116.5,180.5C 112.967,183.2 109.301,185.7 105.5,188C 99.8431,188.499 94.1764,188.666 88.5,188.5C 87.8333,187.167 86.8333,186.167 85.5,185.5C 84.0077,182.677 81.6743,181.01 78.5,180.5C 57.5,179.833 36.5,179.167 15.5,178.5C 36.8333,178.5 58.1667,178.5 79.5,178.5C 80.9217,178.709 82.255,179.209 83.5,180C 85.539,182.374 87.8723,184.374 90.5,186C 95.5,186.667 100.5,186.667 105.5,186C 108.792,182.862 112.458,180.362 116.5,178.5C 139.339,178.831 162.006,178.497 184.5,177.5 Z"/></g>
<g><path style="opacity:0.999" fill="#948d84" d="M 10.5,177.5 C 11.9187,178.451 13.5853,178.784 15.5,178.5C 36.5,179.167 57.5,179.833 78.5,180.5C 56.1667,180.5 33.8333,180.5 11.5,180.5C 7.99516,180.306 7.66183,179.306 10.5,177.5 Z"/></g>
<g><path style="opacity:0.998" fill="#908b84" d="M 186.5,178.5 C 187.167,178.5 187.5,178.833 187.5,179.5C 186.432,180.434 185.099,180.768 183.5,180.5C 161.167,180.5 138.833,180.5 116.5,180.5C 139.833,179.833 163.167,179.167 186.5,178.5 Z"/></g>
<g><path style="opacity:0.997" fill="#253031" d="M 11.5,180.5 C 33.8333,180.5 56.1667,180.5 78.5,180.5C 81.6743,181.01 84.0077,182.677 85.5,185.5C 83.2433,185.038 81.2433,184.038 79.5,182.5C 57.6014,181.174 35.7681,181.174 14,182.5C 13.0053,181.934 12.172,181.267 11.5,180.5 Z"/></g>
<g><path style="opacity:0.773" fill="#202d31" d="M 116.5,180.5 C 138.833,180.5 161.167,180.5 183.5,180.5C 170.344,181.496 157.01,181.829 143.5,181.5C 137.491,181.334 131.491,181.501 125.5,182C 124.944,182.383 124.611,182.883 124.5,183.5C 122.077,181.863 119.41,181.363 116.5,182C 112.948,185.219 109.115,188.052 105,190.5C 99.4003,189.854 93.9003,189.187 88.5,188.5C 94.1764,188.666 99.8431,188.499 105.5,188C 109.301,185.7 112.967,183.2 116.5,180.5 Z"/></g>
<g><path style="opacity:0.99" fill="#06374b" d="M 187.5,179.5 C 189.062,179.733 190.395,180.4 191.5,181.5C 191.539,182.583 191.873,183.583 192.5,184.5C 191.675,185.386 190.675,185.719 189.5,185.5C 173.163,185.667 156.83,185.5 140.5,185C 140.167,184.667 139.833,184.333 139.5,184C 141.437,183.878 142.77,183.045 143.5,181.5C 157.01,181.829 170.344,181.496 183.5,180.5C 185.099,180.768 186.432,180.434 187.5,179.5 Z"/></g>
<g><path style="opacity:0.035" fill="#3f788f" d="M 3.5,182.5 C 3.58577,183.496 3.25244,184.329 2.5,185C 12.1609,185.5 21.8276,185.666 31.5,185.5C 21.6806,186.494 11.6806,186.827 1.5,186.5C 1.22911,184.62 1.89578,183.287 3.5,182.5 Z"/></g>
<g><path style="opacity:0.008" fill="#798f8d" d="M 191.5,181.5 C 195.618,185.374 194.952,186.707 189.5,185.5C 190.675,185.719 191.675,185.386 192.5,184.5C 191.873,183.583 191.539,182.583 191.5,181.5 Z"/></g>
<g><path style="opacity:1" fill="#103b4d" d="M 12.5,174.5 C 12.5,174.833 12.5,175.167 12.5,175.5C 11.5,175.833 10.8333,176.5 10.5,177.5C 7.66183,179.306 7.99516,180.306 11.5,180.5C 12.172,181.267 13.0053,181.934 14,182.5C 35.7681,181.174 57.6014,181.174 79.5,182.5C 81.2433,184.038 83.2433,185.038 85.5,185.5C 86.8333,186.167 87.8333,187.167 88.5,188.5C 93.9003,189.187 99.4003,189.854 105,190.5C 109.115,188.052 112.948,185.219 116.5,182C 119.41,181.363 122.077,181.863 124.5,183.5C 122.524,185.011 120.191,185.844 117.5,186C 112.402,192.924 105.569,195.757 97,194.5C 93.8333,194.333 90.6667,194.167 87.5,194C 83.938,191.066 80.2714,188.399 76.5,186C 61.5037,185.5 46.5037,185.333 31.5,185.5C 21.8276,185.666 12.1609,185.5 2.5,185C 3.25244,184.329 3.58577,183.496 3.5,182.5C 4.11028,180.566 5.11028,178.899 6.5,177.5C 7.98305,175.906 9.48305,174.24 11,172.5C 11.7172,173.044 12.2172,173.711 12.5,174.5 Z"/></g>
</svg>
