<?xml version="1.0" encoding="UTF-8"?>
<!DOCTYPE svg PUBLIC "-//W3C//DTD SVG 1.1//EN" "http://www.w3.org/Graphics/SVG/1.1/DTD/svg11.dtd">
<svg xmlns="http://www.w3.org/2000/svg" version="1.1" width="200px" height="200px" style="shape-rendering:geometricPrecision; text-rendering:geometricPrecision; image-rendering:optimizeQuality; fill-rule:evenodd; clip-rule:evenodd" xmlns:xlink="http://www.w3.org/1999/xlink">
<g><path style="opacity:0.055" fill="#e2e8ea" d="M 157.5,19.5 C 155.019,22.4585 152.353,22.7919 149.5,20.5C 150.313,19.3473 151.313,19.3473 152.5,20.5C 153.914,19.376 155.414,18.376 157,17.5C 157.464,18.0944 157.631,18.7611 157.5,19.5 Z"/></g>
<g><path style="opacity:0.737" fill="#cfd4da" d="M 157.5,20.5 C 159.756,21.4385 162.09,21.4385 164.5,20.5C 164.737,21.791 164.404,22.791 163.5,23.5C 163.225,21.1582 162.392,21.1582 161,23.5C 159.271,23.0257 158.105,22.0257 157.5,20.5 Z"/></g>
<g><path style="opacity:0.667" fill="#e8f1fa" d="M 149.5,20.5 C 151.078,22.3747 150.745,23.7081 148.5,24.5C 148.232,22.901 148.566,21.5676 149.5,20.5 Z"/></g>
<g><path style="opacity:0.926" fill="#e6ecef" d="M 162.5,25.5 C 162.328,24.5084 162.662,23.8417 163.5,23.5C 165.346,25.0703 167.346,25.9037 169.5,26C 168.795,27.4219 168.461,28.7553 168.5,30C 169.308,30.3076 169.975,30.8076 170.5,31.5C 169.199,33.444 168.199,35.444 167.5,37.5C 167.261,35.5328 167.594,33.6995 168.5,32C 166.939,31.6824 165.772,30.8491 165,29.5C 164.741,33.0336 163.241,35.7003 160.5,37.5C 161.463,36.6365 161.463,35.9698 160.5,35.5C 156.695,36.8111 153.028,36.4777 149.5,34.5C 149.5,33.8333 149.167,33.5 148.5,33.5C 148.672,32.5084 148.338,31.8417 147.5,31.5C 148.458,24.402 152.458,21.902 159.5,24C 160.527,24.5133 161.527,25.0133 162.5,25.5 Z"/></g>
<g><path style="opacity:0.992" fill="#d3dade" d="M 122.5,30.5 C 120.989,29.4975 119.322,28.8308 117.5,28.5C 117.144,25.4359 117.977,22.7693 120,20.5C 121.156,23.7235 121.99,27.0569 122.5,30.5 Z"/></g>
<g><path style="opacity:0.953" fill="#e7eced" d="M 148.5,24.5 C 147.745,26.4663 146.579,26.7996 145,25.5C 144.536,26.0944 144.369,26.7611 144.5,27.5C 143.596,26.791 143.263,25.791 143.5,24.5C 145.167,24.5 146.833,24.5 148.5,24.5 Z"/></g>
<g><path style="opacity:0.992" fill="#5f666d" d="M 162.5,25.5 C 164.086,26.1481 165.753,26.6481 167.5,27C 164.86,29.3384 163.193,28.8384 162.5,25.5 Z"/></g>
<g><path style="opacity:1" fill="#434955" d="M 117.5,28.5 C 119.322,28.8308 120.989,29.4975 122.5,30.5C 122.158,31.3382 121.492,31.6716 120.5,31.5C 119.5,31.5 118.5,31.5 117.5,31.5C 116.884,30.7978 116.884,29.7978 117.5,28.5 Z"/></g>
<g><path style="opacity:1" fill="#c2cbce" d="M 145.5,27.5 C 146.434,28.5676 146.768,29.901 146.5,31.5C 144.585,31.2155 142.919,31.5489 141.5,32.5C 140.957,32.44 140.624,32.1067 140.5,31.5C 142.045,30.5481 143.712,30.2148 145.5,30.5C 145.5,29.5 145.5,28.5 145.5,27.5 Z"/></g>
<g><path style="opacity:0.976" fill="#65686e" d="M 154.5,28.5 C 159.307,29.3016 159.64,30.9683 155.5,33.5C 154.646,32.4783 153.646,31.6449 152.5,31C 153.381,30.2917 154.047,29.4584 154.5,28.5 Z"/></g>
<g><path style="opacity:0.992" fill="#606a77" d="M 157.5,19.5 C 157.5,19.8333 157.5,20.1667 157.5,20.5C 158.105,22.0257 159.271,23.0257 161,23.5C 162.392,21.1582 163.225,21.1582 163.5,23.5C 162.662,23.8417 162.328,24.5084 162.5,25.5C 161.527,25.0133 160.527,24.5133 159.5,24C 152.458,21.902 148.458,24.402 147.5,31.5C 147.328,32.4916 147.662,33.1583 148.5,33.5C 149.167,33.5 149.5,33.8333 149.5,34.5C 152.224,38.3867 155.89,39.3867 160.5,37.5C 159.508,39.0265 158.008,39.6932 156,39.5C 154.439,39.3968 152.939,39.0634 151.5,38.5C 150.277,41.7671 148.444,41.7671 146,38.5C 145.601,38.7284 145.435,39.0618 145.5,39.5C 144.539,37.7354 144.205,35.7354 144.5,33.5C 143.209,33.7373 142.209,33.404 141.5,32.5C 142.919,31.5489 144.585,31.2155 146.5,31.5C 146.768,29.901 146.434,28.5676 145.5,27.5C 145.167,27.5 144.833,27.5 144.5,27.5C 144.369,26.7611 144.536,26.0944 145,25.5C 146.579,26.7996 147.745,26.4663 148.5,24.5C 150.745,23.7081 151.078,22.3747 149.5,20.5C 152.353,22.7919 155.019,22.4585 157.5,19.5 Z"/></g>
<g><path style="opacity:0.482" fill="#91999f" d="M 117.5,28.5 C 116.884,29.7978 116.884,30.7978 117.5,31.5C 116.878,32.6266 116.045,33.6266 115,34.5C 114.219,35.9437 114.386,37.277 115.5,38.5C 118.777,37.7463 122.11,37.2463 125.5,37C 124.308,34.6451 122.641,32.8118 120.5,31.5C 121.492,31.6716 122.158,31.3382 122.5,30.5C 124.017,30.5106 125.184,31.1772 126,32.5C 126.926,34.6917 128.093,36.6917 129.5,38.5C 127.914,39.1481 126.247,39.6481 124.5,40C 125.566,41.159 125.233,41.9924 123.5,42.5C 123.586,41.5041 123.252,40.6708 122.5,40C 119.779,39.3985 117.113,39.5651 114.5,40.5C 113.295,39.3143 111.961,39.3143 110.5,40.5C 110.787,35.2532 113.12,31.2532 117.5,28.5 Z M 117.5,31.5 C 118.5,31.5 119.5,31.5 120.5,31.5C 122.641,32.8118 124.308,34.6451 125.5,37C 122.11,37.2463 118.777,37.7463 115.5,38.5C 114.386,37.277 114.219,35.9437 115,34.5C 116.045,33.6266 116.878,32.6266 117.5,31.5 Z"/></g>
<g><path style="opacity:0.992" fill="#727c84" d="M 104.5,44.5 C 104.316,42.0752 103.649,42.0752 102.5,44.5C 101.351,42.0752 100.684,42.0752 100.5,44.5C 99.0171,42.3161 99.6837,40.9827 102.5,40.5C 105.316,40.9827 105.983,42.3161 104.5,44.5 Z"/></g>
<g><path style="opacity:0.984" fill="#465266" d="M 167.5,37.5 C 167.372,39.0898 166.705,40.4231 165.5,41.5C 162.506,43.247 159.339,44.5804 156,45.5C 153.323,44.778 150.823,43.778 148.5,42.5C 147.71,41.5987 146.71,40.9321 145.5,40.5C 145.5,40.1667 145.5,39.8333 145.5,39.5C 145.435,39.0618 145.601,38.7284 146,38.5C 148.444,41.7671 150.277,41.7671 151.5,38.5C 152.939,39.0634 154.439,39.3968 156,39.5C 158.008,39.6932 159.508,39.0265 160.5,37.5C 163.241,35.7003 164.741,33.0336 165,29.5C 165.772,30.8491 166.939,31.6824 168.5,32C 167.594,33.6995 167.261,35.5328 167.5,37.5 Z"/></g>
<g><path style="opacity:0.984" fill="#1b232c" d="M 104.5,44.5 C 104.5,44.8333 104.5,45.1667 104.5,45.5C 103.5,45.5 102.5,45.5 101.5,45.5C 101.167,45.5 100.833,45.5 100.5,45.5C 100.5,45.1667 100.5,44.8333 100.5,44.5C 100.684,42.0752 101.351,42.0752 102.5,44.5C 103.649,42.0752 104.316,42.0752 104.5,44.5 Z"/></g>
<g><path style="opacity:0.969" fill="#a0a8ac" d="M 96.5,56.5 C 94.9504,57.7199 93.2837,57.7199 91.5,56.5C 91.1667,56.5 90.8333,56.5 90.5,56.5C 87.6724,50.8442 83.1724,47.1775 77,45.5C 75.3009,45.3866 74.1342,46.0532 73.5,47.5C 73.5,48.1667 73.5,48.8333 73.5,49.5C 72.5041,49.5858 71.6708,49.2524 71,48.5C 68.3217,51.214 66.155,54.214 64.5,57.5C 64.631,56.7611 64.4643,56.0944 64,55.5C 63.7216,56.4158 63.2216,57.0825 62.5,57.5C 69.4647,39.7061 79.1313,38.0395 91.5,52.5C 93.6674,51.0458 95.6674,51.2125 97.5,53C 95.7444,53.2022 94.0777,53.7022 92.5,54.5C 93.3202,56.1112 94.6536,56.7778 96.5,56.5 Z M 90.5,56.5 C 90.1034,57.525 89.4368,57.6917 88.5,57C 85.1087,51.3038 80.1087,48.1371 73.5,47.5C 74.1342,46.0532 75.3009,45.3866 77,45.5C 83.1724,47.1775 87.6724,50.8442 90.5,56.5 Z"/></g>
<g><path style="opacity:0.992" fill="#879296" d="M 110.5,41.5 C 111.5,41.5 112.5,41.5 113.5,41.5C 113.5,42.8333 113.5,44.1667 113.5,45.5C 112.518,48.9619 112.185,52.6286 112.5,56.5C 111.167,56.5 110.5,57.1667 110.5,58.5C 108.167,58.5 105.833,58.5 103.5,58.5C 105.806,57.9618 107.472,57.2952 108.5,56.5C 110.36,51.807 111.026,46.807 110.5,41.5 Z"/></g>
<g><path style="opacity:0.165" fill="#eefbfd" d="M 100.5,45.5 C 100.833,45.5 101.167,45.5 101.5,45.5C 101.5,49.1667 101.5,52.8333 101.5,56.5C 100.167,56.5 98.8333,56.5 97.5,56.5C 98.209,55.596 99.209,55.2627 100.5,55.5C 100.5,52.1667 100.5,48.8333 100.5,45.5 Z"/></g>
<g><path style="opacity:0.635" fill="#dfe8eb" d="M 73.5,47.5 C 80.1087,48.1371 85.1087,51.3038 88.5,57C 89.4368,57.6917 90.1034,57.525 90.5,56.5C 90.8333,56.5 91.1667,56.5 91.5,56.5C 89.8983,58.9816 87.5649,59.815 84.5,59C 83.7734,57.6012 83.2734,56.1012 83,54.5C 81.8525,55.4581 80.8525,55.1247 80,53.5C 80.7682,55.8436 81.9349,58.1769 83.5,60.5C 82.7573,61.1818 82.0906,61.8485 81.5,62.5C 79.326,62.7497 77.6594,63.7497 76.5,65.5C 72.8333,67.1667 70.1667,69.8333 68.5,73.5C 67.8333,73.8333 67.1667,74.1667 66.5,74.5C 66.7758,70.8297 68.4425,67.9964 71.5,66C 71.2568,65.0979 70.9234,64.2646 70.5,63.5C 71.7383,63.19 71.7383,62.69 70.5,62C 68.8659,61.5065 67.1992,61.3398 65.5,61.5C 67.2646,60.5386 69.2646,60.2053 71.5,60.5C 71.7076,58.0799 71.3742,55.7466 70.5,53.5C 71.5244,52.1482 72.5244,50.8149 73.5,49.5C 73.5,48.8333 73.5,48.1667 73.5,47.5 Z"/></g>
<g><path style="opacity:0.969" fill="#57616c" d="M 129.5,38.5 C 130.017,46.7254 130.017,54.7254 129.5,62.5C 129.805,65.0074 129.971,67.6741 130,70.5C 131.966,71.7803 133.466,73.447 134.5,75.5C 133.833,75.8333 133.167,76.1667 132.5,76.5C 132.5,76.1667 132.5,75.8333 132.5,75.5C 131.655,73.2381 130.322,72.5714 128.5,73.5C 128.5,72.8333 128.167,72.5 127.5,72.5C 127.833,71.8333 128.167,71.1667 128.5,70.5C 129.384,66.5104 128.051,63.6771 124.5,62C 121.233,60.0852 119.9,61.2519 120.5,65.5C 118.901,65.7678 117.568,65.4345 116.5,64.5C 118.256,63.4479 118.923,61.7812 118.5,59.5C 116.738,59.6427 115.071,59.3094 113.5,58.5C 112.406,59.868 112.74,61.0347 114.5,62C 113.244,62.4169 112.577,63.2502 112.5,64.5C 110.833,64.5 109.167,64.5 107.5,64.5C 108.398,63.8423 109.398,63.1757 110.5,62.5C 107.914,61.52 105.247,61.1866 102.5,61.5C 102.527,63.1993 103.194,64.5326 104.5,65.5C 103.5,65.5 102.5,65.5 101.5,65.5C 101.5,64.1667 101.5,62.8333 101.5,61.5C 96.3183,61.4427 96.3183,60.776 101.5,59.5C 98.5967,58.0956 95.9301,58.429 93.5,60.5C 97.374,62.0025 97.0407,62.6691 92.5,62.5C 92.719,61.325 92.3857,60.325 91.5,59.5C 88.122,60.5908 84.7887,61.5908 81.5,62.5C 82.0906,61.8485 82.7573,61.1818 83.5,60.5C 81.9349,58.1769 80.7682,55.8436 80,53.5C 80.8525,55.1247 81.8525,55.4581 83,54.5C 83.2734,56.1012 83.7734,57.6012 84.5,59C 87.5649,59.815 89.8983,58.9816 91.5,56.5C 93.2837,57.7199 94.9504,57.7199 96.5,56.5C 96.8333,56.5 97.1667,56.5 97.5,56.5C 98.8333,56.5 100.167,56.5 101.5,56.5C 101.5,52.8333 101.5,49.1667 101.5,45.5C 102.5,45.5 103.5,45.5 104.5,45.5C 103.71,48.5421 103.377,51.5421 103.5,54.5C 103.833,55.5 104.5,56.1667 105.5,56.5C 106.527,55.2086 107.527,55.2086 108.5,56.5C 107.472,57.2952 105.806,57.9618 103.5,58.5C 102.262,58.81 102.262,59.31 103.5,60C 104.667,60.1667 105.833,60.3333 107,60.5C 108.681,60.3917 109.848,59.7251 110.5,58.5C 110.5,57.1667 111.167,56.5 112.5,56.5C 114.292,56.366 115.958,56.6993 117.5,57.5C 118.209,58.404 119.209,58.7373 120.5,58.5C 122.284,58.8925 123.95,59.5592 125.5,60.5C 125.811,61.4778 126.478,62.1445 127.5,62.5C 128.833,55.1667 128.833,47.8333 127.5,40.5C 126.702,40.9569 126.369,41.6236 126.5,42.5C 126.525,46.1398 124.858,48.4731 121.5,49.5C 120.167,50.8333 118.833,50.8333 117.5,49.5C 115.167,49.1667 113.833,47.8333 113.5,45.5C 113.5,44.1667 113.5,42.8333 113.5,41.5C 112.5,41.5 111.5,41.5 110.5,41.5C 110.5,41.1667 110.5,40.8333 110.5,40.5C 111.961,39.3143 113.295,39.3143 114.5,40.5C 114.833,41.1667 115.167,41.8333 115.5,42.5C 118.167,46.5 120.833,46.5 123.5,42.5C 125.233,41.9924 125.566,41.159 124.5,40C 126.247,39.6481 127.914,39.1481 129.5,38.5 Z M 113.5,45.5 C 113.833,47.8333 115.167,49.1667 117.5,49.5C 117.692,52.212 117.692,54.8787 117.5,57.5C 115.958,56.6993 114.292,56.366 112.5,56.5C 112.185,52.6286 112.518,48.9619 113.5,45.5 Z M 126.5,42.5 C 127.165,45.3138 127.498,48.3138 127.5,51.5C 127.483,54.9134 126.816,57.9134 125.5,60.5C 123.95,59.5592 122.284,58.8925 120.5,58.5C 120.704,55.4824 121.037,52.4824 121.5,49.5C 124.858,48.4731 126.525,46.1398 126.5,42.5 Z M 123.5,42.5 C 120.833,42.5 118.167,42.5 115.5,42.5C 115.167,41.8333 114.833,41.1667 114.5,40.5C 117.113,39.5651 119.779,39.3985 122.5,40C 123.252,40.6708 123.586,41.5041 123.5,42.5 Z"/></g>
<g><path style="opacity:0.106" fill="#e5edf6" d="M 103.5,58.5 C 105.833,58.5 108.167,58.5 110.5,58.5C 109.848,59.7251 108.681,60.3917 107,60.5C 105.833,60.3333 104.667,60.1667 103.5,60C 102.262,59.31 102.262,58.81 103.5,58.5 Z"/></g>
<g><path style="opacity:0.765" fill="#c6cfd8" d="M 125.5,60.5 C 126.816,57.9134 127.483,54.9134 127.5,51.5C 127.498,48.3138 127.165,45.3138 126.5,42.5C 126.369,41.6236 126.702,40.9569 127.5,40.5C 128.833,47.8333 128.833,55.1667 127.5,62.5C 126.478,62.1445 125.811,61.4778 125.5,60.5 Z"/></g>
<g><path style="opacity:0.871" fill="#c5ced1" d="M 117.5,49.5 C 118.833,50.8333 120.167,50.8333 121.5,49.5C 121.037,52.4824 120.704,55.4824 120.5,58.5C 119.209,58.7373 118.209,58.404 117.5,57.5C 117.692,54.8787 117.692,52.212 117.5,49.5 Z"/></g>
<g><path style="opacity:0.992" fill="#d7e4ef" d="M 115.5,42.5 C 118.167,42.5 120.833,42.5 123.5,42.5C 120.833,46.5 118.167,46.5 115.5,42.5 Z"/></g>
<g><path style="opacity:0.996" fill="#e7eff2" d="M 107.5,64.5 C 106.833,64.5 106.5,64.8333 106.5,65.5C 105.833,65.5 105.167,65.5 104.5,65.5C 103.194,64.5326 102.527,63.1993 102.5,61.5C 105.247,61.1866 107.914,61.52 110.5,62.5C 109.398,63.1757 108.398,63.8423 107.5,64.5 Z"/></g>
<g><path style="opacity:0.125" fill="#dae1e4" d="M 145.5,40.5 C 146.71,40.9321 147.71,41.5987 148.5,42.5C 141.935,46.2435 137.268,51.7435 134.5,59C 135.453,62.9527 137.953,65.1194 142,65.5C 141.981,67.1075 141.815,68.7741 141.5,70.5C 140.542,70.0472 139.708,69.3805 139,68.5C 138.833,68.8333 138.667,69.1667 138.5,69.5C 141.762,73.5234 144.095,78.0234 145.5,83C 144.552,83.4828 143.552,83.6495 142.5,83.5C 141.404,78.6421 139.238,74.3088 136,70.5C 137.482,74.4761 139.315,78.4761 141.5,82.5C 140.575,83.5624 139.575,83.5624 138.5,82.5C 137.126,80.1417 135.793,77.8083 134.5,75.5C 133.466,73.447 131.966,71.7803 130,70.5C 129.971,67.6741 129.805,65.0074 129.5,62.5C 130.117,62.6107 130.617,62.944 131,63.5C 131.692,60.0636 132.692,56.7302 134,53.5C 137.721,48.953 141.554,44.6197 145.5,40.5 Z"/></g>
<g><path style="opacity:0.996" fill="#b1b7bb" d="M 47.5,63.5 C 46.5,63.5 45.5,63.5 44.5,63.5C 45.6537,61.3546 46.987,59.3546 48.5,57.5C 49.7567,59.7986 49.4233,61.7986 47.5,63.5 Z"/></g>
<g><path style="opacity:0.995" fill="#dfebef" d="M 116.5,64.5 C 115.167,64.5 113.833,64.5 112.5,64.5C 112.577,63.2502 113.244,62.4169 114.5,62C 112.74,61.0347 112.406,59.868 113.5,58.5C 115.071,59.3094 116.738,59.6427 118.5,59.5C 118.923,61.7812 118.256,63.4479 116.5,64.5 Z"/></g>
<g><path style="opacity:0.876" fill="#ecf1f4" d="M 128.5,70.5 C 127.167,70.5 126.5,69.8333 126.5,68.5C 125.791,67.596 124.791,67.2627 123.5,67.5C 122.71,66.5987 121.71,65.9321 120.5,65.5C 119.9,61.2519 121.233,60.0852 124.5,62C 128.051,63.6771 129.384,66.5104 128.5,70.5 Z"/></g>
<g><path style="opacity:1" fill="#e8f0f3" d="M 101.5,65.5 C 100.833,65.8333 100.167,66.1667 99.5,66.5C 97.4821,65.9528 95.6487,64.9528 94,63.5C 93.51,64.7932 93.3433,66.1266 93.5,67.5C 83.5082,68.3762 76.5082,73.3762 72.5,82.5C 70.8762,82.6399 69.7096,81.9733 69,80.5C 68.2904,81.9733 67.1238,82.6399 65.5,82.5C 65.9769,79.345 66.9769,76.345 68.5,73.5C 71.5,71.1667 74.1667,68.5 76.5,65.5C 78.674,65.2503 80.3406,64.2503 81.5,62.5C 84.7887,61.5908 88.122,60.5908 91.5,59.5C 92.3857,60.325 92.719,61.325 92.5,62.5C 97.0407,62.6691 97.374,62.0025 93.5,60.5C 95.9301,58.429 98.5967,58.0956 101.5,59.5C 96.3183,60.776 96.3183,61.4427 101.5,61.5C 101.5,62.8333 101.5,64.1667 101.5,65.5 Z"/></g>
<g><path style="opacity:1" fill="#61686e" d="M 92.5,62.5 C 88.5921,64.3019 84.5921,65.8019 80.5,67C 84.0154,64.217 88.0154,62.717 92.5,62.5 Z"/></g>
<g><path style="opacity:0.537" fill="#666e71" d="M 133.5,62.5 C 135.296,63.7927 136.963,65.2927 138.5,67C 135.814,66.8228 134.148,65.3228 133.5,62.5 Z"/></g>
<g><path style="opacity:1" fill="#1e2332" d="M 44.5,63.5 C 45.5,63.5 46.5,63.5 47.5,63.5C 47.5,64.1667 47.5,64.8333 47.5,65.5C 45.8212,65.7148 44.8212,65.0481 44.5,63.5 Z"/></g>
<g><path style="opacity:0.976" fill="#404e56" d="M 81.5,62.5 C 80.3406,64.2503 78.674,65.2503 76.5,65.5C 77.6594,63.7497 79.326,62.7497 81.5,62.5 Z"/></g>
<g><path style="opacity:1" fill="#91999c" d="M 25.5,68.5 C 25.631,69.2389 25.4643,69.9056 25,70.5C 20.2455,66.9358 15.2455,66.6024 10,69.5C 9.53566,68.9056 9.36899,68.2389 9.5,67.5C 9.61071,66.8826 9.94404,66.3826 10.5,66C 16.1865,63.4104 21.1865,64.2438 25.5,68.5 Z"/></g>
<g><path style="opacity:1" fill="#768086" d="M 64.5,57.5 C 64.2322,59.099 64.5655,60.4324 65.5,61.5C 67.1992,61.3398 68.8659,61.5065 70.5,62C 71.7383,62.69 71.7383,63.19 70.5,63.5C 68.7376,63.3573 67.0709,63.6906 65.5,64.5C 63.7656,67.2003 61.4323,69.2003 58.5,70.5C 57.3904,72.4959 57.7237,74.3292 59.5,76C 58.6266,77.045 57.6266,77.8783 56.5,78.5C 56.5,75.5 56.5,72.5 56.5,69.5C 57.5077,67.6614 59.0077,66.3281 61,65.5C 61.2724,62.7462 61.7724,60.0795 62.5,57.5C 63.2216,57.0825 63.7216,56.4158 64,55.5C 64.4643,56.0944 64.631,56.7611 64.5,57.5 Z"/></g>
<g><path style="opacity:1" fill="#72829f" d="M 106.5,65.5 C 108.518,66.6225 110.518,66.6225 112.5,65.5C 112.833,65.8333 113.167,66.1667 113.5,66.5C 112.757,67.1818 112.091,67.8485 111.5,68.5C 109.326,68.2503 107.659,67.2503 106.5,65.5 Z"/></g>
<g><path style="opacity:1" fill="#132239" d="M 106.5,65.5 C 106.5,64.8333 106.833,64.5 107.5,64.5C 109.167,64.5 110.833,64.5 112.5,64.5C 113.833,64.5 115.167,64.5 116.5,64.5C 117.568,65.4345 118.901,65.7678 120.5,65.5C 121.71,65.9321 122.71,66.5987 123.5,67.5C 119.744,69.2953 115.744,69.6286 111.5,68.5C 112.091,67.8485 112.757,67.1818 113.5,66.5C 113.167,66.1667 112.833,65.8333 112.5,65.5C 110.518,66.6225 108.518,66.6225 106.5,65.5 Z"/></g>
<g><path style="opacity:1" fill="#4d565b" d="M 76.5,65.5 C 74.1667,68.5 71.5,71.1667 68.5,73.5C 70.1667,69.8333 72.8333,67.1667 76.5,65.5 Z"/></g>
<g><path style="opacity:1" fill="#8798b2" d="M 123.5,67.5 C 124.791,67.2627 125.791,67.596 126.5,68.5C 123.309,68.7622 120.642,70.0955 118.5,72.5C 117.377,71.4563 116.044,70.7896 114.5,70.5C 112.342,70.9212 110.342,71.4212 108.5,72C 109.71,70.9609 110.71,69.7942 111.5,68.5C 115.744,69.6286 119.744,69.2953 123.5,67.5 Z"/></g>
<g><path style="opacity:0.671" fill="#cdd2d7" d="M 44.5,63.5 C 44.8212,65.0481 45.8212,65.7148 47.5,65.5C 45.4704,67.5366 43.8037,69.8699 42.5,72.5C 41.3112,73.4287 39.9778,73.762 38.5,73.5C 37.6661,72.2521 36.3328,71.5854 34.5,71.5C 32.9002,71.5507 31.4002,71.8841 30,72.5C 29.5357,71.9056 29.369,71.2389 29.5,70.5C 33.1817,70.6653 36.8484,70.4986 40.5,70C 42.628,68.2082 43.9613,66.0416 44.5,63.5 Z"/></g>
<g><path style="opacity:0.953" fill="#7e8892" d="M 29.5,70.5 C 29.369,71.2389 29.5357,71.9056 30,72.5C 31.4002,71.8841 32.9002,71.5507 34.5,71.5C 36.3328,71.5854 37.6661,72.2521 38.5,73.5C 36.076,73.1924 33.7427,73.5258 31.5,74.5C 32.9524,75.9397 33.9524,77.6064 34.5,79.5C 32.6096,77.4224 30.2762,76.0891 27.5,75.5C 28.6579,74.4274 28.6579,73.2607 27.5,72C 27.8361,70.9701 28.5028,70.4701 29.5,70.5 Z"/></g>
<g><path style="opacity:1" fill="#142441" d="M 99.5,66.5 C 97.084,69.0999 94.7507,71.9332 92.5,75C 93.8502,76.7183 95.0168,78.5516 96,80.5C 95.5783,77.9023 95.5783,75.2356 96,72.5C 99.195,71.1486 101.028,68.8153 101.5,65.5C 102.5,65.5 103.5,65.5 104.5,65.5C 105.167,65.5 105.833,65.5 106.5,65.5C 107.659,67.2503 109.326,68.2503 111.5,68.5C 110.71,69.7942 109.71,70.9609 108.5,72C 110.342,71.4212 112.342,70.9212 114.5,70.5C 116.044,70.7896 117.377,71.4563 118.5,72.5C 120.642,70.0955 123.309,68.7622 126.5,68.5C 126.5,69.8333 127.167,70.5 128.5,70.5C 128.167,71.1667 127.833,71.8333 127.5,72.5C 125.313,74.2818 124.98,76.4485 126.5,79C 127.935,78.6888 129.268,78.8555 130.5,79.5C 131.919,78.9953 132.585,77.9953 132.5,76.5C 133.167,76.1667 133.833,75.8333 134.5,75.5C 135.793,77.8083 137.126,80.1417 138.5,82.5C 139.72,84.6633 139.72,86.83 138.5,89C 138.683,90.6836 139.35,90.8502 140.5,89.5C 139.97,92.8455 140.637,96.1788 142.5,99.5C 142.315,100.584 141.982,101.584 141.5,102.5C 139.827,101.657 138.66,100.324 138,98.5C 139.437,102.251 138.604,105.418 135.5,108C 138.146,107.54 140.146,106.04 141.5,103.5C 142.092,106.631 141.092,108.964 138.5,110.5C 135.206,110.741 132.206,109.908 129.5,108C 132.561,106.627 134.394,104.46 135,101.5C 131.739,105.258 127.572,107.092 122.5,107C 120.273,107.941 118.273,109.108 116.5,110.5C 112.643,111.074 108.976,112.074 105.5,113.5C 98.4879,115.495 93.1546,113.328 89.5,107C 90.444,105.523 91.7774,104.523 93.5,104C 92.2161,103.316 91.0495,103.483 90,104.5C 89.5172,103.552 89.3505,102.552 89.5,101.5C 97.1452,97.7749 104.812,93.9415 112.5,90C 113.696,89.3457 113.696,88.8457 112.5,88.5C 109.994,90.5672 107.327,90.9005 104.5,89.5C 104.414,90.4959 104.748,91.3292 105.5,92C 102.828,93.5574 99.9947,94.724 97,95.5C 95.2741,95.0541 93.7741,94.2208 92.5,93C 93.3802,91.6439 93.7135,90.1439 93.5,88.5C 91.6536,88.2222 90.3202,88.8888 89.5,90.5C 90.6022,92.8894 92.2689,94.7227 94.5,96C 91.8178,99.1154 88.4845,100.115 84.5,99C 82.5932,97.878 80.5932,97.0447 78.5,96.5C 72.9518,94.0514 70.9518,89.7181 72.5,83.5C 72.5,83.1667 72.5,82.8333 72.5,82.5C 76.5082,73.3762 83.5082,68.3762 93.5,67.5C 93.3433,66.1266 93.51,64.7932 94,63.5C 95.6487,64.9528 97.4821,65.9528 99.5,66.5 Z"/></g>
<g><path style="opacity:1" fill="#98a8c3" d="M 101.5,74.5 C 100.233,75.087 99.2334,75.087 98.5,74.5C 99.914,73.376 101.414,72.376 103,71.5C 103.239,72.788 102.739,73.788 101.5,74.5 Z"/></g>
<g><path style="opacity:1" fill="#a0b2c9" d="M 101.5,65.5 C 101.028,68.8153 99.195,71.1486 96,72.5C 95.5783,75.2356 95.5783,77.9023 96,80.5C 95.0168,78.5516 93.8502,76.7183 92.5,75C 94.7507,71.9332 97.084,69.0999 99.5,66.5C 100.167,66.1667 100.833,65.8333 101.5,65.5 Z"/></g>
<g><path style="opacity:1" fill="#7385a4" d="M 122.5,70.5 C 123.239,70.369 123.906,70.5357 124.5,71C 123.57,72.1939 122.903,73.5272 122.5,75C 123.615,76.3932 124.115,77.8932 124,79.5C 120.749,76.6839 120.249,73.6839 122.5,70.5 Z"/></g>
<g><path style="opacity:1" fill="#93a8c7" d="M 91.5,68.5 C 92.0431,68.56 92.3764,68.8933 92.5,69.5C 91.081,71.3359 89.9143,73.3359 89,75.5C 88.3333,74.1667 88.3333,72.8333 89,71.5C 90.045,70.6266 90.8783,69.6266 91.5,68.5 Z"/></g>
<g><path style="opacity:1" fill="#93a6c0" d="M 111.5,76.5 C 111.685,74.8042 112.519,73.4709 114,72.5C 114.279,74.4122 113.446,75.7456 111.5,76.5 Z"/></g>
<g><path style="opacity:1" fill="#e9f3f9" d="M 132.5,75.5 C 130.989,76.5025 129.322,77.1692 127.5,77.5C 127.433,76.0413 127.766,74.7079 128.5,73.5C 130.322,72.5714 131.655,73.2381 132.5,75.5 Z"/></g>
<g><path style="opacity:1" fill="#7084a2" d="M 111.5,76.5 C 109.741,79.1897 107.407,79.8564 104.5,78.5C 106.777,77.5793 109.11,76.9126 111.5,76.5 Z"/></g>
<g><path style="opacity:1" fill="#8e9aad" d="M 127.5,72.5 C 128.167,72.5 128.5,72.8333 128.5,73.5C 127.766,74.7079 127.433,76.0413 127.5,77.5C 129.322,77.1692 130.989,76.5025 132.5,75.5C 132.5,75.8333 132.5,76.1667 132.5,76.5C 132.585,77.9953 131.919,78.9953 130.5,79.5C 129.268,78.8555 127.935,78.6888 126.5,79C 124.98,76.4485 125.313,74.2818 127.5,72.5 Z"/></g>
<g><path style="opacity:1" fill="#97abc7" d="M 101.5,74.5 C 107.208,74.4924 107.541,74.9924 102.5,76C 101.104,79.3047 99.1037,82.138 96.5,84.5C 97.7838,80.9864 99.4505,77.653 101.5,74.5 Z"/></g>
<g><path style="opacity:1" fill="#8a9db8" d="M 114.5,76.5 C 116.527,76.3379 118.527,76.5045 120.5,77C 114.954,77.0472 112.288,79.8805 112.5,85.5C 110.922,81.9579 111.588,78.9579 114.5,76.5 Z"/></g>
<g><path style="opacity:1" fill="#c6d1dd" d="M 84.5,73.5 C 84.61,75.3541 84.9434,77.3541 85.5,79.5C 86.1667,78.8333 86.8333,78.1667 87.5,77.5C 88.0959,78.7161 88.2626,80.0494 88,81.5C 88.8928,80.2888 89.7261,80.2888 90.5,81.5C 89.9747,82.1924 89.3081,82.6924 88.5,83C 89.3081,83.3076 89.9747,83.8076 90.5,84.5C 89.7261,85.7112 88.8928,85.7112 88,84.5C 87.5078,85.549 87.6744,86.549 88.5,87.5C 87.3687,88.6039 86.5354,88.2705 86,86.5C 85.0514,90.3779 83.8847,90.3779 82.5,86.5C 80.9954,89.1306 80.3287,88.7973 80.5,85.5C 76.7636,85.3399 76.7636,84.5066 80.5,83C 79.376,82.7508 78.376,82.2508 77.5,81.5C 78.2739,80.2888 79.1072,80.2888 80,81.5C 79.3829,79.9052 79.7163,78.5719 81,77.5C 81.3076,78.3081 81.8076,78.9747 82.5,79.5C 83.2945,77.5049 83.9612,75.5049 84.5,73.5 Z"/></g>
<g><path style="opacity:0.671" fill="#f2fafd" d="M 63.5,80.5 C 61.7211,82.3435 59.3878,83.0102 56.5,82.5C 58.7146,81.7321 61.0479,81.0654 63.5,80.5 Z"/></g>
<g><path style="opacity:0.212" fill="#c0cdd2" d="M 155.5,81.5 C 158.004,79.9692 159.337,80.8025 159.5,84C 158.417,87.5695 156.75,88.0695 154.5,85.5C 155.833,85.5 157.167,85.5 158.5,85.5C 158.912,83.0274 157.912,81.6941 155.5,81.5 Z"/></g>
<g><path style="opacity:0.729" fill="#949ca2" d="M 56.5,69.5 C 56.5,72.5 56.5,75.5 56.5,78.5C 55.3998,79.5585 54.0664,80.3918 52.5,81C 53.2438,82.0386 54.2438,82.5386 55.5,82.5C 57.6074,83.4682 59.9407,83.8016 62.5,83.5C 62.7373,84.791 62.404,85.791 61.5,86.5C 60.1286,85.2132 58.2953,84.5465 56,84.5C 53.0221,84.1483 50.5221,84.9816 48.5,87C 44.6425,87.8099 40.9758,87.6433 37.5,86.5C 39.4147,86.7845 41.0813,86.4511 42.5,85.5C 43.3324,84.6715 42.999,83.8382 41.5,83C 39.4213,82.1923 37.4213,82.359 35.5,83.5C 37.6309,84.1687 39.6309,84.8354 41.5,85.5C 38.9407,85.8016 36.6074,85.4682 34.5,84.5C 34.5,82.8333 34.5,81.1667 34.5,79.5C 36.4546,80.3235 38.4546,80.4901 40.5,80C 42.6414,78.6924 44.6414,77.1924 46.5,75.5C 48.1667,76.5 49.5,77.8333 50.5,79.5C 51.8498,78.0499 53.5165,77.3832 55.5,77.5C 55.1936,74.6146 55.5269,71.9479 56.5,69.5 Z M 42.5,85.5 C 42.1667,85.5 41.8333,85.5 41.5,85.5C 39.6309,84.8354 37.6309,84.1687 35.5,83.5C 37.4213,82.359 39.4213,82.1923 41.5,83C 42.999,83.8382 43.3324,84.6715 42.5,85.5 Z M 44.5,79.5 C 45.5,79.5 46.5,79.5 47.5,79.5C 47.7852,81.288 47.4519,82.9547 46.5,84.5C 44.7826,83.3315 44.1159,81.6648 44.5,79.5 Z"/></g>
<g><path style="opacity:1" fill="#525d63" d="M 68.5,73.5 C 66.9769,76.345 65.9769,79.345 65.5,82.5C 67.1238,82.6399 68.2904,81.9733 69,80.5C 69.7096,81.9733 70.8762,82.6399 72.5,82.5C 72.5,82.8333 72.5,83.1667 72.5,83.5C 69.8127,83.3359 67.146,83.5026 64.5,84C 63.6634,85.0113 63.33,86.1779 63.5,87.5C 63.4431,88.609 63.1098,89.609 62.5,90.5C 61.0755,92.0311 60.4088,91.6977 60.5,89.5C 60.2627,88.209 60.596,87.209 61.5,86.5C 62.404,85.791 62.7373,84.791 62.5,83.5C 59.9407,83.8016 57.6074,83.4682 55.5,82.5C 55.8333,82.5 56.1667,82.5 56.5,82.5C 59.3878,83.0102 61.7211,82.3435 63.5,80.5C 63.9925,78.1815 64.9925,76.1815 66.5,74.5C 67.1667,74.1667 67.8333,73.8333 68.5,73.5 Z"/></g>
<g><path style="opacity:1" fill="#a1b4d4" d="M 119.5,83.5 C 117.668,82.8595 117.335,81.8595 118.5,80.5C 119.386,81.325 119.719,82.325 119.5,83.5 Z"/></g>
<g><path style="opacity:0.137" fill="#e7f3f9" d="M 146.5,80.5 C 148.8,82.2018 151.467,82.8685 154.5,82.5C 152.052,83.4731 149.385,83.8064 146.5,83.5C 146.5,82.5 146.5,81.5 146.5,80.5 Z"/></g>
<g><path style="opacity:1" fill="#8da1be" d="M 119.5,83.5 C 122.731,85.2185 124.731,84.2185 125.5,80.5C 126.385,84.4427 124.719,85.9427 120.5,85C 119.944,84.6174 119.611,84.1174 119.5,83.5 Z"/></g>
<g><path style="opacity:1" fill="#8e9fbc" d="M 131.5,81.5 C 133.842,81.7748 133.842,82.6081 131.5,84C 130.056,84.7805 128.723,84.6139 127.5,83.5C 129.095,84.0437 130.429,83.3771 131.5,81.5 Z"/></g>
<g><path style="opacity:0.984" fill="#505a64" d="M 141.5,70.5 C 143.912,73.3677 145.579,76.701 146.5,80.5C 146.5,81.5 146.5,82.5 146.5,83.5C 149.385,83.8064 152.052,83.4731 154.5,82.5C 154.5,81.8333 154.833,81.5 155.5,81.5C 157.912,81.6941 158.912,83.0274 158.5,85.5C 157.167,85.5 155.833,85.5 154.5,85.5C 152.5,85.1667 150.5,84.8333 148.5,84.5C 147.833,85.8333 147.167,87.1667 146.5,88.5C 146.67,87.1779 146.337,86.0113 145.5,85C 144.065,85.3112 142.732,85.1445 141.5,84.5C 140.548,86.0453 140.215,87.712 140.5,89.5C 139.35,90.8502 138.683,90.6836 138.5,89C 139.72,86.83 139.72,84.6633 138.5,82.5C 139.575,83.5624 140.575,83.5624 141.5,82.5C 139.315,78.4761 137.482,74.4761 136,70.5C 139.238,74.3088 141.404,78.6421 142.5,83.5C 143.552,83.6495 144.552,83.4828 145.5,83C 144.095,78.0234 141.762,73.5234 138.5,69.5C 138.667,69.1667 138.833,68.8333 139,68.5C 139.708,69.3805 140.542,70.0472 141.5,70.5 Z"/></g>
<g><path style="opacity:0.992" fill="#11223c" d="M 27.5,75.5 C 30.2762,76.0891 32.6096,77.4224 34.5,79.5C 34.5,81.1667 34.5,82.8333 34.5,84.5C 33.7784,84.9175 33.2784,85.5842 33,86.5C 30.5728,85.433 30.0728,86.0997 31.5,88.5C 30.209,88.2627 29.209,88.596 28.5,89.5C 27.8333,89.1667 27.1667,88.8333 26.5,88.5C 26.451,85.7774 26.1177,83.1107 25.5,80.5C 23.7449,77.9102 24.4115,76.2435 27.5,75.5 Z"/></g>
<g><path style="opacity:1" fill="#c1d5e3" d="M 28.5,81.5 C 29.675,81.281 30.675,81.6143 31.5,82.5C 29.9483,83.7979 28.9483,83.4646 28.5,81.5 Z"/></g>
<g><path style="opacity:0.937" fill="#4d5663" d="M 34.5,84.5 C 36.6074,85.4682 38.9407,85.8016 41.5,85.5C 41.8333,85.5 42.1667,85.5 42.5,85.5C 41.0813,86.4511 39.4147,86.7845 37.5,86.5C 35.3146,86.7036 33.3146,87.3702 31.5,88.5C 30.0728,86.0997 30.5728,85.433 33,86.5C 33.2784,85.5842 33.7784,84.9175 34.5,84.5 Z"/></g>
<g><path style="opacity:0.043" fill="#d1dbda" d="M 182.5,92.5 C 181.167,92.5 179.833,92.5 178.5,92.5C 178.843,90.5168 178.176,89.1834 176.5,88.5C 175.334,83.503 175.334,78.503 176.5,73.5C 178.081,79.3936 179.081,85.3936 179.5,91.5C 180.791,91.2627 181.791,91.596 182.5,92.5 Z"/></g>
<g><path style="opacity:1" fill="#adbecd" d="M 107.5,83.5 C 109.912,83.6941 110.912,85.0274 110.5,87.5C 109.167,87.5 107.833,87.5 106.5,87.5C 106.433,86.0413 106.766,84.7079 107.5,83.5 Z"/></g>
<g><path style="opacity:1" fill="#b9c9e7" d="M 104.5,89.5 C 102.915,88.9976 102.415,87.9976 103,86.5C 104.039,87.2438 104.539,88.2438 104.5,89.5 Z"/></g>
<g><path style="opacity:0.997" fill="#dee7eb" d="M 9.5,67.5 C 9.36899,68.2389 9.53566,68.9056 10,69.5C 15.2455,66.6024 20.2455,66.9358 25,70.5C 25.4643,69.9056 25.631,69.2389 25.5,68.5C 27.153,68.6596 28.4863,69.3263 29.5,70.5C 28.5028,70.4701 27.8361,70.9701 27.5,72C 28.6579,73.2607 28.6579,74.4274 27.5,75.5C 24.4115,76.2435 23.7449,77.9102 25.5,80.5C 24.9759,82.3057 24.3092,83.9724 23.5,85.5C 23.4894,87.0174 22.8228,88.1841 21.5,89C 13.6516,90.9317 13.6516,91.5984 21.5,91C 23.0779,89.9055 24.7446,89.0722 26.5,88.5C 27.1667,88.8333 27.8333,89.1667 28.5,89.5C 29.1667,90.5 29.8333,91.5 30.5,92.5C 29.8333,93.5 29.1667,94.5 28.5,95.5C 28.6309,94.6236 28.2975,93.9569 27.5,93.5C 24.7141,96.2263 21.3807,97.893 17.5,98.5C 17.9569,99.2975 18.6236,99.6309 19.5,99.5C 19.5858,100.496 19.2524,101.329 18.5,102C 16.2884,102.789 14.2884,102.622 12.5,101.5C 13.8734,101.657 15.2068,101.49 16.5,101C 14.6447,100.578 12.8114,100.078 11,99.5C 10.2352,99.5699 9.7352,99.9033 9.5,100.5C 7.97508,96.635 5.64174,93.3017 2.5,90.5C 3.04309,90.44 3.37642,90.1067 3.5,89.5C 1.44601,85.63 0.946013,81.63 2,77.5C 0.922859,79.116 0.422859,80.9493 0.5,83C 0.725047,85.5281 1.05838,88.0281 1.5,90.5C 0.833333,90.1667 0.166667,89.8333 -0.5,89.5C -0.5,84.8333 -0.5,80.1667 -0.5,75.5C 0.675044,75.719 1.67504,75.3857 2.5,74.5C 4.61205,71.9398 6.94539,69.6064 9.5,67.5 Z"/></g>
<g><path style="opacity:1" fill="#85909a" d="M 13.5,76.5 C 19.6898,76.3575 23.0231,79.3575 23.5,85.5C 22.5416,85.9528 21.7083,86.6195 21,87.5C 20.2825,86.5494 19.4491,86.3828 18.5,87C 19.6956,87.6543 19.6956,88.1543 18.5,88.5C 11.3858,86.6852 9.7191,82.6852 13.5,76.5 Z"/></g>
<g><path style="opacity:1" fill="#586269" d="M 2.5,90.5 C 2.16667,90.5 1.83333,90.5 1.5,90.5C 1.05838,88.0281 0.725047,85.5281 0.5,83C 0.422859,80.9493 0.922859,79.116 2,77.5C 0.946013,81.63 1.44601,85.63 3.5,89.5C 3.37642,90.1067 3.04309,90.44 2.5,90.5 Z"/></g>
<g><path style="opacity:1" fill="#616d75" d="M 13.5,76.5 C 12.2058,77.2899 11.0391,78.2899 10,79.5C 9.6799,82.5399 9.6799,85.5399 10,88.5C 7.55041,85.6218 6.88374,82.2885 8,78.5C 10.2258,74.1392 13.7258,72.6392 18.5,74C 16.3474,74.0995 14.6808,74.9328 13.5,76.5 Z"/></g>
<g><path style="opacity:1" fill="#5d6870" d="M 6.5,76.5 C 8.61251,71.7748 12.2792,69.6081 17.5,70C 13.178,71.1572 9.51128,73.3238 6.5,76.5 Z"/></g>
<g><path style="opacity:1" fill="#8b9fbd" d="M 134.5,90.5 C 134.201,88.396 134.534,86.396 135.5,84.5C 136.949,86.9119 136.616,88.9119 134.5,90.5 Z"/></g>
<g><path style="opacity:0.976" fill="#61696f" d="M 6.5,76.5 C 3.70062,84.3996 6.03395,90.2329 13.5,94C 5.37634,91.5963 2.543,86.0963 5,77.5C 5.38258,76.944 5.88258,76.6107 6.5,76.5 Z"/></g>
<g><path style="opacity:1" fill="#6d7780" d="M 25.5,80.5 C 26.1177,83.1107 26.451,85.7774 26.5,88.5C 24.7446,89.0722 23.0779,89.9055 21.5,91C 13.6516,91.5984 13.6516,90.9317 21.5,89C 22.8228,88.1841 23.4894,87.0174 23.5,85.5C 24.3092,83.9724 24.9759,82.3057 25.5,80.5 Z"/></g>
<g><path style="opacity:1" fill="#a4b9d3" d="M 77.5,87.5 C 78.5964,89.1032 79.9297,90.6032 81.5,92C 78.6975,92.0242 77.3642,90.5242 77.5,87.5 Z"/></g>
<g><path style="opacity:1" fill="#b5c5d5" d="M 134.5,90.5 C 133.791,91.404 132.791,91.7373 131.5,91.5C 131.5,92.5 131.5,93.5 131.5,94.5C 130.127,94.6567 128.793,94.49 127.5,94C 123.474,91.9541 119.474,89.9541 115.5,88C 117.167,87.3333 118.833,87.3333 120.5,88C 121.459,89.4638 122.792,90.2972 124.5,90.5C 127.813,89.49 131.146,89.49 134.5,90.5 Z"/></g>
<g><path style="opacity:1" fill="#9eb1cc" d="M 96.5,84.5 C 97.1406,87.221 97.6406,89.8877 98,92.5C 95.6017,90.0223 95.1017,87.3557 96.5,84.5 Z"/></g>
<g><path style="opacity:0.953" fill="#a7b2b3" d="M 31.5,88.5 C 31.7828,89.2891 32.2828,89.9558 33,90.5C 36.3657,89.0048 39.5323,89.3382 42.5,91.5C 38.5546,92.4909 34.5546,92.8242 30.5,92.5C 29.8333,91.5 29.1667,90.5 28.5,89.5C 29.209,88.596 30.209,88.2627 31.5,88.5 Z"/></g>
<g><path style="opacity:0.451" fill="#b0bcc1" d="M 60.5,89.5 C 60.4088,91.6977 61.0755,92.0311 62.5,90.5C 61.8505,92.4352 61.5172,94.4352 61.5,96.5C 60.71,95.3915 60.21,94.0581 60,92.5C 59.5172,93.448 59.3505,94.448 59.5,95.5C 58.2056,93.32 58.5389,91.32 60.5,89.5 Z"/></g>
<g><path style="opacity:1" fill="#c4d1e1" d="M 118.5,98.5 C 117.778,98.0825 117.278,97.4158 117,96.5C 115.333,97.8333 113.667,97.8333 112,96.5C 110.824,98.1957 109.657,99.8624 108.5,101.5C 105.141,103.487 101.475,103.987 97.5,103C 93.593,99.1174 93.9264,98.784 98.5,102C 105.865,102.657 110.531,99.3237 112.5,92C 114.579,91.1923 116.579,91.359 118.5,92.5C 117.752,94.4159 117.752,96.4159 118.5,98.5 Z"/></g>
<g><path style="opacity:0.953" fill="#6b747a" d="M 8.5,96.5 C 8.55999,95.9569 8.89333,95.6236 9.5,95.5C 11.2251,96.0149 12.8917,96.6816 14.5,97.5C 12.3835,98.4693 10.3835,98.136 8.5,96.5 Z"/></g>
<g><path style="opacity:0.896" fill="#fbfcfc" d="M 67.5,94.5 C 68.1577,95.3984 68.8243,96.3984 69.5,97.5C 71.4506,96.7439 73.2839,96.4106 75,96.5C 74.8019,100.075 73.4685,100.742 71,98.5C 71.4337,101.289 73.1003,103.289 76,104.5C 76.49,105.793 76.6567,107.127 76.5,108.5C 75.4265,109.251 75.2599,110.251 76,111.5C 78.0344,112.862 80.2011,113.862 82.5,114.5C 85.5525,115.777 88.3859,117.444 91,119.5C 93.3071,117.546 95.3071,117.546 97,119.5C 98.8261,118.99 98.9928,118.156 97.5,117C 99.4727,116.505 101.473,116.338 103.5,116.5C 103.354,118.942 104.187,119.609 106,118.5C 105.981,116.893 105.815,115.226 105.5,113.5C 108.976,112.074 112.643,111.074 116.5,110.5C 116.5,112.5 116.5,114.5 116.5,116.5C 116.565,116.938 116.399,117.272 116,117.5C 115.213,116.289 114.546,115.289 114,114.5C 112.584,115.573 111.25,115.573 110,114.5C 109.355,115.646 108.522,116.646 107.5,117.5C 110.159,117.567 111.826,119.234 112.5,122.5C 114.544,123.031 116.211,124.198 117.5,126C 116.027,126.71 115.36,127.876 115.5,129.5C 114.221,138.72 118.221,143.553 127.5,144C 130.817,144.498 134.15,144.665 137.5,144.5C 137.5,145.833 137.5,147.167 137.5,148.5C 136.732,147.737 136.232,146.737 136,145.5C 135.343,150.551 136.343,155.217 139,159.5C 146.297,166.772 152.63,174.772 158,183.5C 159.777,185.79 161.944,187.457 164.5,188.5C 164.938,188.435 165.272,188.601 165.5,189C 164.234,189.309 163.067,189.809 162,190.5C 137.559,189.242 113.059,189.242 88.5,190.5C 88.2627,189.209 88.596,188.209 89.5,187.5C 89.369,188.239 89.5357,188.906 90,189.5C 91.3717,188.09 92.205,186.423 92.5,184.5C 93.1174,184.389 93.6174,184.056 94,183.5C 94.6667,181.5 94.6667,179.5 94,177.5C 90.6744,170.201 87.341,162.868 84,155.5C 83.1841,154.177 82.0174,153.511 80.5,153.5C 76.3656,152.515 72.0323,152.182 67.5,152.5C 65.1016,152.741 63.1016,152.074 61.5,150.5C 65.5207,151.505 69.5207,151.505 73.5,150.5C 69.9181,148.88 66.9181,146.547 64.5,143.5C 63.4682,137.693 61.9682,132.026 60,126.5C 59.6232,127.942 58.7899,128.942 57.5,129.5C 58.6861,127.126 58.6861,124.792 57.5,122.5C 58.4959,122.586 59.3292,122.252 60,121.5C 60.088,116.325 60.9213,111.325 62.5,106.5C 64.7089,105.104 66.2089,103.104 67,100.5C 67.4955,98.5273 67.6621,96.5273 67.5,94.5 Z"/></g>
<g><path style="opacity:1" fill="#c1cbd2" d="M 176.5,88.5 C 176.79,93.5072 174.624,95.5072 170,94.5C 169.383,95.4491 169.549,96.2825 170.5,97C 169.906,97.4643 169.239,97.631 168.5,97.5C 168.217,96.7109 167.717,96.0442 167,95.5C 165.301,96.4061 163.467,96.7394 161.5,96.5C 163.386,95.9348 165.053,94.9348 166.5,93.5C 169.157,92.7408 171.823,92.0742 174.5,91.5C 175.176,90.3984 175.842,89.3984 176.5,88.5 Z"/></g>
<g><path style="opacity:1" fill="#a6b8ce" d="M 104.5,89.5 C 107.327,90.9005 109.994,90.5672 112.5,88.5C 113.696,88.8457 113.696,89.3457 112.5,90C 104.812,93.9415 97.1452,97.7749 89.5,101.5C 88.6522,100.375 87.6522,100.375 86.5,101.5C 83.855,99.6896 80.855,98.6896 77.5,98.5C 77.0618,98.5654 76.7284,98.3988 76.5,98C 77.4158,97.7216 78.0825,97.2216 78.5,96.5C 80.5932,97.0447 82.5932,97.878 84.5,99C 88.4845,100.115 91.8178,99.1154 94.5,96C 92.2689,94.7227 90.6022,92.8894 89.5,90.5C 90.3202,88.8888 91.6536,88.2222 93.5,88.5C 93.7135,90.1439 93.3802,91.6439 92.5,93C 93.7741,94.2208 95.2741,95.0541 97,95.5C 99.9947,94.724 102.828,93.5574 105.5,92C 104.748,91.3292 104.414,90.4959 104.5,89.5 Z"/></g>
<g><path style="opacity:0.937" fill="#667279" d="M 168.5,97.5 C 166.167,97.5 163.833,97.5 161.5,97.5C 161.5,97.1667 161.5,96.8333 161.5,96.5C 163.467,96.7394 165.301,96.4061 167,95.5C 167.717,96.0442 168.217,96.7109 168.5,97.5 Z"/></g>
<g><path style="opacity:0.8" fill="#9ea9b1" d="M 182.5,93.5 C 183.923,97.2753 185.756,97.2753 188,93.5C 188.399,93.7284 188.565,94.0618 188.5,94.5C 187.5,96.5 186.5,98.5 185.5,100.5C 184.833,101.167 184.167,101.833 183.5,102.5C 182.956,99.3004 181.29,96.9671 178.5,95.5C 178.389,94.8826 178.056,94.3826 177.5,94C 179.32,94.4759 180.987,94.3093 182.5,93.5 Z"/></g>
<g><path style="opacity:0.984" fill="#6e7a81" d="M 28.5,95.5 C 25.9122,97.6246 22.9122,98.9579 19.5,99.5C 18.6236,99.6309 17.9569,99.2975 17.5,98.5C 21.3807,97.893 24.7141,96.2263 27.5,93.5C 28.2975,93.9569 28.6309,94.6236 28.5,95.5 Z"/></g>
<g><path style="opacity:0.71" fill="#b7bfc5" d="M 148.5,84.5 C 149.114,88.1352 149.448,91.8019 149.5,95.5C 151.954,95.6795 154.121,95.0128 156,93.5C 156.765,93.5699 157.265,93.9033 157.5,94.5C 155.259,95.2998 154.259,96.9664 154.5,99.5C 152.883,98.962 151.216,98.6287 149.5,98.5C 149.904,103.783 149.238,108.783 147.5,113.5C 147.768,111.901 147.434,110.568 146.5,109.5C 146.232,107.901 146.566,106.568 147.5,105.5C 148.724,105.121 149.057,102.454 148.5,97.5C 155.167,97.1667 155.167,96.8333 148.5,96.5C 148.663,94.1432 148.497,91.8098 148,89.5C 147.517,90.448 147.351,91.448 147.5,92.5C 146.566,91.4324 146.232,90.099 146.5,88.5C 147.167,87.1667 147.833,85.8333 148.5,84.5 Z"/></g>
<g><path style="opacity:1" fill="#546370" d="M 157.5,94.5 C 158.038,96.1172 158.371,97.7839 158.5,99.5C 157.298,100.405 155.964,100.405 154.5,99.5C 154.259,96.9664 155.259,95.2998 157.5,94.5 Z"/></g>
<g><path style="opacity:0.027" fill="#cdd2d5" d="M 157.5,94.5 C 158.605,95.6005 159.938,96.2671 161.5,96.5C 161.5,96.8333 161.5,97.1667 161.5,97.5C 160.5,98.1667 159.5,98.8333 158.5,99.5C 158.371,97.7839 158.038,96.1172 157.5,94.5 Z"/></g>
<g><path style="opacity:0.992" fill="#eaf4fa" d="M 174.5,97.5 C 173.5,97.8333 172.833,98.5 172.5,99.5C 170.868,102.209 170.368,101.875 171,98.5C 172.263,96.2031 174.097,95.3698 176.5,96C 175.584,96.2784 174.918,96.7784 174.5,97.5 Z"/></g>
<g><path style="opacity:0.071" fill="#c2d3d7" d="M 161.5,97.5 C 163.833,97.5 166.167,97.5 168.5,97.5C 169.377,100.063 168.377,101.73 165.5,102.5C 165.953,101.542 166.619,100.708 167.5,100C 165.498,98.9808 163.498,98.1475 161.5,97.5 Z"/></g>
<g><path style="opacity:1" fill="#263241" d="M 178.5,95.5 C 181.29,96.9671 182.956,99.3004 183.5,102.5C 182.305,108.454 178.972,109.954 173.5,107C 172.748,106.329 172.414,105.496 172.5,104.5C 172.5,102.833 172.5,101.167 172.5,99.5C 172.833,98.5 173.5,97.8333 174.5,97.5C 176.199,97.4729 177.533,96.8062 178.5,95.5 Z"/></g>
<g><path style="opacity:1" fill="#1a2534" d="M 77.5,98.5 C 80.855,98.6896 83.855,99.6896 86.5,101.5C 82.919,101.862 79.919,100.862 77.5,98.5 Z"/></g>
<g><path style="opacity:1" fill="#8092af" d="M 104.5,95.5 C 105.422,97.6718 104.588,99.3385 102,100.5C 102.464,98.8066 103.297,97.1399 104.5,95.5 Z"/></g>
<g><path style="opacity:1" fill="#12233d" d="M 118.5,98.5 C 119.234,99.7079 119.567,101.041 119.5,102.5C 115.615,104.016 111.948,103.682 108.5,101.5C 109.657,99.8624 110.824,98.1957 112,96.5C 113.667,97.8333 115.333,97.8333 117,96.5C 117.278,97.4158 117.778,98.0825 118.5,98.5 Z"/></g>
<g><path style="opacity:1" fill="#99aac9" d="M 118.5,98.5 C 121.513,99.6478 124.513,99.8145 127.5,99C 124.963,100.457 122.296,101.624 119.5,102.5C 119.567,101.041 119.234,99.7079 118.5,98.5 Z"/></g>
<g><path style="opacity:1" fill="#3d464d" d="M 147.5,105.5 C 147.5,101.167 147.5,96.8333 147.5,92.5C 147.351,91.448 147.517,90.448 148,89.5C 148.497,91.8098 148.663,94.1432 148.5,96.5C 155.167,96.8333 155.167,97.1667 148.5,97.5C 149.057,102.454 148.724,105.121 147.5,105.5 Z"/></g>
<g><path style="opacity:0.773" fill="#6e787c" d="M 12.5,101.5 C 11.209,101.737 10.209,101.404 9.5,100.5C 9.7352,99.9033 10.2352,99.5699 11,99.5C 12.8114,100.078 14.6447,100.578 16.5,101C 15.2068,101.49 13.8734,101.657 12.5,101.5 Z"/></g>
<g><path style="opacity:1" fill="#788cab" d="M 129.5,98.5 C 131.842,98.7748 131.842,99.6081 129.5,101C 130.451,101.718 130.617,102.551 130,103.5C 129.167,102.667 128.333,101.833 127.5,101C 128.381,100.292 129.047,99.4584 129.5,98.5 Z"/></g>
<g><path style="opacity:0.996" fill="#68727b" d="M 176.5,88.5 C 178.176,89.1834 178.843,90.5168 178.5,92.5C 179.833,92.5 181.167,92.5 182.5,92.5C 182.5,92.8333 182.5,93.1667 182.5,93.5C 180.987,94.3093 179.32,94.4759 177.5,94C 178.056,94.3826 178.389,94.8826 178.5,95.5C 177.533,96.8062 176.199,97.4729 174.5,97.5C 174.918,96.7784 175.584,96.2784 176.5,96C 174.097,95.3698 172.263,96.2031 171,98.5C 170.368,101.875 170.868,102.209 172.5,99.5C 172.5,101.167 172.5,102.833 172.5,104.5C 167.403,102.405 166.07,103.405 168.5,107.5C 168.5,107.833 168.5,108.167 168.5,108.5C 168.167,108.5 167.833,108.5 167.5,108.5C 165.352,108.611 165.019,107.944 166.5,106.5C 166.145,105.478 165.478,104.811 164.5,104.5C 164.328,103.508 164.662,102.842 165.5,102.5C 168.377,101.73 169.377,100.063 168.5,97.5C 169.239,97.631 169.906,97.4643 170.5,97C 169.549,96.2825 169.383,95.4491 170,94.5C 174.624,95.5072 176.79,93.5072 176.5,88.5 Z"/></g>
<g><path style="opacity:1" fill="#cad8e5" d="M 175.5,98.5 C 180.942,98.8857 182.275,101.386 179.5,106C 173.403,106.147 172.07,103.647 175.5,98.5 Z"/></g>
<g><path style="opacity:1" fill="#1c2a3c" d="M 175.5,100.5 C 176.833,100.5 178.167,100.5 179.5,100.5C 179.5,101.833 179.5,103.167 179.5,104.5C 178.167,104.5 176.833,104.5 175.5,104.5C 175.5,103.167 175.5,101.833 175.5,100.5 Z"/></g>
<g><path style="opacity:0.141" fill="#d9e4e7" d="M 188.5,94.5 C 190.022,95.1909 191.022,96.3576 191.5,98C 190.602,100.099 190.602,102.266 191.5,104.5C 191.812,107.708 190.645,108.708 188,107.5C 187.802,109.382 187.302,111.048 186.5,112.5C 186.643,110.738 186.309,109.071 185.5,107.5C 187.389,106.396 189.055,105.063 190.5,103.5C 188.681,102.68 187.014,101.68 185.5,100.5C 186.5,98.5 187.5,96.5 188.5,94.5 Z"/></g>
<g><path style="opacity:0.976" fill="#b1bbbe" d="M 51.5,107.5 C 50.1667,107.5 48.8333,107.5 47.5,107.5C 46.8628,103.732 44.8628,100.899 41.5,99C 43.4783,96.9851 45.3116,97.1517 47,99.5C 48.599,102.152 50.099,104.818 51.5,107.5 Z"/></g>
<g><path style="opacity:0.22" fill="#dfe7e9" d="M 61.5,96.5 C 64.9758,98.8591 65.3092,101.526 62.5,104.5C 62.6775,103.305 63.0109,102.138 63.5,101C 62.5862,99.5936 61.9195,98.0936 61.5,96.5 Z"/></g>
<g><path style="opacity:1" fill="#9ba9c7" d="M 124.5,102.5 C 125.239,102.369 125.906,102.536 126.5,103C 125.534,104.678 124.201,105.345 122.5,105C 123.381,104.292 124.047,103.458 124.5,102.5 Z"/></g>
<g><path style="opacity:1" fill="#8c9fbd" d="M 108.5,101.5 C 111.948,103.682 115.615,104.016 119.5,102.5C 116.692,104.479 113.692,106.312 110.5,108C 105.348,110.122 100.348,109.789 95.5,107C 98.5045,105.43 101.505,105.597 104.5,107.5C 107.057,107.558 109.39,106.891 111.5,105.5C 110.174,104.358 109.174,103.024 108.5,101.5 Z"/></g>
<g><path style="opacity:1" fill="#98a9c5" d="M 141.5,102.5 C 141.5,102.833 141.5,103.167 141.5,103.5C 140.146,106.04 138.146,107.54 135.5,108C 138.604,105.418 139.437,102.251 138,98.5C 138.66,100.324 139.827,101.657 141.5,102.5 Z"/></g>
<g><path style="opacity:0.024" fill="#d6d9dc" d="M 164.5,104.5 C 165.478,104.811 166.145,105.478 166.5,106.5C 165.019,107.944 165.352,108.611 167.5,108.5C 166.791,109.404 165.791,109.737 164.5,109.5C 164.5,107.833 164.5,106.167 164.5,104.5 Z"/></g>
<g><path style="opacity:0.58" fill="#788086" d="M 61.5,96.5 C 61.9195,98.0936 62.5862,99.5936 63.5,101C 63.0109,102.138 62.6775,103.305 62.5,104.5C 62.5,105.167 62.5,105.833 62.5,106.5C 59.0342,110.074 56.0342,114.074 53.5,118.5C 54.8665,119.84 56.1999,121.173 57.5,122.5C 58.6861,124.792 58.6861,127.126 57.5,129.5C 58.4756,130.815 59.4756,132.148 60.5,133.5C 60.0688,134.293 59.7355,135.127 59.5,136C 62.0594,139.595 62.0594,143.262 59.5,147C 59.9783,148.303 60.645,149.469 61.5,150.5C 63.1016,152.074 65.1016,152.741 67.5,152.5C 66.4324,153.434 65.099,153.768 63.5,153.5C 61.321,153.16 59.4877,152.16 58,150.5C 57.3615,147.464 57.5282,144.464 58.5,141.5C 57.5401,139.523 56.5401,137.523 55.5,135.5C 55.4205,132.215 55.7538,128.882 56.5,125.5C 53.961,123.58 51.961,121.246 50.5,118.5C 51.4419,116.121 52.7753,113.954 54.5,112C 52.6547,110.872 50.6547,110.372 48.5,110.5C 48.1667,109.833 47.8333,109.167 47.5,108.5C 47.5,108.167 47.5,107.833 47.5,107.5C 48.8333,107.5 50.1667,107.5 51.5,107.5C 52.7942,108.29 53.9609,109.29 55,110.5C 57.5574,107.608 59.724,104.441 61.5,101C 60.1387,99.4157 59.472,97.5824 59.5,95.5C 59.3505,94.448 59.5172,93.448 60,92.5C 60.21,94.0581 60.71,95.3915 61.5,96.5 Z"/></g>
<g><path style="opacity:0.976" fill="#8a9bb3" d="M 138.5,110.5 C 137.833,111.167 137.167,111.833 136.5,112.5C 135.85,112.196 135.183,111.863 134.5,111.5C 134.167,112.167 133.833,112.833 133.5,113.5C 130.539,112.817 130.205,111.984 132.5,111C 129.922,109.335 127.255,108.335 124.5,108C 125.328,108.915 126.328,109.581 127.5,110C 126.5,110.333 125.5,110.667 124.5,111C 126.491,111.374 128.158,112.207 129.5,113.5C 127.436,113.313 125.436,112.813 123.5,112C 122.167,111.333 122.167,110.667 123.5,110C 121.153,109.666 118.819,109.833 116.5,110.5C 118.273,109.108 120.273,107.941 122.5,107C 127.572,107.092 131.739,105.258 135,101.5C 134.394,104.46 132.561,106.627 129.5,108C 132.206,109.908 135.206,110.741 138.5,110.5 Z"/></g>
<g><path style="opacity:0.62" fill="#c5cfd0" d="M 47.5,108.5 C 47.8333,109.167 48.1667,109.833 48.5,110.5C 44.7881,113.684 40.4548,115.184 35.5,115C 39.3944,112.554 43.3944,110.388 47.5,108.5 Z"/></g>
<g><path style="opacity:1" fill="#29374e" d="M 136.5,112.5 C 137.598,113.601 137.765,114.934 137,116.5C 136.329,117.252 135.496,117.586 134.5,117.5C 133.871,115.003 132.204,113.67 129.5,113.5C 128.158,112.207 126.491,111.374 124.5,111C 125.5,110.667 126.5,110.333 127.5,110C 126.328,109.581 125.328,108.915 124.5,108C 127.255,108.335 129.922,109.335 132.5,111C 130.205,111.984 130.539,112.817 133.5,113.5C 133.833,112.833 134.167,112.167 134.5,111.5C 135.183,111.863 135.85,112.196 136.5,112.5 Z"/></g>
<g><path style="opacity:0.871" fill="#d5dce1" d="M 185.5,100.5 C 184.576,104.22 184.409,107.887 185,111.5C 181.645,111.752 179.312,113.419 178,116.5C 177.282,115.549 176.449,115.383 175.5,116C 176.905,117.269 178.571,117.769 180.5,117.5C 177.698,133.165 175.864,133.165 175,117.5C 173.558,115.609 172.391,113.609 171.5,111.5C 169.983,111.511 168.816,112.177 168,113.5C 167.5,113 167,112.5 166.5,112C 167.823,111.184 168.489,110.017 168.5,108.5C 171.167,108.167 171.167,107.833 168.5,107.5C 166.07,103.405 167.403,102.405 172.5,104.5C 172.414,105.496 172.748,106.329 173.5,107C 178.972,109.954 182.305,108.454 183.5,102.5C 184.167,101.833 184.833,101.167 185.5,100.5 Z"/></g>
<g><path style="opacity:0.976" fill="#525c67" d="M 171.5,111.5 C 172.703,108.749 174.369,108.249 176.5,110C 175.809,111.067 175.309,112.234 175,113.5C 174.29,112.027 173.124,111.36 171.5,111.5 Z"/></g>
<g><path style="opacity:1" fill="#8e9399" d="M 76.5,108.5 C 80.7985,108.347 82.7985,110.347 82.5,114.5C 80.2011,113.862 78.0344,112.862 76,111.5C 75.2599,110.251 75.4265,109.251 76.5,108.5 Z"/></g>
<g><path style="opacity:1" fill="#e6eaec" d="M 72.5,83.5 C 70.9518,89.7181 72.9518,94.0514 78.5,96.5C 78.0825,97.2216 77.4158,97.7216 76.5,98C 76.7284,98.3988 77.0618,98.5654 77.5,98.5C 79.919,100.862 82.919,101.862 86.5,101.5C 87.6522,100.375 88.6522,100.375 89.5,101.5C 89.3505,102.552 89.5172,103.552 90,104.5C 91.0495,103.483 92.2161,103.316 93.5,104C 91.7774,104.523 90.444,105.523 89.5,107C 93.1546,113.328 98.4879,115.495 105.5,113.5C 105.815,115.226 105.981,116.893 106,118.5C 104.187,119.609 103.354,118.942 103.5,116.5C 101.473,116.338 99.4727,116.505 97.5,117C 98.9928,118.156 98.8261,118.99 97,119.5C 95.3071,117.546 93.3071,117.546 91,119.5C 88.3859,117.444 85.5525,115.777 82.5,114.5C 82.7985,110.347 80.7985,108.347 76.5,108.5C 76.6567,107.127 76.49,105.793 76,104.5C 73.1003,103.289 71.4337,101.289 71,98.5C 73.4685,100.742 74.8019,100.075 75,96.5C 73.2839,96.4106 71.4506,96.7439 69.5,97.5C 68.8243,96.3984 68.1577,95.3984 67.5,94.5C 66.9159,91.5274 66.2492,88.5274 65.5,85.5C 64.8182,86.2427 64.1515,86.9094 63.5,87.5C 63.33,86.1779 63.6634,85.0113 64.5,84C 67.146,83.5026 69.8127,83.3359 72.5,83.5 Z"/></g>
<g><path style="opacity:1" fill="#7c8ca5" d="M 129.5,113.5 C 132.204,113.67 133.871,115.003 134.5,117.5C 132.611,116.396 130.945,115.063 129.5,113.5 Z"/></g>
<g><path style="opacity:0.992" fill="#475157" d="M 146.5,109.5 C 147.434,110.568 147.768,111.901 147.5,113.5C 147.5,113.833 147.5,114.167 147.5,114.5C 146.778,114.918 146.278,115.584 146,116.5C 145.666,114.153 145.833,111.819 146.5,109.5 Z"/></g>
<g><path style="opacity:1" fill="#7e858c" d="M 185.5,100.5 C 187.014,101.68 188.681,102.68 190.5,103.5C 189.055,105.063 187.389,106.396 185.5,107.5C 186.309,109.071 186.643,110.738 186.5,112.5C 185.109,114.89 183.109,116.557 180.5,117.5C 178.571,117.769 176.905,117.269 175.5,116C 176.449,115.383 177.282,115.549 178,116.5C 179.312,113.419 181.645,111.752 185,111.5C 184.409,107.887 184.576,104.22 185.5,100.5 Z"/></g>
<g><path style="opacity:1" fill="#56575d" d="M 75.5,115.5 C 78.6741,115.952 79.0075,116.952 76.5,118.5C 74.4807,117.867 74.1474,116.867 75.5,115.5 Z"/></g>
<g><path style="opacity:0.803" fill="#eaeff2" d="M 146.5,88.5 C 146.232,90.099 146.566,91.4324 147.5,92.5C 147.5,96.8333 147.5,101.167 147.5,105.5C 146.566,106.568 146.232,107.901 146.5,109.5C 145.833,111.819 145.666,114.153 146,116.5C 146.278,115.584 146.778,114.918 147.5,114.5C 147.598,116.553 146.931,118.22 145.5,119.5C 145.631,118.761 145.464,118.094 145,117.5C 144,119.5 143,121.5 142,123.5C 140.989,124.337 139.822,124.67 138.5,124.5C 138.804,125.15 139.137,125.817 139.5,126.5C 137.781,128.544 136.114,130.544 134.5,132.5C 133.794,131.443 133.461,131.776 133.5,133.5C 132.13,133.856 131.13,134.69 130.5,136C 130.938,137.92 131.605,139.754 132.5,141.5C 133.176,140.398 133.842,139.398 134.5,138.5C 134.5,139.833 134.5,141.167 134.5,142.5C 129.284,142.866 124.284,142.032 119.5,140C 117.392,137.984 117.058,135.817 118.5,133.5C 120.315,132.37 122.315,131.704 124.5,131.5C 124.721,129.336 125.721,127.67 127.5,126.5C 126.559,124.534 125.559,122.534 124.5,120.5C 126.343,120.245 128.343,120.078 130.5,120C 129.29,118.961 128.29,117.794 127.5,116.5C 129.394,117.048 131.06,118.048 132.5,119.5C 133.522,119.145 134.189,118.478 134.5,117.5C 135.496,117.586 136.329,117.252 137,116.5C 137.765,114.934 137.598,113.601 136.5,112.5C 137.167,111.833 137.833,111.167 138.5,110.5C 141.092,108.964 142.092,106.631 141.5,103.5C 141.5,103.167 141.5,102.833 141.5,102.5C 141.982,101.584 142.315,100.584 142.5,99.5C 140.637,96.1788 139.97,92.8455 140.5,89.5C 140.215,87.712 140.548,86.0453 141.5,84.5C 142.732,85.1445 144.065,85.3112 145.5,85C 146.337,86.0113 146.67,87.1779 146.5,88.5 Z"/></g>
<g><path style="opacity:0.969" fill="#757f88" d="M 142.5,88.5 C 142.56,87.9569 142.893,87.6236 143.5,87.5C 145.547,93.0621 145.88,98.7288 144.5,104.5C 143.833,99.0147 143.167,93.6813 142.5,88.5 Z"/></g>
<g><path style="opacity:0.969" fill="#a9aaaf" d="M 138.5,124.5 C 137.542,124.953 136.708,125.619 136,126.5C 135.383,125.551 135.549,124.718 136.5,124C 135.833,123.333 135.167,122.667 134.5,122C 135.833,122 137.167,122 138.5,122C 139.147,120.391 139.98,118.891 141,117.5C 141.317,120.207 140.484,122.54 138.5,124.5 Z"/></g>
<g><path style="opacity:1" fill="#15243e" d="M 129.5,113.5 C 130.945,115.063 132.611,116.396 134.5,117.5C 134.189,118.478 133.522,119.145 132.5,119.5C 131.06,118.048 129.394,117.048 127.5,116.5C 128.29,117.794 129.29,118.961 130.5,120C 128.343,120.078 126.343,120.245 124.5,120.5C 125.559,122.534 126.559,124.534 127.5,126.5C 125.5,126.5 123.5,126.5 121.5,126.5C 120.873,122.58 119.207,119.247 116.5,116.5C 116.5,114.5 116.5,112.5 116.5,110.5C 118.819,109.833 121.153,109.666 123.5,110C 122.167,110.667 122.167,111.333 123.5,112C 125.436,112.813 127.436,113.313 129.5,113.5 Z"/></g>
<g><path style="opacity:1" fill="#7f91af" d="M 127.5,116.5 C 125.407,115.955 123.407,115.122 121.5,114C 124.082,113.458 126.082,114.292 127.5,116.5 Z"/></g>
<g><path style="opacity:0.994" fill="#bac6cb" d="M 144.5,122.5 C 150.251,122.614 156.251,122.614 162.5,122.5C 162.5,122.833 162.5,123.167 162.5,123.5C 156.222,124.79 149.888,124.79 143.5,123.5C 143.624,122.893 143.957,122.56 144.5,122.5 Z"/></g>
<g><path style="opacity:1" fill="#202d3f" d="M 162.5,122.5 C 165.849,122.873 166.849,124.54 165.5,127.5C 164.833,128.833 164.167,128.833 163.5,127.5C 162.766,126.292 162.433,124.959 162.5,123.5C 162.5,123.167 162.5,122.833 162.5,122.5 Z"/></g>
<g><path style="opacity:1" fill="#6a6c70" d="M 112.5,122.5 C 111.438,124.757 109.772,125.923 107.5,126C 108.789,124.198 110.456,123.031 112.5,122.5 Z"/></g>
<g><path style="opacity:1" fill="#6d7986" d="M 165.5,127.5 C 166.849,124.54 165.849,122.873 162.5,122.5C 162.811,121.522 163.478,120.855 164.5,120.5C 166.179,121.782 168.013,122.782 170,123.5C 169.872,126.031 168.372,127.365 165.5,127.5 Z"/></g>
<g><path style="opacity:0.992" fill="#d2d8db" d="M 116.5,116.5 C 119.207,119.247 120.873,122.58 121.5,126.5C 123.5,126.5 125.5,126.5 127.5,126.5C 125.721,127.67 124.721,129.336 124.5,131.5C 122.315,131.704 120.315,132.37 118.5,133.5C 120.268,129.708 119.268,128.374 115.5,129.5C 115.36,127.876 116.027,126.71 117.5,126C 116.211,124.198 114.544,123.031 112.5,122.5C 111.826,119.234 110.159,117.567 107.5,117.5C 108.522,116.646 109.355,115.646 110,114.5C 111.25,115.573 112.584,115.573 114,114.5C 114.546,115.289 115.213,116.289 116,117.5C 116.399,117.272 116.565,116.938 116.5,116.5 Z"/></g>
<g><path style="opacity:0.969" fill="#d2d9dd" d="M 143.5,125.5 C 143.389,126.117 143.056,126.617 142.5,127C 148.79,130.956 154.124,135.956 158.5,142C 159.624,142.249 160.624,142.749 161.5,143.5C 157.476,144.584 154.476,146.917 152.5,150.5C 153.234,146.56 151.901,145.227 148.5,146.5C 148.5,145.833 148.5,145.167 148.5,144.5C 149.757,143.377 149.424,142.711 147.5,142.5C 150.133,141.34 150.966,139.34 150,136.5C 147.253,133.246 144.086,130.58 140.5,128.5C 140.856,126.81 141.856,125.81 143.5,125.5 Z"/></g>
<g><path style="opacity:0.308" fill="#666e73" d="M 145.5,119.5 C 145.443,120.609 145.11,121.609 144.5,122.5C 143.957,122.56 143.624,122.893 143.5,123.5C 149.888,124.79 156.222,124.79 162.5,123.5C 162.433,124.959 162.766,126.292 163.5,127.5C 157.012,125.676 150.346,125.009 143.5,125.5C 141.856,125.81 140.856,126.81 140.5,128.5C 137.012,132.141 135.845,136.474 137,141.5C 140.394,142.456 143.894,142.789 147.5,142.5C 149.424,142.711 149.757,143.377 148.5,144.5C 144.833,144.5 141.167,144.5 137.5,144.5C 134.15,144.665 130.817,144.498 127.5,144C 118.221,143.553 114.221,138.72 115.5,129.5C 119.268,128.374 120.268,129.708 118.5,133.5C 117.058,135.817 117.392,137.984 119.5,140C 124.284,142.032 129.284,142.866 134.5,142.5C 134.5,141.167 134.5,139.833 134.5,138.5C 133.962,136.883 133.629,135.216 133.5,133.5C 134.167,133.5 134.5,133.167 134.5,132.5C 136.114,130.544 137.781,128.544 139.5,126.5C 139.137,125.817 138.804,125.15 138.5,124.5C 139.822,124.67 140.989,124.337 142,123.5C 143,121.5 144,119.5 145,117.5C 145.464,118.094 145.631,118.761 145.5,119.5 Z M 133.5,133.5 C 133.629,135.216 133.962,136.883 134.5,138.5C 133.842,139.398 133.176,140.398 132.5,141.5C 131.605,139.754 130.938,137.92 130.5,136C 131.13,134.69 132.13,133.856 133.5,133.5 Z"/></g>
<g><path style="opacity:0.992" fill="#7d838d" d="M 151.5,140.5 C 152.452,141.452 153.452,142.452 154.5,143.5C 153.675,144.386 152.675,144.719 151.5,144.5C 151.5,143.167 151.5,141.833 151.5,140.5 Z"/></g>
<g><path style="opacity:0.992" fill="#575e65" d="M 152.5,150.5 C 152.167,150.5 151.833,150.5 151.5,150.5C 149.088,150.306 148.088,148.973 148.5,146.5C 151.901,145.227 153.234,146.56 152.5,150.5 Z"/></g>
<g><path style="opacity:0.737" fill="#c6cdd0" d="M 148.5,146.5 C 148.088,148.973 149.088,150.306 151.5,150.5C 150.458,151.791 149.292,151.791 148,150.5C 147.235,148.934 147.402,147.601 148.5,146.5 Z"/></g>
<g><path style="opacity:0.976" fill="#b8bdc3" d="M 67.5,152.5 C 72.0323,152.182 76.3656,152.515 80.5,153.5C 76.2984,153.183 72.2984,153.517 68.5,154.5C 66.5853,154.784 64.9187,154.451 63.5,153.5C 65.099,153.768 66.4324,153.434 67.5,152.5 Z"/></g>
<g><path style="opacity:1" fill="#747c81" d="M 137.5,148.5 C 138.022,151.568 138.855,154.568 140,157.5C 149.166,167.152 157.333,177.486 164.5,188.5C 161.944,187.457 159.777,185.79 158,183.5C 152.63,174.772 146.297,166.772 139,159.5C 136.343,155.217 135.343,150.551 136,145.5C 136.232,146.737 136.732,147.737 137.5,148.5 Z"/></g>
<g><path style="opacity:1" fill="#60696e" d="M 68.5,154.5 C 72.2984,153.517 76.2984,153.183 80.5,153.5C 82.0174,153.511 83.1841,154.177 84,155.5C 87.341,162.868 90.6744,170.201 94,177.5C 94.6667,179.5 94.6667,181.5 94,183.5C 93.6174,184.056 93.1174,184.389 92.5,184.5C 92.5,183.5 92.5,182.5 92.5,181.5C 89.5705,172.969 86.0705,164.635 82,156.5C 81.2496,155.874 80.4162,155.374 79.5,155C 75.8484,154.501 72.1817,154.335 68.5,154.5 Z"/></g>
<g><path style="opacity:0.471" fill="#dee5e7" d="M 92.5,181.5 C 92.5,182.5 92.5,183.5 92.5,184.5C 91.8333,184.833 91.1667,185.167 90.5,185.5C 90.6596,183.847 91.3263,182.514 92.5,181.5 Z"/></g>
<g><path style="opacity:0.984" fill="#7d8587" d="M 92.5,184.5 C 92.205,186.423 91.3717,188.09 90,189.5C 89.5357,188.906 89.369,188.239 89.5,187.5C 89.3284,186.508 89.6618,185.842 90.5,185.5C 91.1667,185.167 91.8333,184.833 92.5,184.5 Z"/></g>
</svg>
